<?xml version="1.0" encoding="utf-8"?>
<!-- Generator: Adobe Illustrator 25.0.1, SVG Export Plug-In . SVG Version: 6.00 Build 0)  -->
<svg version="1.1" id="Layer_1" xmlns="http://www.w3.org/2000/svg" xmlns:xlink="http://www.w3.org/1999/xlink" x="0px" y="0px"
	 viewBox="0 0 100 100" style="enable-background:new 0 0 100 100;" xml:space="preserve">
<style type="text/css">
	.st0{fill:none;stroke:#109CD8;stroke-width:1.253;stroke-miterlimit:10;}
</style>
<g id="Group_14" transform="translate(-328.183 -61.548)">
	<path id="Path_58" class="st0" d="M340.26,124.22c0.04-5.25,0.5-10.49,1.39-15.66c0.45-2.96,1.15-5.87,2.08-8.71
		c6.53-18.56,26.87-28.31,45.43-21.78c14.82,5.22,24.47,19.52,23.76,35.21c-0.16,2.39-0.49,4.76-1,7.1
		c-0.67,3.41-0.42,6.94,0.7,10.23c0.24,0.72,0.53,1.42,0.82,2.12c0.35,0.69,0.08,1.54-0.61,1.89c-0.23,0.12-0.48,0.17-0.73,0.15
		c-0.56,0.03-1.07-0.31-1.27-0.84c-0.73-1.56-1.27-3.21-1.63-4.89c-0.49-2.15-0.64-4.36-0.45-6.56c0.14-1.43,0.45-2.84,0.65-4.27
		c0.23-1.6,0.48-3.19,0.6-4.8c0.1-1.26,0.1-2.53,0.02-3.79c-0.16-2.66-0.66-5.3-1.47-7.84c-2.08-6.59-6.2-12.34-11.77-16.44
		c-14.49-10.77-34.97-7.75-45.74,6.74c-0.27,0.36-0.53,0.73-0.78,1.1c-2.61,3.88-4.39,8.26-5.23,12.85c-0.62,3-1.08,6.04-1.39,9.09
		c-0.21,2.38-0.34,4.78-0.44,7.17c-0.09,2.86-0.02,5.73,0.21,8.58c0.04,0.57,0.09,1.15,0.15,1.72c0.1,0.77-0.44,1.47-1.2,1.59
		c-0.76,0.14-1.48-0.37-1.62-1.12c-0.01-0.03-0.01-0.06-0.01-0.09c-0.11-0.87-0.18-1.75-0.23-2.62
		C340.42,128.31,340.35,126.26,340.26,124.22z"/>
	<path id="Path_59" class="st0" d="M353.96,124.16c0.03-2.79,0.18-5.57,0.48-8.34c0.09-0.88,0.21-1.75,0.33-2.63
		c0.09-0.68,0.18-1.37,0.32-2.05c0.36-2.48,0.95-4.91,1.75-7.28c2.55-6.85,8.39-11.95,15.51-13.56c1.36-0.33,2.75-0.52,4.15-0.55
		c12.31-0.25,22.49,9.54,22.73,21.85c0.02,1.17-0.05,2.34-0.21,3.49c-0.17,1.12-0.45,2.22-0.64,3.34c-0.55,3.17-0.63,6.4-0.26,9.59
		c0.51,4.45,1.88,8.76,4.04,12.68c0.46,0.84,0.98,1.66,1.5,2.47c0.49,0.65,0.36,1.58-0.29,2.07c-0.01,0.01-0.03,0.02-0.04,0.03
		c-0.67,0.44-1.57,0.26-2.01-0.42c-0.02-0.03-0.03-0.05-0.05-0.08c-5.59-8.39-7.54-18.69-5.4-28.54c0.4-1.6,0.59-3.25,0.58-4.9
		c-0.1-4.55-1.83-8.92-4.88-12.31c-7.03-7.86-19.11-8.52-26.96-1.49c-3.12,2.8-5.24,6.54-6.02,10.66c-0.42,2.14-0.78,4.28-1.1,6.44
		c-0.38,2.73-0.59,5.49-0.62,8.25c-0.08,4.42,0.23,8.85,0.94,13.22c0.64,4,1.61,7.95,2.9,11.79c0.26,0.54,0.18,1.18-0.19,1.65
		c-0.51,0.6-1.41,0.68-2.01,0.17c-0.21-0.18-0.37-0.41-0.45-0.67c-0.37-1.09-0.71-2.18-1.03-3.29c-0.92-3.16-1.63-6.38-2.13-9.64
		c-0.41-2.6-0.68-5.22-0.81-7.86C354.04,126.89,354,125.53,353.96,124.16z"/>
	<path id="Path_60" class="st0" d="M370.46,124.18c0.14,2.17,0.26,4.35,0.43,6.52c0.08,1.05,0.25,2.09,0.41,3.13
		c0.13,0.86,0.31,1.72,0.47,2.58c0.13,0.7,0.25,1.41,0.42,2.1c0.23,0.93,0.51,1.85,0.78,2.77c0.64,2.26,1.43,4.48,2.35,6.64
		c0.58,1.36,1.23,2.7,1.86,4.04c0.28,0.48,0.26,1.08-0.05,1.54c-0.43,0.66-1.31,0.84-1.96,0.42c-0.23-0.15-0.41-0.36-0.52-0.6
		c-0.7-1.43-1.42-2.86-1.99-4.34c-0.86-2.22-1.65-4.47-2.4-6.73c-0.37-1.1-0.59-2.26-0.86-3.38c-0.27-1.13-0.54-2.3-0.75-3.46
		c-1.28-7.25-1.32-14.67-0.09-21.93c0.2-1.49,0.53-2.97,0.96-4.41c0.93-3.12,3.69-5.34,6.93-5.57c4.19-0.51,8.07,2.26,8.96,6.38
		c0.28,1.39,0.25,2.82-0.11,4.19c-1.42,6.55-1.43,13.32-0.05,19.87c0.33,1.54,0.68,3.08,1.16,4.58c1.24,3.9,2.96,7.62,5.14,11.09
		c0.31,0.4,0.4,0.93,0.24,1.42c-0.17,0.52-0.63,0.89-1.18,0.94c-0.55,0.1-1.11-0.16-1.39-0.66c-0.79-1.34-1.61-2.68-2.31-4.07
		c-0.79-1.58-1.48-3.2-2.17-4.83c-0.41-0.98-0.74-1.99-1.05-3c-0.33-1.08-0.58-2.19-0.89-3.28c-0.55-2.08-0.93-4.21-1.15-6.35
		c-0.3-2.68-0.39-5.39-0.25-8.08c0.16-3.02,0.57-6.02,1.23-8.97c0.54-2.93-1.4-5.75-4.33-6.29c-2.87-0.53-5.64,1.32-6.25,4.17
		c-0.98,4.36-1.48,8.81-1.51,13.28c0,0.1,0,0.2,0,0.29L370.46,124.18z"/>
	<path id="Path_61" class="st0" d="M377.27,69.16c3.94,0.05,7.86,0.61,11.65,1.67c0.79,0.12,1.33,0.86,1.21,1.65
		c-0.12,0.79-0.86,1.33-1.65,1.21c-0.07-0.01-0.15-0.03-0.22-0.05c-1.64-0.38-3.27-0.78-4.92-1.06c-2.78-0.47-5.61-0.61-8.42-0.41
		c-9.71,0.57-18.87,4.72-25.71,11.65c-0.13,0.13-0.24,0.25-0.37,0.37c-0.55,0.57-1.46,0.6-2.03,0.05c0,0-0.01-0.01-0.01-0.01
		c-0.56-0.52-0.59-1.4-0.07-1.96c0.02-0.02,0.05-0.05,0.07-0.07c1.09-1.05,2.18-2.12,3.34-3.09c4.26-3.58,9.19-6.28,14.5-7.94
		c2.7-0.87,5.49-1.44,8.32-1.71C374.39,69.32,375.83,69.25,377.27,69.16z"/>
	<path id="Path_62" class="st0" d="M419.84,111.69c-0.03,3.14-0.39,6.26-1.08,9.32c-0.13,0.71-0.78,1.21-1.5,1.15
		c-0.71-0.03-1.28-0.58-1.33-1.28c0-0.31,0.04-0.63,0.13-0.93c0.9-4.16,1.11-8.44,0.63-12.67c-0.91-8.01-4.24-15.56-9.53-21.65
		c-0.56-0.57-0.56-1.48,0-2.04c0.02-0.02,0.04-0.03,0.05-0.05c0.58-0.53,1.47-0.49,2,0.09c0.03,0.04,0.07,0.08,0.1,0.12
		c1.13,1.42,2.3,2.83,3.31,4.33c2.63,3.89,4.58,8.2,5.76,12.75c0.68,2.52,1.12,5.1,1.3,7.71
		C419.76,109.59,419.79,110.64,419.84,111.69z"/>
	<path id="Path_63" class="st0" d="M347.07,124.18c0.13-2.49,0.25-4.98,0.41-7.47c0.07-1.11,0.23-2.21,0.36-3.31
		c0.06-0.51,0.13-1.02,0.21-1.53c0.08-0.74,0.74-1.27,1.48-1.19c0.02,0,0.03,0,0.05,0.01c0.73,0,1.33,0.59,1.33,1.33
		c0,0.06,0,0.12-0.01,0.18c-0.07,0.76-0.22,1.52-0.31,2.28c-0.1,0.84-0.18,1.69-0.25,2.54c-0.75,8.53-0.15,17.13,1.77,25.48
		c0.17,0.61-0.08,1.25-0.62,1.58c-0.51,0.35-1.2,0.3-1.66-0.1c-0.25-0.24-0.43-0.54-0.51-0.87c-0.38-1.75-0.75-3.5-1.04-5.26
		C347.53,133.32,347.13,128.76,347.07,124.18z"/>
	<path id="Path_64" class="st0" d="M350.66,107.07c-0.78,0.01-1.42-0.61-1.43-1.39c0-0.13,0.01-0.25,0.05-0.38
		c2.17-9.5,8.99-17.26,18.13-20.63c0.86-0.31,1.74-0.57,2.63-0.79c0.73-0.18,1.46,0.26,1.64,0.99c0.01,0.03,0.01,0.06,0.02,0.08
		c0.15,0.74-0.31,1.46-1.04,1.64c-6.23,1.7-11.61,5.64-15.11,11.06c-1.64,2.52-2.82,5.32-3.48,8.25
		C351.95,106.6,351.35,107.09,350.66,107.07z"/>
	<path id="Path_65" class="st0" d="M369.36,151.59c-0.02,0.68-0.5,1.26-1.17,1.41c-0.7,0.16-1.41-0.22-1.65-0.89
		c-0.58-1.47-1.18-2.94-1.71-4.43c-1.31-3.7-2.3-7.5-2.97-11.37c-0.44-2.48-0.73-4.97-0.88-7.48c-0.06-1.13-0.11-2.25-0.14-3.38
		c-0.05-0.7,0.42-1.33,1.11-1.48c0.78-0.17,1.56,0.32,1.73,1.1c0.03,0.12,0.04,0.24,0.03,0.35c0.08,1.6,0.14,3.21,0.26,4.8
		c0.25,3.02,0.72,6.03,1.4,8.99c0.91,4.01,2.17,7.92,3.78,11.7C369.24,151.14,369.3,151.36,369.36,151.59z"/>
	<path id="Path_66" class="st0" d="M378.7,82.92c1.64,0.08,3.28,0.32,4.88,0.7c0.94,0.21,1.88,0.48,2.8,0.77
		c6.07,1.94,11.31,5.89,14.83,11.2c0.26,0.31,0.42,0.69,0.46,1.09c0.03,0.64-0.38,1.22-0.99,1.41c-0.61,0.19-1.27-0.03-1.64-0.55
		c-0.79-1.06-1.55-2.15-2.42-3.13c-3.4-3.84-7.88-6.56-12.85-7.81c-0.92-0.23-1.85-0.44-2.79-0.58c-0.84-0.12-1.69-0.19-2.54-0.21
		c-0.77,0.02-1.41-0.6-1.43-1.37c0,0,0-0.01,0-0.01c-0.03-0.77,0.55-1.43,1.32-1.5C378.46,82.91,378.58,82.92,378.7,82.92z"/>
	<path id="Path_67" class="st0" d="M374.53,125.5c-0.1-4.7,0.36-9.4,1.38-13.99c0.09-0.69,0.67-1.22,1.37-1.26
		c0.66-0.04,1.27,0.39,1.44,1.03c0.06,0.25,0.07,0.51,0.02,0.77c-0.53,2.36-0.9,4.75-1.12,7.16c-0.26,2.79-0.29,5.59-0.12,8.38
		c0.16,2.49,0.48,4.96,0.98,7.41c0.13,0.79-0.4,1.53-1.18,1.66c-0.16,0.03-0.32,0.03-0.48,0c-0.62-0.04-1.11-0.53-1.15-1.14
		C374.96,132.22,374.58,128.86,374.53,125.5z"/>
	<path id="Path_68" class="st0" d="M406.18,111.42c-0.07,0.96-0.11,2.16-0.26,3.35c-0.18,1.42-0.45,2.83-0.71,4.24
		c-0.28,1.53-0.44,3.07-0.49,4.62c0.02,0.79-0.61,1.45-1.4,1.47c-0.79,0.02-1.45-0.61-1.47-1.4c0-0.04,0-0.09,0-0.13
		c0.05-2.16,0.32-4.3,0.8-6.41c0.31-1.33,0.49-2.68,0.55-4.04c0.03-0.93,0.08-1.86,0.03-2.79c-0.12-2.01-0.46-4.01-1.02-5.94
		c-0.28-0.74,0.1-1.56,0.83-1.84c0.27-0.1,0.56-0.12,0.84-0.05c0.51,0.09,0.91,0.47,1.05,0.97c0.49,1.62,0.83,3.28,1.01,4.96
		C406.04,109.34,406.09,110.26,406.18,111.42z"/>
	<path id="Path_69" class="st0" d="M390.47,131.23c0.7-0.01,1.31,0.5,1.43,1.19c0.48,2.29,1.15,4.54,2,6.71
		c1.07,2.71,2.41,5.31,4.02,7.74c0.41,0.52,0.42,1.25,0.03,1.79c-0.47,0.63-1.36,0.76-1.99,0.3c-0.15-0.11-0.28-0.26-0.38-0.42
		c-0.98-1.62-1.97-3.24-2.83-4.93c-1.67-3.3-2.89-6.81-3.63-10.43c-0.27-0.76,0.13-1.6,0.89-1.86c0,0,0.01,0,0.01,0
		C390.17,131.28,390.32,131.25,390.47,131.23z"/>
	<path id="Path_70" class="st0" d="M337.35,104.09c-0.78,0.02-1.43-0.6-1.45-1.38c0-0.11,0.01-0.23,0.03-0.34
		c0.45-1.72,0.91-3.43,1.48-5.11c0.89-2.58,2.06-5.06,3.49-7.39c0.6-0.98,1.21-1.96,1.9-2.88c0.41-0.66,1.27-0.86,1.93-0.46
		c0.03,0.02,0.07,0.04,0.1,0.07c0.65,0.47,0.8,1.37,0.34,2.02c-0.73,1.12-1.49,2.21-2.16,3.36c-1.93,3.33-3.35,6.94-4.2,10.69
		c-0.06,0.57-0.43,1.07-0.95,1.29C337.68,104.02,337.51,104.06,337.35,104.09z"/>
	<path id="Path_71" class="st0" d="M390.68,109.71c-0.72,0.03-1.36-0.46-1.5-1.17c-1.13-4.38-4.62-7.77-9.04-8.77
		c-0.59-0.11-1.06-0.57-1.18-1.16c-0.15-0.78,0.36-1.53,1.14-1.68c0.2-0.04,0.4-0.03,0.6,0.01c5.48,1.25,9.82,5.43,11.26,10.86
		c0.17,0.65-0.09,1.34-0.65,1.71C391.11,109.62,390.9,109.69,390.68,109.71z"/>
	<path id="Path_72" class="st0" d="M378.4,139.16c0.66-0.03,1.24,0.41,1.39,1.05c0.19,0.61,0.33,1.23,0.56,1.82
		c0.66,1.68,1.31,3.37,2.07,5.01c0.69,1.5,1.49,2.96,2.27,4.42c0.44,0.67,0.25,1.57-0.43,2.01c-0.16,0.11-0.35,0.18-0.54,0.21
		c-0.61,0.11-1.22-0.18-1.5-0.73c-0.82-1.56-1.66-3.12-2.42-4.7c-0.94-2-1.76-4.05-2.43-6.16c-0.13-0.38-0.25-0.75-0.35-1.14
		c-0.22-0.74,0.2-1.51,0.94-1.73C378.09,139.17,378.24,139.15,378.4,139.16z"/>
	<path id="Path_73" class="st0" d="M388.15,124.31c0.01-3.28,0.37-6.54,1.08-9.74c0.08-0.8,0.79-1.38,1.59-1.3
		c0.81,0.1,1.39,0.84,1.29,1.65c-0.01,0.09-0.03,0.18-0.06,0.27c-0.21,0.97-0.39,1.94-0.55,2.92c-0.35,2.26-0.5,4.55-0.45,6.84
		c0.02,0.75,0.06,1.49,0.11,2.24c0.05,0.46-0.12,0.92-0.45,1.24c-0.38,0.38-0.95,0.5-1.45,0.31c-0.54-0.15-0.92-0.64-0.95-1.2
		C388.25,126.45,388.21,125.38,388.15,124.31z"/>
	<path id="Path_74" class="st0" d="M360.9,120.17c0.13-1.26,0.22-2.52,0.38-3.78c0.24-1.88,0.52-3.76,0.82-5.64
		c0.13-0.82,0.34-1.63,0.55-2.43c0.19-0.76,0.95-1.22,1.71-1.03c0.72,0.18,1.18,0.88,1.05,1.62c-0.2,1.05-0.46,2.09-0.65,3.13
		c-0.15,0.82-0.27,1.64-0.36,2.47c-0.21,1.94-0.41,3.88-0.59,5.83c0.02,0.8-0.62,1.47-1.43,1.48c-0.04,0-0.08,0-0.11,0
		c-0.83-0.08-1.44-0.81-1.36-1.63C360.9,120.18,360.9,120.17,360.9,120.17z"/>
	<path id="Path_75" class="st0" d="M393.93,72.7c0.26,0.06,0.51,0.13,0.75,0.22c3.61,1.61,6.97,3.72,9.99,6.27
		c0.52,0.4,0.7,1.1,0.44,1.7c-0.22,0.57-0.79,0.92-1.39,0.86c-0.35-0.05-0.68-0.2-0.96-0.42c-2.04-1.7-4.25-3.19-6.58-4.45
		c-0.88-0.47-1.78-0.89-2.68-1.32c-0.74-0.28-1.12-1.11-0.84-1.85c0.09-0.24,0.24-0.45,0.44-0.61
		C393.36,72.93,393.64,72.8,393.93,72.7z"/>
	<path id="Path_76" class="st0" d="M409.13,139.34c-0.04,0.64-0.46,1.19-1.06,1.4c-0.65,0.22-1.35-0.06-1.68-0.66
		c-0.59-1.05-1.19-2.09-1.7-3.18c-1.11-2.38-1.91-4.89-2.37-7.47c-0.17-0.61,0.07-1.25,0.6-1.6c0.47-0.33,1.09-0.34,1.56-0.02
		c0.38,0.24,0.63,0.65,0.68,1.1c0.37,2.2,1.03,4.35,1.96,6.38c0.51,1.1,1.12,2.15,1.68,3.23
		C408.93,138.77,409.02,139.06,409.13,139.34z"/>
	<path id="Path_77" class="st0" d="M375.24,98.39c0.03,0.69-0.42,1.31-1.09,1.47c-2.55,0.7-4.8,2.2-6.44,4.27
		c-0.47,0.63-1.37,0.76-2,0.28c-0.45-0.34-0.66-0.91-0.53-1.46c0.06-0.23,0.17-0.44,0.31-0.63c1.98-2.51,4.71-4.33,7.79-5.19
		c0.74-0.29,1.57,0.07,1.87,0.81c0.03,0.07,0.05,0.14,0.06,0.2C375.22,98.23,375.23,98.31,375.24,98.39z"/>
</g>
</svg>
