<?xml version="1.0" encoding="utf-8"?>
<!-- Generator: Adobe Illustrator 25.0.1, SVG Export Plug-In . SVG Version: 6.00 Build 0)  -->
<svg version="1.1" id="Layer_1" xmlns="http://www.w3.org/2000/svg" xmlns:xlink="http://www.w3.org/1999/xlink" x="0px" y="0px"
	 viewBox="0 0 100 100" style="enable-background:new 0 0 100 100;" xml:space="preserve">
<style type="text/css">
	.st0{fill:none;stroke:#0D9BD8;stroke-width:0.957;stroke-miterlimit:10;}
</style>
<g id="Group_496" transform="translate(-263.141 -320.887)">
	<path id="Path_1003" class="st0" d="M312.81,409.81c-12.41,0-24.82,0-37.23,0c-3.71,0.15-6.85-2.74-7-6.45
		c-0.01-0.14-0.01-0.29,0-0.43c-0.03-12.38-0.05-24.75,0.04-37.12c0.12-1.63,0.48-3.23,1.07-4.75c2.93-9.09,5.92-18.16,8.89-27.24
		c0.43-1.33,0.88-1.66,2.28-1.66c21.09,0,42.18,0,63.26,0c1.5,0,1.9,0.32,2.4,1.8c3.03,9.02,6.06,18.04,9.1,27.07
		c0.44,1.31,0.94,2.6,1.37,3.91c0.09,0.34,0.12,0.68,0.1,1.03c0.01,12.23,0.01,24.47,0,36.7c0.19,3.11-1.81,5.94-4.81,6.79
		c-0.84,0.23-1.7,0.34-2.57,0.34C337.41,409.82,325.11,409.82,312.81,409.81L312.81,409.81z M273.58,359.1
		c0.7-0.07,1.24-0.17,1.77-0.17c7.98-0.01,15.97,0,23.95-0.02c0.67,0,0.9,0.2,0.91,0.89c-0.05,1.77,1.35,3.25,3.12,3.3
		c0.06,0,0.12,0,0.18,0c6.24,0.01,12.48,0.01,18.72,0c1.76,0,3.19-1.42,3.21-3.18c-0.01-0.89,0.33-1.02,1.1-1.02
		c5.65,0.03,11.29,0.02,16.94,0.02h8.1c-0.08-0.34-0.13-0.64-0.22-0.92c-2.41-7.18-4.85-14.35-7.22-21.55
		c-0.13-0.76-0.85-1.28-1.62-1.15c-20.04,0.02-40.09,0.02-60.13,0c-0.69-0.12-1.35,0.35-1.47,1.05c-2.3,7.15-4.64,14.27-6.97,21.4
		C273.84,358.16,273.74,358.55,273.58,359.1L273.58,359.1z M300.81,386.31c0.29-1.07,0.58-2.07,0.84-3.06
		c0.52-1.85-0.56-3.76-2.41-4.28c-1.78-0.5-3.65,0.49-4.23,2.25c-0.8,2.51-1.58,5.04-2.26,7.59c-0.42,1.34,0.02,2.81,1.12,3.69
		c0.82,0.6,1.84,0.87,2.85,0.76c11.15-0.01,22.3-0.07,33.45,0.04c1.96,0.08,3.6-1.45,3.68-3.4c0.02-0.46-0.05-0.91-0.21-1.34
		c-0.8-2.4-1.57-4.82-2.39-7.22c-0.53-1.85-2.46-2.92-4.31-2.38s-2.92,2.46-2.38,4.31c0.03,0.1,0.06,0.19,0.1,0.29l0.86,2.76
		L300.81,386.31z"/>
	<path id="Path_1004" class="st0" d="M273.59,359.1c0.15-0.55,0.26-0.95,0.38-1.33c2.33-7.13,4.68-14.26,6.97-21.4
		c0.12-0.69,0.77-1.16,1.47-1.05c20.04,0.02,40.09,0.02,60.13,0c0.76-0.13,1.49,0.39,1.62,1.15c2.37,7.2,4.8,14.37,7.22,21.55
		c0.1,0.28,0.14,0.59,0.22,0.92h-8.1c-5.65,0-11.29,0.01-16.94-0.02c-0.77,0-1.12,0.13-1.1,1.02c-0.02,1.76-1.45,3.17-3.21,3.18
		c-6.24,0.01-12.48,0.01-18.72,0c-1.77,0.05-3.25-1.35-3.3-3.12c0-0.06,0-0.12,0-0.18c-0.01-0.69-0.23-0.89-0.91-0.89
		c-7.98,0.02-15.97,0.01-23.95,0.02C274.82,358.94,274.28,359.04,273.59,359.1z M312.41,352.24h-8.68c-7.39,0-14.78,0-22.17,0
		c-1.23,0-2.09,0.67-2.1,1.58c0,0.91,0.86,1.57,2.1,1.6c0.07,0,0.14,0,0.21,0c20.36,0,40.71,0,61.07-0.01
		c1.61,0,2.52-0.58,2.51-1.58c-0.01-1.03-0.91-1.59-2.51-1.59L312.41,352.24z M312.41,345.54c-9.59,0-19.17,0-28.76,0
		c-0.38-0.02-0.76,0.01-1.14,0.07c-0.77,0.1-1.34,0.76-1.34,1.53c-0.01,0.77,0.58,1.43,1.35,1.5c0.48,0.07,0.97,0.1,1.45,0.09
		c18.79,0,37.58,0,56.36,0c0.56,0,1.12,0.03,1.67-0.02c0.87-0.04,1.58-0.71,1.67-1.58c-0.1-0.86-0.81-1.53-1.68-1.58
		c-0.21-0.01-0.42-0.02-0.63-0.01L312.41,345.54z M312.53,338.85L312.53,338.85l-26.35-0.01c-1.58,0-2.51,0.58-2.52,1.58
		c-0.01,1,0.9,1.6,2.51,1.6c5.51,0,11.01,0,16.52,0c12.09,0,24.19,0,36.28,0c1.33,0,2.19-0.64,2.2-1.59
		c0.01-0.95-0.84-1.58-2.18-1.59L312.53,338.85L312.53,338.85z"/>
	<path id="Path_1005" class="st0" d="M300.81,386.31h24.7l-0.86-2.76c-0.69-1.8,0.2-3.81,2-4.51c1.8-0.69,3.81,0.2,4.51,2
		c0.04,0.1,0.07,0.19,0.1,0.29c0.82,2.4,1.59,4.81,2.39,7.22c0.66,1.84-0.29,3.87-2.13,4.54c-0.43,0.15-0.88,0.23-1.34,0.21
		c-11.15-0.11-22.3-0.05-33.45-0.04c-1.01,0.11-2.03-0.16-2.85-0.76c-1.1-0.88-1.54-2.35-1.12-3.69c0.67-2.55,1.45-5.07,2.26-7.59
		c0.6-1.82,2.56-2.81,4.38-2.2c1.76,0.58,2.75,2.44,2.25,4.23C301.39,384.24,301.11,385.23,300.81,386.31z"/>
</g>
</svg>
