<svg id="Layer_1" data-name="Layer 1" xmlns="http://www.w3.org/2000/svg" viewBox="0 0 670.36 675.91"><title>Asynchronous</title><path d="M584.13,713.61c-5.91-61.49-37-108.09-87-142.07C444.6,535.86,390.9,501.92,337.76,467.12c-61-40-118-84.3-158-146.93-21.72-34-33.22-71.34-35.48-113.13h-89L189.43,37.69l134.9,168.82H229.44c.1,29,12.55,51.43,27.67,72.51,43.11,60.07,100.7,103.19,162.79,142.11,57.16,35.84,111.94,75.5,167.37,114,62.11,43.2,88.34,103.75,84.18,178.43Z" transform="translate(-55.29 -37.69)"/><path d="M725.65,207.76H640.9C629.73,293.25,582.46,354.37,516.54,404l-66-44.39c55-36.46,102.36-77.95,105.61-152H464.78c44.86-58.41,87.16-113.49,130.46-169.85C618.37,67,640.67,95.1,663,123.23q28.46,35.8,57.05,71.51c1.37,1.72,3.7,2.68,5.58,4Z" transform="translate(-55.29 -37.69)"/></svg>