<?xml version="1.0" encoding="utf-8"?>
<!-- Generator: Adobe Illustrator 25.0.1, SVG Export Plug-In . SVG Version: 6.00 Build 0)  -->
<svg version="1.1" id="Layer_1" xmlns="http://www.w3.org/2000/svg" xmlns:xlink="http://www.w3.org/1999/xlink" x="0px" y="0px"
	 viewBox="0 0 100 100" style="enable-background:new 0 0 100 100;" xml:space="preserve">
<style type="text/css">
	.st0{fill:none;}
	.st1{fill:#329DD8;}
</style>
<g id="Path_80" transform="translate(-274.469 -665.438)">
	<path class="st0" d="M360.75,713.26c-0.33-0.35-0.5-0.55-0.69-0.74c-0.83-0.83-1.67-1.64-2.48-2.49c-0.97-0.93-1-2.46-0.08-3.43
		c0.92-0.95,2.43-0.97,3.38-0.06c0.03,0.03,0.07,0.07,0.1,0.1c2.45,2.41,4.88,4.84,7.3,7.28c0.98,0.84,1.1,2.32,0.26,3.31
		c-0.09,0.1-0.18,0.2-0.29,0.28c-2.39,2.4-4.78,4.79-7.19,7.17c-0.87,1.01-2.39,1.13-3.4,0.26c-1.01-0.87-1.13-2.39-0.26-3.4
		c0.08-0.09,0.17-0.18,0.26-0.26c0.99-0.99,2-1.95,3-2.92l-0.08-0.21c-0.23-0.02-0.46-0.05-0.69-0.05c-7.03,0-14.06,0.01-21.08-0.02
		c-0.73,0-0.95,0.2-0.94,0.94c0.04,3.87-0.03,7.74,0.04,11.61c0.17,1.46-0.86,2.78-2.32,2.95c-0.21,0.02-0.42,0.03-0.62,0
		c-2.39-0.1-4.79-0.02-7.18-0.03c-1.31,0.13-2.47-0.82-2.6-2.13c-0.02-0.16-0.02-0.32,0-0.48c-0.01-1.17,0.02-2.34-0.02-3.51
		c-0.01-0.23-0.25-0.65-0.39-0.66c-2.1-0.02-4.23-0.26-6.27,0.55c-3.32,1.3-5.5,4.51-5.49,8.08c-0.07,7.43-6.16,13.4-13.59,13.33
		c-0.3,0-0.61-0.02-0.91-0.04c-0.92-0.19-1.83,0.38-2.07,1.28c-1.65,3.64-5.62,5.64-9.52,4.79c-4.66-0.96-7.65-5.52-6.69-10.17
		c0.96-4.66,5.52-7.65,10.17-6.69c2.88,0.6,5.26,2.62,6.3,5.37c0.08,0.44,0.51,0.73,0.94,0.64c0,0,0,0,0,0
		c1.47-0.03,2.93-0.17,4.38-0.42c3.64-1,6.16-4.3,6.16-8.08c-0.07-6.42,4.46-11.97,10.77-13.2c1.74-0.26,3.49-0.34,5.25-0.26
		c0.77,0,1.05-0.22,0.99-0.99c-0.05-0.71-0.05-1.43,0-2.14c0.04-0.62-0.21-0.77-0.8-0.77c-3.95,0.02-7.89,0.01-11.84,0.01
		c-4.94,0-9.88,0.01-14.82-0.01c-0.48-0.08-0.94,0.23-1.05,0.7c-1.72,4.43-6.7,6.62-11.13,4.9c-4.43-1.72-6.62-6.7-4.9-11.13
		c1.72-4.43,6.7-6.62,11.13-4.9c2.28,0.89,4.07,2.7,4.93,4.98c0.11,0.43,0.52,0.7,0.96,0.64c8.89-0.01,17.77-0.01,26.66,0
		c0.68,0,0.91-0.22,0.86-0.88c-0.05-0.71-0.05-1.43-0.01-2.14c0.05-0.67-0.23-0.8-0.84-0.81c-1.53,0.03-3.05-0.02-4.57-0.15
		c-5.8-0.75-10.41-5.22-11.36-10.99c-0.23-1.53-0.22-3.11-0.59-4.6c-0.97-3.59-4.19-6.11-7.9-6.19c-0.76-0.02-1.53,0.02-2.29-0.02
		c-0.41-0.07-0.8,0.2-0.89,0.61c-1.63,4.46-6.57,6.75-11.03,5.12c-4.46-1.63-6.75-6.57-5.12-11.03c1.63-4.46,6.57-6.75,11.03-5.12
		c2.35,0.86,4.2,2.69,5.09,5.03c0.19,0.48,0.47,0.56,0.92,0.58c1.75-0.01,3.5,0.13,5.23,0.42c5.91,1.42,10.1,6.68,10.15,12.76
		c0.11,3.9,1.91,6.73,5.55,8.16c1.26,0.36,2.57,0.57,3.89,0.6c0.65,0.07,1.32-0.01,1.98,0.02c0.56,0.03,0.77-0.17,0.76-0.75
		c-0.03-1.15-0.02-2.29-0.01-3.44c-0.15-1.31,0.79-2.49,2.1-2.63c0.19-0.02,0.37-0.02,0.56,0c2.44-0.01,4.89-0.01,7.33,0
		c1.32-0.17,2.53,0.76,2.7,2.09c0.03,0.2,0.03,0.39,0,0.59c0.02,3.95,0.02,7.89-0.01,11.84c-0.01,0.72,0.18,0.96,0.94,0.96
		c6.95-0.03,13.9-0.02,20.85-0.02C359.95,713.31,360.25,713.28,360.75,713.26z M333.05,715.73c0-4.1-0.01-8.2,0.01-12.3
		c0-0.59-0.15-0.85-0.77-0.8c-0.43,0.04-0.86,0-1.3,0c-1.02,0-1.02,0-1.02,0.99c0,3.33,0,6.67,0,10c0,4.79,0.01,9.57-0.01,14.36
		c0,0.58,0.16,0.85,0.78,0.8c0.48-0.04,0.97-0.04,1.45,0c0.66,0.06,0.88-0.15,0.87-0.84C333.03,723.87,333.05,719.8,333.05,715.73
		L333.05,715.73z M284.89,746.32c-0.01,2.09,1.67,3.8,3.77,3.81c2.09,0.01,3.8-1.67,3.81-3.77c0.01-2.09-1.67-3.8-3.77-3.81
		c-0.03,0-0.06,0-0.08,0C286.56,742.6,284.91,744.27,284.89,746.32z M284.89,715.64c-0.01,2.09,1.68,3.79,3.78,3.8
		s3.79-1.68,3.8-3.78c0.01-2.09-1.68-3.79-3.78-3.8c-0.03,0-0.05,0-0.08,0C286.55,711.92,284.91,713.59,284.89,715.64L284.89,715.64
		z M288.75,681.4c-2.07-0.07-3.79,1.56-3.86,3.62c0,0.02,0,0.04,0,0.06c-0.06,2.09,1.59,3.83,3.68,3.89s3.83-1.59,3.89-3.68
		c0.06-2.09-1.59-3.83-3.68-3.89C288.77,681.4,288.76,681.4,288.75,681.4z"/>
	<path class="st1" d="M288.76,677.56L288.76,677.56c-0.22,0-0.45,0.01-0.67,0.03c-3.5,0.31-6.2,2.73-6.89,6.16
		c-0.44,2.18,0.15,4.46,1.61,6.25c1.46,1.78,3.57,2.81,5.8,2.81c0.03,0,0.07,0,0.1,0c1.57-0.02,3.07-0.5,4.32-1.39
		c1.26-0.89,2.22-2.15,2.78-3.64c0.31-0.84,0.9-1.26,1.73-1.26c0.05,0,0.09,0,0.14,0c0.23,0.01,0.48,0.02,0.81,0.02
		c0.16,0,0.31,0,0.47,0c0.16,0,0.32,0,0.48,0c0.19,0,0.35,0,0.5,0.01c4.15,0.1,7.87,3.02,8.85,6.94c0.24,0.98,0.33,1.98,0.42,2.94
		c0.05,0.61,0.1,1.18,0.19,1.75c0.39,2.54,1.66,4.96,3.57,6.81c1.92,1.85,4.37,3.04,6.92,3.33c1.22,0.14,2.52,0.14,3.76,0.14
		c0.23,0,0.47,0,0.7,0c0.45,0,1.02,0.06,1.43,0.51c0.46,0.5,0.42,1.15,0.4,1.37c-0.05,0.62-0.04,1.29,0.01,2
		c0.02,0.23,0.06,0.92-0.42,1.43c-0.43,0.46-1.03,0.52-1.44,0.52h-0.01c-4.31-0.01-8.76-0.01-13.61-0.01c-4.01,0-8.27,0-13.05,0.01
		c-0.94,0-1.56-0.42-1.89-1.29c-1.13-2.99-3.9-4.92-7.07-4.92c-0.47,0-0.94,0.04-1.41,0.13c-3.58,0.64-6.2,3.77-6.22,7.43
		c-0.02,3.75,2.59,6.85,6.36,7.56c0.41,0.08,0.84,0.12,1.27,0.12c3.08,0,5.98-2,7.04-4.86c0.45-1.21,1.34-1.35,1.97-1.35h0.02
		c2.15,0.01,4.46,0.01,7.48,0.01c1.22,0,2.44,0,3.67,0c1.22,0,2.44,0,3.67,0c1.01,0,2.03,0,3.04,0c1.01,0,2.03,0,3.04,0
		c2.31,0,4.09,0,5.75-0.01l0.02,0c0.39,0,0.96,0.05,1.37,0.49c0.46,0.49,0.42,1.13,0.41,1.33c-0.05,0.76-0.05,1.42,0,1.99
		c0.02,0.24,0.08,0.98-0.41,1.52c-0.45,0.49-1.07,0.55-1.56,0.55c-0.08,0-0.15,0-0.23,0c-0.26,0-0.53,0-0.79,0
		c-0.26,0-0.52,0-0.78,0c-1.07,0-2.2,0.03-3.25,0.24c-2.91,0.6-5.39,2.08-7.18,4.29c-1.78,2.2-2.75,4.95-2.78,7.95
		c-0.05,4.29-2.9,8.01-6.92,9.03c-1.04,0.27-2.09,0.31-3.12,0.36c-0.49,0.02-0.96,0.04-1.42,0.09c-0.08,0.01-0.16,0.01-0.24,0.01
		c-0.57,0-1.34-0.23-1.74-1.3c-0.55-1.46-1.52-2.7-2.82-3.58c-1.27-0.86-2.75-1.32-4.29-1.32c-0.72,0-1.43,0.1-2.13,0.3
		c-1.61,0.46-3.05,1.48-4.03,2.86c-0.99,1.38-1.49,3.08-1.42,4.78c0.15,3.47,2.68,6.46,6.02,7.12c0.52,0.1,1.04,0.15,1.56,0.15
		c3.03,0,5.72-1.71,6.85-4.35c0.56-1.31,1.4-1.9,2.72-1.9c0.11,0,0.21,0,0.33,0.01c0.32,0.02,0.64,0.03,0.95,0.03
		c2.23,0,4.15-0.47,5.88-1.45c2.12-1.2,3.76-2.72,4.85-4.52c1.1-1.8,1.69-3.95,1.77-6.39c0.13-4.16,2.42-7.51,6.13-8.98
		c1.48-0.59,2.96-0.67,4.2-0.67c0.45,0,0.9,0.01,1.34,0.02c0.36,0.01,0.74,0.02,1.1,0.02c0.88,0.01,1.36,1.04,1.38,1.62
		c0.03,0.75,0.02,1.5,0.02,2.23c0,0.43,0,0.87,0,1.31c0.01,1.13,0.49,1.62,1.61,1.62c0.13,0,0.25,0,0.38,0c0.67,0,1.34-0.01,2-0.01
		c0.66-0.01,1.34-0.01,2.02-0.01c1.09,0,1.99,0.02,2.82,0.05c0.04,0,0.08,0,0.12,0c0.39,0,0.93-0.08,1.3-0.46
		c0.32-0.33,0.49-0.84,0.47-1.48c-0.04-2.22-0.03-4.47-0.03-6.65c0-1.63,0.01-3.32-0.01-4.97c0-0.45,0.05-1.02,0.48-1.46
		c0.43-0.44,1-0.49,1.45-0.49h0.02c4.6,0.02,9.19,0.02,13.49,0.02l1.88,0l1.88,0c1.28,0,2.56,0,3.84,0c0.21,0,0.4,0.02,0.57,0.04
		c0.07,0.01,0.13,0.01,0.2,0.02l0.62,0.05l0.23,0.58l0.08,0.21l0.25,0.62l-0.48,0.46c-0.31,0.3-0.62,0.6-0.94,0.9
		c-0.68,0.65-1.38,1.33-2.05,2c-0.68,0.68-0.74,1.52-0.14,2.13c0.26,0.27,0.58,0.41,0.93,0.41c0.41,0,0.83-0.2,1.19-0.55
		c2.46-2.44,4.88-4.85,7.18-7.17c0.73-0.74,0.74-1.45,0.02-2.18c-2.26-2.29-4.64-4.67-7.29-7.28c-0.32-0.31-0.7-0.48-1.09-0.48
		c-0.36,0-0.7,0.15-0.97,0.43c-0.55,0.56-0.51,1.42,0.08,2.04c0.52,0.54,1.07,1.09,1.6,1.61c0.28,0.28,0.58,0.57,0.86,0.86
		c0.14,0.14,0.26,0.27,0.42,0.45c0.08,0.09,0.18,0.19,0.29,0.32l1.47,1.58l-2.16,0.1c-0.17,0.01-0.32,0.02-0.45,0.02
		c-0.26,0.01-0.46,0.03-0.68,0.03c-0.83,0-1.66,0-2.5,0l-3.01,0l-3.01,0c-3.92,0-8.13,0-12.34,0.02l-0.02,0
		c-0.41,0-1-0.05-1.44-0.49c-0.44-0.44-0.49-1.02-0.48-1.47c0.02-3.46,0.03-7.22,0.01-11.83c-0.01-1.19-0.5-1.68-1.71-1.68
		c-1.25,0-2.48,0-3.68,0c-1.24,0-2.47,0-3.65,0c-1.17,0-1.65,0.48-1.66,1.64l0,0.4c-0.01,0.99-0.02,2.01,0.01,3
		c0.01,0.21,0.02,0.84-0.44,1.32c-0.3,0.31-0.71,0.46-1.23,0.46c-0.04,0-0.09,0-0.14,0c-0.09,0-0.18-0.01-0.29-0.01
		c-0.15,0-0.31,0-0.48,0.01c-0.17,0-0.35,0.01-0.53,0.01c-0.29,0-0.52-0.01-0.75-0.04c-0.31-0.04-0.63-0.06-0.97-0.09
		c-1.05-0.08-2.15-0.17-3.18-0.58c-3.92-1.54-6.06-4.67-6.19-9.06c-0.17-5.79-3.94-10.54-9.38-11.81c-1.12-0.26-2.31-0.3-3.58-0.34
		c-0.49-0.01-0.99-0.03-1.48-0.06c-0.4-0.02-1.35-0.08-1.8-1.21C294.59,679.49,291.84,677.56,288.76,677.56 M288.65,689.95
		c-0.02,0-0.04,0-0.07,0c-2.62-0.03-4.72-2.22-4.69-4.88c0.03-2.62,2.13-4.67,4.79-4.67c0.03,0,0.06,0,0.09,0
		c2.61,0.05,4.72,2.19,4.69,4.78C293.44,687.85,291.32,689.95,288.65,689.95 M332.4,729.8c-0.09,0-0.19-0.01-0.3-0.02
		c-0.2-0.02-0.4-0.03-0.61-0.03c-0.21,0-0.43,0.01-0.66,0.03c-0.08,0.01-0.15,0.01-0.23,0.01c-0.48,0-0.88-0.15-1.17-0.44
		c-0.42-0.42-0.47-0.98-0.47-1.37c0.01-3.66,0.01-7.39,0.01-10.99c0-1.12,0-2.24,0-3.36l0-2.84c0-2.39,0-4.78,0-7.16
		c0-0.65,0-1.16,0.43-1.58c0.42-0.41,0.93-0.41,1.59-0.41h0.02c0.15,0,0.3,0,0.44,0.01c0.14,0,0.26,0.01,0.39,0.01
		c0.14,0,0.25,0,0.36-0.01c0.08-0.01,0.16-0.01,0.24-0.01c0.48,0,0.87,0.15,1.16,0.44c0.42,0.42,0.46,0.98,0.46,1.37
		c-0.02,3.1-0.01,6.26-0.01,9.31c0,0.99,0,1.98,0,2.98c0,1.04,0,2.09,0,3.13c0,2.98-0.01,6.05,0.02,9.08c0,0.4-0.04,0.98-0.47,1.41
		C333.3,729.65,332.89,729.8,332.4,729.8 M288.66,720.46L288.66,720.46L288.66,720.46c-2.62,0-4.76-2.16-4.77-4.81
		c-0.01-2.6,2.1-4.75,4.71-4.78c0.02,0,0.04,0,0.06,0c2.62,0,4.77,2.12,4.81,4.72c0.02,1.29-0.48,2.51-1.39,3.44
		C291.16,719.95,289.94,720.46,288.66,720.46 M288.65,751.14L288.65,751.14c-2.63,0-4.76-2.16-4.76-4.82c0-2.61,2.12-4.75,4.72-4.77
		l0.04,0c2.63,0,4.79,2.12,4.82,4.72c0.01,1.29-0.48,2.51-1.39,3.44C291.16,750.64,289.94,751.14,288.65,751.14 M288.76,676.56
		c3.47,0,6.6,2.15,7.95,5.56c0.19,0.48,0.47,0.56,0.93,0.58c1.75,0.1,3.55,0.03,5.23,0.42c5.93,1.39,9.97,6.57,10.15,12.76
		c0.11,3.9,1.91,6.73,5.55,8.16c1.19,0.47,2.58,0.45,3.89,0.6c0.21,0.02,0.43,0.03,0.64,0.03c0.33,0,0.67-0.02,1.01-0.02
		c0.11,0,0.23,0,0.34,0.01c0.03,0,0.06,0,0.09,0c0.49,0,0.68-0.21,0.66-0.75c-0.03-1.15-0.02-2.29-0.01-3.44
		c0.02-1.72,0.94-2.63,2.66-2.63c1.22,0,2.44,0,3.66,0c1.23,0,2.45,0,3.68,0c1.75,0,2.7,0.92,2.71,2.68
		c0.02,3.95,0.02,7.89-0.01,11.84c-0.01,0.71,0.18,0.96,0.92,0.96c0,0,0.01,0,0.01,0c4.11-0.02,8.23-0.02,12.34-0.02
		c2.01,0,4.01,0,6.02,0c0.83,0,1.66,0,2.49,0c0.29,0,0.58-0.02,1.08-0.05c-0.32-0.35-0.5-0.55-0.69-0.74
		c-0.83-0.83-1.67-1.64-2.48-2.49c-0.97-1.02-0.99-2.49-0.08-3.43c0.47-0.48,1.07-0.73,1.69-0.73c0.63,0,1.26,0.25,1.79,0.77
		c2.45,2.41,4.88,4.84,7.3,7.29c1.11,1.13,1.09,2.47-0.03,3.59c-2.39,2.4-4.78,4.79-7.19,7.17c-0.57,0.56-1.24,0.84-1.89,0.84
		c-0.6,0-1.18-0.24-1.64-0.7c-0.98-1-0.93-2.46,0.14-3.54c0.99-0.99,2-1.95,3-2.92l-0.08-0.21c-0.23-0.02-0.46-0.05-0.69-0.05
		c-1.28,0-2.56,0-3.84,0c-1.25,0-2.5,0-3.75,0c-4.5,0-9,0-13.49-0.02c0,0-0.01,0-0.01,0c-0.72,0-0.94,0.2-0.93,0.94
		c0.03,3.87-0.03,7.74,0.04,11.61c0.03,1.85-1.08,2.96-2.77,2.96c-0.05,0-0.11,0-0.17,0c-0.92-0.04-1.85-0.05-2.78-0.05
		c-1.34,0-2.68,0.02-4.02,0.02c-0.13,0-0.26,0-0.38,0c-1.66-0.01-2.59-0.94-2.6-2.61c-0.01-1.17,0.02-2.34-0.02-3.51
		c-0.01-0.23-0.25-0.65-0.39-0.65c-0.81-0.01-1.62-0.04-2.43-0.04c-1.3,0-2.58,0.1-3.83,0.6c-3.33,1.32-5.38,4.33-5.49,8.08
		c-0.17,5.25-2.56,9.17-7.12,11.74c-1.99,1.12-4.14,1.57-6.37,1.57c-0.33,0-0.67-0.01-1.01-0.03c-0.09-0.01-0.19-0.01-0.27-0.01
		c-0.88,0-1.38,0.31-1.8,1.29c-1.32,3.1-4.42,4.96-7.77,4.96c-0.58,0-1.17-0.06-1.76-0.17c-3.8-0.74-6.66-4.12-6.83-8.05
		c-0.17-3.96,2.4-7.55,6.18-8.64c0.8-0.23,1.61-0.34,2.4-0.34c3.5,0,6.75,2.13,8.04,5.55c0.17,0.44,0.38,0.65,0.8,0.65
		c0.05,0,0.09,0,0.14-0.01c1.46-0.14,2.98-0.06,4.38-0.42c3.63-0.93,6.12-4.31,6.16-8.08c0.08-6.56,4.35-11.88,10.77-13.2
		c1.12-0.23,2.28-0.27,3.45-0.27c0.53,0,1.05,0.01,1.57,0.01c0.07,0,0.15,0,0.22,0c0.78,0,1.05-0.22,0.99-0.99
		c-0.06-0.71-0.05-1.43,0-2.14c0.04-0.61-0.21-0.77-0.78-0.77c-0.01,0-0.01,0-0.02,0c-1.92,0.01-3.84,0.01-5.76,0.01
		c-2.03,0-4.05,0-6.08,0c-2.44,0-4.89,0-7.33,0c-2.5,0-4.99,0-7.49-0.01c0,0-0.01,0-0.01,0c-0.55,0-0.83,0.14-1.04,0.7
		c-1.23,3.32-4.55,5.52-7.98,5.52c-0.48,0-0.97-0.04-1.45-0.13c-4.25-0.79-7.19-4.31-7.17-8.55c0.02-4.15,2.98-7.68,7.04-8.41
		c0.53-0.1,1.06-0.14,1.58-0.14c3.54,0,6.71,2.13,8.01,5.57c0.19,0.49,0.45,0.64,0.95,0.64c0,0,0,0,0,0
		c4.35-0.01,8.7-0.01,13.04-0.01c4.54,0,9.08,0,13.62,0.01c0,0,0,0,0.01,0c0.67,0,0.9-0.22,0.85-0.88
		c-0.05-0.71-0.06-1.43-0.01-2.14c0.05-0.67-0.23-0.8-0.84-0.81c-1.53-0.01-3.06,0.02-4.57-0.15c-5.72-0.66-10.49-5.3-11.36-10.99
		c-0.23-1.53-0.22-3.11-0.59-4.6c-0.89-3.56-4.23-6.1-7.9-6.19c-0.16,0-0.32,0-0.48,0c-0.32,0-0.63,0-0.95,0
		c-0.29,0-0.58,0-0.86-0.02c-0.03,0-0.06,0-0.09,0c-0.43,0-0.64,0.19-0.8,0.61c-1.28,3.43-4.41,5.63-8.02,5.68
		c-0.04,0-0.08,0-0.11,0c-5.29,0-9.43-5.04-8.38-10.25c0.78-3.86,3.84-6.6,7.78-6.96C288.25,676.57,288.51,676.56,288.76,676.56z
		 M288.65,688.95c2.11,0,3.8-1.67,3.82-3.78c0.02-2.04-1.64-3.73-3.71-3.77c-0.02,0-0.05,0-0.07,0c-2.09,0-3.76,1.62-3.79,3.69
		c-0.03,2.1,1.63,3.84,3.7,3.86C288.61,688.95,288.63,688.95,288.65,688.95z M332.4,728.8c0.5,0,0.68-0.24,0.67-0.86
		c-0.03-4.07-0.02-8.15-0.02-12.22c0-4.1-0.01-8.2,0.01-12.3c0-0.53-0.12-0.8-0.62-0.8c-0.05,0-0.1,0-0.15,0.01
		c-0.15,0.01-0.3,0.02-0.45,0.02c-0.28,0-0.56-0.02-0.83-0.02c-0.01,0-0.01,0-0.02,0c-1.02,0-1.02,0-1.02,0.99c0,3.33,0,6.67,0,10
		c0,4.79,0.01,9.57-0.01,14.36c0,0.54,0.13,0.8,0.63,0.8c0.04,0,0.09,0,0.14-0.01c0.25-0.02,0.49-0.03,0.74-0.03
		c0.24,0,0.47,0.01,0.71,0.03C332.27,728.8,332.33,728.8,332.4,728.8z M288.66,719.46c2.1,0,3.84-1.76,3.81-3.86
		c-0.03-2.06-1.74-3.73-3.81-3.73c-0.02,0-0.03,0-0.05,0c-2.04,0.02-3.73,1.73-3.72,3.78C284.9,717.74,286.6,719.46,288.66,719.46z
		 M288.65,750.14c2.12,0,3.84-1.74,3.81-3.86c-0.02-2.06-1.74-3.73-3.82-3.73c-0.01,0-0.02,0-0.03,0c-2.05,0.02-3.73,1.71-3.73,3.77
		C284.89,748.42,286.59,750.14,288.65,750.14C288.65,750.14,288.65,750.14,288.65,750.14z"/>
</g>
</svg>
