<svg id="Layer_1" data-name="Layer 1" xmlns="http://www.w3.org/2000/svg" viewBox="0 0 679.01 680.9"><title>Distributed for autoscaling</title><path d="M279.43,374.31c-20.7,0-41.42.22-62.1-.07-12.63-.19-21.31-7.43-24.71-19.45-3.68-13,3.38-27.47,16.27-31.66,5.44-1.77,7.65-3.92,8-9.92,1.21-18.74,20.56-36.62,39.35-37.27,25.1-.82,40.83,10.64,48,34.49.51,1.71,3.58,3.92,5.26,3.79,19.59-1.46,33.29,10,34.74,29.14a8.29,8.29,0,0,0,3.91,5.66c7.21,3.76,10.53,8.74,9.08,15.13s-6.22,10.1-14.4,10.15c-21.15.13-42.3,0-63.46,0Z" transform="translate(-41.84 -29)"/><path d="M498.36,374.31c-20.7,0-41.41.22-62.1-.07-12.63-.19-21.31-7.43-24.71-19.45-3.68-13,3.38-27.47,16.27-31.66,5.44-1.77,7.65-3.92,8-9.92,1.21-18.74,20.56-36.62,39.35-37.27,25.1-.82,40.84,10.64,48,34.49.51,1.71,3.58,3.92,5.27,3.79,19.58-1.46,33.28,10,34.73,29.14A8.28,8.28,0,0,0,567.1,349c7.21,3.76,10.52,8.74,9.07,15.13s-6.22,10.1-14.4,10.15c-21.15.13-42.3,0-63.46,0Z" transform="translate(-41.84 -29)"/><path d="M406.79,493.25c-20.7,0-41.42.22-62.1-.07-12.63-.19-21.31-7.43-24.71-19.45-3.68-13,3.37-27.47,16.27-31.66,5.44-1.77,7.65-3.92,8-9.92,1.21-18.75,20.56-36.62,39.34-37.27,25.11-.82,40.84,10.64,48,34.49.51,1.71,3.58,3.92,5.26,3.79,19.59-1.46,33.28,10,34.74,29.14a8.29,8.29,0,0,0,3.91,5.66c7.21,3.76,10.53,8.74,9.08,15.12s-6.22,10.11-14.4,10.16c-21.15.13-42.31,0-63.46,0Z" transform="translate(-41.84 -29)"/><path d="M618.36,614.36h-84V588.12h34.47c.55-1.13,1.06-2.26,1.63-3.39l-44.74-40,23.65-21.44,38.74,43,3.88-2.16V530.66h26.32Z" transform="translate(-41.84 -29)"/><path d="M660.46,433.08l-16.57-20L669,393,667.07,389H608.46V361.55h58.66l1.93-4.39-28-22.28,20.61-19.57,59.19,57.47Z" transform="translate(-41.84 -29)"/><path d="M141.85,126.36h83.54v24.43H187.5L236,193.49l-27.27,19.14-36.41-39.46-4,1.73v34.61H141.85Z" transform="translate(-41.84 -29)"/><path d="M362.4,597.52h26.72v58.94l3.53,2.31,20.65-30.35,21,22.84L376,709.9l-57-58.62,15.3-18.1L362.4,659.8Z" transform="translate(-41.84 -29)"/><path d="M397.77,142H371V84l-3.5-1.6c-7.22,8.9-14.39,17.78-20.7,25.68l-20.55-17.9L384,29,442.5,89.87,423.44,109.8,402.72,80.33l-4.94,3.45Z" transform="translate(-41.84 -29)"/><path d="M541.17,132.62h82.66v82H598.45V181.88l-4-2.34-38,46-20.95-26.63,42.81-35.3-3.4-4.73H541.21Z" transform="translate(-41.84 -29)"/><path d="M203.13,512.47,225,537.67l-42.75,40,2.36,4.37h34.54v26.14H136.82V524.47h25v36.62Z" transform="translate(-41.84 -29)"/><path d="M100.26,307.52l16.27,16.84L90.37,352.78h61.94v25.51H89.43l27.89,29.47-19.93,14L41.84,366.14Z" transform="translate(-41.84 -29)"/></svg>