<svg id="Layer_1" data-name="Layer 1" xmlns="http://www.w3.org/2000/svg" viewBox="0 0 679.07 565.42"><defs><style>.cls-1{fill:#c1272d;}</style></defs><title>Fault tolerant</title><path d="M195.44,355.93c45.45,0,90.05.32,134.64-.39,5.9-.1,11.58-5.79,17.63-8.27s12.14-4,18.23-6c-2.34,6.21-3.31,13.55-7.32,18.37a216.6,216.6,0,0,1-28,27.94c-4.81,4-12.08,5.06-18.23,7.45.51-6.45,1-12.89,1.69-21.48-36.2,0-74.29-.22-112.35.41-3.21.05-7.47,5.28-9.24,9.05-4,8.46-6.68,17.52-10.86,28.92L302.76,512.4c25.39-7.94,46.79-19.84,68.19-19.83,20.81,0,41.61,12.21,67.53,20.75L561,411.86c-5-13.29-9.33-24.93-14.28-38.15-45.87,0-92.32-.51-138.73.57-6.7.15-12.88,8.69-20,11.87-4.1,1.84-9.53.71-14.35.92.95-4.29.53-9.82,3.1-12.66a383,383,0,0,1,32-32c4.9-4.28,12.08-6,18.22-8.82V355H547c21.68-61.39,66.75-86.38,115.78-64.42a80.88,80.88,0,0,1,38,112.79c-25.08,45.67-77.23,54.82-128,21-41.5,34.26-83.66,68.69-125,104-3.11,2.66-2.21,12.32-.52,17.93,14.37,47.78-12.65,94.47-61.4,105.14-45.37,9.94-91.15-22.19-96.14-69.75-1.7-16.23,3.29-33.17,5.64-53.35L170,424.68C116,458.2,64.15,448.49,40.34,401.09c-21.12-42-1.72-93.74,41.89-111.68C130.61,269.51,176,295.56,195.44,355.93Zm248,216.57c.2-40.85-31.45-73.35-72-73.88-41.46-.53-75,31.93-75.29,72.86-.28,40.51,33.76,74.6,74.29,74.39C410.58,645.67,443.25,612.81,443.45,572.5ZM556,364.81c.13,40.33,32.65,73.27,72.75,73.67,40.55.42,74.54-33.4,74.49-74.11,0-41-33.46-73.61-74.86-73.15A73,73,0,0,0,556,364.81Zm-369.47.07a73,73,0,0,0-72.3-73.66c-41.49-.44-74.81,32-74.92,73.07-.1,40.15,32.41,73.47,72.39,74.19C152.38,439.21,186.33,405.82,186.56,364.88Z" transform="translate(-31.77 -87.89)"/><path class="cls-1" d="M416.66,96.43c-13.27,46.17-25.06,87.71-37.38,129.09-1,3.25-5.61,5.41-8.54,8.08-2.35-2.63-6-4.89-6.85-7.95-12.1-41.45-24.09-82.94-35.05-124.7-.83-3.17,6.2-12,9.89-12.2,21.88-1.17,43.88-1.08,65.78-.16C409.08,88.78,413.43,94.24,416.66,96.43Z" transform="translate(-31.77 -87.89)"/><path class="cls-1" d="M397.61,269.36c-12.21,8.07-19.73,16.93-26,16.15-6.68-.84-12.2-10.86-18.23-16.86,6.49-6.14,12.37-16,19.67-17.2C378.65,250.53,386.08,260.47,397.61,269.36Z" transform="translate(-31.77 -87.89)"/><path d="M370.45,629.35a57.73,57.73,0,0,1-57.94-57.08c-.24-31.38,25.78-57.71,57.21-57.89s57.73,25.87,57.94,57.18C427.87,603.07,402.06,629.14,370.45,629.35Z" transform="translate(-31.77 -87.89)"/><path d="M687.26,364.77c-.13,31.33-26.51,57.51-57.85,57.4s-57.63-26.42-57.54-57.73,26.62-57.57,57.85-57.46S687.39,333.58,687.26,364.77Z" transform="translate(-31.77 -87.89)"/><path d="M113.92,422.11c-31.25.58-57.91-25.22-58.54-56.66-.63-31.07,25.5-57.95,56.82-58.45s58,25.47,58.56,56.74S145.42,421.52,113.92,422.11Z" transform="translate(-31.77 -87.89)"/></svg>