<svg id="Layer_1" data-name="Layer 1" xmlns="http://www.w3.org/2000/svg" viewBox="0 0 627.32 648.73"><title>Monitoring and Auditing</title><path d="M186.71,473c-2.87,2.72-4.58,4.28-6.22,5.91l-68.85,68.8C95.34,563.92,72.45,568.24,52,559.2c-20-8.85-32.11-28.69-31.1-51.45.62-13.89,6.47-25.51,16.28-35.29,23.9-23.82,47.66-47.8,71.7-71.49,3.56-3.51,3.86-6.29,2-10.73a150.35,150.35,0,0,1,70-190.77c4.65-2.44,5.83-5.22,5.81-10.12-.18-45.08-.11-90.15-.11-135.23,0-26.63,16-42.57,42.7-42.57q139.14,0,278.28-.12a20.08,20.08,0,0,1,15.53,6.42C563.39,58.32,603.84,98.56,644,139.06a15.08,15.08,0,0,1,4,9.65q.29,236.16.12,472.32c0,22.9-17.44,39.1-41.57,39.11H227.67c-24.56-.19-40.95-16.51-41-41q-.07-68.6,0-137.18Zm19.65,6.15V617.3c0,16,7.11,23.18,23,23.19H605.69c15.47,0,22.88-7.37,22.88-22.71V156.89H544.24c-24.93,0-41.29-16.36-41.36-41.29-.07-25.7,0-51.4,0-77.1V31.2H228.77c-15,0-22.39,7.4-22.4,22.45v134c71.06-16,130.06,1.9,170.66,62.43,36.08,53.79,36.3,111.75.55,165.81C337,477.3,277.64,495.21,206.36,479.15ZM383,333.69c0-72.6-59-132.07-131.29-132.29-72.7-.21-132.42,59.16-132.57,131.81s59.23,132.15,132.07,132.11C323.85,465.29,383,406.26,383,333.69ZM170,461.5a153.36,153.36,0,0,1-46.62-46.21,8.2,8.2,0,0,0-1.83.78C97.41,440.18,73,464.14,49.15,488.6c-12.49,12.81-11.52,33.41,1.2,46s33.14,13.1,46,.49C121,511,145.06,486.5,170,461.5ZM613.86,137.18l-89.4-91.55L522.71,47c0,24.55-.31,49.1.16,73.63.17,8.75,8.54,16.32,17.52,16.44C564.52,137.39,588.66,137.18,613.86,137.18Z" transform="translate(-20.88 -11.41)"/><path d="M516.13,468.61H458c-1.74,0-3.8.55-5.15-.2-2-1.1-3.47-3.12-5.16-4.76,1.67-1.63,3.15-3.58,5.1-4.78,1.11-.68,3-.16,4.5-.16H574.87c2,0,4.25-.43,5.76.43a7.2,7.2,0,0,1,3.31,4.8c.1,1.33-1.76,3.4-3.24,4.12-1.63.79-3.82.52-5.77.53Q545.52,468.64,516.13,468.61Z" transform="translate(-20.88 -11.41)"/><path d="M487.15,276.94h-45.6c-3.78,0-8.22.27-8.37-4.81s4.15-5.23,8-5.23h91.87c3.74,0,8.14-.19,8,5.16s-4.58,4.84-8.29,4.84Z" transform="translate(-20.88 -11.41)"/><path d="M483.83,394.76h44.34c3.82,0,8.08-.11,8,5.19-.1,4.8-4.14,4.82-7.72,4.82h-90c-3.66,0-7.61-.21-7.64-4.93,0-5.25,4.23-5.1,8-5.1Q461.34,394.79,483.83,394.76Z" transform="translate(-20.88 -11.41)"/><path d="M476.32,596.25H426.69c-3.58,0-7.73.18-7.86-4.6-.14-5.28,4.22-5,8-5H527.4c3.66,0,7.58,0,7.52,4.9s-4.1,4.76-7.69,4.76Z" transform="translate(-20.88 -11.41)"/><path d="M346.44,586.62h43.72c3.67,0,7.45.06,7.3,5.08-.14,4.63-3.82,4.55-7.18,4.55H303.51c-3.68,0-7.5-.14-7.32-5.09.16-4.43,3.73-4.58,7.19-4.57C317.74,586.64,332.09,586.61,346.44,586.62Z" transform="translate(-20.88 -11.41)"/><path d="M541.67,340.88c-11.3,0-22.6.27-33.87-.22-2.49-.11-6.59-2.65-6.93-4.59-.79-4.59,3.27-5.26,7-5.26,23,0,46-.13,69,.22,2.43,0,6.54,2.65,6.89,4.6.84,4.64-3.26,5.25-7,5.25Z" transform="translate(-20.88 -11.41)"/><path d="M294.79,532.41H257.68c-3.43,0-6.94-.33-6.88-4.89s3.4-4.86,6.93-4.86c24.74,0,49.48-.1,74.22.22,2.23,0,5.92,2.52,6.32,4.42.92,4.33-2.84,5.11-6.36,5.11Q313.36,532.44,294.79,532.41Z" transform="translate(-20.88 -11.41)"/><path d="M400.49,532.41H367.28c-3.68,0-7.63-.3-7.48-5s4.08-4.75,7.76-4.75q33.21.09,66.43,0c3.56,0,7.61-.21,7.72,4.69.13,5.46-4.32,5-8,5C422.64,532.5,411.57,532.42,400.49,532.41Z" transform="translate(-20.88 -11.41)"/><path d="M504.37,522.67h33.87c3.59,0,7.25.74,6.48,5-.35,1.9-4,4.51-6.21,4.54q-34.51.49-69,0c-2.22,0-6-2.73-6.27-4.59-.56-4.06,3-5,6.64-5C481.36,522.71,492.86,522.66,504.37,522.67Z" transform="translate(-20.88 -11.41)"/><path d="M498.3,213c-9.33,0-18.67.3-28-.22-2.24-.12-4.33-3-6.5-4.54,2.05-1.7,4.07-4.85,6.15-4.89q28.62-.57,57.27,0c2.08,0,4.1,3.18,6.15,4.88-2.15,1.59-4.23,4.44-6.46,4.56C517.41,213.28,507.85,213,498.3,213Z" transform="translate(-20.88 -11.41)"/><path d="M288,149c-10.22,0-20.46.27-30.67-.21-2.27-.11-5.91-2.55-6.3-4.46-.89-4.37,2.91-5.06,6.43-5.06h61.36c3.49,0,7,.46,6.89,4.95s-3.48,4.82-7,4.8C308.47,149,298.24,149,288,149Z" transform="translate(-20.88 -11.41)"/><path d="M428.63,85.08c-9.78,0-19.57-.06-29.35,0-3.64,0-7.24-.81-6.65-4.94.26-1.83,4.07-4.46,6.31-4.5q30-.52,60,0c2.19,0,5.86,2.62,6.2,4.5.78,4.36-2.95,5-6.51,4.93C448.64,85.05,438.63,85.08,428.63,85.08Z" transform="translate(-20.88 -11.41)"/><path d="M335.85,85.08H308.41c-3.6,0-7.29-.69-6.42-5,.37-1.88,4.06-4.37,6.29-4.41,18.72-.35,37.45-.19,56.18-.21,3.55,0,7.32.62,6.45,5-.38,1.88-4.05,4.29-6.32,4.41C355,85.36,345.43,85.08,335.85,85.08Z" transform="translate(-20.88 -11.41)"/><path d="M381.77,149c-9.33,0-18.67-.06-28,0-3.68,0-7.2-.91-6.46-5.05.33-1.88,4.07-4.46,6.3-4.51q28.32-.54,56.66,0c2.19,0,5.92,2.77,6.18,4.63.57,4.14-3.06,5-6.67,4.92C400.44,149,391.11,149,381.77,149Z" transform="translate(-20.88 -11.41)"/><path d="M411.53,213c-7.83,0-15.68.35-23.47-.21-2.32-.16-5.95-2.52-6.37-4.44-.93-4.27,2.76-5.22,6.33-5.23h47.64c3.53,0,7,.7,7,5s-3.33,5-7,5C427.63,212.94,419.58,213,411.53,213Z" transform="translate(-20.88 -11.41)"/><path d="M403.79,458.72c5.63,0,11.31-.43,16.87.22,2.09.24,3.88,3,5.81,4.57-1.85,1.69-3.65,4.75-5.57,4.83-11.24.46-22.52.46-33.76,0-2-.08-3.83-3-5.74-4.62,2.05-1.67,4-4.5,6.18-4.8C392.9,458.23,398.38,458.71,403.79,458.72Z" transform="translate(-20.88 -11.41)"/><path d="M462.85,340.85c-3.48,0-7.11.62-10.36-.22-2.13-.56-3.71-3.24-5.54-5,1.74-1.6,3.39-4.44,5.23-4.57a151,151,0,0,1,22.1,0c1.83.13,3.47,3,5.2,4.61-1.85,1.71-3.48,4.4-5.62,4.91C470.36,341.5,466.53,340.84,462.85,340.85Z" transform="translate(-20.88 -11.41)"/><path d="M569.1,212.93c-3.26,0-6.64.53-9.72-.19-1.86-.44-4.76-3.11-4.54-4.24.4-2,2.73-4.89,4.46-5a116.66,116.66,0,0,1,20.13,0c1.71.15,3.18,3.2,4.76,4.91-1.78,1.54-3.35,3.92-5.38,4.42-3.07.76-6.46.2-9.71.2Z" transform="translate(-20.88 -11.41)"/><path d="M265.18,85c-3.26,0-6.65.51-9.75-.2-1.79-.41-4.6-3.12-4.36-4.23.42-1.92,2.75-4.7,4.46-4.84a128.51,128.51,0,0,1,20.2,0c1.69.13,3.2,2.78,4.79,4.28-1.63,1.67-3,4.33-4.95,4.79C272.28,85.61,268.66,85,265.18,85Z" transform="translate(-20.88 -11.41)"/><path d="M571.47,394.82c2.6,0,5.45-.65,7.74.19,2,.74,4.24,3,4.63,4.92.26,1.23-2.54,4.33-4.17,4.49a93.43,93.43,0,0,1-17.54,0c-1.66-.16-4.49-3.19-4.26-4.44a7.6,7.6,0,0,1,4.55-5C565.2,394.19,568.43,394.82,571.47,394.82Z" transform="translate(-20.88 -11.41)"/><path d="M569.88,596.2c-2.81,0-5.8.58-8.39-.19-2-.6-3.5-2.89-5.23-4.43,1.63-1.64,3.14-4.51,4.91-4.69a93.18,93.18,0,0,1,18.14,0c1.76.17,3.26,3.07,4.87,4.72-1.73,1.53-3.25,3.86-5.26,4.4C576.1,596.78,572.91,596.21,569.88,596.2Z" transform="translate(-20.88 -11.41)"/><path d="M451.82,149c-3,0-6.25.62-9.05-.2a8,8,0,0,1-4.64-4.86c-.28-1,2.64-4.14,4.28-4.27a113.72,113.72,0,0,1,18.82,0c1.53.14,4,3.08,3.91,4.64s-2.47,4-4.26,4.44C458,149.5,454.86,149,451.82,149Z" transform="translate(-20.88 -11.41)"/><path d="M263.33,586.7c2.39,0,5-.62,7.1.18,1.81.7,4.14,3,4.13,4.59s-2.54,4.28-4.18,4.46a74,74,0,0,1-15.61,0c-1.47-.15-3.89-2.88-3.73-4.15a6.86,6.86,0,0,1,3.87-4.82C257.48,586.11,260.5,586.71,263.33,586.7Z" transform="translate(-20.88 -11.41)"/><path d="M573.4,266.82c4,.83,10.56-1.9,10.51,5.15s-6.5,4.83-10.65,4.86-10.7,1.95-10.69-4.88S569.09,267.5,573.4,266.82Z" transform="translate(-20.88 -11.41)"/><path d="M575.59,521.66c2.93,1.24,5.82,1.8,7.66,3.51.88.8-.1,5.48-.49,5.51a93.9,93.9,0,0,1-15,.14c-.44,0-1.49-4.88-.76-5.42C569.43,523.67,572.53,522.9,575.59,521.66Z" transform="translate(-20.88 -11.41)"/><path d="M250.82,440.42c-58.76-.09-106.61-48-106.77-106.93s48.77-107.61,107.36-107.16c59,.46,106.7,48.37,106.67,107.1a107.08,107.08,0,0,1-107.17,107Zm97.49-106.17c.62-53-42.72-97.32-95.76-97.89-53.6-.57-97.77,42-98.49,95-.75,54.6,41.85,98.59,96.23,99.36C303.39,431.5,347.68,387.87,348.31,334.25Z" transform="translate(-20.88 -11.41)"/><path d="M251.86,375.3c-23.63-.61-41.13-11.91-56.93-26.52-16-14.81-16.11-15.77-.12-30.38a141.7,141.7,0,0,1,22.37-16.78c23.5-14.09,47.43-13.48,70.11,1.47,10.59,7,19.6,16.38,29.24,24.77,4,3.5,4.08,6.95.29,11.1-15.39,16.84-32.51,30.83-55.67,35.32C257.75,374.94,254.25,375.05,251.86,375.3Zm56.21-41.64c-37.79-42.76-77.65-42.48-113.59.11,37.65,41.84,74.91,42.14,113.59-.11Z" transform="translate(-20.88 -11.41)"/><path d="M272,333.55a20.66,20.66,0,0,1-20.5,20.82h-.69A20.94,20.94,0,0,1,230,333.29V333a21,21,0,0,1,42,.38Zm-20.74-11.13a10.79,10.79,0,0,0-11.2,10.36c0,.18,0,.37,0,.55A11.19,11.19,0,0,0,251,344.71a11.48,11.48,0,0,0,11.37-11.07,11.19,11.19,0,0,0-11.11-11.22Z" transform="translate(-20.88 -11.41)"/></svg>