<svg id="Layer_1" data-name="Layer 1" xmlns="http://www.w3.org/2000/svg" viewBox="0 0 605.25 601.45"><title>Regression testing</title><path d="M71.19,175c36.5-3.73,71.25-7.09,105.94-10.95,11.55-1.28,13.77,4,12.83,14-3.11,32.81-5.8,65.66-8.8,100.27-4.09-2.26-6.77-3.23-8.83-4.95-24.92-20.84-24.89-20.87-37.68,8.32C92.2,378.63,119.9,492.07,203.81,565c77.56,67.4,196.8,76.29,285.57,21.64,6.33-3.89,12.7-14.66,20.37-8.81a160.12,160.12,0,0,1,31.75,33.12c3.68,5.08-5.72,8.92-10.26,11.92-88.3,58.51-182.95,70.16-281,31.21C83.34,587.81,13.07,393.26,97.75,235.09c9.27-17.3,7.63-26.89-6.84-37.88C83.76,191.79,75.86,186.12,71.19,175Z" transform="translate(-61.75 -75.32)"/><path d="M667,542.7c-34.78,6.22-69.26,12.29-103.69,18.6-9.06,1.67-15.07,2.36-14.71-10.75.93-33.54.31-67.11.31-103.85,6.21,3.43,8.8,4.45,10.91,6.09,32.25,25,33.51,25.34,42.81-16,22.27-98.88-3.38-184.46-81.26-249.36-79.32-66.1-168.89-75.75-263.67-33.5-7.65,3.41-16,14.11-23.19,8.44-11.83-9.38-21.72-22-30-34.79-4.21-6.55,6.06-8.68,10.42-11C321.82,59.11,428.09,60.84,529.66,127c119.62,78,166.06,230.3,111.64,360.5-8.59,20.56-4.67,30.1,11.51,40.5C658,531.39,664.53,534.42,667,542.7Z" transform="translate(-61.75 -75.32)"/><path d="M285.36,475.7c4.32-41.12-6.47-70.12-22.06-98.12-25.4-45.62-21-89.51,8.8-131.7,30.83-43.61,92.3-58.78,145.55-35.62,46.1,20.05,76.42,79.75,65.56,129.17-3.3,15-7.87,29.38-16.26,42.66-19.56,31-23.1,65.45-21.83,101.23s-32,69.39-68.11,68.61c-20.56-.44-44.19,7.5-59.95-12.09C300.23,518.92,276.52,499.9,285.36,475.7Zm72.72-33.57c21.77,0,36.44-.31,51.09.12,8.69.26,14-2.78,15.52-11.6,4.63-27.22,19.21-50.36,30.37-75,16.41-36.13,5.8-84.32-22.93-108.89-34-29.09-79-33.34-116.3-11-35.34,21.22-52.39,63.32-43.58,103.75,4.81,22.06,22.7,39.2,25.62,60.17C303.94,443.38,329.26,449.51,358.08,442.13Zm9,39.76v-.15c-14.62,0-29.24-.07-43.86,0-6.21.05-12,1.68-13.38,8.69-1.56,7.91,5,11,10.39,11.41a586.25,586.25,0,0,0,91.81,0c4.8-.38,10.48-3.21,10.49-9.45,0-7.12-5.14-10.31-11.61-10.44C396.29,481.68,381.67,481.89,367.06,481.89Zm.36-26.95c-15.29,0-30.58-.07-45.87,0-5.12,0-11.22,0-11.7,6.78-.51,7.09,4.56,10.55,11.16,10.59q44.78.3,89.55,0c6.32,0,12.06-2.75,11.67-10.09-.45-8.44-7.73-7.22-13.3-7.3C395.1,454.78,381.26,454.92,367.42,454.94Zm35.25,57.36c-20.2,0-39.19-.17-58.18.1-5.34.08-13.15-1.77-12.63,7.5.39,7,6.15,9.78,12.46,9.89,14.66.28,29.34.39,44-.1C396.72,529.4,401.39,524.17,402.67,512.3Z" transform="translate(-61.75 -75.32)"/><path d="M383.86,293.33c-1.73,24.6-3,47.15-5.06,69.63-.71,7.93-2.21,17.32-13.14,16.8-10.49-.49-11.84-9.62-12.44-17.7-1.89-25.43-3-50.91-5.07-76.33-1.24-15.36,3.3-27.9,19.85-27.59,15.21.29,16.5,13.82,15.89,26.3C383.71,288.09,383.86,291.75,383.86,293.33Z" transform="translate(-61.75 -75.32)"/><path d="M378.56,401.74c-2.23,6.44-5.83,12.47-13.23,11.71a12.62,12.62,0,0,1-11.55-13.28c.15-7.79,5.67-11.23,13.08-10.81S378.63,393.78,378.56,401.74Z" transform="translate(-61.75 -75.32)"/></svg>