<svg id="Layer_1" data-name="Layer 1" xmlns="http://www.w3.org/2000/svg" viewBox="0 0 695.82 630.75"><defs><style>.cls-1{fill:#c1272d;}.cls-2{fill:#fefefe;}</style></defs><title>Robust Error handling</title><path class="cls-1" d="M206,663.64c-7.77-4.93-8.69-9.13-4-17.32q31.45-54.52,62.88-109.07Q320.16,441.61,375.48,346c5.2-9,13.6-9.09,18.73-.23q37.56,65,75.07,130,48.54,84,97,168.1c.56,1,1.09,1.93,1.63,2.89,4.51,8,3.51,12.09-4.12,16.92ZM359.34,474.48c-.12,14.57,2.35,27.74,5.43,40.83a500.22,500.22,0,0,0,15.28,51.86c.81,2.29,1.9,4.84,4.4,4.94,2.69.1,4.28-2.23,5.21-4.72.22-.59.55-1.14.74-1.74,7.23-21.73,14-43.59,17.92-66.22,3.78-21.77,2.62-43.22-4.32-64.26a41.44,41.44,0,0,0-7.29-13.78c-7.18-8.68-16.6-8.61-23.72.18a44.77,44.77,0,0,0-7.11,13.34C361.17,448.05,359.77,461.71,359.34,474.48Zm25.55,153.06a22.38,22.38,0,1,0-22.41-22.36A22.52,22.52,0,0,0,384.89,627.54Z" transform="translate(-37 -32.89)"/><path d="M385,32.91q49,0,97.94,0c22.31,0,35.79,13.15,35.9,35.45q.29,58.68,0,117.35c-.11,22.28-13.57,35.49-35.91,35.53q-97.94.12-195.89,0c-22.19,0-35.79-13.31-35.93-35.56q-.37-59.13,0-118.27c.11-20.93,14-34.42,35.06-34.49C319,32.84,352,32.91,385,32.91Zm53.66,98.57a28.8,28.8,0,0,0,29.19-28.34c.27-15.49-12.88-28.95-28.52-29.19s-28.77,12.75-28.94,28.57A28.23,28.23,0,0,0,438.61,131.48Zm-108.54-.3c16.47.14,28.85-11.74,29.11-28a28.53,28.53,0,0,0-27.93-29.41c-15.6-.37-29.06,12.54-29.41,28.22A28.62,28.62,0,0,0,330.07,131.18Zm55.53,34.73V166c-16.9,0-33.8,0-50.69,0-5.44,0-8.82,2.83-9.05,8.3s3.22,8.31,8.47,9a37.15,37.15,0,0,0,4.6.15q46.56,0,93.1,0c6.08,0,11.76-1.1,11.8-8.39,0-7.54-5.52-9.23-12.14-9.17C416.33,166,401,165.91,385.6,165.91Z" transform="translate(-37 -32.89)"/><path d="M484,449.18c-8.63-14.78-16-27.34-23.29-39.94Q432.83,361,405,312.65c-11-19.15-29.07-19.34-40-.35q-36.42,63.06-72.78,126.14c-1.08,1.86-2.18,3.71-3.28,5.56-.94,1.57-1.84,3.52-4.09,2.88-2.47-.7-1.75-3.13-1.52-4.68,6-38.88,9-78.13,13.67-117.17q3.56-29.77,6.63-59.6c1.82-17.39,11.44-26.67,29.07-26.75q52.63-.26,105.27.07c16.63.09,26.53,9.94,28.34,26.59q8.79,80.73,17.89,161.42C484.89,433.32,485.56,439.88,484,449.18Z" transform="translate(-37 -32.89)"/><path d="M496,256.43c80.78,5.43,145,37.37,181.76,113.36,8.48,17.54,13.74,36.08,17.66,55.1,1.42,6.89-.53,8.68-7.26,7.18a51.6,51.6,0,0,0-25.6,1c-6,1.73-7,.2-8.07-5.41-6.92-36.37-22.57-68.07-51.45-92.24-25.86-21.63-56.66-31.31-89.32-36.23a162.54,162.54,0,0,0-20.18-1.84c-4.82-.1-6.31-2.26-6.78-6.6-.89-8.25-1.67-16.56-3.44-24.64-1.81-8.29.59-11.43,9-9.74A18.91,18.91,0,0,0,496,256.43Z" transform="translate(-37 -32.89)"/><path d="M286.7,262c-1.2,9.49-2.69,19.53-3.67,29.62-.56,5.82-4.35,5.49-8.48,5.73a214.39,214.39,0,0,0-66.4,14.15c-53.17,20.84-81.93,61.41-92.81,116-1.09,5.46-2,7.33-8,5.6C99,430.78,90.24,430,81.73,432.08s-8.42-2-7.2-8.14c7-35.56,20.9-67.91,44.05-96.13,35-42.7,81.72-62.49,135.05-69.33,9.44-1.21,19-1.48,28.49-2.27C286.13,255.87,288,257.3,286.7,262Z" transform="translate(-37 -32.89)"/><path d="M91.4,536.14c-13.84,0-27.69.13-41.53,0-9.27-.11-12.79-3.56-12.67-12.92.14-11-1.28-22.1,1.91-33,7.61-26.05,31.13-42.3,58-39.75,25.68,2.44,46.1,23.58,48.09,50.18.55,7.34.36,14.76.21,22.14C145.15,532.8,142,536,132,536.11,118.47,536.25,104.94,536.14,91.4,536.14Z" transform="translate(-37 -32.89)"/><path d="M678.6,536.14c-13.85,0-27.69-.1-41.54,0-8.47.08-12.64-4.09-12.58-12.32.09-11-1.23-22.18,1.68-33.06,7.17-26.76,31.74-43.43,59.28-40.31,25.55,2.89,46.18,25.59,47.24,52.17.28,7.06,0,14.15.06,21.22,0,8.43-4.33,12.3-12.61,12.27C706.29,536.1,692.44,536.14,678.6,536.14Z" transform="translate(-37 -32.89)"/><path d="M649.48,576c0-3.38.49-6.85-.09-10.12-1.57-8.7,2.49-10.07,10.16-9.91,6.6.13,8.45,2.13,8.08,8.45-.5,8.57,0,17.2-.17,25.8-.11,5.93-2.55,10.34-9.21,10.18s-8.77-4.65-8.82-10.58c0-4.6,0-9.21,0-13.82Z" transform="translate(-37 -32.89)"/><path d="M61.81,574.72c0-3.68.42-7.42-.09-11-1-7.4,2-9.2,9.12-9.24s9.7,1.93,9.14,9.22c-.63,8.23-.15,16.55-.2,24.84,0,6-2.3,10.34-8.94,10.39s-8.84-4.57-9.06-10.37c-.17-4.6,0-9.21,0-13.81Z" transform="translate(-37 -32.89)"/><path d="M690.05,574.21c0-3.07.41-6.2-.07-9.19-1.37-8.53,2.06-11,10.44-10.55,6,.32,8.09,1.8,7.77,7.86-.46,8.57-.07,17.18-.18,25.77-.09,6.24-2.3,11.12-9.53,10.78-6.61-.31-8.51-5-8.48-10.86,0-4.6,0-9.21,0-13.81Z" transform="translate(-37 -32.89)"/><path d="M120.33,574.2c0,5.21.21,10.44-.06,15.64s-2.82,8.82-8.42,9c-6.09.26-9.19-3.4-9.38-9-.34-10.11,0-20.24-.15-30.36-.06-7,5.22-4.81,8.56-4.62,3.51.2,9.4-3,9.52,4.57.07,4.91,0,9.81,0,14.72Z" transform="translate(-37 -32.89)"/><path class="cls-2" d="M438.61,131.48a28.23,28.23,0,0,1-28.27-29c.17-15.82,13.33-28.81,28.94-28.57s28.79,13.7,28.52,29.19A28.8,28.8,0,0,1,438.61,131.48Z" transform="translate(-37 -32.89)"/><path class="cls-2" d="M330.07,131.18A28.62,28.62,0,0,1,301.84,102c.35-15.68,13.81-28.59,29.41-28.22a28.53,28.53,0,0,1,27.93,29.41C358.92,119.44,346.54,131.32,330.07,131.18Z" transform="translate(-37 -32.89)"/><path class="cls-2" d="M385.6,165.91c15.36,0,30.73.1,46.09,0,6.62-.06,12.17,1.63,12.14,9.17,0,7.29-5.72,8.4-11.8,8.39q-46.54-.07-93.1,0a37.15,37.15,0,0,1-4.6-.15c-5.25-.67-8.71-3.39-8.47-9s3.61-8.28,9.05-8.3c16.89-.06,33.79,0,50.69,0Z" transform="translate(-37 -32.89)"/></svg>