<svg id="Layer_1" data-name="Layer 1" xmlns="http://www.w3.org/2000/svg" viewBox="0 0 684 568"><defs><style>.cls-1{fill:#fff;}</style></defs><title>Schema Indepedent</title><path class="cls-1" d="M44,90H300V346H44Zm248.41,8.17H52.77c-.09,1.64-.26,3.11-.26,4.58q0,88,.12,176a10.86,10.86,0,0,0,2.94,6.85q24.36,24.78,49.15,49.11a12.14,12.14,0,0,0,7.68,3.22q87.48.27,175,.13c1.61,0,3.22-.15,5.05-.24Z" transform="translate(-44 -90)"/><path d="M292.41,98.17V337.78c-1.83.09-3.44.24-5.05.24q-87.48,0-175-.13a12.14,12.14,0,0,1-7.68-3.22q-24.82-24.3-49.15-49.11a10.86,10.86,0,0,1-2.94-6.85q-.24-88-.12-176c0-1.47.17-2.94.26-4.58Zm-13.87,14h-212V273.3h50.51v50.55H278.54Z" transform="translate(-44 -90)"/><path d="M181.78,130.42h78.07v78.26H228.37v18.38h31.37v78.39H182.22V227.34h31.42V209H182.18V176.91H163.46v31.54H85.29V130.52h77.77v31.74h18.72ZM99,194.68H149V144.34H99Zm147.06-50.31H196v50.29h50.12ZM196,291.64h49.94V241.33H196Z" transform="translate(-44 -90)"/><path class="cls-1" d="M368,90H624V346H368Zm248.41,8.17H376.77c-.09,1.64-.26,3.11-.26,4.58q0,88,.12,176a10.86,10.86,0,0,0,2.94,6.85q24.36,24.78,49.15,49.11a12.14,12.14,0,0,0,7.68,3.22q87.48.27,175,.13c1.61,0,3.22-.15,5-.24Z" transform="translate(-44 -90)"/><path d="M616.41,98.17V337.78c-1.83.09-3.44.24-5,.24q-87.48,0-175-.13a12.14,12.14,0,0,1-7.68-3.22q-24.83-24.3-49.15-49.11a10.86,10.86,0,0,1-2.94-6.85q-.24-88-.12-176c0-1.47.17-2.94.26-4.58Zm-13.87,14h-212V273.3h50.51v50.55H602.54Z" transform="translate(-44 -90)"/><path d="M505.78,130.42h78.07v78.26H552.37v18.38h31.37v78.39H506.22V227.34h31.42V209H506.18V176.91H487.46v31.54H409.29V130.52h77.77v31.74h18.72ZM423,194.68h50V144.34H423Zm147.06-50.31H520v50.29h50.12ZM520,291.64h49.94V241.33H520Z" transform="translate(-44 -90)"/><path class="cls-1" d="M472,402H728V658H472Zm248.41,8.17H480.77c-.09,1.64-.26,3.11-.26,4.58q0,88,.12,176a10.86,10.86,0,0,0,2.94,6.85q24.36,24.78,49.15,49.11a12.14,12.14,0,0,0,7.68,3.22q87.48.27,175,.13c1.61,0,3.22-.15,5-.24Z" transform="translate(-44 -90)"/><path d="M720.41,410.17V649.78c-1.83.09-3.44.24-5,.24q-87.48,0-175-.13a12.14,12.14,0,0,1-7.68-3.22q-24.83-24.3-49.15-49.11a10.86,10.86,0,0,1-2.94-6.85q-.24-88-.12-176c0-1.47.17-2.94.26-4.58Zm-13.87,14h-212V585.3h50.51v50.55H706.54Z" transform="translate(-44 -90)"/><path d="M609.78,442.42h78.07v78.26H656.37v18.38h31.37v78.39H610.22V539.34h31.42V521H610.18V488.91H591.46v31.54H513.29V442.52h77.77v31.74h18.72ZM527,506.68h50V456.34H527Zm147.06-50.31H624v50.29h50.12ZM624,603.64h49.94V553.33H624Z" transform="translate(-44 -90)"/><path class="cls-1" d="M164,402H420V658H164Zm248.41,8.17H172.77c-.09,1.64-.26,3.11-.26,4.58q0,88,.12,176a10.86,10.86,0,0,0,2.94,6.85q24.36,24.78,49.15,49.11a12.14,12.14,0,0,0,7.68,3.22q87.48.27,175,.13c1.61,0,3.22-.15,5.05-.24Z" transform="translate(-44 -90)"/><path d="M412.41,410.17V649.78c-1.83.09-3.44.24-5.05.24q-87.48,0-175-.13a12.14,12.14,0,0,1-7.68-3.22q-24.83-24.3-49.15-49.11a10.86,10.86,0,0,1-2.94-6.85q-.24-88-.12-176c0-1.47.17-2.94.26-4.58Zm-13.87,14h-212V585.3h50.51v50.55H398.54Z" transform="translate(-44 -90)"/><path d="M301.78,442.42h78.07v78.26H348.37v18.38h31.37v78.39H302.22V539.34h31.42V521H302.18V488.91H283.46v31.54H205.29V442.52h77.77v31.74h18.72ZM219,506.68h50V456.34H219Zm147.06-50.31H316v50.29h50.12ZM316,603.64h49.94V553.33H316Z" transform="translate(-44 -90)"/></svg>