<?xml version="1.0" encoding="utf-8"?>
<!-- Generator: Adobe Illustrator 25.0.1, SVG Export Plug-In . SVG Version: 6.00 Build 0)  -->
<svg version="1.1" id="Layer_1" xmlns="http://www.w3.org/2000/svg" xmlns:xlink="http://www.w3.org/1999/xlink" x="0px" y="0px"
	 viewBox="0 0 100 100" style="enable-background:new 0 0 100 100;" xml:space="preserve">
<style type="text/css">
	.st0{fill:none;}
	.st1{fill:#329DD8;}
</style>
<g id="Group_16" transform="translate(-22.728 -37.045)">
	<g id="Path_81">
		<path class="st0" d="M116.29,123.63c-0.36,1.27-0.88,2.49-1.53,3.63c-3.01,4.05-8.22,4.27-11.89,0.61
			c-5.6-5.57-11.19-11.15-16.78-16.74c-1.13-1.13-1.14-1.14-2.48-0.34c-12.05,7.1-27.1,6.69-38.74-1.07
			c-7.55-4.93-12.97-12.54-15.15-21.29c-0.49-1.89-0.67-3.86-0.99-5.8c-0.05-0.3-0.12-0.61-0.18-0.91v-4.45
			c0.07-0.21,0.12-0.43,0.15-0.65c0.33-5.22,1.84-10.3,4.42-14.86c5.22-9.58,14.5-16.28,25.24-18.2c1.47-0.3,2.98-0.45,4.47-0.67
			h4.11c1.3,0.17,2.6,0.3,3.89,0.51c8.96,1.36,17.07,6.04,22.73,13.12c0.17,0.21,0.36,0.4,0.58,0.63c0.72-0.73,1.36-1.41,2.05-2.05
			c0.35-0.26,0.43-0.74,0.18-1.1c-1.33-2.91-0.06-6.35,2.85-7.68c2.91-1.33,6.35-0.06,7.68,2.85c0.06,0.13,0.12,0.27,0.17,0.41
			c0.11,0.45,0.55,0.73,1,0.65c2.74-0.01,5.48,0.01,8.22,0.02v2.91c-2.8-0.01-5.59,0-8.39-0.03c-0.37-0.05-0.71,0.19-0.8,0.55
			c-1.08,3-4.38,4.55-7.37,3.48c-0.19-0.07-0.38-0.15-0.57-0.24c-0.24-0.09-0.51-0.06-0.72,0.07c-0.9,0.82-1.76,1.69-2.65,2.55
			c0.38,0.64,0.7,1.17,1.01,1.71c6.68,11.53,6.47,25.81-0.54,37.14c-0.35,0.38-0.33,0.98,0.05,1.33c0.04,0.03,0.08,0.07,0.12,0.09
			c5.45,5.4,10.85,10.84,16.31,16.23c1.8,1.51,3.05,3.57,3.56,5.86L116.29,123.63z M93.64,114.52c0.16,0.17,0.37,0.39,0.59,0.61
			c3.33,3.32,6.66,6.65,9.99,9.97c0.46,0.46,0.92,0.94,1.42,1.35c1.99,1.68,4.96,1.43,6.64-0.56c1.48-1.75,1.48-4.31,0.01-6.07
			c-0.05-0.07-0.11-0.13-0.16-0.2c-3.96-3.93-7.93-7.86-11.84-11.73L93.64,114.52z M94.47,102.08l-6.6,6.5l3.53,3.51l6.58-6.52
			L94.47,102.08z M101.64,54.57c1.61,0.02,2.94-1.26,2.96-2.87c0-0.01,0-0.02,0-0.03c-0.03-1.59-1.3-2.87-2.89-2.91
			c-1.61-0.01-2.93,1.29-2.94,2.9c0,0.01,0,0.02,0,0.03c-0.01,1.58,1.26,2.87,2.84,2.88C101.62,54.57,101.63,54.57,101.64,54.57
			L101.64,54.57z"/>
		<path class="st1" d="M108.71,129.66c2.1,0,4.01-1.02,5.39-2.87c0.44-0.6,0.71-1.39,0.99-2.22c0.12-0.36,0.24-0.72,0.38-1.08v-1.49
			c-0.36-2.07-1.59-3.64-3.32-5.35c-2.98-2.94-5.98-5.94-8.89-8.84c-2.43-2.43-4.94-4.94-7.43-7.39c-0.77-0.76-0.85-1.51-0.28-2.43
			c3.48-5.6,5.26-11.81,5.29-18.45c0.03-6.34-1.58-12.35-4.76-17.85c-0.21-0.36-0.42-0.72-0.65-1.1c-0.11-0.19-0.23-0.39-0.36-0.61
			l-0.32-0.55l0.46-0.44c0.22-0.22,0.44-0.43,0.66-0.65c0.65-0.64,1.32-1.3,2.01-1.92c0.32-0.29,0.75-0.33,0.98-0.33
			c0.15,0,0.38,0.02,0.6,0.11c0.77,0.32,1.55,0.48,2.3,0.48c2.05,0,3.76-1.22,4.58-3.27c0.29-0.73,0.78-1.07,1.54-1.07l0.02,0
			c2.1,0.02,4.24,0.02,6.31,0.02c0.42,0,0.84,0,1.26,0v-1.29c-0.44,0-0.88,0-1.31-0.01c-1.37-0.01-2.79-0.01-4.19-0.01
			c-0.68,0-1.3,0-1.9,0l-0.02,0c-0.6,0-1.34-0.13-1.74-1.17c-0.76-1.96-2.58-3.22-4.64-3.22c-0.67,0-1.33,0.13-1.96,0.4
			c-1.25,0.53-2.2,1.51-2.7,2.76c-0.49,1.25-0.46,2.62,0.09,3.86c0.23,0.51,0.44,1.28-0.37,2.02c-0.47,0.43-0.92,0.89-1.39,1.38
			c-0.2,0.21-0.42,0.43-0.63,0.65l-0.6,0.6l-0.57-0.63c-0.07-0.07-0.13-0.14-0.2-0.21c-0.14-0.15-0.28-0.3-0.41-0.46
			c-2.88-3.52-6.21-6.38-9.9-8.51c-3.68-2.12-7.83-3.57-12.33-4.31c-0.86-0.14-1.76-0.25-2.62-0.35c-0.39-0.05-0.79-0.09-1.18-0.15
			h-4c-0.46,0.07-0.92,0.13-1.37,0.19c-0.99,0.13-2.02,0.27-3,0.46c-5.45,1.09-10.29,3.15-14.38,6.1c-4.1,2.96-7.56,6.9-10.31,11.71
			c-2.49,4.37-3.94,9.26-4.32,14.51c-0.02,0.23-0.08,0.44-0.13,0.61c-0.01,0.03-0.02,0.06-0.02,0.08v4.26
			c0.01,0.07,0.03,0.14,0.04,0.21c0.04,0.21,0.08,0.42,0.12,0.64c0.11,0.63,0.2,1.26,0.28,1.88c0.18,1.28,0.37,2.61,0.69,3.85
			c1.13,4.37,2.96,8.34,5.44,11.81c2.46,3.44,5.61,6.48,9.39,9.02c5.9,3.97,12.59,5.98,19.88,5.98c0.11,0,0.22,0,0.33,0
			c6.27-0.05,12.21-1.71,17.66-4.94c0.71-0.42,1.13-0.67,1.65-0.67c0.68,0,1.11,0.43,1.81,1.13l0,0c1.68,1.68,3.36,3.35,5.04,5.03
			c3.84,3.84,7.82,7.81,11.74,11.71C104.96,128.82,106.84,129.66,108.71,129.66 M100.28,106.75l0.57,0.57l2.62,2.6
			c3.05,3.03,6.13,6.08,9.21,9.13c0.08,0.08,0.14,0.15,0.19,0.21c0.01,0.02,0.02,0.03,0.03,0.04c1.85,2.24,1.7,5.45-0.34,7.45
			c-1.06,1.04-2.44,1.62-3.89,1.62c-1.28,0-2.55-0.47-3.57-1.31c-0.45-0.37-0.86-0.78-1.25-1.18c-0.08-0.08-0.15-0.15-0.23-0.23
			c-3.33-3.32-6.72-6.7-9.99-9.97c-0.16-0.16-0.31-0.32-0.45-0.46c-0.05-0.06-0.11-0.11-0.15-0.16l-0.55-0.57l0.56-0.56l6.64-6.62
			L100.28,106.75 M94.47,100.94l0.57,0.57l1.25,1.25c0.72,0.71,1.5,1.49,2.26,2.24l0.58,0.58l-0.58,0.58l-2.57,2.55
			c-1.34,1.33-2.68,2.66-4,3.97l-0.57,0.57l-0.57-0.57c-1.21-1.21-2.52-2.51-3.53-3.51l-0.58-0.58L87.3,108
			c2.15-2.12,4.37-4.31,6.59-6.5L94.47,100.94 M101.65,47.94c0.02,0,0.05,0,0.07,0c2.02,0.04,3.68,1.71,3.68,3.72
			c0,0.98-0.38,1.91-1.08,2.61c-0.71,0.71-1.66,1.11-2.67,1.11l-0.03,0c-2.05-0.02-3.66-1.64-3.67-3.7c0-1,0.39-1.94,1.1-2.65
			C99.76,48.33,100.68,47.94,101.65,47.94 M108.71,130.47c-2.03,0-4.11-0.86-5.85-2.59c-5.6-5.57-11.18-11.16-16.78-16.74
			c-0.62-0.62-0.9-0.9-1.25-0.9c-0.29,0-0.62,0.2-1.24,0.56c-5.57,3.29-11.61,5-18.07,5.05c-0.11,0-0.23,0-0.34,0
			c-7.36,0-14.19-1.99-20.33-6.12c-7.72-5.2-12.82-12.29-15.15-21.29c-0.49-1.89-0.67-3.86-0.99-5.8c-0.05-0.3-0.12-0.61-0.17-0.91
			v-4.45c0.05-0.22,0.14-0.43,0.15-0.65c0.38-5.28,1.81-10.27,4.42-14.86c5.63-9.88,14.06-15.96,25.23-18.21
			c1.47-0.3,2.98-0.45,4.47-0.67h4.11c1.3,0.17,2.6,0.3,3.89,0.51c9.22,1.52,16.81,5.87,22.73,13.11c0.17,0.21,0.36,0.4,0.58,0.63
			c0.72-0.73,1.36-1.41,2.05-2.05c0.38-0.35,0.39-0.63,0.18-1.1c-1.33-2.98,0.05-6.44,3.03-7.7c0.75-0.31,1.52-0.46,2.27-0.46
			c2.31,0,4.49,1.4,5.4,3.74c0.2,0.53,0.47,0.65,0.99,0.65c0.01,0,0.01,0,0.02,0c0.64,0,1.27,0,1.91,0c2.11,0,4.21,0.01,6.31,0.02
			v2.91c-2.8-0.01-5.59,0-8.39-0.03c-0.01,0-0.01,0-0.02,0c-0.43,0-0.62,0.15-0.78,0.55c-0.96,2.42-2.99,3.78-5.33,3.78
			c-0.84,0-1.72-0.18-2.61-0.54c-0.08-0.03-0.18-0.05-0.29-0.05c-0.17,0-0.34,0.04-0.43,0.12c-0.9,0.82-1.76,1.69-2.65,2.55
			c0.38,0.64,0.7,1.17,1.01,1.71c3.27,5.65,4.89,11.76,4.87,18.26c-0.03,6.78-1.82,13.1-5.41,18.88c-0.37,0.59-0.35,0.92,0.16,1.42
			c5.45,5.4,10.85,10.84,16.31,16.23c1.7,1.67,3.17,3.43,3.56,5.86v1.71c-0.5,1.22-0.77,2.61-1.53,3.63
			C113.17,129.4,110.98,130.47,108.71,130.47z M100.28,107.9c-2.19,2.18-4.4,4.38-6.64,6.62c0.16,0.17,0.37,0.39,0.59,0.61
			c3.33,3.32,6.66,6.65,9.99,9.97c0.46,0.46,0.92,0.94,1.42,1.35c0.91,0.75,1.98,1.12,3.05,1.12c1.2,0,2.38-0.47,3.32-1.39
			c1.73-1.71,1.85-4.44,0.28-6.36c-0.05-0.07-0.1-0.14-0.16-0.2C108.15,115.7,104.18,111.77,100.28,107.9z M94.46,102.08
			c-2.22,2.19-4.44,4.38-6.59,6.5c1.01,1,2.31,2.3,3.53,3.51c2.16-2.14,4.38-4.34,6.58-6.52C96.74,104.34,95.45,103.06,94.46,102.08
			z M101.65,48.75c-1.58,0-2.89,1.32-2.88,2.93c0,1.61,1.26,2.87,2.86,2.89c0.01,0,0.02,0,0.03,0c1.62,0,2.94-1.3,2.93-2.9
			c-0.01-1.56-1.32-2.88-2.89-2.91C101.69,48.75,101.67,48.75,101.65,48.75z"/>
	</g>
	<g id="Path_82" transform="translate(-3.791 -3.694)">
		<path class="st0" d="M68.93,48.83c18.91,0.04,34.2,15.39,34.17,34.3s-15.39,34.2-34.3,34.17c-18.89-0.04-34.18-15.37-34.17-34.26
			c0.02-18.91,15.36-34.23,34.28-34.21C68.92,48.83,68.92,48.83,68.93,48.83z M38.13,79.82c-1.81,17.02,10.53,32.28,27.55,34.08
			c10.69,1.13,21.2-3.35,27.78-11.85c8.8-11.33,7.64-25.55,2.47-33.87c-0.98,0.99-1.92,1.98-2.9,2.92
			c-0.39,0.29-0.48,0.83-0.21,1.23c1.47,3.25,0.03,7.07-3.22,8.54c-1.7,0.77-3.66,0.76-5.36-0.02c-0.4-0.26-0.93-0.16-1.21,0.23
			c-3.17,3.19-6.35,6.36-9.55,9.52c-0.42,0.3-0.53,0.87-0.26,1.3c1.02,2.09,0.75,4.58-0.68,6.41c-2.11,2.91-6.18,3.55-9.09,1.44
			c-2.49-1.81-3.37-5.12-2.11-7.93c0.12-0.27,0.15-0.75,0-0.91c-2.34-2.39-4.71-4.74-7.06-7.08c-4.46,1.81-7.3,0.7-9.52-3.62
			c-0.14-0.22-0.38-0.36-0.64-0.39C42.14,79.81,40.16,79.82,38.13,79.82z M94.22,65.33c-9.77-13.99-29.03-17.41-43.02-7.63
			c-6.39,4.47-10.86,11.19-12.51,18.81h5.9c0.99-3.51,4.64-5.55,8.15-4.56c0.24,0.07,0.48,0.15,0.72,0.25
			c3.55,1.46,4.76,5.04,3.14,9.36c2.33,2.32,4.66,4.67,7.04,6.97c0.31,0.15,0.66,0.16,0.98,0.02c1.64-0.77,3.54-0.77,5.19-0.01
			c0.46,0.3,1.07,0.19,1.39-0.25c2.7-2.75,5.43-5.47,8.19-8.18c0.63-0.62,1.31-1.2,1.65-1.51c-0.34-1.34-0.54-2.72-0.61-4.1
			c0.21-3.56,3.26-6.28,6.83-6.07c0.85,0.05,1.69,0.27,2.46,0.64c0.27,0.1,0.57,0.06,0.8-0.1C91.76,67.8,92.97,66.57,94.22,65.33z
			 M50.96,74.96c-1.77-0.04-3.23,1.36-3.26,3.13c0,0.01,0,0.02,0,0.03c-0.04,1.8,1.38,3.29,3.18,3.34c0.01,0,0.02,0,0.04,0
			c1.81-0.02,3.27-1.48,3.29-3.29C54.18,76.4,52.74,74.98,50.96,74.96L50.96,74.96z M67.32,97.75c1.79-0.02,3.23-1.49,3.21-3.28
			s-1.49-3.23-3.28-3.21c-1.77,0.02-3.2,1.46-3.21,3.24c0.01,1.8,1.47,3.26,3.27,3.25C67.31,97.75,67.31,97.75,67.32,97.75z
			 M90.13,74.91c0.01-1.77-1.42-3.2-3.19-3.21c-0.01,0-0.02,0-0.03,0c-1.8-0.02-3.28,1.43-3.29,3.23c0,0.01,0,0.02,0,0.03
			c0.05,1.77,1.47,3.2,3.25,3.24c1.8,0,3.26-1.46,3.27-3.26C90.13,74.94,90.13,74.93,90.13,74.91L90.13,74.91z"/>
		<path class="st1" d="M68.93,49.65c-4.53,0.04-8.91,0.93-13.02,2.65c-3.99,1.67-7.57,4.05-10.63,7.08
			c-6.31,6.24-9.81,14.65-9.83,23.67c-0.01,4.51,0.85,8.88,2.56,12.99c1.66,3.98,4.05,7.55,7.1,10.62
			c6.28,6.31,14.71,9.81,23.74,9.84l0.11,0c4.49,0,8.86-0.87,12.96-2.58c3.99-1.66,7.56-4.05,10.63-7.09
			c6.34-6.28,9.84-14.71,9.83-23.73c-0.01-8.95-3.46-17.33-9.72-23.58C86.41,53.26,77.98,49.76,68.93,49.65 M90,69.94
			c-0.24,0-0.46-0.05-0.64-0.14c-0.77-0.38-1.6-0.57-2.46-0.57c-2.59,0-5.45,1.86-5.66,5.32c-0.04,0.7,0.12,1.47,0.31,2.37
			c0.1,0.49,0.21,0.99,0.3,1.56l0.07,0.43l-0.32,0.3c-0.09,0.09-0.21,0.19-0.35,0.31c-0.35,0.31-0.83,0.73-1.27,1.17
			c-2.64,2.62-5.45,5.4-8.18,8.17c-0.28,0.28-0.72,0.66-1.36,0.66c-0.29,0-0.6-0.08-0.95-0.24c-0.7-0.33-1.43-0.49-2.17-0.49
			c-0.75,0-1.55,0.17-2.37,0.51c-0.24,0.1-0.55,0.16-0.85,0.16c-0.42,0-0.77-0.12-1.01-0.35c-1.9-1.85-3.8-3.75-5.64-5.58
			c-0.47-0.47-0.94-0.93-1.4-1.4l-0.37-0.37l0.18-0.49c1.47-3.92,0.46-7.03-2.69-8.33c-0.69-0.28-1.45-0.43-2.21-0.43
			c-1.17,0-2.27,0.34-3.2,0.98c-1.07,0.74-1.87,1.85-2.38,3.28l-0.19,0.54H44.6h-5.91h-0.98l0.18-0.96
			c1.79-9.6,9.71-20.77,23.38-24.12c2.55-0.62,5.14-0.94,7.71-0.94c10.35,0,20.28,5.2,25.91,13.57l0.37,0.56l-0.48,0.47
			c-0.3,0.29-0.59,0.59-0.88,0.88c-0.92,0.92-1.88,1.87-2.84,2.78C90.71,69.91,90.2,69.94,90,69.94 M69.02,114.91
			c-4.37,0-8.64-0.89-12.7-2.63c-15.06-6.49-20.4-21.42-18.99-32.56l0.09-0.71h0.72c0.47,0,0.93,0,1.39,0c0.46,0,0.91,0,1.37,0
			c0.89,0,2.07,0,3.24,0.02c0.52,0.01,1.11,0.37,1.35,0.83c1.43,2.78,3.01,4.01,5.14,4.01c0.98,0,2.07-0.25,3.36-0.77l0.5-0.2
			l0.38,0.38c0.44,0.44,0.88,0.88,1.32,1.31c1.89,1.88,3.84,3.83,5.75,5.77c0.53,0.54,0.3,1.47,0.17,1.79
			c-1.16,2.76-0.21,5.8,2.25,7.22c0.94,0.54,1.98,0.83,3.01,0.83c1.79,0,3.44-0.86,4.54-2.36c1.28-1.76,1.48-3.64,0.6-5.6
			c-0.49-1.1-0.03-1.76,0.43-2.21c3-2.96,6.12-6.08,9.55-9.52c0.28-0.29,0.69-0.61,1.27-0.61c0.27,0,0.54,0.07,0.85,0.21
			c0.75,0.34,1.54,0.52,2.35,0.52c1.49,0,2.91-0.59,3.98-1.65c1.67-1.65,2.13-4.18,1.16-6.32c-0.39-0.86-0.27-1.52,0.39-2.15
			c0.69-0.66,1.34-1.33,2.03-2.04c0.28-0.29,0.57-0.58,0.85-0.87l0.72-0.73l0.54,0.87c5.24,8.44,6.69,22.93-2.52,34.79
			C88,110.4,78.86,114.91,69.02,114.91 M86.9,79.02l-0.04,0c-2.21-0.02-4.02-1.84-4.05-4.04c-0.01-1.07,0.4-2.09,1.17-2.86
			c0.78-0.79,1.82-1.22,2.92-1.22l0.02,0c2.25,0.01,4.01,1.78,4.03,4.02c0.01,1.1-0.42,2.13-1.19,2.91
			C88.98,78.59,87.97,79.02,86.9,79.02 M50.94,82.28l-0.03,0c-1.09-0.01-2.1-0.44-2.86-1.22c-0.77-0.79-1.18-1.83-1.16-2.94
			c0.04-2.22,1.82-3.96,4.05-3.96l0.02,0c2.21,0.01,4.03,1.81,4.05,4.01c0.01,1.05-0.43,2.1-1.2,2.88
			C53.05,81.83,52,82.28,50.94,82.28 M67.28,98.56c-1.1,0-2.12-0.42-2.88-1.19c-0.76-0.76-1.18-1.79-1.18-2.88
			c0-2.21,1.81-4.03,4.02-4.05l0.04,0c1.08,0,2.11,0.43,2.88,1.21c0.77,0.78,1.19,1.8,1.19,2.87c-0.01,2.21-1.82,4.02-4.03,4.04
			L67.28,98.56 M68.93,48.83c19.15,0.24,34.25,15.29,34.26,34.26c0.01,19.2-15.45,34.21-34.24,34.21c-0.04,0-0.07,0-0.11,0
			c-19.17-0.06-34.27-15.39-34.21-34.26C34.69,63.85,50,49,68.93,48.83z M90,69.13c0.2,0,0.41-0.06,0.52-0.15
			c1.25-1.18,2.46-2.41,3.71-3.64c-4.91-7.31-14.25-13.21-25.24-13.22c-2.43,0-4.95,0.29-7.52,0.92
			C49.08,56.07,40.6,66.28,38.69,76.51h5.91c1.19-3.42,3.85-4.81,6.35-4.81c0.88,0,1.75,0.17,2.52,0.49
			c3.55,1.46,4.76,5.04,3.14,9.36c2.33,2.32,4.66,4.67,7.04,6.97c0.09,0.08,0.26,0.12,0.44,0.12c0.19,0,0.39-0.04,0.54-0.1
			c0.89-0.37,1.79-0.58,2.68-0.58c0.84,0,1.68,0.18,2.51,0.57c0.23,0.11,0.43,0.17,0.6,0.17c0.28,0,0.51-0.14,0.79-0.42
			c2.71-2.75,5.45-5.46,8.19-8.18c0.63-0.62,1.31-1.2,1.65-1.51c-0.26-1.64-0.69-2.89-0.61-4.1c0.23-3.71,3.27-6.08,6.47-6.08
			c0.95,0,1.91,0.21,2.82,0.65C89.78,69.12,89.89,69.13,90,69.13z M69.02,114.09c9.27,0,18.32-4.17,24.44-12.05
			c8.8-11.33,7.64-25.55,2.47-33.87c-0.98,0.99-1.92,1.98-2.9,2.92c-0.41,0.39-0.45,0.7-0.21,1.23c1.13,2.46,0.57,5.36-1.33,7.23
			c-1.24,1.23-2.88,1.88-4.56,1.88c-0.91,0-1.82-0.19-2.69-0.59c-0.2-0.09-0.37-0.14-0.51-0.14c-0.25,0-0.45,0.13-0.69,0.37
			c-3.17,3.19-6.35,6.36-9.55,9.52c-0.42,0.41-0.52,0.72-0.26,1.3c1.02,2.25,0.76,4.44-0.68,6.41c-1.29,1.77-3.2,2.69-5.19,2.69
			c-1.15,0-2.32-0.31-3.42-0.94c-2.82-1.63-3.9-5.12-2.59-8.24c0.11-0.27,0.15-0.75,0-0.91c-2.34-2.39-4.71-4.74-7.06-7.08
			c-1.36,0.55-2.57,0.83-3.66,0.83c-2.47,0-4.32-1.45-5.86-4.46c-0.1-0.19-0.42-0.39-0.64-0.39c-1.07-0.02-2.15-0.02-3.23-0.02
			c-0.91,0-1.83,0-2.76,0c-1.49,11.78,4.62,25.73,18.51,31.71C60.65,113.25,64.86,114.09,69.02,114.09z M86.9,78.2
			c1.78,0,3.24-1.48,3.23-3.29c-0.01-1.79-1.42-3.2-3.22-3.21c-0.01,0-0.01,0-0.02,0c-1.81,0-3.3,1.47-3.28,3.26
			c0.02,1.75,1.5,3.22,3.25,3.24C86.87,78.2,86.89,78.2,86.9,78.2z M50.94,81.47c1.76,0,3.28-1.53,3.27-3.29
			c-0.02-1.76-1.47-3.2-3.25-3.21c-0.01,0-0.01,0-0.02,0c-1.8,0-3.21,1.38-3.24,3.17c-0.03,1.82,1.41,3.32,3.22,3.34
			C50.93,81.47,50.94,81.47,50.94,81.47z M67.28,97.75c0.01,0,0.02,0,0.03,0c1.77-0.02,3.22-1.46,3.23-3.23
			c0.01-1.78-1.48-3.27-3.26-3.27c-0.01,0-0.02,0-0.04,0c-1.77,0.02-3.21,1.47-3.21,3.24C64.03,96.31,65.47,97.75,67.28,97.75z"/>
	</g>
</g>
</svg>
