<svg id="Layer_1" data-name="Layer 1" xmlns="http://www.w3.org/2000/svg" viewBox="0 0 659.99 684.14"><title>Unification</title><path d="M558,407.13c-7.38-7.38-14.75-14.95-22.37-22.27a8.4,8.4,0,0,0-5.12-2.46c-29.5-.13-59,0-88.64,0a14,14,0,0,0-2.46.17c0,1.13-.17,2.09-.17,3.07v64.85a5.93,5.93,0,0,0,3.52,6.05c12.29,6.88,24.58,14,36.87,20.87a14.9,14.9,0,0,0,6.88,1.76c15.12.15,30.26,0,45.4,0H536v13.65H497.92l22.79,22.49L510.39,525l-21.1-22.13-1.4.86v37.42H474V493.28a4.93,4.93,0,0,0-2.95-4.91c-12.69-7.13-25.27-14.41-37.93-21.56a9.11,9.11,0,0,0-4-1.43H377.35c0,1.45-.27,2.71-.27,3.94V527.7a9.13,9.13,0,0,0,3.1,7.08c12.12,11.92,24.09,24,36.3,36.16-3.49,3.17-6.76,6.09-10.15,9.14L377.42,551v31.63h-14V551.42L334,581.24l-9.84-10.82c3.74-3.61,7.92-7.54,12-11.58Q348.67,546.55,361,534a7.39,7.39,0,0,0,2.24-4.3c.15-21.19,0-42.36,0-64.26H335.63c-8.65,0-17.69-1.53-25.81.59s-14.89,7.91-22.29,12.12c-5.88,3.34-11.68,6.81-17.65,10a5.82,5.82,0,0,0-3.57,6c.15,15.56,0,31.12,0,47.05H252.55V502.77L230,525.86c-3.51-3.62-6.54-6.67-9.95-10.13l22.12-21.46-.61-1H204.37v-14H229a134.4,134.4,0,0,1,14.75,0,39.33,39.33,0,0,0,26.74-7.17c8.93-5.81,18.46-10.62,27.63-16,1.28-.76,2.88-2.46,2.88-3.61.17-23.19.12-46.37.12-69.87-1.45,0-2.7-.24-4-.24H218a8.61,8.61,0,0,0-6.78,2.78c-11.14,11.3-22.4,22.46-33.61,33.67-.91.91-1.87,1.77-3,2.83l-9.34-10,29.06-28.95H162.9V368.8h30.85L164,339.62l11-9.83c.61.57,1.72,1.58,2.8,2.63,11.33,11.31,22.62,22.64,34,33.88a7,7,0,0,0,4.3,2.18c28.1.15,56.19,0,84.61,0,0-1.2.32-2.31.32-3.39V299.8a4.92,4.92,0,0,0-2.85-5.09c-12.71-7.08-25.27-14.4-38-21.51a12.34,12.34,0,0,0-5.65-1.47H204.42V258H243l-23.42-22.49L230,226l21.14,21.73c.39-.22.76-.46,1.13-.71V209.81h14.06v47.24a5.59,5.59,0,0,0,3.4,5.71c12.43,6.93,24.77,14.11,37.16,21.11a10.11,10.11,0,0,0,4.35,1.63H362.9c0-1.28.31-2.46.31-3.5V222.79a10,10,0,0,0-2.7-6.25c-12-12.29-24.24-24.21-36.63-36.5l10.18-9.12,28,28.15,1-.54V168.27h14.11v31.21c10.28-10.34,19.67-19.91,29.5-29.49l10.2,10.22c-8,7.87-16,15.59-23.82,23.4-5.21,5.17-12.29,9.59-14.94,15.88s-.79,14.43-.79,21.78v43.29c11.14,7.18,18.51,18,28.64,26.38L418,302.16c17.6-12.78,35.15-25.64,52.82-38.3a7.17,7.17,0,0,0,3.4-6.76c-.15-15.68,0-31.36,0-47.32h13.71v38c7.62-8,14.75-15.46,21.93-23.13l10,10.86-21.44,21.17.49,1.05h37.34v14.09c-12.93,0-25.76.61-38.49-.17a36.18,36.18,0,0,0-26,8.4c-18.11,14-36.87,27-56,40.93,1.3,1.38,2.46,2.58,3.57,3.74,5.58,5.63,11.43,11,16.69,16.94a15.37,15.37,0,0,1,3.44,8.33c.51,6,.14,12,.14,18.48,1.63,0,3,.2,4.38.2h85.62a8.66,8.66,0,0,0,6.81-2.75c11-11.21,22.12-22.27,33.26-33.38,1-1,2.06-2,3.32-3.15l9,10.08-28.61,27.95.49,1.05h23.6V382.3H553.43l29.5,29.13L572,421.26Z" transform="translate(-53.35 -20.9)"/><path d="M342,62.54A12.33,12.33,0,1,0,329.7,50.21,12.32,12.32,0,0,0,342,62.54Zm26.77,17A9.49,9.49,0,1,0,359.3,70,9.48,9.48,0,0,0,368.79,79.53ZM321.2,86.11A6.16,6.16,0,1,0,315.05,80,6.16,6.16,0,0,0,321.2,86.11Zm15.87,19.82a6.15,6.15,0,1,0-6.16-6.15A6.15,6.15,0,0,0,337.07,105.93ZM345,89.44a6.52,6.52,0,1,0-6.52-6.51A6.52,6.52,0,0,0,345,89.44Zm-12.68,33.18a6.51,6.51,0,1,0-9.17-.82A6.52,6.52,0,0,0,332.32,122.62Zm47.37-75.81a7.51,7.51,0,1,0-7.5-7.5A7.5,7.5,0,0,0,379.69,46.81Zm-20.82-8.92a8.5,8.5,0,1,0-8.49-8.49A8.49,8.49,0,0,0,358.87,37.89Zm15.66,59.62A7.51,7.51,0,1,0,367,90,7.5,7.5,0,0,0,374.53,97.51Zm28,17.7a9.49,9.49,0,1,0-9.49-9.48A9.48,9.48,0,0,0,402.49,115.21Zm-47.58,6.58a6.15,6.15,0,1,0-6.15-6.15A6.15,6.15,0,0,0,354.91,121.79Zm23.79,3.34a6.52,6.52,0,1,0-6.51-6.52A6.51,6.51,0,0,0,378.7,125.13ZM360.86,141a6.52,6.52,0,1,0-6.52-6.52A6.52,6.52,0,0,0,360.86,141ZM413.4,82.5a7.51,7.51,0,1,0-7.51-7.5A7.5,7.5,0,0,0,413.4,82.5Zm-20.82-8.92a8.5,8.5,0,1,0-8.5-8.5A8.49,8.49,0,0,0,392.58,73.58Z" transform="translate(-53.35 -20.9)"/><path d="M430.25,78.4a12.33,12.33,0,1,0-12.32-12.33A12.33,12.33,0,0,0,430.25,78.4Zm26.76,17a9.49,9.49,0,1,0-9.48-9.49A9.49,9.49,0,0,0,457,95.39ZM409.43,102a6.16,6.16,0,1,0-6.15-6.16A6.15,6.15,0,0,0,409.43,102Zm15.86,19.82a6.15,6.15,0,1,0-6.15-6.15A6.15,6.15,0,0,0,425.29,121.79Zm7.93-16.49a6.52,6.52,0,1,0-6.51-6.51A6.51,6.51,0,0,0,433.22,105.3Zm-12.67,33.18a6.51,6.51,0,1,0-9.18-.82A6.53,6.53,0,0,0,420.55,138.48Zm47.37-75.8a7.51,7.51,0,1,0-7.51-7.51A7.5,7.5,0,0,0,467.92,62.68ZM447.1,53.75a8.5,8.5,0,1,0-8.5-8.49A8.5,8.5,0,0,0,447.1,53.75Zm15.66,59.62a7.51,7.51,0,1,0-7.51-7.5A7.5,7.5,0,0,0,462.76,113.37Zm28,17.71a9.49,9.49,0,1,0-9.49-9.49A9.49,9.49,0,0,0,490.72,131.08Zm-47.58,6.57A6.15,6.15,0,1,0,437,131.5,6.15,6.15,0,0,0,443.14,137.65ZM466.93,141a6.52,6.52,0,1,0-6.52-6.52A6.52,6.52,0,0,0,466.93,141Zm-17.85,15.86a6.52,6.52,0,1,0-6.51-6.51A6.52,6.52,0,0,0,449.08,156.85Zm52.54-58.49a7.51,7.51,0,1,0-7.5-7.5A7.5,7.5,0,0,0,501.62,98.36ZM480.8,89.44a8.5,8.5,0,1,0-8.49-8.5A8.49,8.49,0,0,0,480.8,89.44Z" transform="translate(-53.35 -20.9)"/><path d="M261.73,78.4A12.33,12.33,0,1,0,249.4,66.07,12.33,12.33,0,0,0,261.73,78.4Zm26.76,17A9.49,9.49,0,1,0,279,85.9,9.49,9.49,0,0,0,288.49,95.39ZM240.91,102a6.16,6.16,0,1,0-6.15-6.16A6.15,6.15,0,0,0,240.91,102Zm15.86,19.82a6.15,6.15,0,1,0-6.15-6.15A6.15,6.15,0,0,0,256.77,121.79Zm7.93-16.49a6.52,6.52,0,1,0-6.51-6.51A6.5,6.5,0,0,0,264.7,105.3ZM252,138.48a6.51,6.51,0,1,0-9.18-.82A6.52,6.52,0,0,0,252,138.48Zm47.37-75.8a7.51,7.51,0,1,0-7.51-7.51A7.5,7.5,0,0,0,299.4,62.68Zm-20.82-8.93a8.5,8.5,0,1,0-8.5-8.49A8.49,8.49,0,0,0,278.58,53.75Zm15.66,59.62a7.51,7.51,0,1,0-7.51-7.5A7.5,7.5,0,0,0,294.24,113.37Zm28,17.71a9.49,9.49,0,1,0-9.49-9.49A9.48,9.48,0,0,0,322.2,131.08Zm-47.59,6.57a6.15,6.15,0,1,0-6.15-6.15A6.15,6.15,0,0,0,274.61,137.65ZM298.4,141a6.52,6.52,0,1,0-6.51-6.52A6.52,6.52,0,0,0,298.4,141Zm-17.84,15.86a6.52,6.52,0,1,0-6.51-6.51A6.51,6.51,0,0,0,280.56,156.85ZM333.1,98.36a7.51,7.51,0,1,0-7.5-7.5A7.5,7.5,0,0,0,333.1,98.36Zm-20.82-8.92a8.5,8.5,0,1,0-8.49-8.5A8.49,8.49,0,0,0,312.28,89.44Z" transform="translate(-53.35 -20.9)"/><path d="M137.81,157.7a12.32,12.32,0,1,0-12.32-12.32A12.32,12.32,0,0,0,137.81,157.7Zm26.77,17a9.49,9.49,0,1,0-9.49-9.48A9.48,9.48,0,0,0,164.58,174.69ZM117,181.27a6.15,6.15,0,1,0-6.16-6.15A6.15,6.15,0,0,0,117,181.27Zm15.86,19.83a6.16,6.16,0,1,0-6.16-6.16A6.16,6.16,0,0,0,132.86,201.1Zm7.93-16.49a6.52,6.52,0,1,0-6.52-6.52A6.52,6.52,0,0,0,140.79,184.61Zm-12.68,33.17a6.51,6.51,0,1,0-9.17-.81A6.51,6.51,0,0,0,128.11,217.78ZM175.48,142a7.51,7.51,0,1,0-7.5-7.51A7.51,7.51,0,0,0,175.48,142Zm-20.81-8.92a8.5,8.5,0,1,0-8.5-8.5A8.5,8.5,0,0,0,154.67,133.06Zm15.65,59.62a7.51,7.51,0,1,0-7.5-7.51A7.51,7.51,0,0,0,170.32,192.68Zm28,17.7a9.49,9.49,0,1,0-9.48-9.49A9.49,9.49,0,0,0,198.28,210.38ZM150.7,217a6.16,6.16,0,1,0-6.15-6.15A6.15,6.15,0,0,0,150.7,217Zm23.79,3.33a6.51,6.51,0,1,0-6.51-6.51A6.5,6.5,0,0,0,174.49,220.29Zm-17.84,15.86a6.51,6.51,0,1,0-6.52-6.51A6.5,6.5,0,0,0,156.65,236.15Zm52.54-58.48a7.51,7.51,0,1,0-7.51-7.51A7.5,7.5,0,0,0,209.19,177.67Zm-20.82-8.92a8.5,8.5,0,1,0-8.5-8.5A8.51,8.51,0,0,0,188.37,168.75Z" transform="translate(-53.35 -20.9)"/><path d="M95.19,252.87a12.33,12.33,0,1,0-12.32-12.33A12.33,12.33,0,0,0,95.19,252.87Zm26.76,17a9.49,9.49,0,1,0-9.49-9.49A9.49,9.49,0,0,0,122,269.86Zm-47.58,6.58a6.16,6.16,0,1,0-6.15-6.16A6.15,6.15,0,0,0,74.37,276.44Zm15.86,19.82a6.15,6.15,0,1,0-6.15-6.15A6.15,6.15,0,0,0,90.23,296.26Zm7.93-16.49a6.52,6.52,0,1,0-6.51-6.51A6.5,6.5,0,0,0,98.16,279.77ZM85.49,313a6.51,6.51,0,1,0-9.18-.82A6.52,6.52,0,0,0,85.49,313Zm47.37-75.8a7.51,7.51,0,1,0-7.51-7.51A7.5,7.5,0,0,0,132.86,237.15ZM112,228.22a8.5,8.5,0,1,0-8.5-8.49A8.5,8.5,0,0,0,112,228.22Zm15.66,59.62a7.51,7.51,0,1,0-7.51-7.5A7.5,7.5,0,0,0,127.7,287.84Zm28,17.71a9.49,9.49,0,1,0-9.49-9.49A9.48,9.48,0,0,0,155.66,305.55Zm-47.59,6.57a6.15,6.15,0,1,0-6.15-6.15A6.15,6.15,0,0,0,108.07,312.12Zm23.8,3.34a6.52,6.52,0,1,0-6.52-6.52A6.52,6.52,0,0,0,131.87,315.46ZM114,331.32a6.52,6.52,0,1,0-6.51-6.51A6.52,6.52,0,0,0,114,331.32Zm52.54-58.49a7.51,7.51,0,1,0-7.5-7.5A7.5,7.5,0,0,0,166.56,272.83Zm-20.82-8.92a8.5,8.5,0,1,0-8.49-8.5A8.49,8.49,0,0,0,145.74,263.91Z" transform="translate(-53.35 -20.9)"/><path d="M80.32,365.87A12.32,12.32,0,1,0,68,353.55,12.32,12.32,0,0,0,80.32,365.87Zm26.76,17a9.49,9.49,0,1,0-9.49-9.49A9.49,9.49,0,0,0,107.08,382.87ZM59.5,389.44a6.15,6.15,0,1,0-6.15-6.15A6.15,6.15,0,0,0,59.5,389.44Zm15.86,19.83a6.15,6.15,0,1,0-6.15-6.15A6.15,6.15,0,0,0,75.36,409.27Zm7.93-16.49a6.52,6.52,0,1,0-6.51-6.51A6.51,6.51,0,0,0,83.29,392.78ZM70.62,426a6.51,6.51,0,1,0-9.18-.82A6.52,6.52,0,0,0,70.62,426ZM118,350.15a7.51,7.51,0,1,0-7.51-7.5A7.5,7.5,0,0,0,118,350.15Zm-20.82-8.92a8.5,8.5,0,1,0-8.5-8.49A8.5,8.5,0,0,0,97.17,341.23Zm15.66,59.62a7.51,7.51,0,1,0-7.51-7.5A7.5,7.5,0,0,0,112.83,400.85Zm28,17.7a9.49,9.49,0,1,0-9.49-9.48A9.47,9.47,0,0,0,140.79,418.55ZM93.2,425.13A6.15,6.15,0,1,0,87.05,419,6.15,6.15,0,0,0,93.2,425.13Zm23.8,3.34a6.52,6.52,0,1,0-6.52-6.52A6.52,6.52,0,0,0,117,428.47ZM99.15,444.33a6.52,6.52,0,1,0-6.51-6.52A6.52,6.52,0,0,0,99.15,444.33Zm52.54-58.49a7.51,7.51,0,1,0-7.5-7.5A7.5,7.5,0,0,0,151.69,385.84Zm-20.82-8.92a8.5,8.5,0,1,0-8.49-8.5A8.49,8.49,0,0,0,130.87,376.92Z" transform="translate(-53.35 -20.9)"/><path d="M111.05,464a12.32,12.32,0,1,0-12.32-12.32A12.32,12.32,0,0,0,111.05,464Zm26.76,17a9.49,9.49,0,1,0-9.48-9.49A9.49,9.49,0,0,0,137.81,481Zm-47.58,6.57a6.15,6.15,0,1,0-6.15-6.15A6.15,6.15,0,0,0,90.23,487.58Zm15.86,19.83a6.15,6.15,0,1,0-6.15-6.15A6.15,6.15,0,0,0,106.09,507.41ZM114,490.92a6.52,6.52,0,1,0-6.51-6.51A6.52,6.52,0,0,0,114,490.92ZM101.35,524.1a6.51,6.51,0,1,0-9.18-.82A6.52,6.52,0,0,0,101.35,524.1Zm47.37-75.81a7.51,7.51,0,1,0-7.51-7.5A7.5,7.5,0,0,0,148.72,448.29Zm-20.82-8.92a8.5,8.5,0,1,0-8.5-8.49A8.5,8.5,0,0,0,127.9,439.37ZM143.56,499a7.51,7.51,0,1,0-7.51-7.5A7.5,7.5,0,0,0,143.56,499Zm28,17.7a9.49,9.49,0,1,0-9.49-9.48A9.47,9.47,0,0,0,171.52,516.69Zm-47.59,6.58a6.15,6.15,0,1,0-6.15-6.15A6.15,6.15,0,0,0,123.93,523.27Zm23.8,3.34a6.52,6.52,0,1,0-6.52-6.52A6.52,6.52,0,0,0,147.73,526.61Zm-17.85,15.86a6.52,6.52,0,1,0-6.51-6.52A6.52,6.52,0,0,0,129.88,542.47ZM182.42,484a7.51,7.51,0,1,0-7.5-7.5A7.5,7.5,0,0,0,182.42,484Zm-20.82-8.92a8.5,8.5,0,1,0-8.49-8.5A8.5,8.5,0,0,0,161.6,475.06Z" transform="translate(-53.35 -20.9)"/><path d="M162.6,544.31A12.32,12.32,0,1,0,150.27,532,12.33,12.33,0,0,0,162.6,544.31Zm26.76,17a9.49,9.49,0,1,0-9.49-9.49A9.49,9.49,0,0,0,189.36,561.3Zm-47.58,6.58a6.15,6.15,0,1,0-6.15-6.15A6.15,6.15,0,0,0,141.78,567.88Zm15.86,19.83a6.16,6.16,0,1,0-6.15-6.16A6.15,6.15,0,0,0,157.64,587.71Zm7.93-16.49a6.52,6.52,0,1,0-6.51-6.52A6.51,6.51,0,0,0,165.57,571.22ZM152.9,604.39a6.51,6.51,0,1,0-9.18-.81A6.5,6.5,0,0,0,152.9,604.39Zm47.37-75.8a7.51,7.51,0,1,0-7.51-7.51A7.5,7.5,0,0,0,200.27,528.59Zm-20.82-8.92a8.5,8.5,0,1,0-8.5-8.5A8.5,8.5,0,0,0,179.45,519.67Zm15.65,59.62a7.51,7.51,0,1,0-7.5-7.51A7.51,7.51,0,0,0,195.1,579.29Zm28,17.7a9.49,9.49,0,1,0-9.49-9.49A9.48,9.48,0,0,0,223.07,597Zm-47.59,6.58a6.16,6.16,0,1,0-6.15-6.16A6.15,6.15,0,0,0,175.48,603.57Zm23.79,3.33a6.51,6.51,0,1,0-6.51-6.51A6.51,6.51,0,0,0,199.27,606.9Zm-17.84,15.86a6.51,6.51,0,1,0-6.51-6.51A6.5,6.5,0,0,0,181.43,622.76ZM234,564.28a7.51,7.51,0,1,0-7.51-7.51A7.5,7.5,0,0,0,234,564.28Zm-20.82-8.93a8.5,8.5,0,1,0-8.49-8.49A8.5,8.5,0,0,0,213.15,555.35Z" transform="translate(-53.35 -20.9)"/><path d="M246.86,586.94a12.33,12.33,0,1,0-12.32-12.33A12.33,12.33,0,0,0,246.86,586.94Zm26.76,17a9.49,9.49,0,1,0-9.49-9.49A9.49,9.49,0,0,0,273.62,603.93ZM226,610.51a6.16,6.16,0,1,0-6.15-6.16A6.15,6.15,0,0,0,226,610.51Zm15.86,19.82a6.15,6.15,0,1,0-6.15-6.15A6.15,6.15,0,0,0,241.9,630.33Zm7.93-16.49a6.52,6.52,0,1,0-6.51-6.51A6.5,6.5,0,0,0,249.83,613.84ZM237.16,647a6.51,6.51,0,1,0-9.18-.82A6.52,6.52,0,0,0,237.16,647Zm47.37-75.8a7.51,7.51,0,1,0-7.51-7.51A7.5,7.5,0,0,0,284.53,571.22Zm-20.82-8.93a8.5,8.5,0,1,0-8.5-8.49A8.5,8.5,0,0,0,263.71,562.29Zm15.66,59.62a7.51,7.51,0,1,0-7.51-7.5A7.5,7.5,0,0,0,279.37,621.91Zm28,17.71a9.49,9.49,0,1,0-9.49-9.49A9.48,9.48,0,0,0,307.33,639.62Zm-47.59,6.57a6.15,6.15,0,1,0-6.15-6.15A6.15,6.15,0,0,0,259.74,646.19Zm23.79,3.34A6.52,6.52,0,1,0,277,643,6.52,6.52,0,0,0,283.53,649.53Zm-17.84,15.86a6.52,6.52,0,1,0-6.51-6.51A6.52,6.52,0,0,0,265.69,665.39Zm52.54-58.49a7.51,7.51,0,1,0-7.5-7.5A7.5,7.5,0,0,0,318.23,606.9ZM297.41,598a8.5,8.5,0,1,0-8.49-8.5A8.49,8.49,0,0,0,297.41,598Z" transform="translate(-53.35 -20.9)"/><path d="M334.09,626.59a12.32,12.32,0,1,0-12.32-12.32A12.32,12.32,0,0,0,334.09,626.59Zm26.77,17a9.49,9.49,0,1,0-9.49-9.49A9.48,9.48,0,0,0,360.86,643.58Zm-47.59,6.58a6.16,6.16,0,1,0-6.15-6.15A6.16,6.16,0,0,0,313.27,650.16ZM329.14,670a6.15,6.15,0,1,0-6.16-6.15A6.15,6.15,0,0,0,329.14,670Zm7.93-16.49a6.51,6.51,0,1,0-6.52-6.51A6.51,6.51,0,0,0,337.07,653.49Zm-12.68,33.18a6.51,6.51,0,1,0-9.17-.81A6.51,6.51,0,0,0,324.39,686.67Zm47.37-75.8a7.51,7.51,0,1,0-7.5-7.51A7.51,7.51,0,0,0,371.76,610.87ZM350.94,602a8.5,8.5,0,1,0-8.49-8.5A8.5,8.5,0,0,0,350.94,602Zm15.66,59.61a7.51,7.51,0,1,0-7.5-7.5A7.5,7.5,0,0,0,366.6,661.56Zm28,17.71a9.49,9.49,0,1,0-9.49-9.49A9.49,9.49,0,0,0,394.56,679.27ZM347,685.85a6.16,6.16,0,1,0-6.15-6.16A6.15,6.15,0,0,0,347,685.85Zm23.79,3.33a6.52,6.52,0,1,0-6.51-6.51A6.51,6.51,0,0,0,370.77,689.18ZM352.93,705a6.52,6.52,0,1,0-6.52-6.51A6.51,6.51,0,0,0,352.93,705Zm52.54-58.49a7.51,7.51,0,1,0-7.51-7.5A7.5,7.5,0,0,0,405.47,646.55Zm-20.82-8.92a8.5,8.5,0,1,0-8.5-8.49A8.49,8.49,0,0,0,384.65,637.63Z" transform="translate(-53.35 -20.9)"/><path d="M426.28,607.75A12.32,12.32,0,1,0,414,595.43,12.31,12.31,0,0,0,426.28,607.75Zm26.77,17a9.49,9.49,0,1,0-9.49-9.49A9.49,9.49,0,0,0,453.05,624.75Zm-47.58,6.57a6.15,6.15,0,1,0-6.16-6.15A6.15,6.15,0,0,0,405.47,631.32Zm15.86,19.83a6.15,6.15,0,1,0-6.16-6.15A6.15,6.15,0,0,0,421.33,651.15Zm7.93-16.49a6.52,6.52,0,1,0-6.52-6.51A6.52,6.52,0,0,0,429.26,634.66Zm-12.68,33.18a6.51,6.51,0,1,0-9.17-.82A6.52,6.52,0,0,0,416.58,667.84ZM464,592a7.51,7.51,0,1,0-7.5-7.5A7.5,7.5,0,0,0,464,592Zm-20.81-8.92a8.5,8.5,0,1,0-8.5-8.5A8.49,8.49,0,0,0,443.14,583.11Zm15.65,59.62a7.51,7.51,0,1,0-7.5-7.51A7.51,7.51,0,0,0,458.79,642.73Zm28,17.7a9.49,9.49,0,1,0-9.48-9.48A9.48,9.48,0,0,0,486.75,660.43ZM439.17,667a6.15,6.15,0,1,0-6.15-6.15A6.15,6.15,0,0,0,439.17,667ZM463,670.35a6.52,6.52,0,1,0-6.51-6.52A6.51,6.51,0,0,0,463,670.35Zm-17.84,15.86a6.52,6.52,0,1,0-6.52-6.52A6.51,6.51,0,0,0,445.12,686.21Zm52.54-58.49a7.51,7.51,0,1,0-7.51-7.51A7.5,7.5,0,0,0,497.66,627.72Zm-20.82-8.92a8.5,8.5,0,1,0-8.5-8.5A8.51,8.51,0,0,0,476.84,618.8Z" transform="translate(-53.35 -20.9)"/><path d="M515.5,566.12a12.32,12.32,0,1,0-12.32-12.32A12.32,12.32,0,0,0,515.5,566.12Zm26.77,17a9.49,9.49,0,1,0-9.49-9.49A9.48,9.48,0,0,0,542.27,583.11Zm-47.59,6.58a6.16,6.16,0,1,0-6.15-6.15A6.16,6.16,0,0,0,494.68,589.69Zm15.86,19.82a6.15,6.15,0,1,0-6.15-6.15A6.15,6.15,0,0,0,510.54,609.51ZM518.47,593a6.51,6.51,0,1,0-6.51-6.51A6.51,6.51,0,0,0,518.47,593ZM505.8,626.2a6.51,6.51,0,1,0-9.17-.81A6.51,6.51,0,0,0,505.8,626.2Zm47.37-75.8a7.51,7.51,0,1,0-7.5-7.51A7.51,7.51,0,0,0,553.17,550.4Zm-20.82-8.92a8.5,8.5,0,1,0-8.49-8.5A8.5,8.5,0,0,0,532.35,541.48ZM548,601.09a7.5,7.5,0,1,0-7.51-7.5A7.5,7.5,0,0,0,548,601.09Zm28,17.71a9.49,9.49,0,1,0-9.49-9.49A9.49,9.49,0,0,0,576,618.8Zm-47.58,6.58a6.16,6.16,0,1,0-6.15-6.16A6.15,6.15,0,0,0,528.39,625.38Zm23.79,3.33a6.52,6.52,0,1,0-6.51-6.51A6.51,6.51,0,0,0,552.18,628.71Zm-17.84,15.86a6.52,6.52,0,1,0-6.52-6.51A6.51,6.51,0,0,0,534.34,644.57Zm52.53-58.48a7.51,7.51,0,1,0-7.5-7.51A7.51,7.51,0,0,0,586.87,586.09Zm-20.81-8.93a8.5,8.5,0,1,0-8.5-8.49A8.49,8.49,0,0,0,566.06,577.16Z" transform="translate(-53.35 -20.9)"/><path d="M566.06,506.64a12.32,12.32,0,1,0-12.32-12.32A12.33,12.33,0,0,0,566.06,506.64Zm26.76,17a9.49,9.49,0,1,0-9.49-9.48A9.48,9.48,0,0,0,592.82,523.63Zm-47.58,6.58a6.15,6.15,0,1,0-6.15-6.15A6.15,6.15,0,0,0,545.24,530.21ZM561.1,550a6.16,6.16,0,1,0-6.15-6.16A6.15,6.15,0,0,0,561.1,550ZM569,533.55a6.52,6.52,0,1,0-6.51-6.52A6.51,6.51,0,0,0,569,533.55Zm-12.67,33.17a6.51,6.51,0,1,0-9.18-.81A6.5,6.5,0,0,0,556.36,566.72Zm47.37-75.8a7.51,7.51,0,1,0-7.51-7.51A7.5,7.5,0,0,0,603.73,490.92ZM582.91,482a8.5,8.5,0,1,0-8.5-8.5A8.51,8.51,0,0,0,582.91,482Zm15.66,59.62a7.51,7.51,0,1,0-7.51-7.51A7.5,7.5,0,0,0,598.57,541.62Zm28,17.7a9.49,9.49,0,1,0-9.49-9.49A9.48,9.48,0,0,0,626.53,559.32Zm-47.59,6.58a6.16,6.16,0,1,0-6.15-6.15A6.16,6.16,0,0,0,578.94,565.9Zm23.8,3.33a6.51,6.51,0,1,0-6.52-6.51A6.51,6.51,0,0,0,602.74,569.23Zm-17.85,15.86a6.51,6.51,0,1,0-6.51-6.51A6.51,6.51,0,0,0,584.89,585.09Zm52.54-58.48a7.51,7.51,0,1,0-7.5-7.51A7.51,7.51,0,0,0,637.43,526.61Zm-20.82-8.93a8.5,8.5,0,1,0-8.49-8.49A8.49,8.49,0,0,0,616.61,517.68Z" transform="translate(-53.35 -20.9)"/><path d="M604.72,422.38a12.32,12.32,0,1,0-12.32-12.32A12.33,12.33,0,0,0,604.72,422.38Zm26.76,17a9.49,9.49,0,1,0-9.48-9.49A9.49,9.49,0,0,0,631.48,439.37ZM583.9,446a6.15,6.15,0,1,0-6.15-6.15A6.15,6.15,0,0,0,583.9,446Zm15.86,19.83a6.16,6.16,0,1,0-6.15-6.16A6.15,6.15,0,0,0,599.76,465.78Zm7.93-16.5a6.51,6.51,0,1,0-6.51-6.51A6.51,6.51,0,0,0,607.69,449.28ZM595,482.46a6.51,6.51,0,1,0-9.18-.81A6.51,6.51,0,0,0,595,482.46Zm47.37-75.8a7.51,7.51,0,1,0-7.51-7.51A7.5,7.5,0,0,0,642.39,406.66Zm-20.82-8.92a8.5,8.5,0,1,0-8.5-8.5A8.51,8.51,0,0,0,621.57,397.74Zm15.66,59.62a7.51,7.51,0,1,0-7.51-7.51A7.5,7.5,0,0,0,637.23,457.36Zm28,17.7a9.49,9.49,0,1,0-9.49-9.49A9.49,9.49,0,0,0,665.19,475.06Zm-47.58,6.58a6.16,6.16,0,1,0-6.16-6.16A6.16,6.16,0,0,0,617.61,481.64ZM641.4,485a6.52,6.52,0,1,0-6.52-6.51A6.51,6.51,0,0,0,641.4,485Zm-17.85,15.86a6.51,6.51,0,1,0-6.51-6.51A6.51,6.51,0,0,0,623.55,500.83Zm52.54-58.48a7.51,7.51,0,1,0-7.5-7.51A7.51,7.51,0,0,0,676.09,442.35Zm-20.82-8.93a8.5,8.5,0,1,0-8.49-8.49A8.49,8.49,0,0,0,655.27,433.42Z" transform="translate(-53.35 -20.9)"/><path d="M634.46,331.18a12.32,12.32,0,1,0-12.32-12.32A12.33,12.33,0,0,0,634.46,331.18Zm26.76,17a9.49,9.49,0,1,0-9.48-9.49A9.49,9.49,0,0,0,661.22,348.17Zm-47.58,6.58a6.15,6.15,0,1,0-6.15-6.15A6.15,6.15,0,0,0,613.64,354.75Zm15.86,19.83a6.16,6.16,0,1,0-6.15-6.16A6.15,6.15,0,0,0,629.5,374.58Zm7.93-16.5a6.51,6.51,0,1,0-6.51-6.51A6.5,6.5,0,0,0,637.43,358.08Zm-12.67,33.18a6.51,6.51,0,1,0-9.18-.81A6.5,6.5,0,0,0,624.76,391.26Zm47.37-75.8a7.51,7.51,0,1,0-7.51-7.51A7.5,7.5,0,0,0,672.13,315.46Zm-20.82-8.92a8.5,8.5,0,1,0-8.5-8.5A8.51,8.51,0,0,0,651.31,306.54ZM667,366.16a7.51,7.51,0,1,0-7.51-7.51A7.5,7.5,0,0,0,667,366.16Zm28,17.7a9.49,9.49,0,1,0-9.49-9.49A9.48,9.48,0,0,0,694.93,383.86Zm-47.59,6.58a6.16,6.16,0,1,0-6.15-6.16A6.16,6.16,0,0,0,647.34,390.44Zm23.8,3.33a6.52,6.52,0,1,0-6.52-6.51A6.51,6.51,0,0,0,671.14,393.77Zm-17.85,15.86a6.51,6.51,0,1,0-6.51-6.51A6.51,6.51,0,0,0,653.29,409.63Zm52.54-58.48a7.51,7.51,0,1,0-7.5-7.51A7.51,7.51,0,0,0,705.83,351.15ZM685,342.22a8.5,8.5,0,1,0-8.49-8.49A8.49,8.49,0,0,0,685,342.22Z" transform="translate(-53.35 -20.9)"/><path d="M610.67,261.79a12.32,12.32,0,1,0-12.33-12.32A12.33,12.33,0,0,0,610.67,261.79Zm26.76,17a9.49,9.49,0,1,0-9.49-9.49A9.49,9.49,0,0,0,637.43,278.78Zm-47.58,6.58a6.16,6.16,0,1,0-6.15-6.15A6.15,6.15,0,0,0,589.85,285.36Zm15.86,19.82a6.15,6.15,0,1,0-6.15-6.15A6.15,6.15,0,0,0,605.71,305.18Zm7.93-16.49a6.51,6.51,0,1,0-6.51-6.51A6.5,6.5,0,0,0,613.64,288.69ZM601,321.87a6.51,6.51,0,1,0-9.18-.81A6.51,6.51,0,0,0,601,321.87Zm47.37-75.8a7.51,7.51,0,1,0-7.51-7.51A7.5,7.5,0,0,0,648.34,246.07Zm-20.82-8.92a8.5,8.5,0,1,0-8.5-8.5A8.5,8.5,0,0,0,627.52,237.15Zm15.65,59.61a7.51,7.51,0,1,0-7.5-7.5A7.5,7.5,0,0,0,643.17,296.76Zm28,17.71a9.49,9.49,0,1,0-9.49-9.49A9.48,9.48,0,0,0,671.14,314.47ZM623.55,321a6.15,6.15,0,1,0-6.15-6.15A6.15,6.15,0,0,0,623.55,321Zm23.79,3.34a6.52,6.52,0,1,0-6.51-6.51A6.52,6.52,0,0,0,647.34,324.38ZM629.5,340.24a6.52,6.52,0,1,0-6.51-6.51A6.51,6.51,0,0,0,629.5,340.24ZM682,281.75a7.51,7.51,0,1,0-7.5-7.5A7.5,7.5,0,0,0,682,281.75Zm-20.82-8.92a8.5,8.5,0,1,0-8.49-8.49A8.5,8.5,0,0,0,661.22,272.83Z" transform="translate(-53.35 -20.9)"/><path d="M567.05,176.54a12.33,12.33,0,1,0-12.32-12.33A12.33,12.33,0,0,0,567.05,176.54Zm26.76,17a9.49,9.49,0,1,0-9.48-9.49A9.49,9.49,0,0,0,593.81,193.53Zm-47.58,6.58a6.16,6.16,0,1,0-6.15-6.16A6.15,6.15,0,0,0,546.23,200.11Zm15.86,19.82a6.15,6.15,0,1,0-6.15-6.15A6.15,6.15,0,0,0,562.09,219.93ZM570,203.44a6.52,6.52,0,1,0-6.51-6.51A6.52,6.52,0,0,0,570,203.44Zm-12.67,33.18a6.51,6.51,0,1,0-9.18-.82A6.53,6.53,0,0,0,557.35,236.62Zm47.37-75.81a7.51,7.51,0,1,0-7.51-7.5A7.5,7.5,0,0,0,604.72,160.81Zm-20.82-8.92a8.5,8.5,0,1,0-8.5-8.49A8.5,8.5,0,0,0,583.9,151.89Zm15.66,59.62a7.51,7.51,0,1,0-7.51-7.5A7.5,7.5,0,0,0,599.56,211.51Zm28,17.7a9.49,9.49,0,1,0-9.49-9.48A9.48,9.48,0,0,0,627.52,229.21Zm-47.58,6.58a6.15,6.15,0,1,0-6.16-6.15A6.15,6.15,0,0,0,579.94,235.79Zm23.79,3.34a6.52,6.52,0,1,0-6.52-6.52A6.52,6.52,0,0,0,603.73,239.13ZM585.88,255a6.52,6.52,0,1,0-6.51-6.51A6.52,6.52,0,0,0,585.88,255Zm52.54-58.49a7.51,7.51,0,1,0-7.5-7.5A7.5,7.5,0,0,0,638.42,196.5Zm-20.81-8.92a8.5,8.5,0,1,0-8.5-8.5A8.49,8.49,0,0,0,617.61,187.58Z" transform="translate(-53.35 -20.9)"/><path d="M500.63,111.11a12.32,12.32,0,1,0-12.32-12.32A12.32,12.32,0,0,0,500.63,111.11Zm26.77,17a9.49,9.49,0,1,0-9.49-9.49A9.48,9.48,0,0,0,527.4,128.1Zm-47.59,6.58a6.15,6.15,0,1,0-6.15-6.15A6.16,6.16,0,0,0,479.81,134.68Zm15.86,19.83a6.16,6.16,0,1,0-6.15-6.16A6.16,6.16,0,0,0,495.67,154.51ZM503.6,138a6.51,6.51,0,1,0-6.51-6.51A6.51,6.51,0,0,0,503.6,138Zm-12.67,33.18a6.51,6.51,0,1,0-9.17-.81A6.51,6.51,0,0,0,490.93,171.19Zm47.37-75.8a7.51,7.51,0,1,0-7.5-7.51A7.51,7.51,0,0,0,538.3,95.39Zm-20.82-8.92A8.5,8.5,0,1,0,509,78,8.5,8.5,0,0,0,517.48,86.47Zm15.66,59.62a7.51,7.51,0,1,0-7.5-7.51A7.5,7.5,0,0,0,533.14,146.09Zm28,17.7a9.49,9.49,0,1,0-9.49-9.49A9.49,9.49,0,0,0,561.1,163.79Zm-47.58,6.58a6.16,6.16,0,1,0-6.15-6.16A6.15,6.15,0,0,0,513.52,170.37Zm23.79,3.33a6.52,6.52,0,1,0-6.51-6.51A6.5,6.5,0,0,0,537.31,173.7Zm-17.84,15.86a6.51,6.51,0,1,0-6.52-6.51A6.51,6.51,0,0,0,519.47,189.56ZM572,131.08a7.51,7.51,0,1,0-7.51-7.51A7.5,7.5,0,0,0,572,131.08Zm-20.82-8.93a8.5,8.5,0,1,0-8.5-8.49A8.49,8.49,0,0,0,551.19,122.15Z" transform="translate(-53.35 -20.9)"/><path d="M200.27,105.16a12.32,12.32,0,1,0-12.33-12.32A12.33,12.33,0,0,0,200.27,105.16Zm26.76,17a9.49,9.49,0,1,0-9.49-9.48A9.48,9.48,0,0,0,227,122.15Zm-47.58,6.58a6.15,6.15,0,1,0-6.15-6.15A6.15,6.15,0,0,0,179.45,128.73Zm15.86,19.83a6.16,6.16,0,1,0-6.15-6.15A6.15,6.15,0,0,0,195.31,148.56Zm7.93-16.49a6.52,6.52,0,1,0-6.51-6.52A6.51,6.51,0,0,0,203.24,132.07Zm-12.67,33.17a6.51,6.51,0,1,0-9.18-.81A6.5,6.5,0,0,0,190.57,165.24Zm47.36-75.8a7.51,7.51,0,1,0-7.5-7.5A7.5,7.5,0,0,0,237.93,89.44Zm-20.81-8.92a8.5,8.5,0,1,0-8.5-8.5A8.49,8.49,0,0,0,217.12,80.52Zm15.65,59.62a7.51,7.51,0,1,0-7.5-7.51A7.51,7.51,0,0,0,232.77,140.14Zm28,17.7a9.49,9.49,0,1,0-9.48-9.49A9.49,9.49,0,0,0,260.73,157.84Zm-47.58,6.58a6.16,6.16,0,1,0-6.15-6.15A6.15,6.15,0,0,0,213.15,164.42Zm23.79,3.33a6.51,6.51,0,1,0-6.51-6.51A6.51,6.51,0,0,0,236.94,167.75ZM219.1,183.61a6.51,6.51,0,1,0-6.51-6.51A6.5,6.5,0,0,0,219.1,183.61Zm52.54-58.48a7.51,7.51,0,1,0-7.51-7.51A7.5,7.5,0,0,0,271.64,125.13Zm-20.82-8.92a8.5,8.5,0,1,0-8.49-8.5A8.51,8.51,0,0,0,250.82,116.21Z" transform="translate(-53.35 -20.9)"/></svg>