<?xml version="1.0" encoding="utf-8"?>
<!-- Generator: Adobe Illustrator 25.0.1, SVG Export Plug-In . SVG Version: 6.00 Build 0)  -->
<svg version="1.1" id="Layer_1" xmlns="http://www.w3.org/2000/svg" xmlns:xlink="http://www.w3.org/1999/xlink" x="0px" y="0px"
	 viewBox="0 0 100 100" style="enable-background:new 0 0 100 100;" xml:space="preserve">
<style type="text/css">
	.st0{fill:url(#Path_921_1_);}
	.st1{fill:url(#Path_922_1_);}
	.st2{fill:url(#Path_923_1_);}
	.st3{fill:url(#Path_924_1_);}
	.st4{fill:url(#Path_925_1_);}
	.st5{fill:url(#Path_926_1_);}
	.st6{fill:url(#Path_927_1_);}
	.st7{fill:url(#Path_928_1_);}
	.st8{fill:url(#Path_929_1_);}
	.st9{fill:url(#Path_930_1_);}
	.st10{fill:url(#Path_931_1_);}
	.st11{fill:url(#Path_932_1_);}
	.st12{fill:url(#Path_933_1_);}
	.st13{fill:url(#Path_934_1_);}
	.st14{fill:url(#Path_935_1_);}
	.st15{fill:url(#Path_936_1_);}
	.st16{fill:url(#Path_937_1_);}
	.st17{fill:url(#Path_938_1_);}
	.st18{fill:url(#Path_939_1_);}
	.st19{fill:url(#Path_940_1_);}
	.st20{fill:url(#Path_941_1_);}
	.st21{fill:url(#Path_942_1_);}
	.st22{fill:url(#Path_943_1_);}
	.st23{fill:url(#Path_944_1_);}
	.st24{fill:url(#Path_945_1_);}
	.st25{fill:url(#Path_946_1_);}
	.st26{fill:url(#Path_947_1_);}
	.st27{fill:url(#Path_948_1_);}
	.st28{fill:url(#Path_949_1_);}
	.st29{fill:url(#Path_950_1_);}
	.st30{fill:url(#Path_951_1_);}
	.st31{fill:url(#Path_952_1_);}
	.st32{fill:url(#Path_953_1_);}
	.st33{fill:url(#Path_954_1_);}
	.st34{fill:url(#Path_955_1_);}
	.st35{fill:url(#Path_956_1_);}
	.st36{fill:url(#Path_957_1_);}
	.st37{fill:url(#Path_958_1_);}
	.st38{fill:url(#Path_959_1_);}
	.st39{fill:url(#Path_960_1_);}
</style>
<g id="Group_462" transform="translate(-687.959 -741.829)">
	<g id="Group_438" transform="translate(709.156 741.829)">
		<g id="Group_436" transform="translate(0 0)">
			
				<linearGradient id="Path_921_1_" gradientUnits="userSpaceOnUse" x1="29.8031" y1="31.4826" x2="31.4018" y2="31.4826" gradientTransform="matrix(5.5061 0 0 -5.226 -140.5002 185.6422)">
				<stop  offset="0" style="stop-color:#A57D2D"/>
				<stop  offset="0.211" style="stop-color:#D8BD61"/>
				<stop  offset="0.328" style="stop-color:#F1DD7F"/>
				<stop  offset="0.524" style="stop-color:#FBF2A8"/>
				<stop  offset="0.73" style="stop-color:#F1DD7F"/>
				<stop  offset="1" style="stop-color:#A57D2D"/>
			</linearGradient>
			<path id="Path_921" class="st0" d="M27.99,16.94l1.36,2.75l3.05,0.44l-2.2,2.14l0.52,3.02L28,23.87l-2.72,1.43l0.52-3.02
				l-2.2-2.14l3.05-0.44L27.99,16.94z"/>
			<g id="Group_431" transform="translate(0.144 0.143)">
				
					<linearGradient id="Path_922_1_" gradientUnits="userSpaceOnUse" x1="18.9111" y1="89.8493" x2="20.5098" y2="89.8493" gradientTransform="matrix(7.0536 0 0 -35.022 -105.7647 3187.2112)">
					<stop  offset="0" style="stop-color:#A57D2D"/>
					<stop  offset="0.211" style="stop-color:#D8BD61"/>
					<stop  offset="0.328" style="stop-color:#F1DD7F"/>
					<stop  offset="0.524" style="stop-color:#FBF2A8"/>
					<stop  offset="0.73" style="stop-color:#F1DD7F"/>
					<stop  offset="1" style="stop-color:#A57D2D"/>
				</linearGradient>
				<path id="Path_922" class="st1" d="M27.78,68.51l-0.15-41.32c0,0,7.86-0.58,10.7-14.67c0,0,0.63,16.8,0.58,18.15
					C38.85,32.02,27.78,68.51,27.78,68.51z"/>
				
					<linearGradient id="Path_923_1_" gradientUnits="userSpaceOnUse" x1="28.7472" y1="89.0827" x2="30.3459" y2="89.0827" gradientTransform="matrix(5.57 0 0 -32.71 -141.6984 2956.4998)">
					<stop  offset="0" style="stop-color:#A57D2D"/>
					<stop  offset="0.211" style="stop-color:#D8BD61"/>
					<stop  offset="0.328" style="stop-color:#F1DD7F"/>
					<stop  offset="0.524" style="stop-color:#FBF2A8"/>
					<stop  offset="0.73" style="stop-color:#F1DD7F"/>
					<stop  offset="1" style="stop-color:#A57D2D"/>
				</linearGradient>
				<path id="Path_923" class="st2" d="M26.77,31.57c0,0-4.94-1.06-8.35-15.12c0,0,0.47,17.31,0.5,18.71
					c0.03,1.4,8.41,33.59,8.41,33.59L26.77,31.57z"/>
			</g>
			<g id="Group_432" transform="translate(3.141 2.679)">
				
					<linearGradient id="Path_924_1_" gradientUnits="userSpaceOnUse" x1="24.328" y1="32.8363" x2="25.4439" y2="31.6612" gradientTransform="matrix(5.8032 0 0 -5.512 -119.5643 196.9487)">
					<stop  offset="0" style="stop-color:#A57D2D"/>
					<stop  offset="0.211" style="stop-color:#D8BD61"/>
					<stop  offset="0.328" style="stop-color:#F1DD7F"/>
					<stop  offset="0.524" style="stop-color:#FBF2A8"/>
					<stop  offset="0.73" style="stop-color:#F1DD7F"/>
					<stop  offset="1" style="stop-color:#A57D2D"/>
				</linearGradient>
				<path id="Path_924" class="st3" d="M27.58,22.85c-0.04,0-0.07-0.01-0.11-0.03l-2.62-1.37l-2.62,1.37
					c-0.11,0.06-0.25,0.02-0.31-0.1c-0.02-0.04-0.03-0.1-0.02-0.14l0.5-2.9l-2.12-2.06c-0.09-0.09-0.09-0.23-0.01-0.32
					c0.04-0.04,0.08-0.06,0.13-0.07l2.93-0.42l1.31-2.64c0.04-0.08,0.12-0.13,0.21-0.13l0,0c0.09,0,0.17,0.05,0.21,0.13l1.31,2.64
					l2.93,0.42c0.13,0.02,0.21,0.13,0.2,0.26c-0.01,0.05-0.03,0.1-0.07,0.13l-2.12,2.06l0.5,2.9c0.02,0.13-0.06,0.24-0.19,0.27
					C27.6,22.85,27.59,22.85,27.58,22.85L27.58,22.85z M20.94,17.61l1.87,1.82c0.05,0.05,0.08,0.13,0.07,0.2l-0.44,2.56l2.31-1.21
					c0.07-0.04,0.15-0.04,0.21,0l2.31,1.21l-0.44-2.56c-0.01-0.07,0.01-0.15,0.07-0.2l1.87-1.82l-2.59-0.37
					c-0.07-0.01-0.14-0.06-0.17-0.12l-1.16-2.33l-1.16,2.33c-0.03,0.07-0.1,0.11-0.17,0.12L20.94,17.61z"/>
			</g>
			<g id="Group_435">
				<g id="Group_433" transform="translate(5.758)">
					
						<linearGradient id="Path_925_1_" gradientUnits="userSpaceOnUse" x1="10.9551" y1="90.4033" x2="14.095" y2="89.751" gradientTransform="matrix(7.3398 0 0 -35.3074 -64.4943 3221.0454)">
						<stop  offset="0" style="stop-color:#A57D2D"/>
						<stop  offset="0.211" style="stop-color:#D8BD61"/>
						<stop  offset="0.328" style="stop-color:#F1DD7F"/>
						<stop  offset="0.524" style="stop-color:#FBF2A8"/>
						<stop  offset="0.73" style="stop-color:#F1DD7F"/>
						<stop  offset="1" style="stop-color:#A57D2D"/>
					</linearGradient>
					<path id="Path_925" class="st4" d="M22.16,68.88h-0.03c-0.11-0.02-0.2-0.11-0.2-0.23l-0.15-41.32c0-0.12,0.09-0.22,0.21-0.23
						c0.08,0,7.73-0.75,10.49-14.49c0.02-0.11,0.13-0.19,0.24-0.18c0.12,0.01,0.21,0.1,0.21,0.22c0.03,0.69,0.63,16.82,0.58,18.16
						c-0.05,1.34-10.68,36.41-11.13,37.9C22.35,68.81,22.26,68.88,22.16,68.88z M22.24,27.53l0.14,39.58
						C26.3,54.19,33.02,31.8,33.06,30.8c0.04-1.07-0.35-12-0.51-16.36C29.71,25.83,23.5,27.34,22.24,27.53L22.24,27.53z"/>
				</g>
				<g id="Group_434" transform="translate(0 2.464)">
					
						<linearGradient id="Path_926_1_" gradientUnits="userSpaceOnUse" x1="24.6139" y1="87.3288" x2="29.8929" y2="86.3919" gradientTransform="matrix(5.8591 0 0 -32.9987 -136.6621 2906.552)">
						<stop  offset="0" style="stop-color:#A57D2D"/>
						<stop  offset="0.211" style="stop-color:#D8BD61"/>
						<stop  offset="0.328" style="stop-color:#F1DD7F"/>
						<stop  offset="0.524" style="stop-color:#FBF2A8"/>
						<stop  offset="0.73" style="stop-color:#F1DD7F"/>
						<stop  offset="1" style="stop-color:#A57D2D"/>
					</linearGradient>
					<path id="Path_926" class="st5" d="M27.47,66.65c-0.1,0-0.2-0.07-0.22-0.17c-0.34-1.32-8.39-32.24-8.42-33.64
						c-0.03-1.38-0.49-18.53-0.5-18.71c0-0.13,0.1-0.23,0.22-0.24c0.11,0,0.21,0.07,0.23,0.18c1.74,7.16,3.88,10.85,5.36,12.68
						c0.69,1.02,1.67,1.81,2.82,2.27c0.1,0.02,0.18,0.11,0.18,0.22l0.56,37.17c0,0.12-0.08,0.21-0.2,0.23L27.47,66.65z M18.85,16.15
						c0.12,4.61,0.42,15.59,0.44,16.68c0.02,1.02,4.94,20.2,7.92,31.68l-0.52-35.09C25.8,29.1,21.88,27.13,18.85,16.15L18.85,16.15z
						"/>
				</g>
			</g>
		</g>
		
			<linearGradient id="Path_927_1_" gradientUnits="userSpaceOnUse" x1="8.8329" y1="-4.9736" x2="10.4316" y2="-4.9736" gradientTransform="matrix(9.439 0 0 -3.593 -63.229 52.0737)">
			<stop  offset="0" style="stop-color:#A57D2D"/>
			<stop  offset="0.211" style="stop-color:#D8BD61"/>
			<stop  offset="0.328" style="stop-color:#F1DD7F"/>
			<stop  offset="0.524" style="stop-color:#FBF2A8"/>
			<stop  offset="0.73" style="stop-color:#F1DD7F"/>
			<stop  offset="1" style="stop-color:#A57D2D"/>
		</linearGradient>
		<path id="Path_927" class="st6" d="M35.23,71l-7.8,1.82L20.14,71l2.5-3.92h9.99L35.23,71z"/>
		<g id="Group_437" transform="translate(0.988 34.036)">
			
				<linearGradient id="Path_928_1_" gradientUnits="userSpaceOnUse" x1="7.3332" y1="-30.2825" x2="8.2157" y2="-32.4951" gradientTransform="matrix(9.7265 0 0 -3.8766 -48.9443 -85.4043)">
				<stop  offset="0" style="stop-color:#A57D2D"/>
				<stop  offset="0.211" style="stop-color:#D8BD61"/>
				<stop  offset="0.328" style="stop-color:#F1DD7F"/>
				<stop  offset="0.524" style="stop-color:#FBF2A8"/>
				<stop  offset="0.73" style="stop-color:#F1DD7F"/>
				<stop  offset="1" style="stop-color:#A57D2D"/>
			</linearGradient>
			<path id="Path_928" class="st7" d="M26.45,39.01c-0.02,0-0.04,0-0.06,0l-7.29-1.82c-0.12-0.03-0.2-0.15-0.17-0.28
				c0.01-0.02,0.02-0.05,0.03-0.07l2.5-3.92c0.04-0.07,0.11-0.11,0.19-0.11h9.99c0.08,0,0.15,0.04,0.19,0.1l2.6,3.92
				c0.04,0.06,0.05,0.14,0.02,0.21c-0.03,0.07-0.09,0.12-0.16,0.14l-7.8,1.82C26.48,39.01,26.47,39.01,26.45,39.01z M19.52,36.82
				l6.93,1.73l7.42-1.73l-2.35-3.55h-9.74L19.52,36.82z"/>
		</g>
	</g>
	<g id="Group_461" transform="translate(687.959 744.412)">
		<g id="Group_449" transform="translate(0 0)">
			<g id="Group_439" transform="translate(0.139 0.138)">
				
					<linearGradient id="Path_929_1_" gradientUnits="userSpaceOnUse" x1="31.8459" y1="42.2757" x2="33.4447" y2="42.2757" gradientTransform="matrix(8.7762 0 0 -6.9081 -243.8416 371.1569)">
					<stop  offset="0" style="stop-color:#A57D2D"/>
					<stop  offset="0.211" style="stop-color:#D8BD61"/>
					<stop  offset="0.328" style="stop-color:#F1DD7F"/>
					<stop  offset="0.524" style="stop-color:#FBF2A8"/>
					<stop  offset="0.73" style="stop-color:#F1DD7F"/>
					<stop  offset="1" style="stop-color:#A57D2D"/>
				</linearGradient>
				<path id="Path_929" class="st8" d="M37.62,81.97c0.96-0.77,2.03-1.39,3.17-1.84c0.42-0.17,0.84-0.32,1.28-0.47
					c-1.09-0.65-2.05-1.5-2.83-2.5C38.91,76.88,36.54,74,36.57,74c1.39-0.4,2.85-0.51,4.29-0.32c0.92,0.18,1.8,0.53,2.58,1.06
					c0.67,0.42,1.35,0.93,2.12,1.46c0.51,0.38,1.08,0.69,1.69,0.91c0.59,0.22,1.25,0.17,1.81-0.14c0.06-0.05,0.14-0.08,0.22-0.07
					c0.07,0.03,0.13,0.09,0.16,0.16c0.52,1.56,0.24,3.28-0.76,4.59c-1.56,2.08-4.1,3.18-6.68,2.9c-2.09-0.32-4.22-0.29-6.3,0.09
					c-0.22,0.04,0.62-1.3,0.68-1.38C36.74,82.79,37.16,82.36,37.62,81.97z"/>
				
					<linearGradient id="Path_930_1_" gradientUnits="userSpaceOnUse" x1="32.0074" y1="44.5782" x2="33.6061" y2="44.5782" gradientTransform="matrix(8.59 0 0 -7.1831 -251.0049 395.9191)">
					<stop  offset="0" style="stop-color:#A57D2D"/>
					<stop  offset="0.211" style="stop-color:#D8BD61"/>
					<stop  offset="0.328" style="stop-color:#F1DD7F"/>
					<stop  offset="0.524" style="stop-color:#FBF2A8"/>
					<stop  offset="0.73" style="stop-color:#F1DD7F"/>
					<stop  offset="1" style="stop-color:#A57D2D"/>
				</linearGradient>
				<path id="Path_930" class="st9" d="M26.29,77.31c1.02-0.39,2.1-0.62,3.2-0.67c0.4-0.03,0.81-0.04,1.22-0.03
					c-0.8-0.89-1.44-1.92-1.89-3.04c-0.21-0.34-1.64-3.61-1.62-3.6c1.34,0.07,2.66,0.42,3.86,1.02c0.77,0.44,1.45,1.01,2,1.7
					c0.48,0.57,0.96,1.22,1.49,1.9c0.35,0.48,0.77,0.91,1.23,1.28c0.44,0.36,1.02,0.51,1.58,0.4c0.06-0.03,0.14-0.03,0.2,0
					c0.05,0.05,0.09,0.11,0.1,0.18c0.09,1.47-0.56,2.89-1.74,3.78c-1.87,1.37-4.34,1.61-6.43,0.61c-1.73-0.88-3.6-1.48-5.53-1.77
					c-0.2-0.03,0.84-0.96,0.92-1.02C25.32,77.76,25.79,77.51,26.29,77.31z"/>
				
					<linearGradient id="Path_931_1_" gradientUnits="userSpaceOnUse" x1="33.9451" y1="47.6281" x2="35.5439" y2="47.6281" gradientTransform="matrix(7.9839 0 0 -7.5734 -256.1721 430.1885)">
					<stop  offset="0" style="stop-color:#A57D2D"/>
					<stop  offset="0.211" style="stop-color:#D8BD61"/>
					<stop  offset="0.328" style="stop-color:#F1DD7F"/>
					<stop  offset="0.524" style="stop-color:#FBF2A8"/>
					<stop  offset="0.73" style="stop-color:#F1DD7F"/>
					<stop  offset="1" style="stop-color:#A57D2D"/>
				</linearGradient>
				<path id="Path_931" class="st10" d="M17.31,69.72c1.01-0.03,2.03,0.11,3,0.4c0.36,0.1,0.73,0.22,1.1,0.35
					c-0.51-1.04-0.85-2.15-1.01-3.3c-0.11-0.37-0.68-3.75-0.66-3.74c1.2,0.51,2.3,1.24,3.23,2.14c0.59,0.63,1.07,1.35,1.41,2.14
					c0.31,0.66,0.58,1.38,0.9,2.15c0.2,0.54,0.47,1.05,0.8,1.52c0.3,0.45,0.77,0.75,1.3,0.84c0.07,0,0.13,0.02,0.18,0.06
					c0.04,0.06,0.05,0.12,0.04,0.19c-0.24,1.3-1.16,2.37-2.41,2.8c-2.06,0.63-4.29,0.09-5.83-1.42c-1.33-1.31-2.85-2.42-4.51-3.29
					c-0.17-0.09,0.96-0.59,1.04-0.62C16.36,69.82,16.83,69.74,17.31,69.72z"/>
				
					<linearGradient id="Path_932_1_" gradientUnits="userSpaceOnUse" x1="39.251" y1="49.5646" x2="40.8497" y2="49.5646" gradientTransform="matrix(6.8201 0 0 -7.8141 -259.0369 448.6165)">
					<stop  offset="0" style="stop-color:#A57D2D"/>
					<stop  offset="0.211" style="stop-color:#D8BD61"/>
					<stop  offset="0.328" style="stop-color:#F1DD7F"/>
					<stop  offset="0.524" style="stop-color:#FBF2A8"/>
					<stop  offset="0.73" style="stop-color:#F1DD7F"/>
					<stop  offset="1" style="stop-color:#A57D2D"/>
				</linearGradient>
				<path id="Path_932" class="st11" d="M11.01,60.01c0.91,0.32,1.78,0.77,2.56,1.33c0.3,0.21,0.6,0.43,0.9,0.67
					c-0.23-1.09-0.29-2.21-0.18-3.32c-0.02-0.37,0.2-3.64,0.22-3.63c0.95,0.87,1.76,1.89,2.4,3.02c0.39,0.75,0.66,1.56,0.8,2.4
					c0.13,0.69,0.22,1.43,0.34,2.24c0.07,0.55,0.2,1.1,0.39,1.62c0.17,0.5,0.52,0.91,0.98,1.17c0.06,0.02,0.11,0.06,0.14,0.11
					c0.02,0.06,0.02,0.12,0,0.18c-0.49,1.08-1.58,1.77-2.76,1.75c-2.05-0.13-3.89-1.32-4.87-3.13c-0.89-1.61-1.99-3.1-3.25-4.44
					c-0.13-0.13,0.97-0.23,1.05-0.23C10.16,59.79,10.59,59.88,11.01,60.01z"/>
				
					<linearGradient id="Path_933_1_" gradientUnits="userSpaceOnUse" x1="51.9874" y1="50.1031" x2="53.5861" y2="50.1031" gradientTransform="matrix(5.0996 0 0 -7.8278 -259.3928 444.0022)">
					<stop  offset="0" style="stop-color:#A57D2D"/>
					<stop  offset="0.211" style="stop-color:#D8BD61"/>
					<stop  offset="0.328" style="stop-color:#F1DD7F"/>
					<stop  offset="0.524" style="stop-color:#FBF2A8"/>
					<stop  offset="0.73" style="stop-color:#F1DD7F"/>
					<stop  offset="1" style="stop-color:#A57D2D"/>
				</linearGradient>
				<path id="Path_933" class="st12" d="M7.7,48.99c0.72,0.61,1.35,1.32,1.89,2.1c0.21,0.3,0.42,0.6,0.62,0.92
					c0.04-1.07,0.24-2.13,0.58-3.14c0.07-0.34,1-3.33,1.01-3.32c0.61,1.15,1.07,2.37,1.38,3.64c0.17,0.82,0.23,1.66,0.17,2.5
					c-0.04,0.68-0.12,1.39-0.18,2.17c-0.06,0.54-0.07,1.08-0.01,1.62c0.05,0.52,0.26,1.01,0.61,1.39c0.1,0.06,0.14,0.2,0.08,0.3
					c0,0.01-0.01,0.01-0.01,0.02c-0.68,0.82-1.82,1.11-2.8,0.69c-1.82-0.85-3.13-2.51-3.54-4.48c-0.41-1.79-1-3.53-1.76-5.2
					c-0.08-0.17,0.87,0.11,0.94,0.14C7.03,48.52,7.38,48.74,7.7,48.99z"/>
				
					<linearGradient id="Path_934_1_" gradientUnits="userSpaceOnUse" x1="72.5082" y1="49.0436" x2="74.107" y2="49.0436" gradientTransform="matrix(3.6422 0 0 -7.5792 -257.7612 413.3125)">
					<stop  offset="0" style="stop-color:#A57D2D"/>
					<stop  offset="0.211" style="stop-color:#D8BD61"/>
					<stop  offset="0.328" style="stop-color:#F1DD7F"/>
					<stop  offset="0.524" style="stop-color:#FBF2A8"/>
					<stop  offset="0.73" style="stop-color:#F1DD7F"/>
					<stop  offset="1" style="stop-color:#A57D2D"/>
				</linearGradient>
				<path id="Path_934" class="st13" d="M7.7,37.47c0.42,0.84,0.74,1.73,0.98,2.64c0.1,0.35,0.19,0.72,0.27,1.09
					c0.3-0.99,0.73-1.93,1.29-2.8c0.14-0.3,1.71-2.87,1.72-2.86c0.17,1.32,0.23,2.65,0.16,3.98c-0.07,0.83-0.23,1.65-0.48,2.44
					c-0.2,0.64-0.43,1.28-0.68,1.99c-0.18,0.49-0.31,1-0.39,1.52c-0.08,0.51-0.01,1.04,0.2,1.51c0.03,0.05,0.05,0.11,0.05,0.18
					c-0.01,0.05-0.03,0.1-0.07,0.14c-0.64,0.71-2.08,0.24-2.54-0.3c-1.36-1.46-2.04-3.42-1.87-5.4c0.12-1.85,0.11-3.71-0.02-5.55
					C6.32,35.86,7,36.45,7.05,36.5C7.29,36.8,7.51,37.13,7.7,37.47z"/>
				
					<linearGradient id="Path_935_1_" gradientUnits="userSpaceOnUse" x1="59.8403" y1="51.5999" x2="61.4391" y2="51.5999" gradientTransform="matrix(4.4364 0 0 -7.9102 -257.2661 438.8456)">
					<stop  offset="0" style="stop-color:#A57D2D"/>
					<stop  offset="0.211" style="stop-color:#D8BD61"/>
					<stop  offset="0.328" style="stop-color:#F1DD7F"/>
					<stop  offset="0.524" style="stop-color:#FBF2A8"/>
					<stop  offset="0.73" style="stop-color:#F1DD7F"/>
					<stop  offset="1" style="stop-color:#A57D2D"/>
				</linearGradient>
				<path id="Path_935" class="st14" d="M11.31,26.25c0.01,0.98-0.04,1.96-0.16,2.93c-0.04,0.38-0.09,0.77-0.14,1.16
					c0.55-0.86,1.2-1.64,1.94-2.34c0.2-0.25,2.34-2.3,2.35-2.3c-0.35,1.36-0.78,2.71-1.27,4.03c-0.31,0.78-0.7,1.54-1.15,2.25
					c-0.35,0.56-0.73,1.12-1.14,1.73c-0.29,0.42-0.54,0.87-0.75,1.35c-0.21,0.48-0.3,1.01-0.26,1.53c0.02,0.06,0.02,0.13,0,0.19
					c-0.02,0.05-0.05,0.09-0.1,0.11c-0.71,0.46-1.74-0.48-1.96-1.15C8,33.82,8.06,31.73,8.86,29.86c0.78-2.08,1.32-3.44,1.96-5.47
					c0.06-0.19,0.36,0.62,0.38,0.68C11.26,25.46,11.3,25.85,11.31,26.25z"/>
				
					<linearGradient id="Path_936_1_" gradientUnits="userSpaceOnUse" x1="45.4461" y1="51.8704" x2="47.0448" y2="51.8704" gradientTransform="matrix(5.9063 0 0 -7.8724 -255.7345 428.6917)">
					<stop  offset="0" style="stop-color:#A57D2D"/>
					<stop  offset="0.211" style="stop-color:#D8BD61"/>
					<stop  offset="0.328" style="stop-color:#F1DD7F"/>
					<stop  offset="0.524" style="stop-color:#FBF2A8"/>
					<stop  offset="0.73" style="stop-color:#F1DD7F"/>
					<stop  offset="1" style="stop-color:#A57D2D"/>
				</linearGradient>
				<path id="Path_936" class="st15" d="M18.87,16.11c-0.43,0.92-0.98,1.92-1.54,2.92c-0.21,0.37-0.42,0.75-0.64,1.13
					c0.78-0.69,1.63-1.29,2.54-1.79c0.26-0.19,2.88-1.68,2.9-1.68c-1.03,1.33-1.85,2.51-2.89,3.76c-0.57,0.69-1.18,1.34-1.84,1.95
					c-0.5,0.46-1.01,0.9-1.56,1.39c-0.4,0.34-0.76,0.72-1.1,1.12c-0.35,0.42-0.61,0.91-0.77,1.44c-0.01,0.07-0.04,0.13-0.07,0.19
					c-0.03,0.04-0.07,0.07-0.12,0.08c-0.71,0.23-1.17-1.04-1.08-1.78c0.23-2.16,1.13-4.2,2.58-5.82c1.54-1.85,2.61-3.07,4.17-4.93
					c0.15-0.18-0.06,0.72-0.07,0.8C19.24,15.27,19.07,15.67,18.87,16.11z"/>
			</g>
			<g id="Group_448">
				<g id="Group_440" transform="translate(18.72 37.224)">
					
						<linearGradient id="Path_937_1_" gradientUnits="userSpaceOnUse" x1="12.3612" y1="6.5193" x2="13.5731" y2="8.0493" gradientTransform="matrix(9.0428 0 0 -7.1841 -94.7609 94.6244)">
						<stop  offset="0" style="stop-color:#A57D2D"/>
						<stop  offset="0.211" style="stop-color:#D8BD61"/>
						<stop  offset="0.328" style="stop-color:#F1DD7F"/>
						<stop  offset="0.524" style="stop-color:#FBF2A8"/>
						<stop  offset="0.73" style="stop-color:#F1DD7F"/>
						<stop  offset="1" style="stop-color:#A57D2D"/>
					</linearGradient>
					<path id="Path_937" class="st16" d="M17.09,47.76c-0.08,0-0.16-0.04-0.21-0.11c-0.2-0.32,0.71-1.61,0.72-1.62
						c0.39-0.48,0.82-0.92,1.29-1.31l0,0c0.97-0.78,2.06-1.41,3.23-1.87c0.27-0.11,0.55-0.22,0.83-0.32
						c-0.93-0.64-1.76-1.41-2.46-2.29c-0.21-0.2-1.01-1.14-1.47-1.69c-1.3-1.56-1.3-1.56-1.25-1.7l0.04-0.12l0.12-0.03
						c1.42-0.41,2.91-0.52,4.37-0.33c0.95,0.18,1.85,0.55,2.66,1.09c0.44,0.27,0.88,0.59,1.34,0.91c0.25,0.18,0.51,0.36,0.79,0.55
						c0.5,0.37,1.05,0.67,1.63,0.88c0.53,0.19,1.12,0.15,1.62-0.12c0.11-0.09,0.26-0.12,0.4-0.09c0.13,0.04,0.23,0.14,0.29,0.26
						c0.56,1.65,0.27,3.47-0.79,4.85c-1.61,2.13-4.21,3.25-6.86,2.97c-2.07-0.32-4.18-0.29-6.24,0.09
						C17.13,47.76,17.11,47.76,17.09,47.76z M17.06,47.32L17.06,47.32z M20.23,47.01c1.07,0.02,2.14,0.09,3.2,0.21
						c2.51,0.28,4.98-0.79,6.49-2.82c0.94-1.24,1.21-2.86,0.73-4.33c-0.01-0.01-0.02-0.03-0.02-0.04l-0.04,0.02
						c-0.61,0.35-1.34,0.41-2,0.17c-0.62-0.23-1.21-0.54-1.74-0.94c-0.27-0.19-0.54-0.37-0.8-0.55c-0.46-0.32-0.89-0.63-1.32-0.9
						c-0.75-0.51-1.6-0.85-2.5-1.02c-1.29-0.18-2.6-0.09-3.86,0.25c0.58,0.71,2.18,2.64,2.43,2.86l0.02,0.02
						c0.76,0.98,1.7,1.81,2.77,2.45l0.46,0.25l-0.5,0.16c-0.42,0.14-0.85,0.29-1.26,0.46c-1.12,0.44-2.17,1.05-3.11,1.8
						c-0.45,0.37-0.86,0.79-1.23,1.24c-0.07,0.1-0.39,0.63-0.56,0.96C18.32,47.09,19.27,47.01,20.23,47.01L20.23,47.01z"/>
				</g>
				<g id="Group_441" transform="translate(11.397 34.962)">
					
						<linearGradient id="Path_938_1_" gradientUnits="userSpaceOnUse" x1="20.0113" y1="11.1697" x2="20.9689" y2="12.3096" gradientTransform="matrix(8.8586 0 0 -7.483 -162.8976 129.8287)">
						<stop  offset="0" style="stop-color:#A57D2D"/>
						<stop  offset="0.211" style="stop-color:#D8BD61"/>
						<stop  offset="0.328" style="stop-color:#F1DD7F"/>
						<stop  offset="0.524" style="stop-color:#FBF2A8"/>
						<stop  offset="0.73" style="stop-color:#F1DD7F"/>
						<stop  offset="1" style="stop-color:#A57D2D"/>
					</linearGradient>
					<path id="Path_938" class="st17" d="M20.92,46.86c-0.96-0.02-1.9-0.23-2.77-0.64c-1.72-0.88-3.56-1.47-5.47-1.76
						c-0.1-0.01-0.18-0.08-0.21-0.18c-0.09-0.34,1.01-1.22,1.02-1.23c0.46-0.31,0.94-0.57,1.45-0.78l0,0
						c1.05-0.4,2.15-0.64,3.27-0.69c0.24-0.02,0.49-0.03,0.74-0.03c-0.65-0.83-1.18-1.74-1.59-2.72c-0.14-0.23-0.62-1.31-0.9-1.94
						c-0.79-1.77-0.79-1.77-0.71-1.89l0.08-0.11l0.13,0.02c1.37,0.08,2.71,0.44,3.94,1.05c0.79,0.45,1.49,1.05,2.06,1.76
						c0.32,0.38,0.64,0.78,0.96,1.22c0.17,0.23,0.35,0.46,0.54,0.7c0.34,0.47,0.74,0.89,1.19,1.24c0.39,0.32,0.9,0.45,1.39,0.37
						c0.13-0.05,0.27-0.03,0.38,0.04c0.1,0.08,0.17,0.19,0.19,0.31c0.1,1.56-0.59,3.07-1.84,4.02
						C23.63,46.38,22.3,46.81,20.92,46.86z M13.06,44.08c1.84,0.32,3.61,0.9,5.28,1.74c2.02,0.97,4.42,0.74,6.23-0.59
						c1.1-0.83,1.71-2.16,1.64-3.53c0-0.01,0-0.02-0.01-0.03h-0.01c-0.63,0.13-1.28-0.03-1.77-0.43c-0.49-0.38-0.92-0.83-1.28-1.33
						c-0.19-0.24-0.37-0.48-0.54-0.7c-0.32-0.43-0.64-0.83-0.95-1.2c-0.54-0.67-1.2-1.23-1.94-1.65c-1.06-0.54-2.22-0.86-3.4-0.95
						c0.36,0.83,1.3,2.96,1.46,3.22l0.01,0.02c0.44,1.09,1.06,2.1,1.85,2.98L20,42.01L19.46,42c-0.4,0-0.8,0-1.21,0.03
						c-1.07,0.05-2.13,0.27-3.14,0.66c-0.48,0.2-0.93,0.44-1.36,0.73C13.67,43.48,13.28,43.84,13.06,44.08L13.06,44.08z
						 M12.74,44.03L12.74,44.03z"/>
				</g>
				<g id="Group_442" transform="translate(5.705 30.853)">
					
						<linearGradient id="Path_939_1_" gradientUnits="userSpaceOnUse" x1="27.6699" y1="18.1705" x2="28.5012" y2="19.0434" gradientTransform="matrix(8.2614 0 0 -7.862 -216.1344 186.1871)">
						<stop  offset="0" style="stop-color:#A57D2D"/>
						<stop  offset="0.211" style="stop-color:#D8BD61"/>
						<stop  offset="0.328" style="stop-color:#F1DD7F"/>
						<stop  offset="0.524" style="stop-color:#FBF2A8"/>
						<stop  offset="0.73" style="stop-color:#F1DD7F"/>
						<stop  offset="1" style="stop-color:#A57D2D"/>
					</linearGradient>
					<path id="Path_939" class="st18" d="M17.81,45.02c-1.55-0.01-3.04-0.62-4.16-1.71c-1.32-1.3-2.82-2.4-4.46-3.26
						C9.1,40,9.04,39.91,9.05,39.81c0.02-0.34,1.2-0.78,1.21-0.79c0.48-0.13,0.97-0.21,1.47-0.24l0,0c1.04-0.03,2.07,0.11,3.07,0.4
						c0.2,0.06,0.4,0.12,0.6,0.18c-0.38-0.92-0.64-1.88-0.79-2.86c-0.07-0.25-0.27-1.37-0.38-2.02c-0.32-1.85-0.32-1.85-0.21-1.94
						l0.11-0.1l0.13,0.07c1.22,0.52,2.34,1.26,3.29,2.19c0.61,0.65,1.1,1.39,1.45,2.2c0.21,0.44,0.39,0.91,0.59,1.4
						c0.1,0.25,0.2,0.5,0.31,0.76c0.2,0.52,0.46,1.01,0.77,1.47c0.26,0.4,0.68,0.67,1.15,0.75c0.13,0,0.25,0.05,0.33,0.15
						c0.07,0.1,0.1,0.21,0.09,0.33c-0.24,1.4-1.23,2.56-2.58,3.01C19.06,44.93,18.44,45.01,17.81,45.02z M9.67,39.8
						c1.56,0.86,3.01,1.93,4.28,3.18c1.48,1.46,3.64,1.98,5.63,1.37c1.14-0.42,1.99-1.4,2.24-2.59c0-0.01,0-0.02,0-0.03h-0.01
						c-0.6-0.09-1.13-0.42-1.47-0.92c-0.34-0.49-0.62-1.01-0.83-1.57c-0.11-0.26-0.21-0.51-0.31-0.76c-0.2-0.49-0.39-0.95-0.59-1.38
						c-0.33-0.77-0.8-1.47-1.37-2.08c-0.81-0.8-1.75-1.45-2.79-1.91c0.15,0.9,0.51,3.02,0.59,3.29v0.02
						c0.15,1.12,0.49,2.22,0.98,3.23l0.28,0.51l-0.55-0.2c-0.35-0.13-0.72-0.25-1.08-0.35c-0.95-0.29-1.94-0.42-2.93-0.39l0,0
						c-0.46,0.02-0.92,0.1-1.36,0.22C10.31,39.48,9.92,39.66,9.67,39.8L9.67,39.8z M9.4,39.66L9.4,39.66z"/>
				</g>
				<g id="Group_443" transform="translate(1.841 25.613)">
					
						<linearGradient id="Path_940_1_" gradientUnits="userSpaceOnUse" x1="36.542" y1="25.4503" x2="37.4501" y2="26.2433" gradientTransform="matrix(7.0967 0 0 -8.1229 -249.0322 246.3904)">
						<stop  offset="0" style="stop-color:#A57D2D"/>
						<stop  offset="0.211" style="stop-color:#D8BD61"/>
						<stop  offset="0.328" style="stop-color:#F1DD7F"/>
						<stop  offset="0.524" style="stop-color:#FBF2A8"/>
						<stop  offset="0.73" style="stop-color:#F1DD7F"/>
						<stop  offset="1" style="stop-color:#A57D2D"/>
					</linearGradient>
					<path id="Path_940" class="st19" d="M15.24,42.31c-0.06,0-0.12,0-0.17-0.01c-2.12-0.15-4.01-1.37-5.02-3.23
						c-0.89-1.6-1.97-3.08-3.22-4.41c-0.07-0.07-0.09-0.18-0.05-0.27c0.13-0.31,1.24-0.32,1.26-0.32l0,0
						c0.46,0.04,0.91,0.12,1.35,0.26l0,0c0.94,0.32,1.82,0.78,2.62,1.36c0.14,0.1,0.29,0.21,0.43,0.32
						c-0.12-0.92-0.15-1.86-0.07-2.79c-0.01-0.2,0.06-1.31,0.1-1.95c0.11-1.79,0.11-1.79,0.23-1.86l0.15-0.09l0.12,0.12
						c0.97,0.89,1.8,1.93,2.44,3.07c0.4,0.77,0.68,1.61,0.82,2.47c0.09,0.47,0.16,0.96,0.23,1.47c0.04,0.25,0.07,0.51,0.11,0.77
						c0.06,0.54,0.19,1.06,0.37,1.57c0.15,0.45,0.46,0.82,0.87,1.05c0.11,0.04,0.21,0.12,0.26,0.23c0.04,0.1,0.04,0.22,0.01,0.32
						C17.57,41.53,16.47,42.27,15.24,42.31z M7.35,34.58c1.18,1.3,2.21,2.73,3.07,4.26c0.94,1.75,2.72,2.9,4.7,3.02
						c1.07,0,2.05-0.62,2.52-1.59c0-0.01,0-0.02,0-0.03l-0.02-0.01c-0.52-0.27-0.91-0.73-1.1-1.28c-0.2-0.54-0.33-1.1-0.4-1.67
						c-0.04-0.26-0.08-0.52-0.11-0.77c-0.07-0.51-0.14-0.99-0.23-1.45c-0.14-0.82-0.4-1.61-0.78-2.34
						c-0.54-0.97-1.22-1.86-2.03-2.63c-0.07,0.91-0.19,2.85-0.18,3.12c-0.11,1.1-0.05,2.2,0.18,3.28l0.16,0.64l-0.51-0.41
						c-0.29-0.23-0.59-0.46-0.88-0.67c-0.76-0.56-1.61-1-2.5-1.3l0,0c-0.4-0.13-0.82-0.21-1.24-0.24
						C7.92,34.5,7.59,34.54,7.35,34.58L7.35,34.58z M7.13,34.36L7.13,34.36z"/>
				</g>
				<g id="Group_444" transform="translate(0 19.657)">
					
						<linearGradient id="Path_941_1_" gradientUnits="userSpaceOnUse" x1="49.8593" y1="32.013" x2="51.1943" y2="32.8955" gradientTransform="matrix(5.3731 0 0 -8.1411 -260.3711 296.1923)">
						<stop  offset="0" style="stop-color:#A57D2D"/>
						<stop  offset="0.211" style="stop-color:#D8BD61"/>
						<stop  offset="0.328" style="stop-color:#F1DD7F"/>
						<stop  offset="0.524" style="stop-color:#FBF2A8"/>
						<stop  offset="0.73" style="stop-color:#F1DD7F"/>
						<stop  offset="1" style="stop-color:#A57D2D"/>
					</linearGradient>
					<path id="Path_941" class="st20" d="M12.1,38.76c-0.36,0.01-0.71-0.06-1.04-0.21c-1.88-0.88-3.23-2.59-3.65-4.61
						C7,32.16,6.42,30.43,5.67,28.77c-0.05-0.09-0.03-0.2,0.04-0.28c0.23-0.24,1.17,0.12,1.18,0.12c0.39,0.19,0.75,0.42,1.09,0.7
						l0,0c0.73,0.63,1.38,1.34,1.93,2.14c0.09,0.12,0.17,0.24,0.26,0.37c0.1-0.86,0.29-1.7,0.55-2.52c0.04-0.19,0.34-1.2,0.52-1.79
						c0.5-1.63,0.5-1.63,0.61-1.67l0.19-0.08L12.17,26c0.61,1.14,1.07,2.36,1.36,3.62c0.17,0.84,0.23,1.7,0.17,2.56
						c-0.02,0.46-0.07,0.93-0.12,1.42c-0.02,0.24-0.05,0.5-0.07,0.76c-0.06,0.52-0.06,1.05-0.01,1.57c0.04,0.47,0.23,0.91,0.55,1.26
						c0.18,0.14,0.23,0.39,0.1,0.59C13.7,38.45,12.92,38.82,12.1,38.76z M6.21,28.88c0.69,1.6,1.24,3.25,1.63,4.94
						c0.4,1.9,1.67,3.51,3.43,4.34c0.88,0.36,1.89,0.12,2.51-0.6l0.01-0.02l-0.03-0.03c-0.39-0.42-0.63-0.95-0.69-1.53
						c-0.06-0.55-0.05-1.11,0.01-1.66c0.02-0.26,0.05-0.51,0.07-0.76c0.05-0.49,0.09-0.96,0.11-1.41c0.06-0.82,0-1.64-0.16-2.44
						c-0.24-1.07-0.62-2.11-1.12-3.09c-0.27,0.86-0.79,2.52-0.83,2.77c-0.34,1-0.53,2.05-0.58,3.1v0.75l-0.4-0.64
						c-0.2-0.32-0.41-0.62-0.61-0.91c-0.52-0.76-1.14-1.45-1.85-2.05C7.41,29.4,7.08,29.18,6.72,29
						C6.64,28.98,6.41,28.92,6.21,28.88L6.21,28.88z M6.07,28.58L6.07,28.58z"/>
				</g>
				<g id="Group_445" transform="translate(0.38 13.39)">
					
						<linearGradient id="Path_942_1_" gradientUnits="userSpaceOnUse" x1="67.0206" y1="37.4108" x2="69.0638" y2="38.4244" gradientTransform="matrix(3.9202 0 0 -7.9051 -257.4403 327.143)">
						<stop  offset="0" style="stop-color:#A57D2D"/>
						<stop  offset="0.211" style="stop-color:#D8BD61"/>
						<stop  offset="0.328" style="stop-color:#F1DD7F"/>
						<stop  offset="0.524" style="stop-color:#FBF2A8"/>
						<stop  offset="0.73" style="stop-color:#F1DD7F"/>
						<stop  offset="1" style="stop-color:#A57D2D"/>
					</linearGradient>
					<path id="Path_942" class="st21" d="M9.58,34.62H9.56c-0.66-0.01-1.29-0.27-1.76-0.73c-1.4-1.5-2.09-3.52-1.92-5.56
						C6,26.49,5.99,24.64,5.86,22.8c-0.01-0.11,0.05-0.21,0.15-0.25c0.3-0.13,0.94,0.53,0.95,0.54c0.26,0.32,0.49,0.67,0.68,1.03
						l0,0c0.43,0.86,0.76,1.76,1,2.69c0.03,0.11,0.06,0.23,0.09,0.34c0.3-0.73,0.65-1.44,1.07-2.11c0.56-1.02,1.17-2.01,1.84-2.96
						l0.27-0.09l0.06,0.63c0.15,1.22,0.19,2.44,0.12,3.66c-0.07,0.85-0.23,1.68-0.49,2.49c-0.13,0.42-0.27,0.83-0.43,1.28
						c-0.08,0.23-0.16,0.48-0.25,0.73c-0.18,0.48-0.3,0.97-0.38,1.47c-0.08,0.47-0.02,0.95,0.18,1.38c0.06,0.09,0.08,0.19,0.08,0.3
						c-0.01,0.1-0.06,0.2-0.13,0.27C10.38,34.49,9.99,34.64,9.58,34.62z M6.34,23.13c0.1,1.74,0.1,3.48,0,5.22
						c-0.17,1.93,0.49,3.84,1.8,5.25c0.39,0.36,0.9,0.57,1.43,0.58c0.29,0.02,0.57-0.08,0.78-0.28c0.01-0.01,0.01-0.02,0.02-0.02
						c0,0.01-0.02-0.02-0.03-0.04c-0.24-0.51-0.31-1.09-0.23-1.65c0.08-0.53,0.21-1.06,0.4-1.56c0.08-0.25,0.17-0.49,0.25-0.73
						c0.16-0.44,0.3-0.85,0.42-1.26c0.25-0.78,0.41-1.58,0.47-2.4c0.07-1.1,0.04-2.2-0.09-3.29c-0.47,0.77-1.28,2.1-1.36,2.29
						C9.66,26.1,9.22,27.03,8.93,28L8.7,28.85L8.5,28c-0.08-0.37-0.18-0.73-0.27-1.08c-0.23-0.9-0.55-1.77-0.96-2.6
						c-0.18-0.34-0.39-0.65-0.63-0.95C6.6,23.34,6.47,23.23,6.34,23.13L6.34,23.13z M6.31,22.77L6.31,22.77z"/>
				</g>
				<g id="Group_446" transform="translate(1.546 6.443)">
					
						<linearGradient id="Path_943_1_" gradientUnits="userSpaceOnUse" x1="54.2403" y1="46.3926" x2="56.098" y2="47.4702" gradientTransform="matrix(4.754 0 0 -8.1873 -252.4023 408.0146)">
						<stop  offset="0" style="stop-color:#A57D2D"/>
						<stop  offset="0.211" style="stop-color:#D8BD61"/>
						<stop  offset="0.328" style="stop-color:#F1DD7F"/>
						<stop  offset="0.524" style="stop-color:#FBF2A8"/>
						<stop  offset="0.73" style="stop-color:#F1DD7F"/>
						<stop  offset="1" style="stop-color:#A57D2D"/>
					</linearGradient>
					<path id="Path_943" class="st22" d="M8.8,30.92c-0.14,0-0.29-0.03-0.42-0.08c-0.61-0.25-1.09-0.73-1.33-1.35
						c-0.69-1.96-0.63-4.1,0.18-6.02l0.26-0.69c0.65-1.73,1.13-2.98,1.69-4.77c0.03-0.11,0.13-0.18,0.24-0.18
						c0.3,0,0.52,0.72,0.56,0.87c0.08,0.41,0.13,0.82,0.14,1.24l0,0c0.01,0.99-0.04,1.98-0.16,2.96c-0.01,0.08-0.02,0.17-0.03,0.25
						c0.44-0.57,0.93-1.1,1.45-1.6c0.11-0.14,0.83-0.84,1.25-1.25c1.18-1.15,1.18-1.15,1.32-1.11l0.21,0.06l-0.06,0.21
						c-0.08,0.28-0.16,0.56-0.24,0.83c-0.29,1.09-0.64,2.17-1.04,3.22c-0.32,0.8-0.71,1.56-1.17,2.29c-0.22,0.35-0.45,0.7-0.7,1.06
						c-0.14,0.22-0.29,0.43-0.44,0.67c-0.28,0.41-0.53,0.85-0.73,1.31c-0.2,0.44-0.28,0.93-0.25,1.42c0.02,0.1,0.01,0.2-0.02,0.29
						c-0.04,0.09-0.1,0.17-0.19,0.22C9.18,30.88,8.99,30.93,8.8,30.92z M9.47,18.58c-0.51,1.58-0.96,2.77-1.56,4.37l-0.26,0.69
						c-0.77,1.82-0.84,3.86-0.18,5.73c0.19,0.48,0.58,0.87,1.06,1.07c0.19,0.08,0.4,0.07,0.58-0.04c0.01-0.02,0.01-0.06,0-0.08
						c-0.05-0.56,0.05-1.13,0.28-1.65c0.21-0.48,0.47-0.95,0.77-1.38c0.15-0.23,0.3-0.45,0.44-0.67c0.24-0.36,0.47-0.7,0.69-1.05
						c0.45-0.7,0.82-1.44,1.13-2.22c0.4-1.04,0.74-2.1,1.03-3.17l0.02-0.06c-0.64,0.62-1.62,1.58-1.75,1.73
						c-0.73,0.69-1.38,1.46-1.92,2.31l-0.55,0.91l0.14-1.05c0.05-0.39,0.1-0.78,0.14-1.16c0.12-0.96,0.17-1.93,0.16-2.9
						c-0.01-0.39-0.06-0.77-0.13-1.15C9.54,18.77,9.51,18.68,9.47,18.58L9.47,18.58z M9.61,18.15L9.61,18.15z"/>
				</g>
				<g id="Group_447" transform="translate(4.357)">
					
						<linearGradient id="Path_944_1_" gradientUnits="userSpaceOnUse" x1="38.2564" y1="52.9661" x2="39.8135" y2="54.17" gradientTransform="matrix(6.3076 0 0 -8.1497 -233.8259 457.0652)">
						<stop  offset="0" style="stop-color:#A57D2D"/>
						<stop  offset="0.211" style="stop-color:#D8BD61"/>
						<stop  offset="0.328" style="stop-color:#F1DD7F"/>
						<stop  offset="0.524" style="stop-color:#FBF2A8"/>
						<stop  offset="0.73" style="stop-color:#F1DD7F"/>
						<stop  offset="1" style="stop-color:#A57D2D"/>
					</linearGradient>
					<path id="Path_944" class="st23" d="M9.39,27c-0.19,0-0.36-0.07-0.51-0.19c-0.47-0.5-0.7-1.18-0.63-1.86
						c0.24-2.2,1.15-4.28,2.63-5.94c0.78-0.94,1.45-1.73,2.1-2.49s1.3-1.53,2.07-2.45c0.07-0.1,0.2-0.13,0.31-0.08
						c0.1,0.05,0.25,0.13,0,1.07c-0.15,0.43-0.33,0.86-0.52,1.28l0,0c-0.42,0.9-0.95,1.86-1.55,2.93l-0.06,0.11
						c0.53-0.38,1.09-0.74,1.65-1.06c0.01,0,2.85-1.71,3.03-1.71l0,0l0.41,0.03l-0.25,0.32c-0.38,0.49-0.74,0.96-1.08,1.42
						c-0.6,0.8-1.16,1.55-1.82,2.34c-0.57,0.7-1.19,1.36-1.86,1.97c-0.3,0.28-0.61,0.55-0.93,0.83c-0.21,0.18-0.42,0.37-0.63,0.56
						c-0.39,0.33-0.74,0.7-1.07,1.09c-0.33,0.4-0.58,0.86-0.73,1.36c-0.02,0.09-0.06,0.18-0.11,0.26c-0.06,0.08-0.14,0.13-0.23,0.16
						C9.55,26.99,9.47,27,9.39,27z M14.96,14.89c-0.59,0.7-1.12,1.32-1.63,1.92c-0.65,0.76-1.32,1.55-2.1,2.48
						c-1.42,1.59-2.3,3.59-2.53,5.71c-0.05,0.53,0.12,1.06,0.47,1.47c0.08,0.08,0.21,0.11,0.32,0.08c0.02-0.03,0.03-0.07,0.04-0.1
						c0.16-0.56,0.44-1.09,0.81-1.54c0.34-0.41,0.71-0.79,1.12-1.14c0.22-0.2,0.43-0.38,0.64-0.56c0.32-0.28,0.62-0.55,0.92-0.83
						c0.65-0.6,1.26-1.24,1.82-1.92c0.65-0.78,1.21-1.53,1.81-2.33l0.43-0.57c-0.78,0.45-1.79,1.03-1.94,1.14
						c-0.9,0.5-1.74,1.09-2.51,1.78L11.6,21.4l0.68-1.21c0.21-0.38,0.43-0.76,0.64-1.13c0.59-1.07,1.12-2.02,1.53-2.9l0,0
						c0.19-0.4,0.35-0.8,0.5-1.22L14.96,14.89z M15.4,14.36L15.4,14.36z"/>
				</g>
			</g>
		</g>
		<g id="Group_460" transform="translate(27.696 0)">
			<g id="Group_450" transform="translate(0.137 0.138)">
				
					<linearGradient id="Path_945_1_" gradientUnits="userSpaceOnUse" x1="4.763" y1="42.2757" x2="6.3617" y2="42.2757" gradientTransform="matrix(8.7772 0 0 -6.9081 -19.452 371.1569)">
					<stop  offset="0" style="stop-color:#A57D2D"/>
					<stop  offset="0.211" style="stop-color:#D8BD61"/>
					<stop  offset="0.328" style="stop-color:#F1DD7F"/>
					<stop  offset="0.524" style="stop-color:#FBF2A8"/>
					<stop  offset="0.73" style="stop-color:#F1DD7F"/>
					<stop  offset="1" style="stop-color:#A57D2D"/>
				</linearGradient>
				<path id="Path_945" class="st24" d="M34.41,81.97c-0.96-0.77-2.03-1.39-3.17-1.84c-0.42-0.17-0.84-0.32-1.28-0.47
					c1.09-0.65,2.05-1.5,2.83-2.5c0.32-0.28,2.69-3.16,2.67-3.17c-1.39-0.4-2.85-0.51-4.29-0.32c-0.92,0.18-1.8,0.53-2.58,1.06
					c-0.67,0.42-1.35,0.93-2.12,1.46c-0.51,0.38-1.08,0.69-1.69,0.91c-0.59,0.22-1.25,0.17-1.81-0.14
					c-0.06-0.05-0.14-0.08-0.22-0.07c-0.07,0.03-0.13,0.09-0.16,0.16c-0.52,1.56-0.24,3.28,0.76,4.59c1.56,2.08,4.1,3.18,6.68,2.9
					c2.09-0.32,4.22-0.29,6.3,0.09c0.22,0.04-0.62-1.3-0.68-1.38C35.29,82.79,34.87,82.36,34.41,81.97z"/>
				
					<linearGradient id="Path_946_1_" gradientUnits="userSpaceOnUse" x1="5.9751" y1="44.5773" x2="7.5739" y2="44.5773" gradientTransform="matrix(8.59 0 0 -7.183 -16.9675 395.9071)">
					<stop  offset="0" style="stop-color:#A57D2D"/>
					<stop  offset="0.211" style="stop-color:#D8BD61"/>
					<stop  offset="0.328" style="stop-color:#F1DD7F"/>
					<stop  offset="0.524" style="stop-color:#FBF2A8"/>
					<stop  offset="0.73" style="stop-color:#F1DD7F"/>
					<stop  offset="1" style="stop-color:#A57D2D"/>
				</linearGradient>
				<path id="Path_946" class="st25" d="M45.74,77.31c-1.02-0.39-2.1-0.62-3.2-0.67c-0.4-0.03-0.81-0.04-1.22-0.03
					c0.8-0.89,1.44-1.92,1.89-3.04c0.21-0.34,1.64-3.61,1.62-3.6c-1.34,0.07-2.66,0.42-3.86,1.02c-0.77,0.44-1.45,1.01-2,1.7
					c-0.48,0.57-0.96,1.22-1.49,1.9c-0.35,0.48-0.77,0.91-1.23,1.28c-0.44,0.36-1.02,0.51-1.58,0.4c-0.06-0.03-0.14-0.03-0.2,0
					c-0.05,0.05-0.09,0.11-0.1,0.18c-0.09,1.47,0.56,2.89,1.74,3.78c1.87,1.37,4.34,1.61,6.44,0.61c1.73-0.88,3.6-1.48,5.53-1.77
					c0.2-0.03-0.84-0.96-0.92-1.02C46.7,77.76,46.23,77.51,45.74,77.31z"/>
				
					<linearGradient id="Path_947_1_" gradientUnits="userSpaceOnUse" x1="8.9422" y1="47.6265" x2="10.541" y2="47.6265" gradientTransform="matrix(7.9829 0 0 -7.5732 -26.9605 430.1646)">
					<stop  offset="0" style="stop-color:#A57D2D"/>
					<stop  offset="0.211" style="stop-color:#D8BD61"/>
					<stop  offset="0.328" style="stop-color:#F1DD7F"/>
					<stop  offset="0.524" style="stop-color:#FBF2A8"/>
					<stop  offset="0.73" style="stop-color:#F1DD7F"/>
					<stop  offset="1" style="stop-color:#A57D2D"/>
				</linearGradient>
				<path id="Path_947" class="st26" d="M54.72,69.72c-1.01-0.03-2.03,0.11-3,0.4c-0.36,0.1-0.73,0.22-1.1,0.35
					c0.51-1.04,0.85-2.15,1.01-3.3c0.11-0.37,0.68-3.75,0.66-3.74c-1.2,0.51-2.3,1.24-3.23,2.14c-0.59,0.63-1.07,1.35-1.41,2.14
					c-0.31,0.66-0.58,1.38-0.9,2.15c-0.2,0.54-0.47,1.05-0.8,1.52c-0.3,0.45-0.77,0.75-1.3,0.84c-0.07,0-0.13,0.02-0.18,0.06
					c-0.04,0.06-0.05,0.12-0.04,0.19c0.24,1.3,1.16,2.37,2.41,2.8c2.06,0.63,4.29,0.09,5.83-1.42c1.33-1.31,2.85-2.42,4.51-3.29
					c0.17-0.09-0.96-0.59-1.04-0.62C55.67,69.82,55.2,69.74,54.72,69.72z"/>
				
					<linearGradient id="Path_948_1_" gradientUnits="userSpaceOnUse" x1="15.4829" y1="49.5646" x2="17.0817" y2="49.5646" gradientTransform="matrix(6.8202 0 0 -7.8141 -53.1292 448.6165)">
					<stop  offset="0" style="stop-color:#A57D2D"/>
					<stop  offset="0.211" style="stop-color:#D8BD61"/>
					<stop  offset="0.328" style="stop-color:#F1DD7F"/>
					<stop  offset="0.524" style="stop-color:#FBF2A8"/>
					<stop  offset="0.73" style="stop-color:#F1DD7F"/>
					<stop  offset="1" style="stop-color:#A57D2D"/>
				</linearGradient>
				<path id="Path_948" class="st27" d="M61.02,60.01c-0.91,0.32-1.78,0.77-2.56,1.33c-0.3,0.21-0.6,0.44-0.9,0.67
					c0.23-1.09,0.29-2.21,0.18-3.32c0.02-0.37-0.2-3.64-0.22-3.63c-0.95,0.87-1.76,1.89-2.4,3.02c-0.39,0.75-0.66,1.56-0.8,2.4
					c-0.13,0.69-0.22,1.43-0.34,2.24c-0.07,0.55-0.2,1.1-0.39,1.62c-0.17,0.5-0.52,0.91-0.98,1.17c-0.06,0.02-0.11,0.06-0.14,0.11
					c-0.02,0.06-0.02,0.12,0,0.18c0.49,1.08,1.58,1.77,2.76,1.75c2.05-0.13,3.89-1.32,4.86-3.13c0.89-1.61,1.99-3.1,3.25-4.44
					c0.13-0.13-0.97-0.23-1.05-0.23C61.87,59.79,61.44,59.88,61.02,60.01z"/>
				
					<linearGradient id="Path_949_1_" gradientUnits="userSpaceOnUse" x1="30.1945" y1="50.0725" x2="31.7932" y2="50.0725" gradientTransform="matrix(5.0981 0 0 -7.8227 -95.7767 443.5044)">
					<stop  offset="0" style="stop-color:#A57D2D"/>
					<stop  offset="0.211" style="stop-color:#D8BD61"/>
					<stop  offset="0.328" style="stop-color:#F1DD7F"/>
					<stop  offset="0.524" style="stop-color:#FBF2A8"/>
					<stop  offset="0.73" style="stop-color:#F1DD7F"/>
					<stop  offset="1" style="stop-color:#A57D2D"/>
				</linearGradient>
				<path id="Path_949" class="st28" d="M64.33,48.99c-0.72,0.61-1.35,1.32-1.89,2.1c-0.21,0.3-0.42,0.6-0.62,0.92
					c-0.04-1.07-0.24-2.13-0.58-3.14c-0.07-0.34-1-3.33-1.01-3.32c-0.61,1.15-1.07,2.37-1.38,3.64c-0.17,0.82-0.23,1.66-0.17,2.5
					c0.04,0.68,0.12,1.39,0.18,2.17c0.06,0.54,0.07,1.08,0.01,1.62c-0.05,0.52-0.26,1.01-0.61,1.39c-0.05,0.04-0.09,0.09-0.1,0.15
					c0,0.06,0.01,0.11,0.04,0.16c0.68,0.82,1.82,1.11,2.8,0.69c1.82-0.85,3.13-2.51,3.54-4.48c0.41-1.79,1-3.53,1.76-5.2
					c0.08-0.17-0.87,0.11-0.94,0.14C65,48.51,64.65,48.73,64.33,48.99z"/>
				
					<linearGradient id="Path_950_1_" gradientUnits="userSpaceOnUse" x1="53.245" y1="49.0437" x2="54.8438" y2="49.0437" gradientTransform="matrix(3.6387 0 0 -7.5792 -133.8644 413.3105)">
					<stop  offset="0" style="stop-color:#A57D2D"/>
					<stop  offset="0.211" style="stop-color:#D8BD61"/>
					<stop  offset="0.328" style="stop-color:#F1DD7F"/>
					<stop  offset="0.524" style="stop-color:#FBF2A8"/>
					<stop  offset="0.73" style="stop-color:#F1DD7F"/>
					<stop  offset="1" style="stop-color:#A57D2D"/>
				</linearGradient>
				<path id="Path_950" class="st29" d="M64.33,37.47c-0.42,0.84-0.74,1.73-0.98,2.64c-0.1,0.35-0.19,0.72-0.27,1.09
					c-0.3-0.99-0.74-1.93-1.29-2.8c-0.14-0.3-1.71-2.87-1.72-2.86c-0.17,1.32-0.23,2.65-0.16,3.98c0.07,0.83,0.23,1.65,0.48,2.44
					c0.19,0.64,0.43,1.28,0.68,1.99c0.18,0.49,0.31,1,0.39,1.52c0.08,0.51,0.01,1.04-0.2,1.51c-0.03,0.05-0.05,0.11-0.05,0.18
					c0.01,0.05,0.03,0.1,0.07,0.14c0.64,0.71,2.08,0.24,2.54-0.3c1.36-1.46,2.03-3.42,1.86-5.41c-0.12-1.85-0.11-3.71,0.02-5.55
					c0.02-0.19-0.67,0.4-0.71,0.45C64.73,36.8,64.51,37.13,64.33,37.47z"/>
				
					<linearGradient id="Path_951_1_" gradientUnits="userSpaceOnUse" x1="38.5817" y1="51.5999" x2="40.1805" y2="51.5999" gradientTransform="matrix(4.4363 0 0 -7.9102 -114.4323 438.8456)">
					<stop  offset="0" style="stop-color:#A57D2D"/>
					<stop  offset="0.211" style="stop-color:#D8BD61"/>
					<stop  offset="0.328" style="stop-color:#F1DD7F"/>
					<stop  offset="0.524" style="stop-color:#FBF2A8"/>
					<stop  offset="0.73" style="stop-color:#F1DD7F"/>
					<stop  offset="1" style="stop-color:#A57D2D"/>
				</linearGradient>
				<path id="Path_951" class="st30" d="M60.72,26.25c-0.02,0.98,0.04,1.96,0.16,2.93c0.04,0.38,0.09,0.77,0.14,1.16
					c-0.55-0.86-1.2-1.64-1.94-2.34c-0.2-0.25-2.34-2.3-2.35-2.3c0.35,1.36,0.78,2.71,1.27,4.03c0.31,0.78,0.7,1.54,1.15,2.25
					c0.35,0.56,0.73,1.12,1.14,1.73c0.29,0.42,0.54,0.87,0.75,1.35c0.21,0.48,0.3,1.01,0.26,1.53c-0.02,0.06-0.02,0.13,0,0.19
					c0.02,0.05,0.05,0.09,0.1,0.11c0.71,0.46,1.74-0.48,1.96-1.15c0.68-1.91,0.61-4.01-0.18-5.88c-0.78-2.08-1.32-3.44-1.96-5.47
					c-0.06-0.19-0.36,0.62-0.38,0.68C60.77,25.46,60.73,25.85,60.72,26.25z"/>
				
					<linearGradient id="Path_952_1_" gradientUnits="userSpaceOnUse" x1="21.8756" y1="51.8704" x2="23.4744" y2="51.8704" gradientTransform="matrix(5.9054 0 0 -7.8724 -79.2775 428.6917)">
					<stop  offset="0" style="stop-color:#A57D2D"/>
					<stop  offset="0.211" style="stop-color:#D8BD61"/>
					<stop  offset="0.328" style="stop-color:#F1DD7F"/>
					<stop  offset="0.524" style="stop-color:#FBF2A8"/>
					<stop  offset="0.73" style="stop-color:#F1DD7F"/>
					<stop  offset="1" style="stop-color:#A57D2D"/>
				</linearGradient>
				<path id="Path_952" class="st31" d="M53.16,16.11c0.43,0.92,0.98,1.92,1.54,2.92l0.64,1.13c-0.78-0.69-1.63-1.29-2.54-1.79
					c-0.26-0.19-2.88-1.68-2.9-1.68c1.03,1.33,1.85,2.51,2.89,3.76c0.57,0.69,1.18,1.34,1.84,1.95c0.5,0.46,1.01,0.9,1.56,1.39
					c0.4,0.34,0.76,0.72,1.1,1.12c0.35,0.42,0.61,0.91,0.77,1.44c0.01,0.07,0.04,0.13,0.07,0.19c0.03,0.04,0.07,0.07,0.12,0.08
					c0.71,0.23,1.17-1.04,1.08-1.78c-0.23-2.16-1.13-4.2-2.58-5.82c-1.54-1.85-2.61-3.07-4.17-4.93c-0.15-0.18,0.06,0.72,0.07,0.8
					C52.79,15.27,52.96,15.67,53.16,16.11z"/>
			</g>
			<g id="Group_459">
				<g id="Group_451" transform="translate(0 37.224)">
					
						<linearGradient id="Path_953_1_" gradientUnits="userSpaceOnUse" x1="4.3849" y1="6.5351" x2="5.5104" y2="7.9564" gradientTransform="matrix(9.04 0 0 -7.1785 -13.6343 94.2871)">
						<stop  offset="0" style="stop-color:#A57D2D"/>
						<stop  offset="0.211" style="stop-color:#D8BD61"/>
						<stop  offset="0.328" style="stop-color:#F1DD7F"/>
						<stop  offset="0.524" style="stop-color:#FBF2A8"/>
						<stop  offset="0.73" style="stop-color:#F1DD7F"/>
						<stop  offset="1" style="stop-color:#A57D2D"/>
					</linearGradient>
					<path id="Path_953" class="st32" d="M36.5,47.76c-0.02,0-0.03,0-0.05,0c-2.06-0.38-4.17-0.41-6.24-0.09
						c-2.65,0.29-5.26-0.84-6.87-2.97c-1.05-1.38-1.35-3.2-0.79-4.85c0.06-0.12,0.16-0.21,0.29-0.26c0.14-0.03,0.28,0,0.39,0.09
						c0.5,0.27,1.09,0.32,1.63,0.12c0.58-0.21,1.13-0.51,1.63-0.88c0.27-0.19,0.54-0.37,0.79-0.55c0.46-0.32,0.9-0.64,1.34-0.91
						c0.8-0.54,1.71-0.91,2.66-1.09c1.46-0.19,2.95-0.08,4.37,0.33l0.12,0.03l0.04,0.12c0.05,0.14,0.05,0.14-1.25,1.7
						c-0.46,0.55-1.25,1.49-1.47,1.69c-0.7,0.88-1.53,1.65-2.46,2.29c0.28,0.1,0.56,0.2,0.83,0.32c1.16,0.46,2.25,1.09,3.23,1.87
						l0,0c0.47,0.39,0.89,0.83,1.28,1.3c0.02,0.02,0.93,1.32,0.73,1.63C36.65,47.73,36.58,47.76,36.5,47.76z M36.53,47.32
						L36.53,47.32z M22.96,40.03l-0.02,0.04c-0.48,1.48-0.21,3.09,0.73,4.33c1.51,2.03,3.98,3.11,6.49,2.83
						c2-0.29,4.03-0.28,6.03,0.04c-0.17-0.34-0.49-0.87-0.57-0.98c-0.37-0.45-0.77-0.86-1.22-1.23l0,0
						c-0.94-0.76-1.99-1.36-3.11-1.81c-0.41-0.17-0.84-0.32-1.26-0.46l-0.5-0.16L30,42.39c1.07-0.63,2.01-1.47,2.77-2.45l0.02-0.02
						c0.25-0.22,1.85-2.15,2.42-2.86c-1.26-0.34-2.57-0.43-3.86-0.25c-0.89,0.17-1.74,0.52-2.5,1.02c-0.43,0.27-0.86,0.57-1.32,0.9
						c-0.26,0.18-0.52,0.37-0.8,0.55c-0.53,0.4-1.12,0.71-1.74,0.94c-0.65,0.24-1.38,0.18-1.99-0.16L22.96,40.03z"/>
				</g>
				<g id="Group_452" transform="translate(7.505 34.962)">
					
						<linearGradient id="Path_954_1_" gradientUnits="userSpaceOnUse" x1="-2.0515" y1="11.0623" x2="-0.9436" y2="12.3813" gradientTransform="matrix(8.8599 0 0 -7.4801 48.0478 129.6458)">
						<stop  offset="0" style="stop-color:#A57D2D"/>
						<stop  offset="0.211" style="stop-color:#D8BD61"/>
						<stop  offset="0.328" style="stop-color:#F1DD7F"/>
						<stop  offset="0.524" style="stop-color:#FBF2A8"/>
						<stop  offset="0.73" style="stop-color:#F1DD7F"/>
						<stop  offset="1" style="stop-color:#A57D2D"/>
					</linearGradient>
					<path id="Path_954" class="st33" d="M32.49,46.86c-1.38-0.04-2.72-0.48-3.87-1.26c-1.25-0.94-1.94-2.45-1.84-4.02
						c0.02-0.12,0.09-0.23,0.19-0.31c0.11-0.07,0.25-0.08,0.37-0.04c0.5,0.09,1.01-0.05,1.4-0.36c0.45-0.36,0.85-0.78,1.19-1.24
						c0.19-0.24,0.36-0.47,0.54-0.7c0.33-0.43,0.64-0.84,0.96-1.22c0.57-0.71,1.27-1.31,2.07-1.76c1.23-0.61,2.57-0.97,3.94-1.05
						l0.13-0.02l0.08,0.11c0.08,0.12,0.08,0.12-0.71,1.89c-0.28,0.63-0.76,1.7-0.9,1.93c-0.4,0.97-0.94,1.89-1.59,2.72
						c0.25,0,0.49,0.01,0.74,0.03c1.12,0.06,2.22,0.29,3.27,0.69l0,0c0.5,0.21,0.99,0.46,1.44,0.77c0.02,0.02,1.13,0.89,1.04,1.24
						c-0.03,0.1-0.11,0.17-0.21,0.18c-1.9,0.29-3.75,0.88-5.46,1.76C34.39,46.63,33.44,46.84,32.49,46.86z M27.21,41.66v0.03
						c-0.07,1.38,0.54,2.7,1.64,3.53c1.81,1.34,4.21,1.57,6.24,0.6c1.66-0.84,3.44-1.43,5.27-1.74c-0.23-0.24-0.61-0.6-0.71-0.67
						c-0.42-0.28-0.87-0.52-1.34-0.72l0,0c-1-0.38-2.06-0.61-3.14-0.66c-0.4-0.03-0.8-0.04-1.21-0.03l-0.54,0.01l0.38-0.38
						c0.78-0.88,1.41-1.88,1.85-2.98l0.01-0.02c0.16-0.26,1.1-2.39,1.46-3.22c-1.19,0.09-2.34,0.41-3.4,0.95
						c-0.75,0.42-1.4,0.98-1.94,1.65c-0.32,0.37-0.62,0.77-0.95,1.2c-0.17,0.23-0.35,0.46-0.54,0.7c-0.36,0.5-0.79,0.95-1.28,1.33
						c-0.49,0.4-1.14,0.56-1.76,0.44L27.21,41.66z M40.66,44.03L40.66,44.03z"/>
				</g>
				<g id="Group_453" transform="translate(13.83 30.853)">
					
						<linearGradient id="Path_955_1_" gradientUnits="userSpaceOnUse" x1="-5.7339" y1="18.0206" x2="-4.6164" y2="19.1941" gradientTransform="matrix(8.2565 0 0 -7.8621 79.6006 186.1911)">
						<stop  offset="0" style="stop-color:#A57D2D"/>
						<stop  offset="0.211" style="stop-color:#D8BD61"/>
						<stop  offset="0.328" style="stop-color:#F1DD7F"/>
						<stop  offset="0.524" style="stop-color:#FBF2A8"/>
						<stop  offset="0.73" style="stop-color:#F1DD7F"/>
						<stop  offset="1" style="stop-color:#A57D2D"/>
					</linearGradient>
					<path id="Path_955" class="st34" d="M34.96,45.02c-0.63-0.01-1.26-0.09-1.88-0.24c-1.35-0.45-2.34-1.61-2.58-3.02
						c-0.01-0.12,0.02-0.23,0.09-0.33c0.08-0.09,0.2-0.15,0.32-0.15c0.47-0.08,0.89-0.35,1.15-0.75c0.32-0.46,0.58-0.95,0.77-1.47
						c0.11-0.26,0.21-0.51,0.31-0.76c0.2-0.49,0.39-0.96,0.59-1.4c0.35-0.81,0.84-1.56,1.45-2.2c0.95-0.93,2.07-1.67,3.29-2.19
						l0.13-0.07l0.11,0.1c0.1,0.09,0.1,0.09-0.21,1.94c-0.11,0.65-0.31,1.77-0.38,2.02c-0.15,0.98-0.41,1.94-0.79,2.86
						c0.2-0.07,0.4-0.12,0.6-0.18c1-0.3,2.03-0.43,3.07-0.4l0,0c0.49,0.03,0.98,0.11,1.45,0.24c0.03,0.01,1.2,0.45,1.22,0.8
						c0.01,0.1-0.05,0.19-0.14,0.24c-1.64,0.86-3.14,1.96-4.46,3.26C37.99,44.39,36.51,45,34.96,45.02z M30.95,41.73
						c0,0,0,0.02,0,0.03c0.25,1.19,1.09,2.18,2.24,2.59c1.99,0.62,4.15,0.09,5.64-1.37c1.28-1.25,2.72-2.32,4.28-3.18
						c-0.25-0.14-0.65-0.32-0.74-0.36c-0.44-0.12-0.89-0.19-1.34-0.22c-0.99-0.03-1.98,0.1-2.93,0.39c-0.36,0.1-0.72,0.22-1.08,0.35
						l-0.55,0.2l0.28-0.51c0.5-1.02,0.83-2.11,0.98-3.23v-0.02c0.08-0.28,0.44-2.4,0.59-3.29c-1.04,0.46-1.98,1.11-2.79,1.91
						c-0.57,0.61-1.04,1.31-1.37,2.08c-0.2,0.43-0.39,0.89-0.59,1.38c-0.1,0.25-0.2,0.5-0.32,0.76c-0.21,0.56-0.49,1.08-0.83,1.57
						c-0.34,0.5-0.87,0.83-1.46,0.92L30.95,41.73z M43.37,39.65L43.37,39.65z"/>
				</g>
				<g id="Group_454" transform="translate(18.857 25.614)">
					
						<linearGradient id="Path_956_1_" gradientUnits="userSpaceOnUse" x1="-4.8847" y1="25.2944" x2="-3.6377" y2="26.3815" gradientTransform="matrix(7.0978 0 0 -8.1219 68.3253 246.3102)">
						<stop  offset="0" style="stop-color:#A57D2D"/>
						<stop  offset="0.211" style="stop-color:#D8BD61"/>
						<stop  offset="0.328" style="stop-color:#F1DD7F"/>
						<stop  offset="0.524" style="stop-color:#FBF2A8"/>
						<stop  offset="0.73" style="stop-color:#F1DD7F"/>
						<stop  offset="1" style="stop-color:#A57D2D"/>
					</linearGradient>
					<path id="Path_956" class="st35" d="M36.37,42.31c-1.23-0.04-2.33-0.79-2.83-1.92c-0.03-0.1-0.03-0.22,0.01-0.32
						c0.05-0.11,0.14-0.19,0.25-0.23c0.41-0.23,0.73-0.6,0.87-1.05c0.19-0.51,0.31-1.03,0.37-1.57c0.04-0.26,0.08-0.52,0.11-0.77
						c0.07-0.52,0.14-1,0.23-1.47c0.14-0.86,0.42-1.69,0.82-2.47c0.65-1.15,1.47-2.18,2.44-3.07l0.12-0.12l0.15,0.09
						c0.12,0.07,0.12,0.07,0.23,1.86c0.04,0.64,0.11,1.76,0.1,1.97c0.08,0.92,0.05,1.85-0.07,2.77c0.14-0.11,0.29-0.21,0.43-0.32
						c0.8-0.58,1.68-1.04,2.62-1.36l0,0c0.43-0.14,0.88-0.22,1.33-0.26c0.03,0,1.15,0.02,1.28,0.32c0.04,0.09,0.02,0.2-0.05,0.27
						c-1.25,1.33-2.34,2.81-3.22,4.4c-1.01,1.87-2.91,3.09-5.03,3.24C36.48,42.31,36.42,42.31,36.37,42.31z M33.97,40.24
						c0,0,0,0.02,0,0.03c0.47,0.97,1.44,1.59,2.52,1.59c1.99-0.13,3.77-1.27,4.71-3.03c0.86-1.53,1.88-2.96,3.07-4.26
						c-0.22-0.04-0.45-0.06-0.67-0.08c-0.41,0.04-0.82,0.11-1.22,0.24c-0.89,0.31-1.74,0.75-2.5,1.31c-0.3,0.21-0.59,0.43-0.88,0.66
						l-0.51,0.41l0.16-0.64c0.22-1.07,0.28-2.17,0.18-3.26c0.01-0.29-0.11-2.24-0.18-3.14c-0.81,0.77-1.49,1.65-2.03,2.63
						c-0.38,0.74-0.64,1.53-0.78,2.34c-0.09,0.46-0.16,0.94-0.23,1.45c-0.04,0.25-0.07,0.51-0.11,0.77c-0.07,0.57-0.2,1.13-0.4,1.67
						c-0.19,0.55-0.58,1.01-1.1,1.28L33.97,40.24z M44.48,34.35L44.48,34.35z"/>
				</g>
				<g id="Group_455" transform="translate(22.421 19.657)">
					
						<linearGradient id="Path_957_1_" gradientUnits="userSpaceOnUse" x1="4.7631" y1="31.9225" x2="6.4226" y2="33.0176" gradientTransform="matrix(5.3695 0 0 -8.1439 8.7358 296.4132)">
						<stop  offset="0" style="stop-color:#A57D2D"/>
						<stop  offset="0.211" style="stop-color:#D8BD61"/>
						<stop  offset="0.328" style="stop-color:#F1DD7F"/>
						<stop  offset="0.524" style="stop-color:#FBF2A8"/>
						<stop  offset="0.73" style="stop-color:#F1DD7F"/>
						<stop  offset="1" style="stop-color:#A57D2D"/>
					</linearGradient>
					<path id="Path_957" class="st36" d="M37.79,38.75c-0.82,0.06-1.6-0.32-2.07-0.99c-0.05-0.09-0.08-0.2-0.06-0.3
						c0.02-0.11,0.08-0.2,0.16-0.27c0.32-0.35,0.51-0.79,0.55-1.26c0.05-0.52,0.05-1.05-0.01-1.57c-0.02-0.26-0.05-0.51-0.07-0.76
						c-0.05-0.49-0.09-0.96-0.12-1.42c-0.06-0.86,0-1.72,0.17-2.56c0.3-1.26,0.76-2.48,1.36-3.62l0.12-0.26l0.19,0.08
						c0.11,0.05,0.11,0.05,0.61,1.67c0.18,0.59,0.49,1.6,0.53,1.81c0.26,0.81,0.45,1.65,0.55,2.5c0.08-0.12,0.17-0.25,0.26-0.37
						c0.55-0.79,1.19-1.51,1.93-2.14l0,0c0.33-0.27,0.69-0.5,1.07-0.69c0.03-0.01,0.97-0.37,1.2-0.13c0.07,0.08,0.09,0.19,0.04,0.28
						c-0.75,1.66-1.33,3.39-1.74,5.17c-0.42,2.03-1.78,3.74-3.66,4.62C38.49,38.69,38.14,38.76,37.79,38.75z M36.1,37.53l0.01,0.02
						c0.62,0.72,1.63,0.96,2.51,0.6c1.76-0.83,3.03-2.43,3.43-4.34c0.39-1.69,0.94-3.35,1.63-4.94c-0.18,0.04-0.35,0.09-0.52,0.14
						c-0.35,0.17-0.67,0.39-0.97,0.63c-0.7,0.6-1.32,1.29-1.85,2.05c-0.21,0.29-0.42,0.6-0.61,0.91l-0.4,0.64V32.5
						c-0.04-1.05-0.23-2.09-0.57-3.08c-0.05-0.26-0.57-1.93-0.84-2.79c-0.5,0.98-0.87,2.02-1.12,3.09c-0.16,0.8-0.22,1.62-0.16,2.44
						c0.02,0.45,0.07,0.91,0.11,1.4c0.02,0.25,0.05,0.5,0.07,0.76c0.06,0.55,0.07,1.11,0.01,1.66c-0.05,0.57-0.29,1.1-0.68,1.52
						L36.1,37.53z M43.81,28.58L43.81,28.58z"/>
				</g>
				<g id="Group_456" transform="translate(23.496 13.39)">
					
						<linearGradient id="Path_958_1_" gradientUnits="userSpaceOnUse" x1="23.8462" y1="37.4093" x2="25.9309" y2="38.4421" gradientTransform="matrix(3.9174 0 0 -7.9061 -58.3756 327.2251)">
						<stop  offset="0" style="stop-color:#A57D2D"/>
						<stop  offset="0.211" style="stop-color:#D8BD61"/>
						<stop  offset="0.328" style="stop-color:#F1DD7F"/>
						<stop  offset="0.524" style="stop-color:#FBF2A8"/>
						<stop  offset="0.73" style="stop-color:#F1DD7F"/>
						<stop  offset="1" style="stop-color:#A57D2D"/>
					</linearGradient>
					<path id="Path_958" class="st37" d="M38.85,34.62c-0.41,0.02-0.8-0.14-1.09-0.43c-0.07-0.07-0.12-0.17-0.13-0.27
						c-0.01-0.1,0.02-0.21,0.07-0.3c0.19-0.43,0.25-0.92,0.18-1.39c-0.08-0.5-0.2-1-0.38-1.47c-0.08-0.25-0.17-0.49-0.25-0.73
						c-0.16-0.44-0.3-0.86-0.43-1.28c-0.26-0.81-0.42-1.64-0.49-2.49c-0.07-1.22-0.03-2.45,0.12-3.66l0.06-0.63l0.27,0.09
						c0.67,0.96,1.29,1.95,1.85,2.98c0.41,0.66,0.77,1.36,1.06,2.09c0.03-0.12,0.06-0.23,0.09-0.34c0.24-0.93,0.57-1.83,1-2.69l0,0
						c0.19-0.36,0.42-0.7,0.67-1.02c0.02-0.02,0.67-0.68,0.96-0.55c0.1,0.04,0.16,0.15,0.15,0.25c-0.13,1.84-0.13,3.69-0.02,5.53
						c0.18,2.04-0.52,4.07-1.92,5.57c-0.47,0.46-1.1,0.72-1.76,0.73L38.85,34.62z M38.07,33.88l0.01,0.01
						c0.21,0.2,0.49,0.3,0.78,0.28c0.53-0.01,1.04-0.22,1.43-0.58c1.32-1.42,1.97-3.33,1.81-5.26c-0.1-1.74-0.1-3.48,0-5.21
						c-0.13,0.1-0.27,0.21-0.31,0.26c-0.23,0.29-0.44,0.6-0.61,0.93l0,0c-0.41,0.83-0.73,1.7-0.96,2.6
						c-0.1,0.35-0.19,0.71-0.27,1.08l-0.2,0.85L39.52,28c-0.29-0.97-0.72-1.89-1.27-2.75c-0.09-0.2-0.9-1.54-1.37-2.31
						c-0.13,1.09-0.16,2.2-0.09,3.29c0.06,0.81,0.22,1.62,0.47,2.4c0.13,0.41,0.27,0.82,0.42,1.26c0.08,0.24,0.16,0.48,0.25,0.73
						c0.19,0.51,0.32,1.03,0.4,1.56c0.09,0.56,0.01,1.13-0.22,1.64C38.1,33.85,38.08,33.87,38.07,33.88L38.07,33.88z M42.12,22.76
						L42.12,22.76z"/>
				</g>
				<g id="Group_457" transform="translate(21.498 6.443)">
					
						<linearGradient id="Path_959_1_" gradientUnits="userSpaceOnUse" x1="13.0309" y1="46.5173" x2="14.3946" y2="47.3103" gradientTransform="matrix(4.7556 0 0 -8.184 -25.8068 407.721)">
						<stop  offset="0" style="stop-color:#A57D2D"/>
						<stop  offset="0.211" style="stop-color:#D8BD61"/>
						<stop  offset="0.328" style="stop-color:#F1DD7F"/>
						<stop  offset="0.524" style="stop-color:#FBF2A8"/>
						<stop  offset="0.73" style="stop-color:#F1DD7F"/>
						<stop  offset="1" style="stop-color:#A57D2D"/>
					</linearGradient>
					<path id="Path_959" class="st38" d="M40.46,30.92c-0.19,0-0.38-0.05-0.54-0.16c-0.08-0.05-0.15-0.13-0.18-0.22
						c-0.03-0.09-0.04-0.19-0.02-0.29c0.04-0.49-0.05-0.98-0.25-1.42c-0.2-0.46-0.45-0.9-0.73-1.31c-0.15-0.23-0.3-0.45-0.44-0.67
						c-0.24-0.36-0.48-0.71-0.69-1.06c-0.46-0.72-0.85-1.49-1.17-2.29c-0.41-1.05-0.75-2.13-1.04-3.22
						c-0.08-0.27-0.16-0.55-0.24-0.83l-0.06-0.21l0.21-0.06c0.14-0.04,0.14-0.04,1.32,1.11c0.42,0.41,1.14,1.11,1.26,1.26
						c0.52,0.5,1,1.03,1.44,1.6c-0.01-0.08-0.02-0.17-0.03-0.25c-0.12-0.98-0.17-1.97-0.16-2.96l0,0c0.01-0.41,0.06-0.82,0.14-1.22
						c0.05-0.16,0.27-0.88,0.57-0.89c0.11,0,0.21,0.08,0.24,0.19c0.56,1.79,1.04,3.04,1.69,4.77l0.26,0.69
						c0.81,1.91,0.88,4.06,0.18,6.02c-0.24,0.61-0.72,1.1-1.33,1.34C40.76,30.9,40.61,30.92,40.46,30.92z M35.81,20.11l0.02,0.06
						c0.28,1.08,0.63,2.13,1.03,3.17c0.31,0.77,0.69,1.52,1.13,2.22c0.22,0.35,0.45,0.69,0.69,1.05c0.15,0.22,0.29,0.44,0.44,0.67
						c0.3,0.44,0.56,0.9,0.77,1.38c0.23,0.51,0.32,1.08,0.28,1.64c0,0.03,0,0.06,0,0.08c0.18,0.11,0.4,0.12,0.59,0.04
						c0.48-0.2,0.86-0.59,1.06-1.07c0.66-1.87,0.59-3.91-0.18-5.73l-0.26-0.69c-0.6-1.6-1.05-2.78-1.56-4.36
						c-0.04,0.1-0.08,0.2-0.09,0.24c-0.07,0.37-0.11,0.75-0.13,1.13l0,0c-0.01,0.97,0.04,1.94,0.16,2.9
						c0.04,0.38,0.09,0.76,0.14,1.16l0.14,1.05l-0.55-0.91c-0.54-0.84-1.18-1.61-1.91-2.3C37.43,21.69,36.45,20.73,35.81,20.11z
						 M39.66,18.15L39.66,18.15z"/>
				</g>
				<g id="Group_458" transform="translate(17.128)">
					
						<linearGradient id="Path_960_1_" gradientUnits="userSpaceOnUse" x1="2.3911" y1="53.3187" x2="2.989" y2="53.7807" gradientTransform="matrix(6.3082 0 0 -8.1464 21.453 456.75)">
						<stop  offset="0" style="stop-color:#A57D2D"/>
						<stop  offset="0.211" style="stop-color:#D8BD61"/>
						<stop  offset="0.328" style="stop-color:#F1DD7F"/>
						<stop  offset="0.524" style="stop-color:#FBF2A8"/>
						<stop  offset="0.73" style="stop-color:#F1DD7F"/>
						<stop  offset="1" style="stop-color:#A57D2D"/>
					</linearGradient>
					<path id="Path_960" class="st39" d="M41.43,27c-0.08,0-0.16-0.01-0.24-0.04c-0.09-0.03-0.17-0.08-0.23-0.16
						c-0.05-0.08-0.09-0.16-0.11-0.25c-0.15-0.5-0.4-0.97-0.73-1.37c-0.33-0.39-0.68-0.76-1.07-1.09c-0.21-0.19-0.42-0.38-0.63-0.56
						c-0.32-0.29-0.63-0.55-0.94-0.84c-0.66-0.61-1.29-1.27-1.86-1.97c-0.66-0.8-1.22-1.55-1.82-2.35c-0.34-0.46-0.7-0.93-1.08-1.42
						l-0.25-0.32l0.41-0.03l0,0c0.18,0,3.02,1.71,3.04,1.72c0.56,0.32,1.11,0.67,1.64,1.05l-0.06-0.11
						c-0.6-1.07-1.12-2.04-1.55-2.93l0,0c-0.19-0.41-0.36-0.83-0.52-1.26c-0.25-0.96-0.11-1.03,0-1.08
						c0.11-0.05,0.24-0.02,0.31,0.08c0.77,0.92,1.43,1.69,2.07,2.44c0.64,0.75,1.32,1.55,2.1,2.49c1.47,1.66,2.39,3.74,2.63,5.94
						c0.07,0.68-0.16,1.36-0.63,1.86C41.79,26.94,41.61,27,41.43,27z M33.74,17.54l0.43,0.57c0.59,0.8,1.16,1.55,1.81,2.33
						c0.56,0.68,1.17,1.32,1.82,1.92c0.3,0.28,0.61,0.55,0.93,0.83c0.21,0.18,0.42,0.37,0.63,0.56c0.4,0.35,0.78,0.73,1.12,1.14
						c0.37,0.45,0.65,0.97,0.81,1.53c0.01,0.04,0.02,0.07,0.04,0.11c0.12,0.04,0.24,0.01,0.33-0.07c0.35-0.4,0.52-0.93,0.47-1.47
						c-0.23-2.12-1.11-4.12-2.53-5.71c-0.78-0.93-1.45-1.72-2.1-2.48c-0.51-0.6-1.04-1.22-1.63-1.92c0,0.03,0.01,0.05,0.02,0.07
						c0.14,0.4,0.31,0.8,0.49,1.2c0.42,0.88,0.94,1.84,1.53,2.9c0.21,0.37,0.42,0.75,0.64,1.13l0.68,1.21l-1.02-0.94
						c-0.77-0.68-1.6-1.27-2.5-1.76C35.54,18.58,34.52,17.99,33.74,17.54z M35.42,14.36L35.42,14.36z"/>
				</g>
			</g>
		</g>
	</g>
</g>
</svg>
