<?xml version="1.0" encoding="utf-8"?>
<!-- Generator: Adobe Illustrator 25.0.1, SVG Export Plug-In . SVG Version: 6.00 Build 0)  -->
<svg version="1.1" id="Layer_1" xmlns="http://www.w3.org/2000/svg" xmlns:xlink="http://www.w3.org/1999/xlink" x="0px" y="0px"
	 viewBox="0 0 100 100" style="enable-background:new 0 0 100 100;" xml:space="preserve">
<style type="text/css">
	.st0{fill:url(#Path_961_1_);}
	.st1{fill:url(#Path_962_1_);}
	.st2{fill:url(#Path_963_1_);}
	.st3{fill:url(#Path_964_1_);}
	.st4{fill:url(#Path_965_1_);}
	.st5{fill:url(#Path_966_1_);}
	.st6{fill:url(#Path_967_1_);}
	.st7{fill:url(#Path_968_1_);}
	.st8{fill:url(#Path_969_1_);}
	.st9{fill:url(#Path_970_1_);}
	.st10{fill:url(#Path_971_1_);}
	.st11{fill:url(#Path_972_1_);}
	.st12{fill:url(#Path_973_1_);}
	.st13{fill:url(#Path_974_1_);}
	.st14{fill:url(#Path_975_1_);}
	.st15{fill:url(#Path_976_1_);}
	.st16{fill:url(#Path_977_1_);}
	.st17{fill:url(#Path_978_1_);}
	.st18{fill:url(#Path_979_1_);}
	.st19{fill:url(#Path_980_1_);}
	.st20{fill:url(#Path_981_1_);}
	.st21{fill:url(#Path_982_1_);}
	.st22{fill:url(#Path_983_1_);}
	.st23{fill:url(#Path_984_1_);}
	.st24{fill:url(#Path_985_1_);}
	.st25{fill:url(#Path_986_1_);}
	.st26{fill:url(#Path_987_1_);}
	.st27{fill:url(#Path_988_1_);}
	.st28{fill:url(#Path_989_1_);}
	.st29{fill:url(#Path_990_1_);}
	.st30{fill:url(#Path_991_1_);}
	.st31{fill:url(#Path_992_1_);}
	.st32{fill:url(#Path_993_1_);}
	.st33{fill:url(#Path_994_1_);}
	.st34{fill:url(#Path_995_1_);}
	.st35{fill:url(#Path_996_1_);}
	.st36{fill:url(#Path_997_1_);}
	.st37{fill:url(#Path_998_1_);}
	.st38{fill:url(#Path_999_1_);}
	.st39{fill:url(#Path_1000_1_);}
	.st40{fill:url(#Path_1001_1_);}
	.st41{fill:url(#Path_1002_1_);}
</style>
<g id="Group_495" transform="translate(-75.922 -820.466)">
	<g id="Group_466" transform="translate(96.906 820.466)">
		
			<linearGradient id="Path_961_1_" gradientUnits="userSpaceOnUse" x1="-10.9323" y1="84.9514" x2="-9.5403" y2="84.9514" gradientTransform="matrix(29.158 0 0 -24.16 327.8546 2095.3223)">
			<stop  offset="0" style="stop-color:#BA9738"/>
			<stop  offset="0.123" style="stop-color:#A57D2D"/>
			<stop  offset="0.262" style="stop-color:#F1DD7F"/>
			<stop  offset="0.367" style="stop-color:#F1DD7F"/>
			<stop  offset="0.471" style="stop-color:#D9BF62"/>
			<stop  offset="0.599" style="stop-color:#C1A145"/>
			<stop  offset="0.725" style="stop-color:#B18D31"/>
			<stop  offset="0.85" style="stop-color:#A8812D"/>
			<stop  offset="0.969" style="stop-color:#A57D2D"/>
		</linearGradient>
		<path id="Path_961" class="st0" d="M36.58,44.65L28.7,28.91l-7.59,15.17l-8.99-15.17l2.68,27.98h28.41l2.68-27.98L36.58,44.65z"/>
		<g id="Group_465" transform="translate(0 0)">
			
				<linearGradient id="Path_962_1_" gradientUnits="userSpaceOnUse" x1="-10.9337" y1="85.1637" x2="-9.7756" y2="85.1637" gradientTransform="matrix(29.4955 0 0 -24.4944 334.4374 2128.9348)">
				<stop  offset="0.031" style="stop-color:#A57D2D"/>
				<stop  offset="0.129" style="stop-color:#A8812D"/>
				<stop  offset="0.231" style="stop-color:#B18D31"/>
				<stop  offset="0.335" style="stop-color:#C1A145"/>
				<stop  offset="0.44" style="stop-color:#D9BF62"/>
				<stop  offset="0.525" style="stop-color:#F1DD7F"/>
				<stop  offset="0.738" style="stop-color:#F1DD7F"/>
				<stop  offset="0.877" style="stop-color:#A57D2D"/>
				<stop  offset="1" style="stop-color:#BA9738"/>
			</linearGradient>
			<path id="Path_962" class="st1" d="M43.22,57.08H14.81c-0.1,0-0.18-0.07-0.19-0.17l-2.68-27.98c-0.01-0.11,0.07-0.2,0.17-0.21
				c0.07-0.01,0.14,0.03,0.18,0.09l8.81,14.87l7.43-14.86c0.04-0.1,0.16-0.14,0.25-0.09c0.04,0.02,0.08,0.05,0.09,0.09l7.71,15.43
				l9.15-15.44c0.05-0.09,0.17-0.12,0.26-0.07c0.06,0.04,0.1,0.11,0.09,0.18l-2.68,27.98C43.41,57.01,43.32,57.08,43.22,57.08z
				 M14.99,56.7h28.06l2.58-26.95l-8.89,15.01c-0.05,0.09-0.17,0.12-0.26,0.07c-0.03-0.02-0.06-0.05-0.07-0.08l-7.7-15.4L21.3,44.17
				c-0.03,0.06-0.09,0.1-0.16,0.11c-0.07,0-0.14-0.03-0.17-0.09l-8.55-14.44L14.99,56.7z"/>
		</g>
	</g>
	<g id="Group_494" transform="translate(75.922 835.59)">
		
			<linearGradient id="Path_963_1_" gradientUnits="userSpaceOnUse" x1="194.665" y1="35.1145" x2="195.823" y2="35.1145" gradientTransform="matrix(7.1385 0 0 -7.531 -241.9715 313.2225)">
			<stop  offset="0" style="stop-color:#A57D2D"/>
			<stop  offset="0.211" style="stop-color:#D8BD61"/>
			<stop  offset="0.328" style="stop-color:#F1DD7F"/>
			<stop  offset="0.524" style="stop-color:#FBF2A8"/>
			<stop  offset="0.73" style="stop-color:#F1DD7F"/>
			<stop  offset="1" style="stop-color:#A57D2D"/>
		</linearGradient>
		<path id="Path_963" class="st2" d="M34.52,50.49c-1.62-1.61-2.53-3.79-2.54-6.07c1.77,1.22,3.67,2.23,5.68,2.99
			c3.01,1.19,2.56,5.73,2.56,5.73C38.11,52.83,36.13,51.91,34.52,50.49z"/>
		<g id="Group_467" transform="translate(20.047 11.388)">
			
				<linearGradient id="Path_964_1_" gradientUnits="userSpaceOnUse" x1="97.7389" y1="100.7578" x2="98.9167" y2="101.8765" gradientTransform="matrix(7.3343 0 0 -7.717 -115.3045 229.8222)">
				<stop  offset="0" style="stop-color:#A57D2D"/>
				<stop  offset="0.211" style="stop-color:#D8BD61"/>
				<stop  offset="0.328" style="stop-color:#F1DD7F"/>
				<stop  offset="0.524" style="stop-color:#FBF2A8"/>
				<stop  offset="0.73" style="stop-color:#F1DD7F"/>
				<stop  offset="1" style="stop-color:#A57D2D"/>
			</linearGradient>
			<path id="Path_964" class="st3" d="M20.17,41.83c-2.14-0.32-4.13-1.25-5.75-2.67c-1.53-1.59-2.46-3.66-2.62-5.86
				c0-0.24,0.04-0.31,0.08-0.34l0.06-0.05l0.06,0.05c1.76,1.21,3.66,2.22,5.66,2.98c3.04,1.2,2.62,5.77,2.62,5.82l-0.01,0.09
				L20.17,41.83z M14.54,39.04L14.54,39.04c1.57,1.38,3.5,2.29,5.56,2.61c0.04-0.65,0.16-4.49-2.51-5.54
				c-1.97-0.76-3.85-1.75-5.6-2.93C12.11,35.37,13.01,37.45,14.54,39.04z"/>
		</g>
		<g id="Group_493" transform="translate(0 0)">
			<g id="Group_480" transform="translate(31.475 0.191)">
				
					<linearGradient id="Path_965_1_" gradientUnits="userSpaceOnUse" x1="7.4326" y1="34.9264" x2="8.5907" y2="34.9264" gradientTransform="matrix(7.1385 0 0 -7.532 -24.7841 311.873)">
					<stop  offset="0" style="stop-color:#A57D2D"/>
					<stop  offset="0.211" style="stop-color:#D8BD61"/>
					<stop  offset="0.328" style="stop-color:#F1DD7F"/>
					<stop  offset="0.524" style="stop-color:#FBF2A8"/>
					<stop  offset="0.73" style="stop-color:#F1DD7F"/>
					<stop  offset="1" style="stop-color:#A57D2D"/>
				</linearGradient>
				<path id="Path_965" class="st4" d="M34,50.52c1.61-1.61,2.53-3.79,2.54-6.07c-1.77,1.22-3.67,2.23-5.68,2.99
					c-3.01,1.19-2.56,5.73-2.56,5.73C30.42,52.86,32.4,51.94,34,50.52z"/>
				
					<linearGradient id="Path_966_1_" gradientUnits="userSpaceOnUse" x1="6.4136" y1="35.5768" x2="7.5893" y2="36.6947" gradientTransform="matrix(7.3327 0 0 -7.718 -18.9406 327.7071)">
					<stop  offset="0" style="stop-color:#A57D2D"/>
					<stop  offset="0.211" style="stop-color:#D8BD61"/>
					<stop  offset="0.328" style="stop-color:#F1DD7F"/>
					<stop  offset="0.524" style="stop-color:#FBF2A8"/>
					<stop  offset="0.73" style="stop-color:#F1DD7F"/>
					<stop  offset="1" style="stop-color:#A57D2D"/>
				</linearGradient>
				<path id="Path_966" class="st5" d="M28.22,53.27l-0.01-0.09c0-0.05-0.42-4.62,2.62-5.82c2-0.77,3.9-1.77,5.66-2.98l0.06-0.05
					l0.06,0.05c0.04,0.03,0.07,0.1,0.08,0.34c-0.16,2.2-1.08,4.28-2.62,5.86c-1.62,1.43-3.62,2.35-5.75,2.67L28.22,53.27z
					 M36.5,44.59c-1.75,1.19-3.63,2.17-5.6,2.93c-2.68,1.06-2.55,4.9-2.51,5.54c2.06-0.32,3.99-1.23,5.56-2.61l0,0
					C35.47,48.87,36.38,46.79,36.5,44.59L36.5,44.59z"/>
				<g id="Group_479">
					<g id="Group_475" transform="translate(5.688 1.617)">
						
							<linearGradient id="Path_967_1_" gradientUnits="userSpaceOnUse" x1="-11.1889" y1="48.1562" x2="-10.0308" y2="48.1562" gradientTransform="matrix(10.7917 0 0 -10.7084 135.3371 567.6463)">
							<stop  offset="0" style="stop-color:#A57D2D"/>
							<stop  offset="0.211" style="stop-color:#D8BD61"/>
							<stop  offset="0.328" style="stop-color:#F1DD7F"/>
							<stop  offset="0.524" style="stop-color:#FBF2A8"/>
							<stop  offset="0.73" style="stop-color:#F1DD7F"/>
							<stop  offset="1" style="stop-color:#A57D2D"/>
						</linearGradient>
						<path id="Path_967" class="st6" d="M21.23,53.74c-1.09-0.11-2.19-0.03-3.26,0.23c0.8-0.51,1.51-1.14,2.12-1.87
							c1.4-1.79,2.03-4.07,1.76-6.33c-1.6,1.42-3.37,2.65-5.26,3.65c-2.83,1.54-1.82,5.99-1.82,5.99s0.17-0.04,0.44-0.13
							c0.58,0.78,2.82,3.51,5.51,2.77c2.07-0.6,4.21-0.95,6.37-1.05C25.62,55.2,23.53,54.03,21.23,53.74z"/>
						
							<linearGradient id="Path_968_1_" gradientUnits="userSpaceOnUse" x1="-10.0926" y1="-14.808" x2="-8.9346" y2="-14.808" gradientTransform="matrix(10.381 0 0 -3.8557 127.5965 -4.3436)">
							<stop  offset="0" style="stop-color:#A57D2D"/>
							<stop  offset="0.211" style="stop-color:#D8BD61"/>
							<stop  offset="0.328" style="stop-color:#F1DD7F"/>
							<stop  offset="0.524" style="stop-color:#FBF2A8"/>
							<stop  offset="0.73" style="stop-color:#F1DD7F"/>
							<stop  offset="1" style="stop-color:#A57D2D"/>
						</linearGradient>
						<path id="Path_968" class="st7" d="M28.99,50.55c-2.14-0.16-4.28,0.3-6.17,1.34c0,0,2.53,3.84,5.65,2.97
							c2.07-0.6,4.21-0.95,6.37-1.05C33.38,52.01,31.29,50.85,28.99,50.55z"/>
						
							<linearGradient id="Path_969_1_" gradientUnits="userSpaceOnUse" x1="-4.9724" y1="42.0439" x2="-3.8144" y2="42.0439" gradientTransform="matrix(8.7128 0 0 -9.1146 74.3481 429.864)">
							<stop  offset="0" style="stop-color:#A57D2D"/>
							<stop  offset="0.211" style="stop-color:#D8BD61"/>
							<stop  offset="0.328" style="stop-color:#F1DD7F"/>
							<stop  offset="0.524" style="stop-color:#FBF2A8"/>
							<stop  offset="0.73" style="stop-color:#F1DD7F"/>
							<stop  offset="1" style="stop-color:#A57D2D"/>
						</linearGradient>
						<path id="Path_969" class="st8" d="M36.26,48.1c-1.05-0.1-2.12,0.01-3.13,0.32c0.81-0.55,1.49-1.27,2-2.1
							c0.84-1.51,1.03-3.3,0.53-4.95c-1.04,1.23-2.24,2.33-3.56,3.27c-1.66,1.21-0.96,3.73-0.69,4.48
							c-0.18,0.09-0.27,0.15-0.27,0.15s2.08,3.3,4.69,2.54c1.72-0.52,3.5-0.83,5.3-0.93C39.92,49.36,38.18,48.36,36.26,48.1z"/>
						
							<linearGradient id="Path_970_1_" gradientUnits="userSpaceOnUse" x1="-5.0914" y1="43.9281" x2="-3.9333" y2="43.9281" gradientTransform="matrix(8.7712 0 0 -9.5353 81.395 461.8565)">
							<stop  offset="0" style="stop-color:#A57D2D"/>
							<stop  offset="0.211" style="stop-color:#D8BD61"/>
							<stop  offset="0.328" style="stop-color:#F1DD7F"/>
							<stop  offset="0.524" style="stop-color:#FBF2A8"/>
							<stop  offset="0.73" style="stop-color:#F1DD7F"/>
							<stop  offset="1" style="stop-color:#A57D2D"/>
						</linearGradient>
						<path id="Path_970" class="st9" d="M42.36,44.94c-1.02-0.1-2.04,0.02-3.01,0.33c0.66-0.82,1.13-1.78,1.38-2.8
							c0.33-1.75-0.07-3.55-1.1-5c-0.62,1.53-1.43,2.97-2.42,4.28c-1.05,1.45-0.12,3.28,0.5,4.2c-0.09,0.05-0.14,0.08-0.14,0.08
							s1.95,3.08,4.38,2.37c1.61-0.49,3.27-0.78,4.95-0.87C45.78,46.11,44.15,45.18,42.36,44.94z"/>
						
							<linearGradient id="Path_971_1_" gradientUnits="userSpaceOnUse" x1="-1.7707" y1="36.9689" x2="-0.6127" y2="36.9689" gradientTransform="matrix(7.9411 0 0 -8.1036 55.0148 339.9714)">
							<stop  offset="0" style="stop-color:#A57D2D"/>
							<stop  offset="0.211" style="stop-color:#D8BD61"/>
							<stop  offset="0.328" style="stop-color:#F1DD7F"/>
							<stop  offset="0.524" style="stop-color:#FBF2A8"/>
							<stop  offset="0.73" style="stop-color:#F1DD7F"/>
							<stop  offset="1" style="stop-color:#A57D2D"/>
						</linearGradient>
						<path id="Path_971" class="st10" d="M46.09,41.97c-1.01,0.01-2,0.26-2.9,0.72c0.59-0.88,0.94-1.89,1.03-2.94
							c0.04-1.51-0.54-2.97-1.59-4.05c-0.31,1.35-0.8,2.66-1.45,3.89c-0.74,1.45,0.52,2.99,1.12,3.61c-0.09,0.06-0.15,0.1-0.15,0.1
							s1.93,2.42,3.91,1.61c1.31-0.55,2.68-0.94,4.09-1.16C49.08,42.66,47.62,42.01,46.09,41.97z"/>
						
							<linearGradient id="Path_972_1_" gradientUnits="userSpaceOnUse" x1="3.8531" y1="24.74" x2="5.0111" y2="24.74" gradientTransform="matrix(6.8371 0 0 -6.4126 18.1519 196.241)">
							<stop  offset="0" style="stop-color:#A57D2D"/>
							<stop  offset="0.211" style="stop-color:#D8BD61"/>
							<stop  offset="0.328" style="stop-color:#F1DD7F"/>
							<stop  offset="0.524" style="stop-color:#FBF2A8"/>
							<stop  offset="0.73" style="stop-color:#F1DD7F"/>
							<stop  offset="1" style="stop-color:#A57D2D"/>
						</linearGradient>
						<path id="Path_972" class="st11" d="M48.75,38.55c-0.73,0.13-1.42,0.41-2.03,0.82c0.32-0.67,0.49-1.41,0.49-2.16
							c-0.07-1.28-0.65-2.48-1.61-3.33c-0.18,1.16-0.5,2.3-0.97,3.38c-0.5,1.21,0.52,2.38,1.1,2.9c-0.04,0.04-0.06,0.06-0.06,0.06
							s1.98,1.75,3.51,0.79c1.01-0.65,2.1-1.17,3.24-1.55C51.36,38.7,50.04,38.37,48.75,38.55z"/>
						
							<linearGradient id="Path_973_1_" gradientUnits="userSpaceOnUse" x1="8.9384" y1="12.7887" x2="10.0965" y2="12.7887" gradientTransform="matrix(6.074 0 0 -5.324 -7.2137 102.6529)">
							<stop  offset="0" style="stop-color:#A57D2D"/>
							<stop  offset="0.211" style="stop-color:#D8BD61"/>
							<stop  offset="0.328" style="stop-color:#F1DD7F"/>
							<stop  offset="0.524" style="stop-color:#FBF2A8"/>
							<stop  offset="0.73" style="stop-color:#F1DD7F"/>
							<stop  offset="1" style="stop-color:#A57D2D"/>
						</linearGradient>
						<path id="Path_973" class="st12" d="M48.42,36.6l-0.03,0.03c0,0,1.67,1.6,2.97,0.78c0.86-0.56,1.78-1,2.75-1.32
							c-0.87-0.7-1.99-1.02-3.1-0.89c-0.74,0.13-1.43,0.44-2.02,0.9c0.29-0.65,0.41-1.37,0.34-2.08c-0.18-1.04-0.78-1.96-1.66-2.54
							c-0.05,0.96-0.23,1.9-0.54,2.81C46.8,35.37,47.92,36.26,48.42,36.6z"/>
						<g id="Group_468" transform="translate(0 12.312)">
							
								<linearGradient id="Path_974_1_" gradientUnits="userSpaceOnUse" x1="-11.3008" y1="35.864" x2="-10.5238" y2="36.6468" gradientTransform="matrix(10.9433 0 0 -10.8821 140.7435 435.8592)">
								<stop  offset="0" style="stop-color:#A57D2D"/>
								<stop  offset="0.211" style="stop-color:#D8BD61"/>
								<stop  offset="0.328" style="stop-color:#F1DD7F"/>
								<stop  offset="0.524" style="stop-color:#FBF2A8"/>
								<stop  offset="0.73" style="stop-color:#F1DD7F"/>
								<stop  offset="1" style="stop-color:#A57D2D"/>
							</linearGradient>
							<path id="Path_974" class="st13" d="M19.78,45.95c-2.23,0-4.01-2.08-4.61-2.88c-0.24,0.08-0.38,0.11-0.39,0.12l-0.09,0.02
								l-0.02-0.09c-0.01-0.05-0.99-4.53,1.87-6.09c1.89-1,3.65-2.22,5.24-3.63l0.06-0.05l0.06,0.05c0.04,0.03,0.09,0.09,0.12,0.33
								c0.12,2.2-0.54,4.37-1.86,6.13c-0.51,0.62-1.1,1.17-1.76,1.63c0.93-0.19,1.89-0.23,2.84-0.13c2.22,0.33,4.25,1.4,5.78,3.04
								c0.15,0.19,0.16,0.26,0.16,0.31l-0.01,0.08h-0.08c-2.15,0.1-4.28,0.45-6.35,1.05C20.42,45.91,20.1,45.95,19.78,45.95z
								 M15.24,42.86l0.04,0.05c0.61,0.82,2.8,3.46,5.41,2.73c2.05-0.58,4.15-0.94,6.27-1.05c-1.5-1.66-3.53-2.75-5.74-3.08l0,0
								c-1.08-0.11-2.17-0.03-3.22,0.23l-0.5,0.12l0.43-0.28c0.79-0.5,1.5-1.13,2.09-1.85c1.32-1.76,1.96-3.93,1.8-6.13
								c-1.59,1.38-3.33,2.58-5.19,3.57c-2.52,1.37-1.92,5.16-1.8,5.8c0.08-0.02,0.19-0.05,0.35-0.1L15.24,42.86z"/>
						</g>
						<g id="Group_469" transform="translate(7.078 16.418)">
							
								<linearGradient id="Path_975_1_" gradientUnits="userSpaceOnUse" x1="-17.3184" y1="-28.2371" x2="-16.8123" y2="-26.9076" gradientTransform="matrix(10.5723 0 0 -4.0057 202.1563 -73.9928)">
								<stop  offset="0" style="stop-color:#A57D2D"/>
								<stop  offset="0.211" style="stop-color:#D8BD61"/>
								<stop  offset="0.328" style="stop-color:#F1DD7F"/>
								<stop  offset="0.524" style="stop-color:#FBF2A8"/>
								<stop  offset="0.73" style="stop-color:#F1DD7F"/>
								<stop  offset="1" style="stop-color:#A57D2D"/>
							</linearGradient>
							<path id="Path_975" class="st14" d="M20.48,38.65c-1.17-0.05-2.28-0.52-3.13-1.31c-0.64-0.53-1.2-1.15-1.67-1.83l-0.05-0.08
								l0.08-0.05c1.9-1.04,4.06-1.51,6.23-1.35c2.22,0.33,4.26,1.4,5.78,3.04c0.15,0.19,0.16,0.26,0.16,0.31l-0.01,0.08h-0.08
								c-2.15,0.1-4.28,0.45-6.35,1.05C21.12,38.61,20.8,38.65,20.48,38.65z M15.88,35.49c0.38,0.54,2.72,3.63,5.5,2.86
								c2.05-0.58,4.15-0.94,6.27-1.05c-1.5-1.66-3.53-2.75-5.74-3.08C19.81,34.06,17.72,34.51,15.88,35.49L15.88,35.49z"/>
						</g>
						<g id="Group_470" transform="translate(14.193 8.517)">
							
								<linearGradient id="Path_976_1_" gradientUnits="userSpaceOnUse" x1="-19.4802" y1="33.7912" x2="-18.753" y2="34.4849" gradientTransform="matrix(8.8661 0 0 -9.289 191.4617 356.7921)">
								<stop  offset="0" style="stop-color:#A57D2D"/>
								<stop  offset="0.211" style="stop-color:#D8BD61"/>
								<stop  offset="0.328" style="stop-color:#F1DD7F"/>
								<stop  offset="0.524" style="stop-color:#FBF2A8"/>
								<stop  offset="0.73" style="stop-color:#F1DD7F"/>
								<stop  offset="1" style="stop-color:#A57D2D"/>
							</linearGradient>
							<path id="Path_976" class="st15" d="M20.84,43.5c-2.25,0-3.97-2.66-3.99-2.69l-0.05-0.08l0.08-0.05c0,0,0.08-0.05,0.21-0.12
								c-0.28-0.84-0.91-3.3,0.76-4.52c1.31-0.93,2.5-2.03,3.54-3.25l0.05-0.06l0.07,0.04c0.04,0.02,0.09,0.07,0.15,0.28
								c0.37,1.62,0.14,3.33-0.64,4.8c-0.43,0.71-0.99,1.34-1.65,1.85c0.88-0.23,1.8-0.29,2.71-0.2c1.84,0.28,3.53,1.19,4.78,2.58
								c0.15,0.19,0.16,0.26,0.16,0.31L27,42.45h-0.08c-1.79,0.1-3.56,0.41-5.27,0.93C21.39,43.46,21.12,43.5,20.84,43.5z
								 M17.06,40.79c0.33,0.48,2.25,3.09,4.53,2.43c1.69-0.51,3.44-0.82,5.2-0.93c-1.22-1.4-2.9-2.33-4.74-2.61l0,0
								c-1.04-0.1-2.09,0.01-3.09,0.32l-0.52,0.16l0.44-0.31c0.8-0.54,1.47-1.25,1.97-2.07c0.78-1.46,1-3.15,0.6-4.76
								c-1.04,1.19-2.21,2.26-3.49,3.19c-1.62,1.18-0.92,3.65-0.67,4.38l0.02,0.07l-0.07,0.04C17.17,40.73,17.11,40.76,17.06,40.79
								L17.06,40.79z"/>
						</g>
						<g id="Group_471" transform="translate(19.118 5.158)">
							
								<linearGradient id="Path_977_1_" gradientUnits="userSpaceOnUse" x1="-24.5662" y1="38.9973" x2="-23.9455" y2="39.5682" gradientTransform="matrix(8.9329 0 0 -9.699 238.8176 420.3459)">
								<stop  offset="0" style="stop-color:#A57D2D"/>
								<stop  offset="0.211" style="stop-color:#D8BD61"/>
								<stop  offset="0.328" style="stop-color:#F1DD7F"/>
								<stop  offset="0.524" style="stop-color:#FBF2A8"/>
								<stop  offset="0.73" style="stop-color:#F1DD7F"/>
								<stop  offset="1" style="stop-color:#A57D2D"/>
							</linearGradient>
							<path id="Path_977" class="st16" d="M22.1,43.44c-2.11,0-3.71-2.49-3.73-2.52l-0.05-0.08l0.08-0.05l0.06-0.03
								c-0.64-0.99-1.49-2.79-0.44-4.23c0.98-1.31,1.79-2.75,2.4-4.26l0.03-0.07l0.08,0.01c0.05,0.01,0.12,0.04,0.24,0.23
								c0.88,1.46,1.21,3.2,0.93,4.88c-0.22,0.95-0.64,1.84-1.23,2.62c0.91-0.26,1.85-0.35,2.79-0.26l0,0
								c1.72,0.26,3.3,1.11,4.47,2.4c0.14,0.18,0.15,0.25,0.15,0.29l-0.01,0.08h-0.08c-1.67,0.09-3.32,0.38-4.92,0.86
								C22.61,43.4,22.36,43.44,22.1,43.44z M18.58,40.91c0.32,0.46,2.1,2.87,4.22,2.26c1.58-0.47,3.2-0.76,4.85-0.87
								c-1.15-1.3-2.71-2.16-4.42-2.43c-1-0.1-2.02,0.01-2.98,0.33l-0.27,0.08l0.17-0.22c0.66-0.81,1.12-1.75,1.36-2.77
								c0.28-1.68-0.07-3.4-0.97-4.84c-0.63,1.49-1.42,2.89-2.38,4.19c-1.01,1.39-0.12,3.17,0.5,4.11l0.05,0.08l-0.08,0.05
								L18.58,40.91z"/>
						</g>
						<g id="Group_472" transform="translate(22.764 3.64)">
							
								<linearGradient id="Path_978_1_" gradientUnits="userSpaceOnUse" x1="-25.0156" y1="33.8089" x2="-24.4968" y2="34.3173" gradientTransform="matrix(8.0987 0 0 -8.26 222.2369 319.3379)">
								<stop  offset="0" style="stop-color:#A57D2D"/>
								<stop  offset="0.211" style="stop-color:#D8BD61"/>
								<stop  offset="0.328" style="stop-color:#F1DD7F"/>
								<stop  offset="0.524" style="stop-color:#FBF2A8"/>
								<stop  offset="0.73" style="stop-color:#F1DD7F"/>
								<stop  offset="1" style="stop-color:#A57D2D"/>
							</linearGradient>
							<path id="Path_978" class="st17" d="M22.45,41.54c-1.24-0.17-2.36-0.83-3.13-1.81l-0.06-0.07l0.07-0.05l0.07-0.05
								c-0.62-0.66-1.8-2.19-1.07-3.64c0.64-1.22,1.13-2.52,1.44-3.87l0.01-0.07h0.08c0.04,0,0.1,0.02,0.24,0.16
								c1.69,1.85,1.92,4.61,0.55,6.71c2.22-1.09,4.88-0.68,6.66,1.04c0.14,0.14,0.16,0.2,0.15,0.24v0.08l-0.08,0.01
								c-1.4,0.22-2.76,0.61-4.06,1.16C23.06,41.48,22.75,41.54,22.45,41.54z M19.52,39.68c0.33,0.39,2.04,2.21,3.74,1.52
								c1.28-0.53,2.62-0.92,3.98-1.15c-1.08-0.98-2.47-1.56-3.92-1.63h-0.04c-0.98,0.02-1.94,0.27-2.82,0.72l-0.29,0.15L20.35,39
								c0.58-0.86,0.93-1.86,1.02-2.9c0.01-1.43-0.5-2.81-1.44-3.9c-0.32,1.31-0.8,2.59-1.43,3.79c-0.72,1.41,0.54,2.92,1.11,3.51
								l0.07,0.07l-0.09,0.06L19.52,39.68z"/>
						</g>
						<g id="Group_473" transform="translate(25.821 2.071)">
							
								<linearGradient id="Path_979_1_" gradientUnits="userSpaceOnUse" x1="-22.4425" y1="23.6589" x2="-21.8866" y2="24.2519" gradientTransform="matrix(6.946 0 0 -6.567 175.5907 193.4765)">
								<stop  offset="0" style="stop-color:#A57D2D"/>
								<stop  offset="0.211" style="stop-color:#D8BD61"/>
								<stop  offset="0.328" style="stop-color:#F1DD7F"/>
								<stop  offset="0.524" style="stop-color:#FBF2A8"/>
								<stop  offset="0.73" style="stop-color:#F1DD7F"/>
								<stop  offset="1" style="stop-color:#A57D2D"/>
							</linearGradient>
							<path id="Path_979" class="st18" d="M22.32,39.33c-0.94-0.09-1.83-0.48-2.54-1.1l-0.07-0.06l0.06-0.07l0,0
								c-0.92-0.67-1.33-1.84-1.05-2.94c0.46-1.07,0.79-2.2,0.97-3.36l0.01-0.08h0.08c0.04,0,0.1,0.01,0.22,0.13
								c0.87,0.88,1.39,2.05,1.48,3.29c0.01,0.66-0.12,1.32-0.38,1.94c0.56-0.34,1.17-0.57,1.82-0.68l0,0
								c1.25-0.15,2.52,0.13,3.59,0.8c0.14,0.1,0.16,0.15,0.17,0.19l0.01,0.08l-0.08,0.02c-1.13,0.38-2.21,0.9-3.21,1.54
								C23.07,39.23,22.7,39.33,22.32,39.33z M19.98,38.15c0.36,0.29,2.03,1.53,3.32,0.72c0.98-0.62,2.04-1.13,3.14-1.52
								c-1.04-0.65-2.27-0.93-3.49-0.79l0,0c-0.71,0.13-1.39,0.4-1.99,0.81l-0.26,0.17l0.13-0.28c0.32-0.66,0.48-1.39,0.48-2.12
								c-0.09-1.2-0.6-2.33-1.44-3.18c-0.19,1.12-0.51,2.22-0.96,3.27c-0.48,1.14,0.46,2.25,1.07,2.81l0.07,0.06L19.98,38.15z"/>
						</g>
						<g id="Group_474" transform="translate(28.052)">
							
								<linearGradient id="Path_980_1_" gradientUnits="userSpaceOnUse" x1="-20.1321" y1="14.463" x2="-19.6029" y2="15.0652" gradientTransform="matrix(6.2399 0 0 -5.4818 145.6903 115.8389)">
								<stop  offset="0" style="stop-color:#A57D2D"/>
								<stop  offset="0.211" style="stop-color:#D8BD61"/>
								<stop  offset="0.328" style="stop-color:#F1DD7F"/>
								<stop  offset="0.524" style="stop-color:#FBF2A8"/>
								<stop  offset="0.73" style="stop-color:#F1DD7F"/>
								<stop  offset="1" style="stop-color:#A57D2D"/>
							</linearGradient>
							<path id="Path_980" class="st19" d="M22.47,37.74c-0.83-0.09-1.6-0.46-2.2-1.04l-0.06-0.06l0.02-0.02
								c-0.55-0.38-1.58-1.27-1.23-2.35c0.3-0.9,0.48-1.84,0.53-2.79v-0.08l0.08-0.01c0.04-0.01,0.1,0,0.24,0.12
								c0.79,0.62,1.33,1.51,1.52,2.5c0.07,0.62-0.01,1.25-0.23,1.83c0.54-0.38,1.16-0.63,1.81-0.74c1.06-0.11,2.13,0.16,3.02,0.77
								c0.15,0.12,0.18,0.16,0.18,0.2l0.01,0.08l-0.07,0.02c-0.96,0.32-1.88,0.76-2.73,1.31C23.09,37.66,22.79,37.74,22.47,37.74z
								 M20.47,36.63c0.31,0.27,1.7,1.4,2.79,0.71c0.83-0.53,1.72-0.97,2.65-1.3c-0.86-0.58-1.9-0.85-2.93-0.76
								c-0.72,0.13-1.4,0.43-1.98,0.88l-0.28,0.21l0.13-0.31c0.77-1.56,0.29-3.45-1.15-4.44c-0.07,0.92-0.25,1.82-0.53,2.7
								c-0.33,1.03,0.76,1.89,1.24,2.21l0.09,0.06L20.47,36.63z"/>
						</g>
					</g>
					<g id="Group_477" transform="translate(0 2.938)">
						
							<linearGradient id="Path_981_1_" gradientUnits="userSpaceOnUse" x1="-23.1994" y1="66.7077" x2="-22.0413" y2="66.7077" gradientTransform="matrix(36.92 0 0 -24.3604 870.2285 1670.8514)">
							<stop  offset="0" style="stop-color:#A57D2D"/>
							<stop  offset="0.211" style="stop-color:#D8BD61"/>
							<stop  offset="0.328" style="stop-color:#F1DD7F"/>
							<stop  offset="0.524" style="stop-color:#FBF2A8"/>
							<stop  offset="0.73" style="stop-color:#F1DD7F"/>
							<stop  offset="1" style="stop-color:#A57D2D"/>
						</linearGradient>
						<path id="Path_981" class="st20" d="M56.34,31.72c-0.5,0.95-1.05,1.88-1.65,2.78c-0.6,0.9-1.24,1.76-1.93,2.58
							c-1.37,1.66-2.94,3.16-4.66,4.46c-0.86,0.65-1.75,1.26-2.68,1.82c-2.83,1.62-5.83,2.92-8.94,3.9c-2.08,0.69-4.19,1.3-6.3,1.96
							c-0.26,0.08-0.53,0.17-0.79,0.25c-1.85,0.58-3.67,1.28-5.43,2.1c-1.01,0.47-2.01,0.98-2.96,1.54
							c-0.96,0.56-1.89,1.18-2.77,1.85l-0.65,0.52c-1.51,1.21-2.82,2.66-3.86,4.28c0.05,0.07,0.37,0.21,0.44,0.14
							c1.19-1.39,2.51-2.65,3.95-3.76l0.68-0.44c0.91-0.58,1.83-1.12,2.79-1.6c0.96-0.48,1.94-0.96,2.94-1.37
							c0.99-0.43,2-0.82,3.02-1.2l0.76-0.29l0.77-0.28c0.51-0.19,1.03-0.37,1.54-0.55c2.06-0.73,4.15-1.44,6.23-2.19
							c1.56-0.56,3.11-1.17,4.62-1.86l0.38-0.17c1.13-0.53,2.23-1.11,3.3-1.76l0.7-0.44c0.93-0.6,1.82-1.25,2.68-1.95
							c2.54-2.09,4.71-4.59,6.41-7.4c0.56-0.93,1.07-1.88,1.53-2.86L56.34,31.72z"/>
						<g id="Group_476">
							
								<linearGradient id="Path_982_1_" gradientUnits="userSpaceOnUse" x1="-23.1218" y1="66.0757" x2="-22.1653" y2="67.5233" gradientTransform="matrix(37.104 0 0 -24.5333 875.7465 1685.0564)">
								<stop  offset="0" style="stop-color:#A57D2D"/>
								<stop  offset="0.211" style="stop-color:#D8BD61"/>
								<stop  offset="0.328" style="stop-color:#F1DD7F"/>
								<stop  offset="0.524" style="stop-color:#FBF2A8"/>
								<stop  offset="0.73" style="stop-color:#F1DD7F"/>
								<stop  offset="1" style="stop-color:#A57D2D"/>
							</linearGradient>
							<path id="Path_982" class="st21" d="M14.09,60.02h-0.02c-0.16-0.02-0.31-0.09-0.43-0.2l-0.03-0.05l0.03-0.05
								c1.05-1.63,2.37-3.09,3.88-4.3l0.65-0.52c0.89-0.68,1.81-1.3,2.78-1.86c0.84-0.5,1.78-0.99,2.97-1.55
								c1.77-0.82,3.59-1.52,5.44-2.1l0.11-0.03c0.23-0.07,0.46-0.15,0.68-0.22c0.73-0.23,1.46-0.45,2.19-0.67
								c1.35-0.41,2.75-0.83,4.11-1.29c3.1-0.98,6.1-2.28,8.93-3.89c0.92-0.55,1.81-1.16,2.66-1.81c1.72-1.3,3.28-2.79,4.65-4.45
								c0.69-0.82,1.34-1.68,1.93-2.58c0.6-0.89,1.14-1.82,1.64-2.77l0.04-0.08l0.28,0.13l-0.04,0.08
								c-0.46,0.98-0.97,1.94-1.53,2.87c-1.71,2.82-3.89,5.33-6.43,7.43c-0.86,0.7-1.76,1.35-2.69,1.95l-0.7,0.44
								c-1.07,0.65-2.18,1.23-3.31,1.76l0,0c-0.03,0.02-0.13,0.06-0.38,0.17c-1.35,0.62-2.86,1.23-4.63,1.87
								c-1.19,0.43-2.41,0.85-3.58,1.26c-0.88,0.31-1.77,0.61-2.65,0.93c-0.48,0.17-0.95,0.34-1.42,0.51l-0.88,0.32l-0.76,0.28
								c-0.91,0.35-1.98,0.75-3.02,1.2c-0.95,0.39-1.86,0.83-2.94,1.37c-0.87,0.44-1.78,0.96-2.78,1.59l-0.67,0.44
								c-1.31,1-2.51,2.13-3.59,3.38l-0.35,0.37C14.18,60,14.14,60.02,14.09,60.02z M13.83,59.75c0.08,0.05,0.17,0.08,0.26,0.09
								l0.33-0.36c1.09-1.26,2.3-2.4,3.62-3.41l0.68-0.44c1.01-0.64,1.93-1.17,2.8-1.6c1.08-0.54,2-0.98,2.95-1.37
								c1.04-0.45,2.11-0.86,3.02-1.2l1.65-0.61c0.47-0.17,0.95-0.34,1.42-0.51c0.88-0.31,1.76-0.62,2.65-0.93
								c1.17-0.41,2.39-0.83,3.58-1.26c1.76-0.64,3.27-1.24,4.61-1.86l0.38-0.17c1.13-0.52,2.23-1.11,3.3-1.75l0.7-0.44
								c0.93-0.6,1.82-1.25,2.67-1.94c2.53-2.08,4.69-4.58,6.39-7.38c0.37-0.61,0.71-1.23,1.04-1.86c-0.35,0.62-0.73,1.22-1.12,1.81
								c-0.6,0.9-1.24,1.77-1.94,2.59c-1.38,1.67-2.95,3.17-4.68,4.48c-0.86,0.66-1.76,1.26-2.69,1.82
								c-2.84,1.61-5.85,2.92-8.96,3.91c-1.36,0.45-2.76,0.88-4.11,1.29c-0.73,0.22-1.46,0.44-2.19,0.67
								c-0.23,0.07-0.46,0.14-0.68,0.22l-0.11,0.03c-1.85,0.58-3.66,1.28-5.42,2.09c-1.18,0.56-2.12,1.04-2.95,1.54
								c-0.96,0.56-1.88,1.18-2.76,1.85l-0.65,0.51C16.15,56.74,14.87,58.16,13.83,59.75L13.83,59.75z"/>
						</g>
					</g>
					<g id="Group_478" transform="translate(36.182)">
						
							<linearGradient id="Path_983_1_" gradientUnits="userSpaceOnUse" x1="28.333" y1="-2.6989" x2="29.4911" y2="-2.6989" gradientTransform="matrix(2.888 0 0 -4.284 -62.4095 22.1821)">
							<stop  offset="0" style="stop-color:#A57D2D"/>
							<stop  offset="0.211" style="stop-color:#D8BD61"/>
							<stop  offset="0.328" style="stop-color:#F1DD7F"/>
							<stop  offset="0.524" style="stop-color:#FBF2A8"/>
							<stop  offset="0.73" style="stop-color:#F1DD7F"/>
							<stop  offset="1" style="stop-color:#A57D2D"/>
						</linearGradient>
						<path id="Path_983" class="st22" d="M21.88,34.37c0.65-0.9,0.96-2,0.86-3.11c-0.53,0.66-1.19,1.22-1.92,1.65
							c-1.31,0.88-1.4,3.31-1.4,3.31C20.39,35.84,21.24,35.2,21.88,34.37z"/>
						
							<linearGradient id="Path_984_1_" gradientUnits="userSpaceOnUse" x1="22.9741" y1="1.0709" x2="24.3812" y2="2.0298" gradientTransform="matrix(3.0568 0 0 -4.503 -51.2413 40.8397)">
							<stop  offset="0" style="stop-color:#A57D2D"/>
							<stop  offset="0.211" style="stop-color:#D8BD61"/>
							<stop  offset="0.328" style="stop-color:#F1DD7F"/>
							<stop  offset="0.524" style="stop-color:#FBF2A8"/>
							<stop  offset="0.73" style="stop-color:#F1DD7F"/>
							<stop  offset="1" style="stop-color:#A57D2D"/>
						</linearGradient>
						<path id="Path_984" class="st23" d="M19.32,36.35v-0.13c0-0.1,0.11-2.48,1.44-3.38c0.72-0.42,1.37-0.97,1.9-1.62l0.05-0.08
							l0.08,0.05c0.04,0.03,0.06,0.08,0.07,0.13c0.05,1.11-0.26,2.2-0.9,3.1c-0.65,0.84-1.52,1.49-2.51,1.89L19.32,36.35z
							 M22.7,31.47c-0.54,0.58-1.15,1.09-1.83,1.51c-0.84,0.82-1.32,1.93-1.35,3.1c0.9-0.39,1.69-1,2.29-1.77
							C22.39,33.48,22.7,32.49,22.7,31.47z"/>
					</g>
				</g>
			</g>
			<g id="Group_492">
				<g id="Group_488" transform="translate(0 1.617)">
					
						<linearGradient id="Path_985_1_" gradientUnits="userSpaceOnUse" x1="128.6392" y1="48.3492" x2="129.7972" y2="48.3492" gradientTransform="matrix(10.7917 0 0 -10.7081 -242.3627 569.671)">
						<stop  offset="0" style="stop-color:#A57D2D"/>
						<stop  offset="0.211" style="stop-color:#D8BD61"/>
						<stop  offset="0.328" style="stop-color:#F1DD7F"/>
						<stop  offset="0.524" style="stop-color:#FBF2A8"/>
						<stop  offset="0.73" style="stop-color:#F1DD7F"/>
						<stop  offset="1" style="stop-color:#A57D2D"/>
					</linearGradient>
					<path id="Path_985" class="st24" d="M41.61,53.71c1.09-0.11,2.19-0.03,3.26,0.23c-0.8-0.51-1.51-1.14-2.12-1.87
						c-1.4-1.79-2.03-4.07-1.76-6.33c1.6,1.42,3.37,2.65,5.26,3.65c2.83,1.54,1.82,5.99,1.82,5.99s-0.16-0.04-0.44-0.13
						c-0.58,0.78-2.82,3.51-5.51,2.77c-2.07-0.6-4.21-0.95-6.37-1.05C37.22,55.17,39.32,54,41.61,53.71z"/>
					
						<linearGradient id="Path_986_1_" gradientUnits="userSpaceOnUse" x1="135.1198" y1="-14.6091" x2="136.2779" y2="-14.6091" gradientTransform="matrix(10.381 0 0 -3.8557 -248.658 -3.6082)">
						<stop  offset="0" style="stop-color:#A57D2D"/>
						<stop  offset="0.211" style="stop-color:#D8BD61"/>
						<stop  offset="0.328" style="stop-color:#F1DD7F"/>
						<stop  offset="0.524" style="stop-color:#FBF2A8"/>
						<stop  offset="0.73" style="stop-color:#F1DD7F"/>
						<stop  offset="1" style="stop-color:#A57D2D"/>
					</linearGradient>
					<path id="Path_986" class="st25" d="M33.85,50.52c2.14-0.16,4.28,0.3,6.17,1.34c0,0-2.53,3.84-5.65,2.97
						c-2.07-0.6-4.21-0.95-6.37-1.05C29.46,51.98,31.55,50.82,33.85,50.52z"/>
					
						<linearGradient id="Path_987_1_" gradientUnits="userSpaceOnUse" x1="162.4458" y1="42.2382" x2="163.6039" y2="42.2382" gradientTransform="matrix(8.7128 0 0 -9.1146 -252.4028 431.6049)">
						<stop  offset="0" style="stop-color:#A57D2D"/>
						<stop  offset="0.211" style="stop-color:#D8BD61"/>
						<stop  offset="0.328" style="stop-color:#F1DD7F"/>
						<stop  offset="0.524" style="stop-color:#FBF2A8"/>
						<stop  offset="0.73" style="stop-color:#F1DD7F"/>
						<stop  offset="1" style="stop-color:#A57D2D"/>
					</linearGradient>
					<path id="Path_987" class="st26" d="M26.58,48.07c1.05-0.1,2.12,0.01,3.13,0.32c-0.81-0.55-1.49-1.27-2-2.1
						c-0.84-1.51-1.03-3.3-0.53-4.95c1.04,1.23,2.24,2.33,3.56,3.27c1.66,1.21,0.96,3.73,0.69,4.48c0.18,0.09,0.27,0.15,0.27,0.15
						s-2.08,3.3-4.69,2.54c-1.72-0.52-3.5-0.83-5.3-0.93C22.92,49.33,24.66,48.33,26.58,48.07z"/>
					
						<linearGradient id="Path_988_1_" gradientUnits="userSpaceOnUse" x1="162.5351" y1="44.1251" x2="163.6931" y2="44.1251" gradientTransform="matrix(8.7712 0 0 -9.5359 -257.4522 463.7353)">
						<stop  offset="0" style="stop-color:#A57D2D"/>
						<stop  offset="0.211" style="stop-color:#D8BD61"/>
						<stop  offset="0.328" style="stop-color:#F1DD7F"/>
						<stop  offset="0.524" style="stop-color:#FBF2A8"/>
						<stop  offset="0.73" style="stop-color:#F1DD7F"/>
						<stop  offset="1" style="stop-color:#A57D2D"/>
					</linearGradient>
					<path id="Path_988" class="st27" d="M20.48,44.91c1.02-0.1,2.04,0.02,3.01,0.33c-0.66-0.82-1.13-1.78-1.38-2.8
						c-0.33-1.75,0.07-3.55,1.1-5c0.62,1.53,1.43,2.97,2.42,4.28c1.05,1.45,0.12,3.28-0.5,4.2c0.09,0.05,0.14,0.08,0.14,0.08
						s-1.95,3.08-4.38,2.37c-1.61-0.49-3.27-0.78-4.95-0.87C17.06,46.09,18.69,45.15,20.48,44.91z"/>
					
						<linearGradient id="Path_989_1_" gradientUnits="userSpaceOnUse" x1="180.308" y1="37.1692" x2="181.4661" y2="37.1692" gradientTransform="matrix(7.9411 0 0 -8.1046 -259.4321 341.6025)">
						<stop  offset="0" style="stop-color:#A57D2D"/>
						<stop  offset="0.211" style="stop-color:#D8BD61"/>
						<stop  offset="0.328" style="stop-color:#F1DD7F"/>
						<stop  offset="0.524" style="stop-color:#FBF2A8"/>
						<stop  offset="0.73" style="stop-color:#F1DD7F"/>
						<stop  offset="1" style="stop-color:#A57D2D"/>
					</linearGradient>
					<path id="Path_989" class="st28" d="M16.75,41.94c1.01,0.01,2,0.26,2.9,0.72c-0.59-0.88-0.94-1.89-1.03-2.94
						c-0.04-1.51,0.54-2.97,1.59-4.05c0.31,1.35,0.8,2.66,1.45,3.89c0.74,1.45-0.52,2.99-1.12,3.61c0.09,0.06,0.15,0.1,0.15,0.1
						s-1.93,2.42-3.91,1.61c-1.31-0.55-2.68-0.94-4.09-1.16C13.76,42.63,15.21,41.98,16.75,41.94z"/>
					
						<linearGradient id="Path_990_1_" gradientUnits="userSpaceOnUse" x1="210.1753" y1="24.9267" x2="211.3334" y2="24.9267" gradientTransform="matrix(6.8371 0 0 -6.4116 -260.2821 197.3846)">
						<stop  offset="0" style="stop-color:#A57D2D"/>
						<stop  offset="0.211" style="stop-color:#D8BD61"/>
						<stop  offset="0.328" style="stop-color:#F1DD7F"/>
						<stop  offset="0.524" style="stop-color:#FBF2A8"/>
						<stop  offset="0.73" style="stop-color:#F1DD7F"/>
						<stop  offset="1" style="stop-color:#A57D2D"/>
					</linearGradient>
					<path id="Path_990" class="st29" d="M14.09,38.52c0.73,0.13,1.42,0.41,2.03,0.82c-0.32-0.67-0.49-1.41-0.49-2.16
						c0.07-1.28,0.65-2.48,1.6-3.33c0.18,1.16,0.5,2.3,0.97,3.38c0.5,1.21-0.52,2.38-1.1,2.9c0.04,0.04,0.06,0.06,0.06,0.06
						s-1.98,1.75-3.51,0.79c-1.01-0.65-2.1-1.17-3.24-1.55C11.48,38.67,12.8,38.34,14.09,38.52z"/>
					
						<linearGradient id="Path_991_1_" gradientUnits="userSpaceOnUse" x1="237.001" y1="12.9724" x2="238.1591" y2="12.9724" gradientTransform="matrix(6.074 0 0 -5.323 -260.987 103.5884)">
						<stop  offset="0" style="stop-color:#A57D2D"/>
						<stop  offset="0.211" style="stop-color:#D8BD61"/>
						<stop  offset="0.328" style="stop-color:#F1DD7F"/>
						<stop  offset="0.524" style="stop-color:#FBF2A8"/>
						<stop  offset="0.73" style="stop-color:#F1DD7F"/>
						<stop  offset="1" style="stop-color:#A57D2D"/>
					</linearGradient>
					<path id="Path_991" class="st30" d="M14.42,36.57l0.03,0.03c0,0-1.67,1.6-2.97,0.78c-0.86-0.56-1.78-1-2.75-1.32
						c0.87-0.7,1.99-1.02,3.1-0.89c0.74,0.13,1.43,0.44,2.02,0.9c-0.29-0.65-0.41-1.36-0.34-2.07c0.18-1.04,0.78-1.96,1.66-2.54
						c0.05,0.96,0.23,1.9,0.54,2.81C16.04,35.35,14.92,36.24,14.42,36.57z"/>
					<g id="Group_481" transform="translate(23.346 12.312)">
						
							<linearGradient id="Path_992_1_" gradientUnits="userSpaceOnUse" x1="52.6149" y1="86.8218" x2="53.392" y2="87.6047" gradientTransform="matrix(10.9426 0 0 -10.8831 -10.4733 438.004)">
							<stop  offset="0" style="stop-color:#A57D2D"/>
							<stop  offset="0.211" style="stop-color:#D8BD61"/>
							<stop  offset="0.328" style="stop-color:#F1DD7F"/>
							<stop  offset="0.524" style="stop-color:#FBF2A8"/>
							<stop  offset="0.73" style="stop-color:#F1DD7F"/>
							<stop  offset="1" style="stop-color:#A57D2D"/>
						</linearGradient>
						<path id="Path_992" class="st31" d="M18.76,45.79c-2.07-0.6-4.2-0.95-6.35-1.05h-0.08l-0.01-0.08
							c-0.01-0.05,0.01-0.12,0.16-0.31c1.53-1.64,3.56-2.71,5.78-3.04c0.95-0.1,1.9-0.05,2.84,0.13c-0.66-0.46-1.25-1.01-1.76-1.63
							c-1.32-1.76-1.98-3.93-1.86-6.13c0.03-0.23,0.08-0.3,0.12-0.33l0.06-0.05l0.06,0.05c1.6,1.41,3.36,2.63,5.24,3.63
							c2.86,1.55,1.88,6.04,1.87,6.09l-0.02,0.09l-0.09-0.02c-0.01,0-0.15-0.04-0.39-0.12c-0.59,0.79-2.38,2.88-4.61,2.88
							C19.39,45.92,19.07,45.87,18.76,45.79z M24.32,42.85c0.15,0.05,0.27,0.08,0.35,0.1c0.12-0.64,0.73-4.43-1.8-5.8
							c-1.86-0.99-3.6-2.19-5.19-3.57c-0.15,2.19,0.49,4.37,1.8,6.13c0.6,0.72,1.3,1.35,2.09,1.85L22,41.83l-0.5-0.12
							c-1.05-0.26-2.14-0.34-3.22-0.23l0,0c-2.21,0.33-4.24,1.42-5.74,3.08c2.12,0.12,4.23,0.47,6.27,1.05
							c2.61,0.72,4.8-1.91,5.41-2.73l0.04-0.05L24.32,42.85z"/>
					</g>
					<g id="Group_482" transform="translate(16.642 16.419)">
						
							<linearGradient id="Path_993_1_" gradientUnits="userSpaceOnUse" x1="23.3508" y1="7.4028" x2="23.8569" y2="8.7323" gradientTransform="matrix(10.5723 0 0 -4.0067 -89.6276 -73.1642)">
							<stop  offset="0" style="stop-color:#A57D2D"/>
							<stop  offset="0.211" style="stop-color:#D8BD61"/>
							<stop  offset="0.328" style="stop-color:#F1DD7F"/>
							<stop  offset="0.524" style="stop-color:#FBF2A8"/>
							<stop  offset="0.73" style="stop-color:#F1DD7F"/>
							<stop  offset="1" style="stop-color:#A57D2D"/>
						</linearGradient>
						<path id="Path_993" class="st32" d="M17.69,38.49c-2.07-0.6-4.2-0.95-6.35-1.05h-0.08l-0.01-0.08
							c-0.01-0.05,0.01-0.12,0.16-0.31c1.53-1.64,3.56-2.71,5.78-3.04c2.16-0.16,4.32,0.31,6.23,1.35l0.08,0.05l-0.05,0.08
							c-0.48,0.68-1.04,1.3-1.67,1.83c-0.86,0.79-1.97,1.25-3.13,1.31C18.32,38.62,18,38.58,17.69,38.49z M17.22,34.19
							c-2.21,0.33-4.24,1.42-5.74,3.08c2.12,0.12,4.23,0.47,6.27,1.05c2.78,0.77,5.12-2.32,5.5-2.86
							C21.39,34.48,19.3,34.03,17.22,34.19L17.22,34.19z"/>
					</g>
					<g id="Group_483" transform="translate(11.233 8.517)">
						
							<linearGradient id="Path_994_1_" gradientUnits="userSpaceOnUse" x1="87.1878" y1="98.2662" x2="87.9139" y2="98.9599" gradientTransform="matrix(8.8674 0 0 -9.289 -164.2604 358.5673)">
							<stop  offset="0" style="stop-color:#A57D2D"/>
							<stop  offset="0.211" style="stop-color:#D8BD61"/>
							<stop  offset="0.328" style="stop-color:#F1DD7F"/>
							<stop  offset="0.524" style="stop-color:#FBF2A8"/>
							<stop  offset="0.73" style="stop-color:#F1DD7F"/>
							<stop  offset="1" style="stop-color:#A57D2D"/>
						</linearGradient>
						<path id="Path_994" class="st33" d="M15.77,43.35c-1.71-0.52-3.49-0.83-5.27-0.93h-0.08l-0.01-0.08
							c-0.01-0.05,0.01-0.12,0.16-0.31c1.25-1.38,2.94-2.29,4.78-2.58c0.91-0.09,1.82-0.02,2.71,0.2c-0.66-0.51-1.22-1.13-1.65-1.85
							c-0.78-1.47-1.01-3.17-0.64-4.8c0.06-0.21,0.12-0.26,0.15-0.28l0.07-0.04l0.05,0.06c1.04,1.23,2.23,2.32,3.54,3.25
							c1.66,1.21,1.03,3.68,0.76,4.52c0.14,0.07,0.21,0.12,0.21,0.12l0.08,0.05l-0.05,0.08c-0.02,0.03-1.74,2.69-3.99,2.69
							C16.3,43.47,16.03,43.43,15.77,43.35z M20.17,40.65l-0.07-0.04l0.02-0.07c0.25-0.73,0.95-3.21-0.67-4.38
							c-1.28-0.92-2.46-1.99-3.49-3.19c-0.4,1.6-0.19,3.3,0.6,4.76c0.5,0.82,1.17,1.53,1.97,2.07l0.44,0.31l-0.52-0.16
							c-1-0.31-2.05-0.42-3.09-0.32l0,0c-1.84,0.28-3.52,1.21-4.74,2.61c1.76,0.11,3.51,0.42,5.2,0.93c2.28,0.66,4.2-1.94,4.53-2.43
							C20.31,40.73,20.24,40.7,20.17,40.65L20.17,40.65z"/>
					</g>
					<g id="Group_484" transform="translate(6.243 5.158)">
						
							<linearGradient id="Path_995_1_" gradientUnits="userSpaceOnUse" x1="94.5417" y1="103.4149" x2="95.1625" y2="103.9859" gradientTransform="matrix(8.931 0 0 -9.699 -208.1757 422.1943)">
							<stop  offset="0" style="stop-color:#A57D2D"/>
							<stop  offset="0.211" style="stop-color:#D8BD61"/>
							<stop  offset="0.328" style="stop-color:#F1DD7F"/>
							<stop  offset="0.524" style="stop-color:#FBF2A8"/>
							<stop  offset="0.73" style="stop-color:#F1DD7F"/>
							<stop  offset="1" style="stop-color:#A57D2D"/>
						</linearGradient>
						<path id="Path_995" class="st34" d="M14.62,43.3c-1.6-0.48-3.25-0.77-4.92-0.86H9.62l-0.01-0.08
							c-0.01-0.05,0.01-0.12,0.15-0.29c1.17-1.29,2.75-2.14,4.47-2.41l0,0c0.94-0.09,1.88-0.01,2.79,0.26
							c-0.59-0.78-1.01-1.67-1.22-2.62c-0.29-1.69,0.04-3.42,0.93-4.88c0.13-0.19,0.19-0.22,0.24-0.23l0.08-0.01l0.03,0.07
							c0.62,1.52,1.43,2.95,2.4,4.26c1.04,1.44,0.2,3.23-0.44,4.23l0.06,0.03l0.08,0.05l-0.05,0.08c-0.02,0.03-1.62,2.52-3.73,2.52
							C15.12,43.41,14.87,43.37,14.62,43.3z M18.85,40.85l-0.08-0.05l0.05-0.08c0.62-0.94,1.51-2.71,0.5-4.11
							c-0.96-1.3-1.76-2.7-2.38-4.19c-0.9,1.44-1.24,3.16-0.97,4.84c0.24,1.01,0.7,1.96,1.36,2.77l0.17,0.22l-0.27-0.08
							c-0.96-0.31-1.97-0.43-2.98-0.33c-1.71,0.27-3.27,1.13-4.42,2.43c1.64,0.1,3.27,0.39,4.85,0.87c2.12,0.62,3.9-1.79,4.22-2.26
							L18.85,40.85z"/>
					</g>
					<g id="Group_485" transform="translate(3.43 3.64)">
						
							<linearGradient id="Path_996_1_" gradientUnits="userSpaceOnUse" x1="103.7195" y1="105.4636" x2="104.2395" y2="105.972" gradientTransform="matrix(8.0987 0 0 -8.261 -235.3182 320.9932)">
							<stop  offset="0" style="stop-color:#A57D2D"/>
							<stop  offset="0.211" style="stop-color:#D8BD61"/>
							<stop  offset="0.328" style="stop-color:#F1DD7F"/>
							<stop  offset="0.524" style="stop-color:#FBF2A8"/>
							<stop  offset="0.73" style="stop-color:#F1DD7F"/>
							<stop  offset="1" style="stop-color:#A57D2D"/>
						</linearGradient>
						<path id="Path_996" class="st35" d="M13.31,41.33c-1.3-0.55-2.67-0.94-4.06-1.16l-0.08-0.01v-0.08c0-0.04,0.02-0.1,0.15-0.24
							c1.78-1.71,4.45-2.13,6.66-1.04c-1.37-2.1-1.14-4.86,0.55-6.71c0.13-0.14,0.2-0.16,0.24-0.16h0.08l0.01,0.08
							c0.31,1.35,0.8,2.65,1.44,3.87c0.74,1.45-0.44,2.98-1.07,3.64l0.07,0.05l0.07,0.05l-0.06,0.07c-0.77,0.99-1.89,1.64-3.13,1.81
							C13.9,41.51,13.59,41.45,13.31,41.33z M17.05,39.61l-0.09-0.06l0.07-0.07c0.57-0.59,1.82-2.1,1.11-3.51
							c-0.62-1.2-1.1-2.47-1.43-3.79c-0.93,1.09-1.44,2.47-1.44,3.9c0.09,1.04,0.44,2.03,1.02,2.9l0.17,0.27l-0.29-0.15
							c-0.87-0.45-1.84-0.69-2.82-0.72h-0.04c-1.46,0.08-2.84,0.65-3.92,1.63c1.37,0.23,2.7,0.62,3.98,1.15
							c1.7,0.69,3.41-1.13,3.74-1.52L17.05,39.61z"/>
					</g>
					<g id="Group_486" transform="translate(1.47 2.071)">
						
							<linearGradient id="Path_997_1_" gradientUnits="userSpaceOnUse" x1="115.7012" y1="106.7792" x2="116.2571" y2="107.3722" gradientTransform="matrix(6.948 0 0 -6.5671 -251.7344 194.7349)">
							<stop  offset="0" style="stop-color:#A57D2D"/>
							<stop  offset="0.211" style="stop-color:#D8BD61"/>
							<stop  offset="0.328" style="stop-color:#F1DD7F"/>
							<stop  offset="0.524" style="stop-color:#FBF2A8"/>
							<stop  offset="0.73" style="stop-color:#F1DD7F"/>
							<stop  offset="1" style="stop-color:#A57D2D"/>
						</linearGradient>
						<path id="Path_997" class="st36" d="M12.15,38.99c-1.01-0.64-2.08-1.16-3.21-1.54l-0.08-0.02l0.01-0.08
							c0.01-0.04,0.03-0.09,0.17-0.19c1.07-0.67,2.34-0.95,3.59-0.8l0,0c0.64,0.11,1.26,0.34,1.82,0.68
							c-0.26-0.61-0.39-1.27-0.38-1.94c0.09-1.24,0.61-2.4,1.48-3.29c0.13-0.12,0.18-0.13,0.22-0.13h0.08l0.01,0.08
							c0.18,1.16,0.5,2.28,0.97,3.36c0.28,1.1-0.13,2.27-1.05,2.94l0,0l0.06,0.07l-0.07,0.06c-0.71,0.63-1.6,1.01-2.54,1.1
							C12.84,39.3,12.47,39.19,12.15,38.99z M15.51,38.06L15.57,38c0.61-0.56,1.55-1.67,1.07-2.81c-0.45-1.05-0.77-2.15-0.96-3.27
							c-0.84,0.86-1.35,1.98-1.44,3.18c0,0.74,0.16,1.46,0.48,2.12l0.13,0.28l-0.26-0.17c-0.6-0.41-1.28-0.68-1.99-0.81l0,0
							c-1.22-0.14-2.45,0.14-3.49,0.79c1.1,0.39,2.15,0.9,3.14,1.52c1.29,0.81,2.96-0.43,3.32-0.72L15.51,38.06z"/>
					</g>
					<g id="Group_487">
						
							<linearGradient id="Path_998_1_" gradientUnits="userSpaceOnUse" x1="125.2768" y1="107.4706" x2="125.806" y2="108.0728" gradientTransform="matrix(6.2404 0 0 -5.4801 -261.2394 116.7488)">
							<stop  offset="0" style="stop-color:#A57D2D"/>
							<stop  offset="0.211" style="stop-color:#D8BD61"/>
							<stop  offset="0.328" style="stop-color:#F1DD7F"/>
							<stop  offset="0.524" style="stop-color:#FBF2A8"/>
							<stop  offset="0.73" style="stop-color:#F1DD7F"/>
							<stop  offset="1" style="stop-color:#A57D2D"/>
						</linearGradient>
						<path id="Path_998" class="st37" d="M11.43,37.46c-0.85-0.55-1.77-0.99-2.73-1.31l-0.07-0.02l0.01-0.08
							c0-0.04,0.03-0.09,0.18-0.2c0.89-0.6,1.95-0.87,3.02-0.77c0.65,0.11,1.27,0.36,1.81,0.74c-0.22-0.58-0.3-1.21-0.23-1.83
							c0.19-0.99,0.73-1.88,1.52-2.5c0.15-0.11,0.2-0.12,0.24-0.12l0.08,0.01v0.08c0.05,0.95,0.23,1.89,0.53,2.79
							c0.35,1.08-0.68,1.97-1.23,2.35l0.02,0.02l-0.06,0.06c-0.6,0.58-1.37,0.95-2.2,1.04C12,37.71,11.69,37.63,11.43,37.46z
							 M14.28,36.56l0.09-0.06c0.48-0.32,1.57-1.18,1.24-2.21c-0.29-0.87-0.46-1.78-0.53-2.7c-1.43,0.99-1.92,2.88-1.15,4.44
							l0.13,0.31l-0.28-0.21c-0.58-0.45-1.25-0.76-1.98-0.88c-1.04-0.09-2.07,0.18-2.93,0.76c0.93,0.33,1.82,0.76,2.65,1.3
							c1.09,0.69,2.48-0.43,2.79-0.71L14.28,36.56z"/>
					</g>
				</g>
				<g id="Group_490" transform="translate(2.862 2.938)">
					
						<linearGradient id="Path_999_1_" gradientUnits="userSpaceOnUse" x1="35.8267" y1="66.898" x2="36.9848" y2="66.898" gradientTransform="matrix(36.923 0 0 -24.3574 -186.1464 1675.2562)">
						<stop  offset="0" style="stop-color:#A57D2D"/>
						<stop  offset="0.211" style="stop-color:#D8BD61"/>
						<stop  offset="0.328" style="stop-color:#F1DD7F"/>
						<stop  offset="0.524" style="stop-color:#FBF2A8"/>
						<stop  offset="0.73" style="stop-color:#F1DD7F"/>
						<stop  offset="1" style="stop-color:#A57D2D"/>
					</linearGradient>
					<path id="Path_999" class="st38" d="M9.32,31.69c0.5,0.95,1.05,1.88,1.65,2.78c0.6,0.9,1.24,1.76,1.94,2.58
						c1.37,1.67,2.94,3.16,4.66,4.47c0.86,0.65,1.75,1.26,2.68,1.82c2.83,1.62,5.83,2.92,8.94,3.9c2.08,0.69,4.19,1.3,6.3,1.96
						c0.26,0.08,0.53,0.17,0.79,0.25c1.85,0.58,3.67,1.28,5.43,2.1c1.01,0.47,2.01,0.98,2.96,1.54c0.96,0.56,1.89,1.18,2.77,1.85
						l0.65,0.52c1.51,1.21,2.82,2.66,3.86,4.28c-0.05,0.07-0.37,0.21-0.44,0.14c-1.19-1.39-2.51-2.65-3.95-3.76l-0.68-0.44
						c-0.91-0.58-1.83-1.12-2.79-1.6c-0.96-0.48-1.94-0.96-2.94-1.37c-0.99-0.43-2-0.82-3.02-1.2l-0.76-0.29l-0.77-0.28
						c-0.51-0.18-1.03-0.37-1.54-0.55c-2.06-0.73-4.15-1.44-6.23-2.19c-1.56-0.56-3.11-1.17-4.62-1.86l-0.38-0.17
						c-1.13-0.53-2.23-1.11-3.3-1.76l-0.7-0.44c-0.93-0.6-1.83-1.25-2.69-1.96c-2.54-2.09-4.71-4.59-6.41-7.4
						c-0.56-0.93-1.07-1.88-1.53-2.86L9.32,31.69z"/>
					<g id="Group_489">
						
							<linearGradient id="Path_1000_1_" gradientUnits="userSpaceOnUse" x1="14.5816" y1="80.2507" x2="15.5382" y2="81.6983" gradientTransform="matrix(37.11 0 0 -24.5331 -185.8992 1689.7211)">
							<stop  offset="0" style="stop-color:#A57D2D"/>
							<stop  offset="0.211" style="stop-color:#D8BD61"/>
							<stop  offset="0.328" style="stop-color:#F1DD7F"/>
							<stop  offset="0.524" style="stop-color:#FBF2A8"/>
							<stop  offset="0.73" style="stop-color:#F1DD7F"/>
							<stop  offset="1" style="stop-color:#A57D2D"/>
						</linearGradient>
						<path id="Path_1000" class="st39" d="M51.45,59.94l-0.35-0.37c-1.08-1.25-2.28-2.38-3.59-3.38l-0.67-0.44
							c-1.01-0.64-1.92-1.16-2.78-1.59c-1.08-0.54-1.99-0.98-2.94-1.37c-1.04-0.45-2.11-0.86-3.02-1.2l-0.76-0.29l-0.89-0.32
							c-0.47-0.17-0.95-0.34-1.42-0.51c-0.88-0.31-1.76-0.62-2.64-0.93c-1.18-0.41-2.39-0.83-3.58-1.26
							c-1.76-0.64-3.28-1.25-4.63-1.87c-0.25-0.12-0.35-0.16-0.38-0.17l0,0c-1.14-0.53-2.24-1.11-3.31-1.76l-0.7-0.44
							c-0.93-0.6-1.83-1.25-2.69-1.95c-2.55-2.1-4.72-4.61-6.44-7.43c-0.56-0.93-1.07-1.89-1.53-2.87L9.08,31.7l0.28-0.13l0.04,0.08
							c0.5,0.95,1.05,1.87,1.64,2.77c0.59,0.89,1.24,1.76,1.93,2.58c1.37,1.66,2.93,3.15,4.65,4.45c0.86,0.65,1.75,1.26,2.67,1.81
							c2.83,1.61,5.82,2.91,8.93,3.89c1.36,0.45,2.76,0.88,4.11,1.29c0.73,0.22,1.46,0.44,2.19,0.67c0.23,0.07,0.46,0.14,0.68,0.22
							l0.11,0.03c1.86,0.58,3.68,1.29,5.44,2.1c1.18,0.56,2.13,1.05,2.97,1.55c0.96,0.56,1.89,1.18,2.78,1.86l0.65,0.52
							c1.52,1.21,2.83,2.67,3.88,4.3l0.03,0.05l-0.03,0.05c-0.12,0.11-0.27,0.18-0.43,0.2h-0.02
							C51.53,59.98,51.48,59.97,51.45,59.94z M48.03,55.52l-0.65-0.51c-0.88-0.67-1.8-1.29-2.76-1.85c-0.84-0.5-1.78-0.99-2.95-1.54
							c-1.76-0.81-3.57-1.51-5.42-2.09l-0.11-0.03c-0.23-0.07-0.46-0.15-0.68-0.22c-0.73-0.23-1.46-0.45-2.19-0.67
							c-1.35-0.41-2.75-0.83-4.11-1.29c-3.12-0.98-6.12-2.29-8.96-3.91c-0.93-0.56-1.82-1.17-2.69-1.82
							c-1.73-1.31-3.3-2.81-4.68-4.48c-0.7-0.83-1.34-1.69-1.94-2.59c-0.39-0.59-0.77-1.2-1.12-1.81c0.32,0.63,0.67,1.26,1.04,1.86
							c1.7,2.8,3.86,5.3,6.39,7.38c0.85,0.7,1.75,1.34,2.67,1.94l0.7,0.44c1.07,0.64,2.17,1.23,3.3,1.75l0.38,0.17
							c1.34,0.62,2.85,1.23,4.61,1.86c1.19,0.43,2.41,0.85,3.58,1.26c0.88,0.31,1.77,0.62,2.65,0.93c0.48,0.17,0.95,0.34,1.42,0.51
							l1.65,0.61c0.91,0.35,1.99,0.75,3.02,1.2c0.95,0.39,1.87,0.83,2.95,1.37c0.87,0.44,1.79,0.96,2.8,1.6l0.68,0.44
							c1.32,1.01,2.54,2.15,3.62,3.41l0.33,0.36c0.09-0.01,0.18-0.05,0.26-0.09C50.8,58.12,49.52,56.7,48.03,55.52z"/>
					</g>
				</g>
				<g id="Group_491" transform="translate(0.726)">
					
						<linearGradient id="Path_1001_1_" gradientUnits="userSpaceOnUse" x1="494.261" y1="-2.5008" x2="495.4191" y2="-2.5008" gradientTransform="matrix(2.888 0 0 -4.284 -255.6914 23.0004)">
						<stop  offset="0" style="stop-color:#A57D2D"/>
						<stop  offset="0.211" style="stop-color:#D8BD61"/>
						<stop  offset="0.328" style="stop-color:#F1DD7F"/>
						<stop  offset="0.524" style="stop-color:#FBF2A8"/>
						<stop  offset="0.73" style="stop-color:#F1DD7F"/>
						<stop  offset="1" style="stop-color:#A57D2D"/>
					</linearGradient>
					<path id="Path_1001" class="st40" d="M9.73,34.34c-0.65-0.9-0.96-2-0.86-3.11c0.53,0.66,1.19,1.22,1.92,1.65
						c1.31,0.88,1.4,3.31,1.4,3.31C11.23,35.81,10.38,35.17,9.73,34.34z"/>
					
						<linearGradient id="Path_1002_1_" gradientUnits="userSpaceOnUse" x1="346.9522" y1="178.8412" x2="348.3593" y2="179.8001" gradientTransform="matrix(3.0578 0 0 -4.503 -255.8287 41.6987)">
						<stop  offset="0" style="stop-color:#A57D2D"/>
						<stop  offset="0.211" style="stop-color:#D8BD61"/>
						<stop  offset="0.328" style="stop-color:#F1DD7F"/>
						<stop  offset="0.524" style="stop-color:#FBF2A8"/>
						<stop  offset="0.73" style="stop-color:#F1DD7F"/>
						<stop  offset="1" style="stop-color:#A57D2D"/>
					</linearGradient>
					<path id="Path_1002" class="st41" d="M12.17,36.28c-0.99-0.39-1.86-1.04-2.51-1.89c-0.64-0.91-0.95-2-0.9-3.1
						c0-0.05,0.03-0.1,0.07-0.13l0.08-0.05l0.05,0.08c0.53,0.65,1.17,1.2,1.9,1.62c1.33,0.9,1.44,3.28,1.44,3.38v0.13L12.17,36.28z
						 M9.81,34.29c0.6,0.77,1.39,1.38,2.29,1.77c-0.03-1.17-0.52-2.28-1.35-3.1c-0.67-0.42-1.29-0.93-1.83-1.51
						C8.92,32.46,9.23,33.45,9.81,34.29z"/>
				</g>
			</g>
		</g>
	</g>
</g>
</svg>
