<svg id="Layer_1" data-name="Layer 1" xmlns="http://www.w3.org/2000/svg" viewBox="0 0 729.17 286.34"><defs><style>.cls-1,.cls-4{fill:#00adee;}.cls-2,.cls-3{fill:#4e4841;}.cls-3,.cls-4{fill-rule:evenodd;}</style></defs><title>Logo</title><path class="cls-1" d="M160.86,262.38a42,42,0,0,1-11.85,7.4,34.55,34.55,0,0,1-12.24,2.15q-10.77,0-16.56-5.26a17.44,17.44,0,0,1-5.78-13.45,17.76,17.76,0,0,1,2.19-8.78,18,18,0,0,1,5.72-6.37,27,27,0,0,1,8-3.64,80.7,80.7,0,0,1,9.84-1.66c9-1.07,15.55-2.33,19.77-3.82,0-1.52.07-2.48.07-2.88,0-4.52-1.05-7.71-3.16-9.54-2.81-2.52-7-3.77-12.61-3.77-5.21,0-9,.91-11.55,2.74s-4.31,5.06-5.51,9.71l-10.82-1.5a26.83,26.83,0,0,1,4.85-11.22,21.3,21.3,0,0,1,9.79-6.6,43.88,43.88,0,0,1,14.84-2.31,39.27,39.27,0,0,1,13.6,2,18.07,18.07,0,0,1,7.71,5,17.53,17.53,0,0,1,3.45,7.54,63.71,63.71,0,0,1,.55,10.22v14.77q0,15.48.71,19.55a24.61,24.61,0,0,0,2.8,7.86H163.07a23.25,23.25,0,0,1-2.21-8.08Zm-.93-24.75c-4,1.66-10.06,3-18.09,4.2a41.39,41.39,0,0,0-9.67,2.21,9.68,9.68,0,0,0-2.56,16.26c2.22,2,5.5,2.95,9.81,2.95a22.81,22.81,0,0,0,11.39-2.8,17.34,17.34,0,0,0,7.34-7.67c1.19-2.5,1.78-6.2,1.78-11.07v-4.08Zm39.74,32.83V205.07h10v9.29q7.22-10.79,20.8-10.78a27.55,27.55,0,0,1,10.87,2.12,17,17,0,0,1,7.42,5.59,21.47,21.47,0,0,1,3.47,8.18,66.4,66.4,0,0,1,.6,10.78v40.21H241.71V230.67c0-4.5-.42-7.88-1.28-10.13a10.7,10.7,0,0,0-4.59-5.34,14.55,14.55,0,0,0-7.73-2,18.06,18.06,0,0,0-12.23,4.49c-3.43,3-5.13,8.68-5.13,17.07v35.71Zm124.15-8.08a41.93,41.93,0,0,1-11.86,7.4,34.45,34.45,0,0,1-12.23,2.15c-7.19,0-12.69-1.75-16.56-5.26a17.41,17.41,0,0,1-5.78-13.45,17.76,17.76,0,0,1,2.19-8.78,18,18,0,0,1,5.71-6.37,27.21,27.21,0,0,1,8-3.64,80.35,80.35,0,0,1,9.84-1.66c8.95-1.07,15.55-2.33,19.77-3.82q.06-2.28.06-2.88c0-4.52-1-7.71-3.15-9.54-2.81-2.52-7-3.77-12.61-3.77q-7.81,0-11.56,2.74t-5.5,9.71l-10.83-1.5a27,27,0,0,1,4.86-11.22,21.3,21.3,0,0,1,9.79-6.6,43.88,43.88,0,0,1,14.84-2.31,39.27,39.27,0,0,1,13.6,2,18.07,18.07,0,0,1,7.71,5,17.53,17.53,0,0,1,3.45,7.54,65.32,65.32,0,0,1,.54,10.22v14.77q0,15.48.72,19.55a24.83,24.83,0,0,0,2.79,7.86H326a23.47,23.47,0,0,1-2.2-8.08Zm-.93-24.75c-4,1.66-10.06,3-18.09,4.2a41.39,41.39,0,0,0-9.67,2.21,9.68,9.68,0,0,0-2.57,16.26q3.35,2.94,9.82,2.95a22.81,22.81,0,0,0,11.39-2.8,17.34,17.34,0,0,0,7.34-7.67c1.19-2.5,1.78-6.2,1.78-11.07v-4.08Zm39.49,32.83V180.19h11.08v90.27Zm39.11,25.17-1.24-10.4a25.18,25.18,0,0,0,6.35,1,12.14,12.14,0,0,0,5.9-1.24,9.93,9.93,0,0,0,3.64-3.45,50.83,50.83,0,0,0,3.38-8.24c.21-.63.55-1.51,1-2.71l-24.8-65.51h11.94l13.61,37.85c1.75,4.82,3.35,9.86,4.73,15.16q1.93-7.63,4.56-14.9l14-38.11h11.08l-24.87,66.5a131.87,131.87,0,0,1-6.22,14.84,21.89,21.89,0,0,1-6.77,8,16.09,16.09,0,0,1-9.12,2.56,22,22,0,0,1-7.14-1.37Zm99.09-35.09,1.6,9.79a41.54,41.54,0,0,1-8.37,1c-4,0-7.14-.63-9.37-1.92a10.65,10.65,0,0,1-4.67-5c-.9-2.06-1.36-6.43-1.36-13.07V213.69h-8.14v-8.62h8.14v-16.2l11-6.64v22.84h11.14v8.62H489.44v38.23c0,3.17.19,5.19.57,6.09a4.77,4.77,0,0,0,1.91,2.17,7.49,7.49,0,0,0,3.78.8,36.07,36.07,0,0,0,4.88-.44ZM522.81,193V180.19h11.1V193Zm0,77.51V205.07h11.1v65.39Zm82-24,10.88,1.43q-1.77,11.25-9.14,17.63t-18.08,6.37c-8.93,0-16.14-2.92-21.56-8.77s-8.17-14.23-8.17-25.15a45.53,45.53,0,0,1,3.51-18.54,24.5,24.5,0,0,1,10.69-11.92,31.64,31.64,0,0,1,15.6-4c7.1,0,12.92,1.81,17.42,5.4s7.42,8.68,8.7,15.3l-10.78,1.66q-1.54-6.58-5.44-9.92A14.2,14.2,0,0,0,589,212.7a17.2,17.2,0,0,0-13.62,6q-5.24,6-5.23,19,0,13.19,5.06,19.17a16.46,16.46,0,0,0,13.18,6,15.54,15.54,0,0,0,10.89-4c2.92-2.67,4.77-6.76,5.55-12.31Zm27.29,4.43L643,249.21c.61,4.39,2.34,7.75,5.15,10.11s6.73,3.51,11.79,3.51,8.87-1.05,11.33-3.11a9.36,9.36,0,0,0,3.7-7.3,6.75,6.75,0,0,0-3.28-5.92c-1.51-1-5.3-2.23-11.33-3.74-8.11-2.06-13.76-3.83-16.9-5.34a16.16,16.16,0,0,1-9.58-15,16.63,16.63,0,0,1,2-8.09,17.74,17.74,0,0,1,5.44-6.2,23.38,23.38,0,0,1,7-3.24,33.78,33.78,0,0,1,9.59-1.32,38.06,38.06,0,0,1,13.51,2.23,18.34,18.34,0,0,1,8.6,6,23.4,23.4,0,0,1,3.8,10.13l-10.82,1.49a12,12,0,0,0-4.29-7.88q-3.54-2.83-10-2.84c-5.08,0-8.72.84-10.88,2.52a7.35,7.35,0,0,0-3.28,5.91A6.12,6.12,0,0,0,646,225a9.81,9.81,0,0,0,4.24,3c1.11.4,4.37,1.35,9.79,2.82a133.35,133.35,0,0,1,16.4,5.15,16.54,16.54,0,0,1,7.31,5.82,16.16,16.16,0,0,1,2.65,9.48,18.72,18.72,0,0,1-3.24,10.44,21,21,0,0,1-9.33,7.57A34,34,0,0,1,660,271.93q-12.76,0-19.44-5.3t-8.51-15.7Z" transform="translate(-35.83 -10.66)"/><path class="cls-1" d="M35.83,39.42H67.08V53.7A52.73,52.73,0,0,1,84.82,40.59a51.86,51.86,0,0,1,21.24-4.36A39.34,39.34,0,0,1,127,42a41.34,41.34,0,0,1,15,16.65A50.47,50.47,0,0,1,160.27,42a49.36,49.36,0,0,1,23.54-5.72,43.42,43.42,0,0,1,23.26,6.18,35.31,35.31,0,0,1,14.4,16.08c3,6.61,4.4,17.35,4.4,32.25v72.72H194.55V100.55c0-14.09-1.76-23.58-5.26-28.56s-8.75-7.47-15.72-7.47a23.86,23.86,0,0,0-14.32,4.55,26.8,26.8,0,0,0-9.41,12.61c-2.06,5.37-3.07,14-3.07,25.83v56H115.4V103.39c0-11.09-.81-19.15-2.45-24.13s-4.08-8.67-7.35-11.09a19.12,19.12,0,0,0-11.83-3.65,23.29,23.29,0,0,0-14.09,4.63,27.43,27.43,0,0,0-9.45,12.92c-2.1,5.56-3.15,14.28-3.15,26.22v55.17H35.83v-124Z" transform="translate(-35.83 -10.66)"/><path class="cls-2" d="M501.55,10.66v152.8h-14v-19a60.56,60.56,0,0,1-20,16.33,54.38,54.38,0,0,1-24.28,5.46q-23.4,0-40-17T386.72,108a55.74,55.74,0,0,1,16.74-40.71q16.71-16.9,40.23-16.94a52.1,52.1,0,0,1,24.56,5.77,56.31,56.31,0,0,1,19.29,17.33V10.66ZM444.8,64.06A42.65,42.65,0,0,0,407,86.27a44.63,44.63,0,0,0,0,44.58,43.8,43.8,0,0,0,16.09,16.57,41.93,41.93,0,0,0,21.61,5.91,44.42,44.42,0,0,0,22.1-5.88,40.73,40.73,0,0,0,16-15.91A45.11,45.11,0,0,0,488.48,109q0-19.15-12.63-32T444.8,64.06ZM643.5,53.2V163.46h-14v-19a61.16,61.16,0,0,1-20,16.33,54.41,54.41,0,0,1-24.28,5.46q-23.4,0-40-17T528.67,108a55.86,55.86,0,0,1,16.74-40.71q16.71-16.9,40.22-16.94a52,52,0,0,1,24.56,5.77,56.7,56.7,0,0,1,19.33,17.33V53.2ZM586.74,64.06A42.68,42.68,0,0,0,548.9,86.27a44.86,44.86,0,0,0,0,44.58A43.85,43.85,0,0,0,565,147.42a42,42,0,0,0,21.62,5.91,44.44,44.44,0,0,0,22.1-5.88,40.77,40.77,0,0,0,16-15.91A45.11,45.11,0,0,0,630.42,109q0-19.15-12.62-32T586.74,64.06Zm88.58-53.4H689.6v87l51-44.41h20.86L701,105.81l64,57.65H744.94L689.6,113.9v49.56H675.32V10.66Z" transform="translate(-35.83 -10.66)"/><path class="cls-3" d="M264,111.26a44.21,44.21,0,0,0,43.9,41.36c24.3,0,44-19.91,44-44.46a44.3,44.3,0,0,0-40.15-44.28V50.3c29.9,2,53.55,27.15,53.55,57.86,0,32-25.71,58-57.41,58-30.67,0-55.73-24.32-57.33-54.91Z" transform="translate(-35.83 -10.66)"/><path class="cls-4" d="M250.65,103.52c2.26-28.58,25-51.29,53.34-53.22V63.88a44.22,44.22,0,0,0-39.88,39.64Z" transform="translate(-35.83 -10.66)"/></svg>