<?xml version="1.0" encoding="utf-8"?>
<!-- Generator: Adobe Illustrator 23.1.0, SVG Export Plug-In . SVG Version: 6.00 Build 0)  -->
<svg version="1.1" id="Layer_1" xmlns="http://www.w3.org/2000/svg" xmlns:xlink="http://www.w3.org/1999/xlink" x="0px" y="0px"
	 viewBox="0 0 700 200" style="enable-background:new 0 0 700 200;" xml:space="preserve">
<style type="text/css">
	.st0{fill:#00ADEE;}
	.st1{fill:#4E4841;}
	.st2{fill-rule:evenodd;clip-rule:evenodd;fill:#4E4841;}
	.st3{fill-rule:evenodd;clip-rule:evenodd;fill:#00ADEE;}
</style>
<g>
	<path class="st0" d="M1.6,53.2h29.9v13.6c4.7-5.3,10.5-9.6,17-12.5c6.4-2.8,13.3-4.2,20.3-4.2c7.1-0.1,14,1.8,20,5.5
		c6.2,3.9,11.1,9.4,14.3,15.9c4.4-6.7,10.4-12.1,17.5-15.9c6.9-3.7,14.7-5.5,22.5-5.5c7.8-0.2,15.5,1.9,22.2,5.9
		c6.1,3.6,10.9,8.9,13.8,15.3c2.9,6.3,4.2,16.5,4.2,30.8v69.3h-29.9v-60c0-13.4-1.7-22.5-5-27.2c-3.3-4.7-8.4-7.1-15-7.1
		c-4.9-0.1-9.7,1.5-13.7,4.3c-4.1,3-7.3,7.2-9,12c-2,5.1-2.9,13.3-2.9,24.6v53.4h-30v-57.3c0-10.6-0.8-18.3-2.3-23
		c-1.6-4.7-3.9-8.3-7-10.6C65,78.3,61,77.1,57,77.2c-4.9,0-9.6,1.5-13.5,4.4c-4.2,3.1-7.3,7.4-9,12.3c-2,5.3-3,13.6-3,25v52.6H1.6
		V53.2L1.6,53.2L1.6,53.2z"/>
	<path class="st1" d="M446.6,25.8v145.7h-13.4v-18.1c-5.2,6.5-11.7,11.8-19.1,15.6c-7.2,3.5-15.2,5.3-23.2,5.2
		c-14.9,0-27.6-5.4-38.2-16.2c-10.6-10.8-15.8-23.9-15.8-39.3c-0.2-14.6,5.6-28.6,16-38.8c10.6-10.7,23.5-16.1,38.4-16.2
		c8.2-0.1,16.2,1.8,23.5,5.5c7.3,4,13.7,9.7,18.4,16.5V25.8H446.6L446.6,25.8z M392.4,76.7c-15-0.1-28.9,8-36.1,21.2
		c-7.6,13.2-7.6,29.4,0,42.5c3.6,6.5,8.9,12,15.4,15.8c6.2,3.7,13.4,5.7,20.7,5.6c7.4,0,14.7-1.9,21.1-5.6
		c6.4-3.5,11.7-8.8,15.3-15.2c3.7-6.6,5.5-14,5.4-21.5c0-12.2-4-22.3-12.1-30.5C414,80.9,404.2,76.8,392.4,76.7L392.4,76.7z
		 M582.3,66.4v105.1h-13.4v-18.1c-5.2,6.5-11.7,11.8-19.1,15.6c-7.2,3.5-15.2,5.3-23.2,5.2c-14.9,0-27.6-5.4-38.2-16.2
		c-10.6-10.8-15.8-23.9-15.8-39.3c-0.2-14.6,5.6-28.6,16-38.8C499.2,69.1,512,63.7,527,63.7c8.2-0.1,16.2,1.8,23.5,5.5
		c7.4,4,13.7,9.7,18.5,16.5V66.4H582.3L582.3,66.4z M528.1,76.7c-15-0.1-28.9,8-36.2,21.2c-7.6,13.2-7.6,29.3,0,42.5
		c3.6,6.5,8.9,12,15.4,15.8c6.2,3.7,13.4,5.7,20.7,5.6c7.4,0,14.7-1.9,21.1-5.6c6.4-3.5,11.7-8.8,15.3-15.2c3.7-6.6,5.5-14,5.4-21.5
		c0-12.2-4-22.3-12.1-30.5C549.7,80.9,539.8,76.8,528.1,76.7L528.1,76.7z M612.7,25.8h13.6v83l48.7-42.3H695l-57.8,50.1l61.2,55
		h-19.2l-52.9-47.3v47.3h-13.6V25.8L612.7,25.8L612.7,25.8z"/>
	<path class="st2" d="M219.6,121.7c1.4,22.1,19.8,39.3,42,39.4c23.2,0,42-19,42-42.4c0.1-21.9-16.6-40.2-38.4-42.2V63.6
		c28.6,1.9,51.2,25.9,51.2,55.2c0,30.5-24.6,55.3-54.9,55.3c-29.3,0-53.3-23.2-54.8-52.4L219.6,121.7z"/>
	<path class="st3" d="M206.9,114.4c2.2-27.3,23.9-48.9,51-50.7v12.9c-20.1,1.9-36.1,17.7-38.1,37.8H206.9z"/>
</g>
</svg>
