<svg id="Layer_1" data-name="Layer 1" xmlns="http://www.w3.org/2000/svg" viewBox="0 0 347.4 79.62"><defs><style>.cls-1{fill:#004d78;stroke-width:0.25px;}.cls-1,.cls-2{stroke:#004d78;stroke-miterlimit:10;}.cls-2{fill:#fff;stroke-width:6px;}.cls-3{font-size:12px;fill:#014d79;font-family:ArialMT, Arial;}</style></defs><title>logo TM</title><path class="cls-1" d="M172.1,90c-.95,0-1.42-.5-1.42-1.48V56.82a19.39,19.39,0,0,0-19.36-19.31,18.8,18.8,0,0,0-13.72,5.65,18.53,18.53,0,0,0-5.7,13.66V88.47A1.29,1.29,0,0,1,130.47,90c-1.09,0-1.64-.5-1.64-1.48V56.82a22.46,22.46,0,0,1,38.34-15.91,21.67,21.67,0,0,1,6.58,15.91V88.47A1.29,1.29,0,0,1,172.32,90Z" transform="translate(-36.93 -10.45)"/><path class="cls-1" d="M237.59,90c-1,0-1.42-.5-1.42-1.48V75a29.31,29.31,0,0,1-6.36,8,27.68,27.68,0,0,1-38-1.21,26.64,26.64,0,0,1-8.18-19.63A26.66,26.66,0,0,1,191.8,42.5a27.68,27.68,0,0,1,39.27,0,26.65,26.65,0,0,1,8.17,19.64V88.47A1.31,1.31,0,0,1,237.76,90ZM194,44.7a23.69,23.69,0,0,0-7.3,17.44,24.74,24.74,0,0,0,49.48,0A24.74,24.74,0,0,0,194,44.7Z" transform="translate(-36.93 -10.45)"/><path class="cls-1" d="M258.44,81.83a27,27,0,0,1-8.23-19.53V12.06c0-1,.51-1.48,1.54-1.48a1.33,1.33,0,0,1,1.53,1.48V49.41a34.14,34.14,0,0,1,6.31-8.06,27.14,27.14,0,0,1,18.43-7,26.63,26.63,0,0,1,19.63,8.17,26.66,26.66,0,0,1,8.18,19.64,26.64,26.64,0,0,1-8.18,19.63,27.66,27.66,0,0,1-39.21.06Zm2.14-37a23.67,23.67,0,0,0-7.3,17.44,24.71,24.71,0,0,0,49.42,0,24.66,24.66,0,0,0-42.12-17.44Z" transform="translate(-36.93 -10.45)"/><path class="cls-1" d="M321.73,83.36a21.58,21.58,0,0,1-6.58-15.85V35.86a1.54,1.54,0,0,1,3.07,0V67.51a18.5,18.5,0,0,0,5.71,13.66,19.4,19.4,0,0,0,27.37,0A18.53,18.53,0,0,0,357,67.51V35.86c0-1,.48-1.53,1.43-1.53s1.64.51,1.64,1.53V67.51A22.48,22.48,0,0,1,337.64,90,21.8,21.8,0,0,1,321.73,83.36Z" transform="translate(-36.93 -10.45)"/><circle class="cls-1" cx="56.13" cy="56.38" r="13.94"/><circle class="cls-2" cx="16.94" cy="56.38" r="13.94"/><text class="cls-3" transform="translate(330.07 13.21)">TM</text></svg>