<svg height="512pt" viewBox="-11 0 512 512" width="512pt" xmlns="http://www.w3.org/2000/svg"><path d="m245 22c-135.308594 0-245 109.691406-245 245 0 56.964844 19.441406 109.382812 52.050781 150.992188l156.472657 91.300781c11.898437 1.777343 24.078124 2.707031 36.476562 2.707031 12.410156 0 24.605469-.929688 36.519531-2.710938l156.429688-91.296874c32.609375-41.609376 52.050781-94.027344 52.050781-150.992188 0-135.308594-109.691406-245-245-245zm0 0" fill="#f95a97"/><path d="m99.09375 312.296875c-14.582031 24.4375-41.601562 67.113281-48.429688 103.886719 12.148438 15.804687 26.179688 30.085937 41.765626 42.503906 1.941406-68.917969 19.296874-119.550781 50.882812-182.148438-6.40625-7.023437-12.234375-14.671874-17.398438-22.847656-4.761718 14.65625-13.03125 35.5-26.820312 58.605469zm0 0" fill="#ffac00"/><path d="m439.335938 416.183594c-6.824219-36.773438-33.847657-79.449219-48.429688-103.886719-13.789062-23.105469-22.058594-43.949219-26.820312-58.609375-5.164063 8.179688-10.992188 15.828125-17.398438 22.847656 31.585938 62.601563 48.941406 113.234375 50.882812 182.152344 15.585938-12.417969 29.617188-26.699219 41.765626-42.503906zm0 0" fill="#ffcd38"/><path d="m351.65625 278.488281c-59.0625 63.839844-154.367188 63.714844-213.3125 0-30.835938 60.867188-48.308594 110.261719-51.335938 175.75 34.425782 29.078125 76.976563 48.828125 123.765626 55.371094.136718-5.929687-2.3125-12.050781-7.882813-17.972656-6.851563-7.28125-1.726563-15.890625-1.367187-18.976563 5.390624-19.5625 23.179687-33.117187 43.472656-33.117187 20.292968 0 38.085937 13.554687 43.476562 33.117187.359375 3.085938 5.488282 11.695313-1.367187 18.976563-5.53125 5.882812-7.980469 12.007812-7.84375 17.96875 46.773437-6.546875 89.308593-26.296875 123.726562-55.367188-3.027343-65.488281-20.496093-114.882812-51.332031-175.75zm0 0" fill="#fcd981"/><path d="m225.464844 359.980469v-35.03125c-33.8125-4.738281-64.125-21.605469-87.121094-46.460938-30.835938 60.867188-48.304688 110.261719-51.335938 175.75 34.429688 29.078125 76.976563 48.828125 123.765626 55.371094.136718-5.929687-2.3125-12.050781-7.882813-17.972656-6.851563-7.28125-1.726563-15.890625-1.367187-18.976563 4.964843-18.015625 20.449218-30.925781 38.710937-32.859375-30.554687-11.542969-38.210937-55.804687-14.769531-79.820312zm0 0" fill="#ffcd38"/><path d="m157.59375 296.101562c8.546875 38.792969 44.425781 67.910157 87.40625 67.910157 42.976562 0 78.859375-29.117188 87.40625-67.910157-52.289062 40.308594-122.53125 40.304688-174.8125 0zm0 0" fill="#f95a97"/><path d="m264.09375 334.183594v-9.191406c-36.777344 5.074218-74.914062-4.542969-106.5-28.890626 8.546875 38.792969 44.425781 67.910157 87.40625 67.910157 9.210938 0 18.089844-1.347657 26.449219-3.832031-12.910157-1.476563-17.613281-17.914063-7.355469-25.996094zm0 0" fill="#dd377b"/><path d="m245 385.851562c-4.507812 0-8.160156-3.652343-8.160156-8.160156v-21.753906c0-4.507812 3.652344-8.160156 8.160156-8.160156s8.160156 3.652344 8.160156 8.160156v21.753906c-.003906 4.507813-3.652344 8.160156-8.160156 8.160156zm0 0" fill="#f970b5"/><path d="m396.230469 164.300781c0-90.742187-67.707031-164.300781-151.230469-164.300781s-151.230469 73.558594-151.230469 164.300781c0 90.738281 67.707031 164.296875 151.230469 164.296875s151.230469-73.558594 151.230469-164.296875zm0 0" fill="#fcd981"/><g fill="#ffcd38"><path d="m188.050781 127.3125c0-51.335938 21.671875-97.164062 55.617188-127.2929688-82.90625.7773438-149.898438 74.0234378-149.898438 164.2812498 0 132.625 136.800781 209.054688 235.917969 136.136719-79.050781-6.035156-141.636719-85.886719-141.636719-173.125zm0 0"/><path d="m142.074219 62.851562c-13.121094 27.097657-29.804688 73.226563-29.035157 131.566407.371094 28.324219-23.15625 51.105469-51.4375 49.492187-28.578124-1.632812-49.507812-27.429687-45.382812-55.753906 7.089844-48.683594 31.261719-117.195312 109.078125-144.089844 11.492187-3.972656 22.074219 7.839844 16.777344 18.785156zm0 0"/><path d="m347.925781 62.851562c13.121094 27.097657 29.804688 73.226563 29.035157 131.566407-.371094 28.324219 23.15625 51.105469 51.4375 49.492187 28.578124-1.632812 49.507812-27.429687 45.382812-55.753906-7.089844-48.683594-31.261719-117.195312-109.078125-144.089844-11.492187-3.972656-22.074219 7.839844-16.777344 18.785156zm0 0"/></g><path d="m349.082031 250.226562c0-47.457031-46.601562-85.925781-104.082031-85.925781s-104.082031 38.46875-104.082031 85.925781c0 47.457032 46.601562 85.925782 104.082031 85.925782s104.082031-38.46875 104.082031-85.925782zm0 0" fill="#fceccd"/><path d="m283.4375 317.304688c-81.867188 0-130.851562-80.78125-88.734375-142.320313-32.066406 14.644531-53.785156 42.847656-53.785156 75.242187 0 75.703126 110.277343 113.925782 175.949219 62.152344-10.492188 3.195313-21.734376 4.925782-33.429688 4.925782zm0 0" fill="#fcd981"/><path d="m199.480469 149.695312c-5.359375-9.28125-17.230469-12.464843-26.511719-7.105468s-12.464844 17.230468-7.105469 26.511718c5.359375 9.285157 17.230469 12.464844 26.511719 7.105469 9.285156-5.359375 12.464844-17.230469 7.105469-26.511719zm0 0" fill="#5870a1"/><path d="m182.675781 159.402344c-3.589843-6.21875-3.332031-13.585938.007813-19.390625-3.300782-.007813-6.648438.8125-9.710938 2.582031-9.285156 5.359375-12.464844 17.230469-7.105468 26.511719 5.359374 9.285156 17.230468 12.464843 26.511718 7.105469 3.066406-1.769532 5.449219-4.257813 7.097656-7.117188-6.699218-.011719-13.210937-3.472656-16.800781-9.691406zm0 0" fill="#1a2b63"/><path d="m215.050781 267.890625c-2.113281-3.980469-.597656-8.917969 3.382813-11.03125l18.410156-9.769531v-15.710938c0-4.507812 3.652344-8.160156 8.15625-8.160156 4.507812 0 8.160156 3.652344 8.160156 8.160156v20.617188c0 3.019531-1.667968 5.792968-4.335937 7.207031l-22.742188 12.070313c-3.996093 2.121093-8.929687.582031-11.03125-3.382813zm0 0" fill="#ffac00"/><path d="m263.917969 271.273438-22.742188-12.066407c-2.667969-1.417969-4.335937-4.1875-4.335937-7.207031v-20.621094c0-4.507812 3.652344-8.160156 8.160156-8.160156s8.160156 3.652344 8.160156 8.160156v15.714844l18.40625 9.765625c3.980469 2.113281 5.496094 7.050781 3.382813 11.03125-2.105469 3.96875-7.039063 5.5-11.03125 3.382813zm0 0" fill="#ffcd38"/><path d="m473.78125 188.15625c-3.101562-21.304688-9.480469-46.414062-22.191406-70.167969 6.621094 26.75-13.59375 52.65625-41.179688 52.65625-15.308594 0-28.722656-8.113281-36.183594-20.273437 1.886719 13.726562 2.9375 28.445312 2.734376 44.046875-.375 28.324219 23.15625 51.105469 51.4375 49.492187 28.574218-1.632812 49.507812-27.429687 45.382812-55.753906zm0 0" fill="#ffac00"/><path d="m115.773438 150.371094c-7.460938 12.160156-20.875 20.273437-36.183594 20.273437-27.546875 0-47.808594-25.871093-41.179688-52.65625-12.714844 23.753907-19.089844 48.863281-22.191406 70.167969-4.125 28.324219 16.808594 54.121094 45.382812 55.753906 28.28125 1.613282 51.808594-21.167968 51.4375-49.492187-.207031-15.601563.84375-30.320313 2.734376-44.046875zm0 0" fill="#ffac00"/><path d="m324.121094 149.695312c-5.359375-9.28125-17.226563-12.464843-26.511719-7.105468-9.28125 5.359375-12.460937 17.230468-7.101563 26.511718 5.359376 9.285157 17.230469 12.464844 26.511719 7.105469s12.460938-17.230469 7.101563-26.511719zm0 0" fill="#5870a1"/><path d="m307.324219 159.402344c-3.589844-6.21875-3.332031-13.585938.007812-19.390625-3.304687-.007813-6.648437.8125-9.714843 2.582031-9.28125 5.359375-12.464844 17.230469-7.101563 26.511719 5.355469 9.285156 17.226563 12.464843 26.511719 7.105469 3.0625-1.769532 5.445312-4.257813 7.09375-7.117188-6.695313-.011719-13.207032-3.472656-16.796875-9.691406zm0 0" fill="#1a2b63"/><path d="m245.988281 257.421875c0-5.054687 4.097657-9.15625 9.15625-9.15625.085938 0 .167969.011719.253907.015625l-2.242188-1.1875v-15.714844c0-4.507812-3.652344-8.160156-8.15625-8.160156-4.507812 0-8.160156 3.652344-8.160156 8.160156v20.621094c0 3.019531 1.667968 5.789062 4.335937 7.207031l6.433594 3.414063c-1.019531-1.476563-1.621094-3.265625-1.621094-5.199219zm0 0" fill="#ffac00"/><path d="m277.347656 211.96875c0-10.71875-14.484375-19.40625-32.347656-19.40625s-32.347656 8.6875-32.347656 19.40625 14.484375 19.410156 32.347656 19.410156 32.347656-8.691406 32.347656-19.410156zm0 0" fill="#5870a1"/><path d="m255.8125 193.675781c-3.382812-.71875-7.019531-1.113281-10.8125-1.113281-17.863281 0-32.347656 8.6875-32.347656 19.40625s14.484375 19.410156 32.347656 19.410156c3.792969 0 7.429688-.398437 10.8125-1.117187-14.378906-6.070313-14.386719-30.511719 0-36.585938zm0 0" fill="#1a2b63"/></svg>