<svg id="Layer_1" data-name="Layer 1" xmlns="http://www.w3.org/2000/svg" viewBox="0 0 738 687.69"><defs><style>.cls-1{fill:none;stroke:#000;stroke-miterlimit:10;stroke-width:8px;}</style></defs><title>Data Lineage</title><path d="M118.8,717.69c-.1-1.18-1.22-.87-1.86-1.15-7.22-3.09-11.53-8.44-12.18-16.31-.63-7.68,2.56-13.66,9-17.86a18.54,18.54,0,0,1,9.83-2.82,1.72,1.72,0,0,0,1.84-1.35q10.86-29.4,21.78-58.76c.38-1,.23-1.54-.72-2.06a61.46,61.46,0,0,1-11.93-8.59c-.76-.7-1.29-.57-2-.06q-13.35,8.88-26.74,17.68a1.8,1.8,0,0,0-.8,2.17c2,11.66-5.14,21.74-16.76,23.6-10.4,1.67-20.8-6.07-22.35-16.63-1.6-10.94,6-21.26,16.65-22.69a19.65,19.65,0,0,1,15.32,4.08,1.59,1.59,0,0,0,2.22.12q12.42-8.29,24.91-16.48c.94-.62,1-1.08.37-2A65.22,65.22,0,0,1,114,574c-.24-1.08-.7-1.38-1.77-1.26q-21.75,2.47-43.52,4.85c-1.46.16-2,.62-2.34,2.19-2.27,12.53-12.74,21.51-25,21.58-12.8.08-23.42-8.4-25.92-20.68a25.88,25.88,0,0,1,49-15.69c.65,1.47,1.3,1.95,2.92,1.76q21.75-2.49,43.53-4.82c1.52-.16,1.4-1.1,1.37-2.1a63.76,63.76,0,0,1,2.51-19.47,62.88,62.88,0,0,1,7-16c.65-1.05.64-1.63-.46-2.38q-5.65-3.9-11.17-8a2,2,0,0,0-2.78,0,25.77,25.77,0,0,1-39.81-16.4c-3-13.88,6.54-27.77,20.79-30.39,14-2.58,27.86,7.2,30,21.12a25.45,25.45,0,0,1-1.9,14.77,1.63,1.63,0,0,0,.68,2.42c3.7,2.58,7.37,5.22,11,7.88a1.23,1.23,0,0,0,2-.17,65.85,65.85,0,0,1,32.88-19.54c1.5-.38,1.25-1.27,1.08-2.25q-2.4-14.13-4.81-28.25c-1.56-9.15-3.15-18.3-4.66-27.46-.24-1.47-.67-2.23-2.32-2.6a17.36,17.36,0,0,1-2.65-32.9c.66-.28,1.31-.59,2-.9,0,0,.1-.15.08-.17a2.21,2.21,0,0,0-.29-.22h10c-.23,1.21.89.92,1.39,1.12a17.44,17.44,0,0,1,9.3,23.8,16.72,16.72,0,0,1-5.8,6.7,2.05,2.05,0,0,0-1,2.43q4.92,28.53,9.69,57.08c.23,1.34.77,1.73,2.07,1.66a63.38,63.38,0,0,1,22.56,3c1.25.39,1.62,0,2-1,3.47-9.67,7-19.34,10.51-29,.44-1.21,0-1.79-.72-2.59a13.93,13.93,0,1,1,13.2,4.51,2.47,2.47,0,0,0-2.21,1.82Q217.1,483.21,211.68,498c-.42,1.14-.28,1.71.84,2.33a65.69,65.69,0,0,1,20.3,17.63c.71.92,1.24,1.08,2.27.46q17.53-10.44,35.13-20.76c1.29-.75,1-1.53.82-2.61a23.37,23.37,0,1,1,7.41,12.64,2.25,2.25,0,0,0-3.2-.32q-17,10.17-34.09,20.17c-1.29.76-1.52,1.31-.85,2.7a65.37,65.37,0,0,1,6.3,32.86c-.1,1.69.19,2.42,2.06,2.68q21.87,3.07,43.71,6.39c1.34.2,1.56-.63,2-1.39a20.07,20.07,0,0,1,36.47,16.16c-2.84,9-10.9,14.45-20.58,14a19.86,19.86,0,0,1-18.1-15.63c-.39-1.9-1.23-2.4-2.92-2.64q-21.57-3.09-43.12-6.31c-1.22-.18-1.78.09-2.11,1.33a57,57,0,0,1-5.16,12.68c-.56,1-.52,1.55.52,2.21,7.75,4.88,15.49,9.78,23.16,14.78,1.24.81,1.79.09,2.55-.48a27.83,27.83,0,1,1-10.73,25.78,26.15,26.15,0,0,1,1.89-14.24c.61-1.35.26-2-.89-2.68q-10.95-6.9-21.82-13.92c-1.18-.77-1.8-.71-2.73.4a66,66,0,0,1-29.15,20.07c-1.56.55-1.85,1.24-1.6,2.72,1.3,7.58,2.57,15.17,3.74,22.78a2.51,2.51,0,0,0,2.35,2.5,19.76,19.76,0,0,1,11,32.3c-5.47,6.32-12.58,8.38-20.53,6.11-8.24-2.35-13.14-8.13-14.2-16.66-1-8.12,2.22-14.55,9-19.06,1.52-1,1.93-1.81,1.6-3.61-1.33-7.3-2.5-14.64-3.63-22-.21-1.39-.58-2-2.1-1.78A65.93,65.93,0,0,1,159,622.85c-1.45-.48-1.53.53-1.83,1.34q-5.1,13.71-10.15,27.43c-3.69,10-7.36,19.9-11.11,29.83a2.49,2.49,0,0,0,.75,3.22,19.07,19.07,0,0,1-6.51,32c-.48.18-1.55-.16-1.38,1ZM235.87,559.07a56.3,56.3,0,0,0-112.56-2.23c-1.08,31.45,23.79,57.65,54.81,58.25C209.75,615.7,235.12,591.1,235.87,559.07Zm29.22,69.83a16.87,16.87,0,1,0,17-16.72A17.06,17.06,0,0,0,265.09,628.9ZM26,575.28a14.94,14.94,0,1,0,14.91-14.75A14.93,14.93,0,0,0,26,575.28Zm67.08-97.44A14.84,14.84,0,1,0,93,507.51a14.84,14.84,0,0,0,.06-29.67Zm213.18,12.37a12.4,12.4,0,0,0-24.79-.08,12.4,12.4,0,0,0,24.79.08Zm14.57,90.68a9.12,9.12,0,0,0-9.16-9.07,9.09,9.09,0,1,0,.05,18.17A9.08,9.08,0,0,0,320.8,580.89ZM85.56,623.61a8.89,8.89,0,1,0,8.87,8.86A8.94,8.94,0,0,0,85.56,623.61ZM211,669.71a8.87,8.87,0,1,0-8.86,8.87A9,9,0,0,0,211,669.71Zm-87.19,37a8.14,8.14,0,0,0,8.08-8.15,8.26,8.26,0,0,0-8.23-8,8.09,8.09,0,1,0,.15,16.18Zm32.72-296.81a6.3,6.3,0,0,0-6.43,6.21,6.4,6.4,0,0,0,6.32,6.56,6.39,6.39,0,1,0,.11-12.77Zm65.41,46a2.94,2.94,0,1,0-.09-5.88,3,3,0,0,0-2.81,3A2.94,2.94,0,0,0,221.93,455.91Z" transform="translate(-15 -30)"/><path d="M244.34,348.74c-.11-1.19-1.22-.87-1.87-1.15-7.22-3.09-11.52-8.44-12.18-16.31-.63-7.68,2.56-13.67,9-17.86a18.54,18.54,0,0,1,9.82-2.83,1.71,1.71,0,0,0,1.84-1.35q10.86-29.39,21.78-58.75c.38-1,.23-1.55-.72-2.07a61.83,61.83,0,0,1-11.93-8.58c-.76-.7-1.29-.57-2.05-.06q-13.35,8.88-26.74,17.68a1.79,1.79,0,0,0-.8,2.17c2,11.65-5.14,21.74-16.75,23.6-10.41,1.67-20.81-6.08-22.36-16.63-1.6-10.94,6-21.26,16.65-22.69A19.69,19.69,0,0,1,223.37,248a1.59,1.59,0,0,0,2.23.13q12.42-8.3,24.9-16.48c.94-.62,1.05-1.08.37-2A65.44,65.44,0,0,1,239.56,205c-.24-1.08-.7-1.38-1.76-1.26q-21.77,2.46-43.53,4.85a2.21,2.21,0,0,0-2.34,2.18c-2.27,12.53-12.74,21.52-25,21.59-12.81.07-23.43-8.4-25.92-20.69a25.88,25.88,0,0,1,49-15.69c.64,1.48,1.29,2,2.91,1.77q21.75-2.5,43.53-4.82c1.52-.17,1.4-1.1,1.37-2.1a63.76,63.76,0,0,1,2.51-19.47,62.72,62.72,0,0,1,7-16c.65-1,.64-1.63-.46-2.39q-5.65-3.89-11.17-8a2,2,0,0,0-2.78,0,25.78,25.78,0,0,1-39.81-16.4c-3-13.89,6.54-27.77,20.79-30.4,14-2.58,27.86,7.21,30,21.13a25.37,25.37,0,0,1-1.9,14.77,1.63,1.63,0,0,0,.69,2.42q5.55,3.87,11,7.88a1.23,1.23,0,0,0,2-.17,65.87,65.87,0,0,1,32.88-19.55c1.5-.37,1.25-1.26,1.08-2.24q-2.4-14.13-4.81-28.25c-1.56-9.15-3.15-18.3-4.66-27.46-.24-1.47-.67-2.24-2.32-2.61a17.35,17.35,0,0,1-2.65-32.89c.67-.28,1.31-.6,2-.9a.24.24,0,0,0,.09-.17c-.09-.08-.2-.15-.29-.22h10c-.23,1.21.89.92,1.39,1.12a17.44,17.44,0,0,1,9.3,23.8,16.64,16.64,0,0,1-5.8,6.7,2.05,2.05,0,0,0-1,2.43q4.92,28.53,9.69,57.08c.23,1.34.77,1.72,2.07,1.66a63.38,63.38,0,0,1,22.56,3c1.26.39,1.62,0,2-1,3.47-9.68,6.95-19.35,10.51-29,.44-1.2,0-1.78-.72-2.58a13.93,13.93,0,1,1,13.2,4.5,2.47,2.47,0,0,0-2.2,1.83q-5.32,14.79-10.74,29.54c-.41,1.14-.28,1.72.84,2.34A65.73,65.73,0,0,1,358.36,149c.7.92,1.23,1.07,2.26.46q17.53-10.44,35.13-20.76c1.29-.75,1-1.53.82-2.61A23.37,23.37,0,1,1,404,138.7a2.25,2.25,0,0,0-3.2-.31q-17,10.16-34.09,20.17c-1.29.76-1.52,1.31-.85,2.7a65.35,65.35,0,0,1,6.3,32.85c-.1,1.7.19,2.42,2.06,2.69q21.87,3.06,43.71,6.39c1.34.2,1.56-.63,2-1.4A20.08,20.08,0,0,1,456.4,218c-2.84,8.95-10.9,14.45-20.58,14a19.87,19.87,0,0,1-18.1-15.64c-.38-1.89-1.23-2.39-2.92-2.63q-21.57-3.09-43.12-6.31c-1.22-.19-1.77.08-2.11,1.32a57.11,57.11,0,0,1-5.16,12.69c-.56,1-.52,1.55.52,2.21,7.75,4.88,15.49,9.78,23.16,14.78,1.24.8,1.79.09,2.55-.48a27.82,27.82,0,1,1-10.73,25.77,26,26,0,0,1,1.9-14.23c.6-1.36.25-2-.9-2.68q-10.95-6.9-21.82-13.92c-1.18-.77-1.8-.72-2.73.4a65.87,65.87,0,0,1-29.15,20.07c-1.56.55-1.85,1.24-1.6,2.72,1.3,7.58,2.58,15.17,3.74,22.78a2.52,2.52,0,0,0,2.35,2.5,19.75,19.75,0,0,1,11,32.29c-5.47,6.33-12.58,8.39-20.53,6.12-8.24-2.35-13.14-8.13-14.2-16.67-1-8.11,2.22-14.55,9-19,1.52-1,1.93-1.81,1.6-3.61-1.33-7.31-2.5-14.64-3.63-22-.21-1.38-.58-1.95-2.1-1.78a65.72,65.72,0,0,1-28.3-2.77c-1.46-.47-1.54.54-1.84,1.35q-5.08,13.71-10.15,27.43c-3.69,9.95-7.36,19.9-11.11,29.82a2.51,2.51,0,0,0,.75,3.23,19.07,19.07,0,0,1-6.51,32c-.48.18-1.55-.16-1.37,1ZM361.4,190.12a56.3,56.3,0,0,0-112.56-2.23c-1.08,31.44,23.79,57.64,54.81,58.25C335.29,246.75,360.65,222.15,361.4,190.12ZM390.63,260a16.86,16.86,0,1,0,17-16.72A17,17,0,0,0,390.63,260ZM151.5,206.32a14.94,14.94,0,1,0,14.92-14.75A14.93,14.93,0,0,0,151.5,206.32Zm67.08-97.43a14.83,14.83,0,1,0-.06,29.66,14.83,14.83,0,0,0,.06-29.66Zm213.18,12.37a12.4,12.4,0,0,0-24.79-.08,12.4,12.4,0,0,0,24.79.08Zm14.57,90.68a9.11,9.11,0,0,0-9.16-9.07,9.08,9.08,0,1,0,.05,18.16A9.05,9.05,0,0,0,446.33,211.94ZM211.09,254.66a8.88,8.88,0,1,0,8.87,8.86A8.94,8.94,0,0,0,211.09,254.66Zm125.43,46.1a8.87,8.87,0,1,0-8.86,8.86A9,9,0,0,0,336.52,300.76Zm-87.18,37a8.13,8.13,0,0,0,8.07-8.14,8.25,8.25,0,0,0-8.22-8,8.15,8.15,0,0,0-8,8.18A8.06,8.06,0,0,0,249.34,337.77ZM282.05,41a6.3,6.3,0,0,0-6.43,6.21,6.41,6.41,0,0,0,6.32,6.56,6.53,6.53,0,0,0,6.49-6.45A6.46,6.46,0,0,0,282.05,41Zm65.41,46a2.94,2.94,0,1,0-.09-5.88,3,3,0,0,0-2.81,3A3,3,0,0,0,347.46,87Z" transform="translate(-15 -30)"/><path d="M505,610.74c-.12-1.38-1.42-1-2.16-1.34-8.42-3.6-13.43-9.83-14.19-19-.74-8.95,3-15.92,10.5-20.8a21.53,21.53,0,0,1,11.44-3.29,2,2,0,0,0,2.15-1.58q12.63-34.22,25.35-68.41c.44-1.19.27-1.81-.83-2.41a71.32,71.32,0,0,1-13.89-10c-.89-.81-1.5-.66-2.4-.07q-15.54,10.33-31.13,20.59a2.1,2.1,0,0,0-.94,2.53c2.37,13.57-6,25.31-19.51,27.48-12.11,1.94-24.23-7.08-26-19.37-1.86-12.74,7-24.75,19.39-26.42a22.88,22.88,0,0,1,17.84,4.75,1.84,1.84,0,0,0,2.59.14q14.46-9.65,29-19.19c1.1-.72,1.23-1.26.43-2.33a76,76,0,0,1-13.16-28.63c-.29-1.27-.82-1.61-2.06-1.47q-25.33,2.88-50.68,5.64c-1.71.19-2.4.73-2.73,2.55-2.65,14.59-14.84,25.06-29.06,25.14-14.91.08-27.28-9.79-30.19-24.09a30.14,30.14,0,0,1,57.09-18.27c.75,1.72,1.5,2.27,3.39,2.06q25.33-2.91,50.69-5.62c1.77-.19,1.63-1.28,1.6-2.45a74.16,74.16,0,0,1,2.92-22.66,73.24,73.24,0,0,1,8.13-18.63c.76-1.22.74-1.9-.53-2.78q-6.6-4.53-13-9.31c-1.24-.93-2-.75-3.24,0-18.17,12-41.82,2.24-46.36-19.1-3.44-16.17,7.62-32.34,24.21-35.39,16.31-3,32.44,8.38,35,24.59a29.7,29.7,0,0,1-2.21,17.21c-.62,1.36-.34,2,.79,2.81q6.47,4.51,12.82,9.19a1.43,1.43,0,0,0,2.29-.21,76.71,76.71,0,0,1,38.3-22.76c1.74-.44,1.45-1.47,1.25-2.61q-2.79-16.45-5.6-32.89c-1.82-10.66-3.67-21.32-5.43-32-.28-1.72-.78-2.61-2.7-3a20.2,20.2,0,0,1-3.08-38.3c.77-.33,1.52-.7,2.28-1.06a.3.3,0,0,0,.1-.19c-.1-.1-.23-.17-.34-.26h11.6c-.27,1.41,1,1.07,1.62,1.3a20.32,20.32,0,0,1,10.83,27.72,19.38,19.38,0,0,1-6.75,7.8,2.38,2.38,0,0,0-1.19,2.83q5.73,33.23,11.29,66.48c.26,1.56.89,2,2.41,1.92a74,74,0,0,1,26.27,3.45c1.46.46,1.88,0,2.32-1.21,4.05-11.26,8.1-22.52,12.24-33.75.52-1.4,0-2.08-.84-3a16.21,16.21,0,0,1-2.1-18.2c3.16-6,9.37-9.17,16.47-8.47a16.18,16.18,0,0,1,1,31.92,2.87,2.87,0,0,0-2.57,2.12q-6.2,17.22-12.5,34.41c-.49,1.32-.33,2,1,2.72a76.4,76.4,0,0,1,23.65,20.52c.82,1.08,1.44,1.26,2.64.54q20.42-12.16,40.91-24.18c1.5-.87,1.2-1.78,1-3a27.22,27.22,0,1,1,8.63,14.71c-1.35-1.2-2.22-1.27-3.72-.37q-19.8,11.84-39.7,23.49c-1.51.88-1.77,1.52-1,3.14a76.11,76.11,0,0,1,7.33,38.26c-.12,2,.22,2.82,2.4,3.13q25.47,3.57,50.9,7.44c1.56.23,1.82-.73,2.35-1.62a23.38,23.38,0,0,1,42.47,18.82c-3.3,10.43-12.69,16.83-24,16.35a23.13,23.13,0,0,1-21.08-18.2c-.45-2.21-1.44-2.8-3.4-3.08q-25.11-3.58-50.21-7.34c-1.42-.22-2.07.1-2.46,1.54a66.07,66.07,0,0,1-6,14.77c-.66,1.2-.62,1.81.6,2.58,9,5.68,18,11.39,27,17.21,1.44.94,2.08.1,3-.56a32.41,32.41,0,1,1-12.49,30,30.21,30.21,0,0,1,2.2-16.57c.71-1.58.3-2.28-1-3.13q-12.76-8-25.41-16.21c-1.37-.89-2.1-.82-3.19.47a76.76,76.76,0,0,1-33.94,23.38c-1.82.63-2.16,1.44-1.86,3.16,1.51,8.83,3,17.67,4.36,26.53a2.92,2.92,0,0,0,2.73,2.91,23,23,0,0,1,12.8,37.61c-6.37,7.36-14.65,9.76-23.91,7.12-9.59-2.74-15.3-9.47-16.54-19.41-1.17-9.45,2.59-16.94,10.48-22.19,1.77-1.18,2.26-2.11,1.87-4.2-1.55-8.51-2.91-17.05-4.23-25.6-.25-1.62-.67-2.28-2.45-2.07a76.82,76.82,0,0,1-33-3.23c-1.7-.56-1.79.62-2.14,1.57q-5.92,16-11.82,31.93c-4.3,11.59-8.57,23.18-12.94,34.74a2.9,2.9,0,0,0,.88,3.75,22.22,22.22,0,0,1-7.59,37.28c-.55.21-1.81-.19-1.6,1.18ZM641.29,426a65.56,65.56,0,0,0-131.07-2.6c-1.26,36.62,27.7,67.13,63.83,67.84C610.89,492,640.42,463.32,641.29,426Zm34,81.32a19.64,19.64,0,1,0,19.78-19.47A19.84,19.84,0,0,0,675.33,507.34ZM396.87,444.89a17.4,17.4,0,1,0,17.37-17.17A17.39,17.39,0,0,0,396.87,444.89ZM475,331.43a17.28,17.28,0,1,0-.07,34.55,17.28,17.28,0,0,0,.07-34.55Zm248.25,14.4a14.44,14.44,0,0,0-28.87-.09,14.44,14.44,0,0,0,28.87.09Zm17,105.6a10.62,10.62,0,0,0-10.67-10.56,10.58,10.58,0,1,0,.06,21.15A10.55,10.55,0,0,0,740.2,451.43ZM466.26,501.18a10.35,10.35,0,1,0,10.33,10.32A10.42,10.42,0,0,0,466.26,501.18Zm146.06,53.68A10.33,10.33,0,1,0,602,565.19,10.45,10.45,0,0,0,612.32,554.86ZM510.8,598a9.48,9.48,0,0,0,9.4-9.49,9.59,9.59,0,0,0-9.58-9.34A9.42,9.42,0,1,0,510.8,598Zm38.09-345.63a7.32,7.32,0,0,0-7.48,7.23,7.46,7.46,0,0,0,7.35,7.64,7.61,7.61,0,0,0,7.56-7.51A7.52,7.52,0,0,0,548.89,252.34Zm76.17,53.56a3.43,3.43,0,1,0-.1-6.85,3.51,3.51,0,0,0-3.27,3.48A3.44,3.44,0,0,0,625.06,305.9Z" transform="translate(-15 -30)"/><line class="cls-1" x1="209.68" y1="412.62" x2="231.51" y2="313.28"/><line class="cls-1" x1="250.61" y1="207.95" x2="139.27" y2="373.86"/><line class="cls-1" x1="476.57" y1="560.52" x2="296.46" y2="462.28"/><line class="cls-1" x1="434" y1="322.56" x2="328.11" y2="283.26"/><line class="cls-1" x1="434" y1="322.56" x2="294.27" y2="452.46"/></svg>