<svg id="Layer_1" data-name="Layer 1" xmlns="http://www.w3.org/2000/svg" viewBox="0 0 662.08 662.24"><title>Data tagging</title><path d="M92.56,624.43v22.25h7.25q176.49,0,353-.09a15.23,15.23,0,0,1,12,5c19.82,20.09,39.89,39.94,60.8,60.81H48.72V51.4H412V183.22H555.31v186.6L501.85,316h9.23V294.14H92.74v21.35h224c-14.06,12.73-16,27.61-14.46,44.1H92.84v22.15H301.47V426H92.74v21.93H301.55c1.49,15-2.38,30.16,6.9,44.25H92.8v22.17h8.42q110.31,0,220.62-.1a14.41,14.41,0,0,1,11.41,4.71c12.51,12.81,25.33,25.33,39.2,39.14H92.82v22.44h7.58q142.37,0,284.73-.13c5.93,0,10.2,1.52,14.38,5.88,12.05,12.55,24.61,24.62,38.27,38.16ZM511.24,228H92.93v21.28H511.24ZM92.69,116.72H367.84V95.52H92.69Zm-.3,66.17H367.83v-21.2H92.61c-.08,1.66-.21,3-.21,4.31C92.38,171.48,92.39,177,92.39,182.89Z" transform="translate(-48.72 -51.4)"/><path d="M710.55,556.79,557.1,713.64c-9.28-9.46-17.67-18.14-26.19-26.71Q432,587.48,333,488.12a29,29,0,0,1-9.06-22.07c.27-38.83.1-77.66.12-116.48,0-14.63,7.79-22.68,22.44-22.73,41.13-.11,82.26-.27,123.38.25,5.39.06,12.11,2.6,15.9,6.35q112.54,111.17,224.46,223C710.7,556.87,711.07,557.46,710.55,556.79ZM368.44,390.62a22,22,0,0,0,21.78-22,22,22,0,1,0-44.07.55A21.91,21.91,0,0,0,368.44,390.62Z" transform="translate(-48.72 -51.4)"/><path d="M434.52,160.73V65.47l95,95.26Z" transform="translate(-48.72 -51.4)"/></svg>