<svg id="Layer_1" data-name="Layer 1" xmlns="http://www.w3.org/2000/svg" viewBox="0 0 502.5 721.89"><defs><style>.cls-1{fill:#29abe2;}</style></defs><title>Fingerprint Blue</title><path class="cls-1" d="M148.75,448c-1.5-6,1.92-10.68,9.4-12.18,54.94-12.35,105.76-33.72,149.64-69.47a241.89,241.89,0,0,0,74.44-98.18c2-5.34,5.35-9.14,10.69-7.53,3.58,1.07,6.41,4.81,9.35,7.16-1.55,4.33-2.35,6.79-3.31,9.14-21.38,52.58-58,92.56-105.12,123.34a391.89,391.89,0,0,1-132,54C154.94,455.86,150.19,453.57,148.75,448Zm7.37,37.79c-1.28-5.35,2.3-10.21,9.3-11.71a435.79,435.79,0,0,0,89.94-29.81c56.12-25.87,104.16-61.78,138.15-114.15a364,364,0,0,0,25.76-49.87c6.89-15.44-.38-30.88-16-37.4a27.2,27.2,0,0,0-36.47,12.24h0c-.35.69-.66,1.4-.94,2.12C336,329.9,279.12,372.66,208.52,400.07c-16.35,6.31-33.56,10.69-50.39,15.34-5.35,1.6-10.69,1.44-13.68-5s.69-10.69,8.33-13.31c21.38-6.73,42.76-12.34,63.33-20.79,43.77-18.06,81.55-44.78,108.86-84.06a307.06,307.06,0,0,0,22.82-41.9c8.93-18.44,22.82-28.64,36.88-28.91,42.75,0,65.57,33.45,52.26,67C412.21,351,369.46,398.36,313.45,434.38a436.11,436.11,0,0,1-144.61,58.47,9.74,9.74,0,0,1-12.4-6h0a10.12,10.12,0,0,1-.32-1.11ZM170.66,529a10,10,0,0,1-4.17-8.56,14.54,14.54,0,0,1,8-8.28c22.08-7,44.79-12.24,66.54-20.15,64.13-23.51,120.51-59.64,164.81-112.71a292.88,292.88,0,0,0,50.52-86.43,66.91,66.91,0,0,0-38.59-86.31c-34.84-14-73.37,0-87.32,34.31-21.91,53.44-61.57,89-112.6,112.65a552.42,552.42,0,0,1-62.8,22.29,15.15,15.15,0,0,1-11.86-2.94,10.25,10.25,0,0,1-.64-10,20.31,20.31,0,0,1,9.81-5.77c20.79-7.75,42.33-14,62.47-23.19a186.37,186.37,0,0,0,75.14-60,228.84,228.84,0,0,0,21.86-39.12,85.5,85.5,0,0,1,82.62-52.53,90.84,90.84,0,0,1,86.91,87.25,271.51,271.51,0,0,1-8.49,33.08c-30.25,77.07-84.28,133.23-155,174.49a475.33,475.33,0,0,1-136.6,52.69A16,16,0,0,1,170.66,529ZM462.93,732.8c-2.62,5.34-7.27,6.31-13.73,3.31-7.65-3.58-15-7.85-22.88-10.69a24.24,24.24,0,0,0-14.8-1.87c-18.87,6.79-37.41,14.81-55.9,22.34h-5.35c-10-8.33-8.65-15.55,3.64-20.36,15.44-6.09,30.94-12.18,46.33-18.44a40.32,40.32,0,0,1,35.92,1.61c7,3.74,14.32,6.89,21.37,10.69a9.66,9.66,0,0,1,5.84,12.35v0A7.85,7.85,0,0,1,462.93,732.8Zm40.72-24.16a9.79,9.79,0,0,1-12.77,5.29h0a9.16,9.16,0,0,1-1.43-.73c-19.4-9.3-39-18.49-58-28.54a29.5,29.5,0,0,0-27.89-.91c-30.41,12.83-61.19,24.8-91.82,37.09a31.92,31.92,0,0,1-5.37,1.87,9.46,9.46,0,0,1-6.52-17.64c2.94-1.39,6.2-2.19,9.19-3.42,29.34-11.76,58.79-23.67,88-35.38,6.68-2.62,13.68-4.49,21-6.84,6.36,2.3,12.66,4.06,18.49,6.84,20.31,9.73,40.4,19.78,60.6,29.66,6.58,3.21,8.77,7.49,6.52,12.72Zm29.45-26.72a9.35,9.35,0,0,1-12,5.53,9.24,9.24,0,0,1-2.09-1.09c-26.72-13.26-53.44-26.72-80.48-40.24a74.22,74.22,0,0,1-8-4.55,21.37,21.37,0,0,0-24.31-.42,796.23,796.23,0,0,1-127,53c-1.55.48-3.1,1.12-4.65,1.55a9.51,9.51,0,0,1-7.65-17.42,8.8,8.8,0,0,1,1.82-.59c19.35-7.06,39.07-13.26,58.09-21.38,23.36-9.73,46.12-20.9,69.48-31.21,7.43-3.31,15.12-5.88,22.71-8.82,6.25,2.41,11.92,4,17.05,6.58,30.57,15.33,61,30.94,91.6,46.38a9.19,9.19,0,0,1,6,11.52v0a9.48,9.48,0,0,1-.51,1.28Zm25-29.76c-2.08,5.34-7.86,6.89-14.38,4.32A445.08,445.08,0,0,1,439,599.62c-12.24-9.14-21.38-9.46-34.42-1.17C356.46,629.28,303,648.63,249.1,666.37c-7,2.3-11.86,0-13.73-5.66s1.06-10.1,8.12-12.46a817.42,817.42,0,0,0,113.62-44.94c15.44-7.86,30.25-17,45.53-25.17,6.09-3.26,12.77-5.35,19.77-8.39a135.74,135.74,0,0,1,18.6,8.92,521.34,521.34,0,0,0,93.9,53.45c5.34,2.24,10.69,4.43,16,6.78,6.89,3,9.46,8,7.16,13.36Zm20.63-32.07a9.14,9.14,0,0,1-11.8,5.28h0a8.91,8.91,0,0,1-1.13-.52c-6.52-2.57-13-5.35-19.51-8-40.67-17.58-79.42-38.31-111.85-69.47a62.69,62.69,0,0,0-8.88-5.93,78.71,78.71,0,0,0-10.42,5.34C358,587.35,293.46,611.72,227.51,633.21a10.6,10.6,0,0,0-2,.64c-6.68,1.66-11.44-.43-12.83-6.2A9.3,9.3,0,0,1,218.82,616h0a8.56,8.56,0,0,1,1-.24c14.86-5.35,29.77-10,44.52-15.24C314,582.81,361.82,561.49,405,530.71a88.37,88.37,0,0,1,10.37-6,21,21,0,0,1,23.78,1.92,62.8,62.8,0,0,1,5.26,4.37c35.44,34.21,78.35,56,123.46,74.13l4.54,1.87c6.2,3.1,8.76,8.17,6.36,13.25ZM596.1,586.8a9,9,0,0,1-11.55,5.35l-.06,0c-.25-.09-.5-.2-.74-.31-44.51-17.58-87.38-38.05-122.11-72.15a271.14,271.14,0,0,1-20.28-23.35c-7.16-8.87-9.72-9.14-19-2.14-14.91,11.33-29.45,23.36-45.21,33.51-47.61,30.67-100,50.93-153.69,68.31-5.35,1.66-10.26,3.26-15.45,4.76-6.89,2-11.92-.27-13.57-5.88s1.33-9.94,7.8-12.19c23.25-8,46.76-15.44,69.47-24.15,51.79-19.77,100.42-45.27,142.48-82.19a130,130,0,0,1,19-11.71A62.85,62.85,0,0,1,443.36,470a31.33,31.33,0,0,1,6.79,7.05c27.31,40.08,66.53,64.72,109.55,84.33,10,4.54,20.31,8.5,30.41,12.93a9.27,9.27,0,0,1,6,12.62Zm12.13-32.07a15.22,15.22,0,0,1-12,1.66c-23.4-11.28-47.13-22.18-69.47-35.38a169.37,169.37,0,0,1-64.13-65.63A226,226,0,0,1,453,434.33c-4.81-11.81-6-12.24-14.86-3.37A464.87,464.87,0,0,1,363,492.31c-52.8,34.31-110.46,57.5-170.69,74.82l-3.32.8a9,9,0,0,1-9.4-8,9.42,9.42,0,0,1,7.26-11.15h.11c12.51-3.95,25.12-7.54,37.41-11.7,64.72-22,125.06-52.11,176.73-97.7,9.73-8.55,18.71-17.79,28.17-26.72A102.78,102.78,0,0,1,442,402c8.45-5.67,16.36-3.21,20.9,5.93a34,34,0,0,1,2.4,5.82C478,456.51,505.33,487.18,543,509c19,11.06,39.33,19.77,58.78,29.77a17.56,17.56,0,0,1,8.18,6.78,10,10,0,0,1-1.71,9.41Zm13-36.45a9.41,9.41,0,0,1-12.29,3.8c-35.92-15.18-70.17-32.92-96.2-63-23.94-27.63-32.06-60.23-27.84-95.77,2.83-24.9,7.59-49.59,11.06-74.44,4.44-31.43,1.07-61.46-18.76-87.7a105.11,105.11,0,0,0-147.37-19.46h0l-.28.21a133.16,133.16,0,0,0-38.64,46.82c-9.46,18.7-19.18,37.08-34.09,52.21-21.75,22.18-49.33,33.61-78.13,42.75-8,2.57-16,4.92-24.27,7-6.94,1.82-11.49-.48-13-5.93s1.13-10.1,8.18-12.4c15.61-5,31.37-9.62,46.76-15.23a124.5,124.5,0,0,0,72.42-67A160.17,160.17,0,0,1,309.12,174c38.32-32.6,81.82-42.33,129.28-24.8,46,17.05,70.6,52.27,77.44,100.36.75,5.35.59,11.23.8,16.89h1.5c-3.64,24.11-8,48.1-10.69,72.26a307.58,307.58,0,0,0-2.89,56c1.87,28,17.42,49.49,38.48,67.13a285.42,285.42,0,0,0,72.15,41.89c7.32,3.85,9.72,9.3,6.09,14.86Zm9.67-36.23a8.12,8.12,0,0,1-10,5.56h0l-.64-.22c-40.56-16.46-77.27-37.4-91.6-82.78-6.94-22-5.34-44.51-2.94-67,3.26-27.47,8-54.89,9.09-82.46,2.08-54.19-24.58-92.41-71.24-117.58-21.86-11.81-45.58-17.1-81.12-16.83-44.09,2-87.22,24.69-116,72.25-6.42,10.69-12.19,21.65-18.23,32.5-20.41,36.5-53.44,54.72-92.66,64.13a8.66,8.66,0,0,1-11-5.39h0a7.18,7.18,0,0,1-.33-1.29,8.82,8.82,0,0,1,5.39-11.25h0a10,10,0,0,1,1.07-.3c8.87-3,18-5.34,26.72-8.66a100,100,0,0,0,52-43.23c7.91-13.31,15-27.15,23.14-40.3C309.79,87.44,441.85,74.62,516,153.55c31,33,41.63,72.74,37.41,116.83-2.4,25.43-7.21,50.66-9.41,76.1a196.51,196.51,0,0,0,1.23,46.17c3.42,22.71,17.16,40.08,35.86,52.69,12.78,8.56,26.72,15.13,40.46,22.56,1.81,1,4,1.49,5.72,2.67a9.19,9.19,0,0,1,3.63,11.76Zm6.9-37.41a8.56,8.56,0,0,1-11,5.06h0a8.32,8.32,0,0,1-1.41-.68c-43.18-19-60.66-45.9-60.71-85.5a524.32,524.32,0,0,1,6-65c4.81-37.84,7.06-75.57-8.33-111.59C537.21,128.1,491,94.38,428.78,83.32,368.61,72.63,315,88.66,268.46,128.16A167.9,167.9,0,0,0,234,170.54c-6.79,11.27-13.52,22.6-20.85,33.45a104.94,104.94,0,0,1-48.09,38.75c-6.74,2.78-12.14,1.39-14.49-3.64s0-10.68,7.06-13.73A95,95,0,0,0,202,186.73c7.33-11.76,14-23.94,21.75-35.38,34.47-51,83.11-79.57,143.55-88.07A200.21,200.21,0,0,1,502.53,90.43c63,38.48,92,95.87,90.85,174.7-2.51,21.11-6,47.62-8.71,74.23a184.65,184.65,0,0,0-.59,33,62,62,0,0,0,30.57,49.54c5.93,3.74,12.4,6.63,18.55,10.1a9.13,9.13,0,0,1,5.16,11.85h0a8,8,0,0,1-.54,1.15Zm3.56-39.17c-4,4.54-9.51,4.06-16-1.55A62.92,62.92,0,0,1,604,351.6c.81-24.37,3.58-48.63,6.1-72.9,4.33-41.52,3-82.19-17-120.13-29-55.15-75.4-89.14-134.35-105.71C390.71,33.73,325.71,41.32,266,81a216,216,0,0,0-61.62,64.13c-7.27,11.17-14.59,22.39-22.18,33.4-4.54,6.52-10,7.86-14.85,4.39s-5-9.09-.54-15.45c13.84-19.83,26.24-40.77,41.63-59.32,41.31-49.65,95.08-76.58,159.31-82.78a49.23,49.23,0,0,0,6-1.39h33.83c14.54,2.4,29.29,3.85,43.56,7.27,66.85,16,120.51,51.09,155,111.85A193.28,193.28,0,0,1,630.4,253.64c-1.82,28.75-5.66,57.4-7.64,86.2a93,93,0,0,0,3,30.52A54.34,54.34,0,0,0,638,389.6c5.66,6.46,7.37,11.65,3.36,16.24Z" transform="translate(-141 -24)"/></svg>