<svg id="Layer_1" data-name="Layer 1" xmlns="http://www.w3.org/2000/svg" viewBox="0 0 678.89 731.1"><defs><style>.cls-1{fill:#29abe2;}</style></defs><title>Mapping and standardizaion icon</title><path class="cls-1" d="M668.79,328.25c-25.61,9.81-55.18-1.87-65.51-27.24-3.43-8.54-7.68-11.67-16.6-13.23a78,78,0,0,1-58.74-44.07c-3.87-7.72-7.43-15.6-10.92-23.41-8.62-19.4-22.25-31.79-44.55-32.26-3.31,0-6.62-.37-9.93-.37h-78c8.26,8.61,15.13,15.32,21.53,22.47s5.61,17.25-2.1,20c-4.4,1.59-12,1.14-15.09-1.69-15.42-14-30-29-44.53-44-6.24-6.24-5.65-13.17.41-19.31q21.3-21.59,42.86-42.87a12.47,12.47,0,0,1,17.53-2h0a12.1,12.1,0,0,1,1.19,1.07c5.61,4.65,5.4,13.08-.69,19.32s-13.44,12.47-20.08,18.71c1.52,1.85,2,2.75,2.3,2.75,30.14-.19,60.28,0,90.48-.82,16.25-.43,27.86-9.35,35.19-23.83,4.65-9.14,9-18.44,13.36-27.7,13.22-27.8,34.78-44.52,65.51-48.33,6.25-.78,7.78-4.28,9.61-9.17a51.76,51.76,0,1,1,60.91,68.16,50.52,50.52,0,0,1-58.29-26.85c-3.39-7.06-6.93-7.77-13.74-6.24-16,3.71-28.7,11.77-36.71,26.29-4.47,8.09-7.85,16.79-12.49,24.74-7.45,12.64-15.59,25-24.3,38.63,17.19,13.23,23.87,36.31,34.75,56.82,10.28,19.28,27,28.07,48.46,30.26,7.11-16.85,18.22-29.14,36.23-34.1A51.73,51.73,0,0,1,669,328.16Z" transform="translate(-27.88 -18.36)"/><path class="cls-1" d="M673,535.71c-25.62,9.87-55.19-1.87-65.51-27.23-3.44-8.55-7.68-11.67-16.61-13.23a78,78,0,0,1-58.74-44.07c-3.87-7.71-7.42-15.6-10.92-23.4C512.64,408.37,499,396,476.7,395.52c-3.31,0-6.62-.38-9.92-.38h-78c8.27,8.62,15.13,15.32,21.53,22.46s5.61,17.26-2.09,20c-4.4,1.6-12,1.16-15.11-1.68-15.41-14-29.94-29-44.51-44-6.24-6.24-5.66-13.16.4-19.32q21.31-21.58,42.87-42.86a12.53,12.53,0,0,1,17.61-2,13.18,13.18,0,0,1,1.11,1c5.61,4.65,5.4,13.07-.69,19.31s-13.45,12.48-20.06,18.71c1.53,1.85,2,2.75,2.3,2.75,30.15-.18,60.28,0,90.48-.81,16.26-.43,27.86-9.36,35.2-23.84,4.64-9.14,8.95-18.43,13.35-27.7,13.22-27.8,34.79-44.53,65.51-48.32,6.24-.79,7.77-4.28,9.62-9.18a51.76,51.76,0,1,1,60.89,68.17,50.5,50.5,0,0,1-58.3-26.81c-3.41-7-6.93-7.76-13.74-6.23-16,3.71-28.7,11.78-36.72,26.3-4.46,8.07-7.85,16.78-12.48,24.73-7.45,12.64-15.6,25-24.3,38.64,17.19,13.22,23.86,36.3,34.75,56.8,10.27,19.28,27,28.08,48.46,30.27,7.11-16.85,18.22-29.14,36.21-34.11a51.74,51.74,0,0,1,32.2,98.23Z" transform="translate(-27.88 -18.36)"/><path class="cls-1" d="M673,746c-25.62,9.82-55.19-1.87-65.51-27.23-3.44-8.55-7.68-11.67-16.61-13.23a78,78,0,0,1-58.74-44.09c-3.87-7.7-7.42-15.6-10.92-23.4-8.61-19.4-22.25-31.79-44.55-32.25-3.31,0-6.62-.38-9.92-.38h-78c8.27,8.61,15.13,15.32,21.53,22.46s5.61,17.25-2.09,20c-4.4,1.59-12,1.16-15.11-1.69-15.41-14-29.94-29-44.51-44-6.24-6.24-5.66-13.16.4-19.31q21.31-21.58,42.87-42.87a12.49,12.49,0,0,1,17.52-2,11.17,11.17,0,0,1,1.2,1.07c5.61,4.64,5.4,13.07-.69,19.31s-13.45,12.52-20.06,18.72c1.53,1.84,2,2.74,2.3,2.74,30.15-.19,60.28,0,90.48-.8,16.26-.44,27.86-9.36,35.2-23.84,4.64-9.14,8.95-18.44,13.35-27.71,13.22-27.8,34.79-44.52,65.51-48.32,6.24-.78,7.77-4.28,9.62-9.18a51.76,51.76,0,1,1,60.89,68.18,50.52,50.52,0,0,1-58.27-26.87c-3.41-7.05-6.93-7.77-13.74-6.24-16,3.71-28.7,11.78-36.72,26.3-4.46,8.08-7.85,16.79-12.48,24.75-7.46,12.62-15.6,24.95-24.3,38.62,17.19,13.22,23.86,36.3,34.75,56.81,10.27,19.28,27,28.08,48.46,30.26,7.11-16.85,18.22-29.14,36.21-34.1a51.74,51.74,0,0,1,32.2,98.22Z" transform="translate(-27.88 -18.36)"/><circle class="cls-1" cx="201.86" cy="146.73" r="57.86"/><circle class="cls-1" cx="201.86" cy="349.95" r="57.86"/><circle class="cls-1" cx="201.86" cy="574.35" r="57.86"/><circle class="cls-1" cx="57.86" cy="146.73" r="57.86"/><circle class="cls-1" cx="57.86" cy="349.95" r="57.86"/><circle class="cls-1" cx="57.86" cy="574.35" r="57.86"/></svg>