<svg id="Layer_1" data-name="Layer 1" xmlns="http://www.w3.org/2000/svg" viewBox="0 0 694.79 720.09"><defs><style>.cls-1{fill:#29abe2;}</style></defs><title>Unification bklue</title><path class="cls-1" d="M576.83,435.55c-7.76-7.76-15.52-15.73-23.54-23.44a8.86,8.86,0,0,0-5.39-2.59c-31-.13-62.11,0-93.3,0a16,16,0,0,0-2.59.18c0,1.19-.18,2.2-.18,3.23v68.26a6.23,6.23,0,0,0,3.7,6.37c12.94,7.24,25.88,14.74,38.81,22a15.67,15.67,0,0,0,7.24,1.85c15.92.16,31.86,0,47.79,0h4.31v14.37H513.59l24,23.67-10.86,10.2-22.21-23.29-1.47.9v39.39H488.42V526.23a5.2,5.2,0,0,0-3.11-5.16c-13.36-7.51-26.6-15.17-39.92-22.7a9.66,9.66,0,0,0-4.21-1.5h-54.5c0,1.52-.28,2.85-.28,4.14v61.46a9.6,9.6,0,0,0,3.26,7.45C402.42,582.46,415,595.18,427.87,608c-3.67,3.34-7.11,6.41-10.68,9.62L386.76,587v33.29H372V587.43l-31,31.39L330.7,607.43c3.93-3.8,8.33-7.93,12.63-12.19q13.16-12.93,26.14-26.14a7.73,7.73,0,0,0,2.36-4.53c.16-22.3,0-44.59,0-67.64H342.77c-9.11,0-18.62-1.61-27.17.62s-15.67,8.33-23.46,12.76c-6.19,3.51-12.3,7.17-18.58,10.53a6.11,6.11,0,0,0-3.76,6.31c.16,16.38,0,32.76,0,49.53H255.32V536.22l-23.74,24.31c-3.69-3.81-6.88-7-10.47-10.66l23.28-22.59-.64-1.06H204.6V511.49h25.93a138.72,138.72,0,0,1,15.53,0,41.4,41.4,0,0,0,28.14-7.55c9.4-6.11,19.43-11.18,29.09-16.84,1.34-.8,3-2.59,3-3.8.18-24.41.12-48.81.12-73.55-1.52,0-2.84-.25-4.21-.25H219a9.07,9.07,0,0,0-7.13,2.93c-11.73,11.89-23.58,23.64-35.38,35.44-1,1-2,1.86-3.16,3l-9.83-10.53L194,409.85H161V395.21h32.48l-31.32-30.72,11.58-10.34c.64.6,1.81,1.66,2.95,2.76,11.92,11.91,23.81,23.84,35.79,35.67a7.37,7.37,0,0,0,4.52,2.29c29.58.16,59.15,0,89.06,0,0-1.26.34-2.43.34-3.57V322.58a5.19,5.19,0,0,0-3-5.36c-13.38-7.45-26.6-15.16-40-22.64a13.14,13.14,0,0,0-6-1.55H204.66V278.58h40.61l-24.66-23.67,11-10,22.25,22.87A13.24,13.24,0,0,0,255,267V227.86h14.8v49.72a5.9,5.9,0,0,0,3.58,6c13.09,7.3,26.08,14.85,39.12,22.22a10.65,10.65,0,0,0,4.58,1.72h54.37c0-1.35.33-2.59.33-3.69V241.52a10.56,10.56,0,0,0-2.84-6.58c-12.63-12.94-25.52-25.48-38.56-38.42l10.72-9.6,29.47,29.63,1.05-.57V184.13h14.85V217c10.82-10.88,20.71-20.95,31.05-31l10.74,10.76c-8.42,8.28-16.84,16.41-25.07,24.63-5.49,5.44-12.94,10.09-15.73,16.72s-.83,15.18-.83,22.92v45.57c11.73,7.56,19.48,18.94,30.15,27.76l12.67-9.24c18.53-13.45,37-27,55.6-40.31a7.57,7.57,0,0,0,3.58-7.12c-.16-16.5,0-33,0-49.81h14.43v40c8-8.42,15.52-16.27,23.08-24.34l10.53,11.43-22.57,22.28.52,1.11h39.3v14.83c-13.61,0-27.12.64-40.51-.18a38.09,38.09,0,0,0-27.37,8.84c-19.06,14.74-38.81,28.42-58.95,43.08,1.37,1.46,2.59,2.72,3.76,3.94,5.87,5.93,12,11.58,17.57,17.83a16.21,16.21,0,0,1,3.62,8.77c.54,6.31.15,12.63.15,19.45,1.71,0,3.15.21,4.61.21h90.12a9.1,9.1,0,0,0,7.17-2.89c11.58-11.8,23.28-23.44,35-35.14,1-1.05,2.17-2.1,3.49-3.31l9.48,10.61L572,393.76l.52,1.1h24.84v14.56H572l31.05,30.66-11.5,10.35Z" transform="translate(-45.64 -29)"/><path class="cls-1" d="M349.47,72.84a13,13,0,1,0-12.94-13v0A13,13,0,0,0,349.47,72.84Zm28.18,17.89a10,10,0,1,0-10-10,10,10,0,0,0,10,10h0Zm-50.07,6.92a6.49,6.49,0,1,0-6.47-6.49v.06A6.47,6.47,0,0,0,327.58,97.65Zm16.7,20.86A6.47,6.47,0,1,0,337.8,112a6.48,6.48,0,0,0,6.48,6.47Zm8.35-17.35a6.87,6.87,0,1,0-6.86-6.87h0A6.86,6.86,0,0,0,352.63,101.16Zm-13.35,34.92a6.85,6.85,0,1,0-9.65-.86A6.85,6.85,0,0,0,339.28,136.08Zm49.87-79.8a7.91,7.91,0,1,0-7.9-7.91v0A7.9,7.9,0,0,0,389.15,56.28Zm-21.92-9.39a8.95,8.95,0,1,0-8.94-9v0A8.94,8.94,0,0,0,367.23,46.89Zm16.48,62.76a7.91,7.91,0,1,0-7.92-7.91,7.91,7.91,0,0,0,7.92,7.91Zm29.48,18.63a10,10,0,1,0-10-10h0a10,10,0,0,0,9.94,10Zm-50.09,6.93a6.48,6.48,0,1,0-6.47-6.48h0a6.48,6.48,0,0,0,6.43,6.48Zm25,3.51a6.86,6.86,0,1,0-6.86-6.87h0a6.85,6.85,0,0,0,6.81,6.86Zm-18.82,16.71a6.87,6.87,0,1,0-6.87-6.87h0A6.88,6.88,0,0,0,369.33,155.43Zm55.3-61.58a7.91,7.91,0,1,0-7.91-7.9h0a7.9,7.9,0,0,0,7.9,7.89Zm-21.92-9.39a8.95,8.95,0,1,0-8.94-8.95,8.95,8.95,0,0,0,8.94,8.95Z" transform="translate(-45.64 -29)"/><path class="cls-1" d="M442.36,89.53a13,13,0,1,0-13-13h0A13,13,0,0,0,442.36,89.53Zm28.17,17.9a10,10,0,1,0-10-10h0a10,10,0,0,0,10,10Zm-50.08,6.95a6.49,6.49,0,1,0-6.47-6.5h0a6.47,6.47,0,0,0,6.46,6.49Zm16.69,20.86a6.48,6.48,0,1,0-6.47-6.48h0a6.48,6.48,0,0,0,6.47,6.45Zm8.35-17.36a6.86,6.86,0,1,0-6.85-6.87v0a6.85,6.85,0,0,0,6.85,6.82Zm-13.34,34.93a6.85,6.85,0,1,0-9.66-.87,6.85,6.85,0,0,0,9.66.87ZM482,73a7.91,7.91,0,1,0-7.91-7.91A7.91,7.91,0,0,0,482,73ZM460.1,63.59a9,9,0,1,0-9-9h0A9,9,0,0,0,460.1,63.59Zm16.48,62.75a7.91,7.91,0,1,0-7.9-7.9h0a7.89,7.89,0,0,0,7.89,7.89ZM506.06,145a10,10,0,1,0-10-10h0A10,10,0,0,0,506,145ZM456,151.9a6.48,6.48,0,1,0-6.5-6.47,6.48,6.48,0,0,0,6.5,6.47Zm25,3.53a6.87,6.87,0,1,0-6.86-6.87h0A6.87,6.87,0,0,0,481,155.43Zm-18.78,16.69a6.86,6.86,0,1,0-6.86-6.87v0a6.87,6.87,0,0,0,6.86,6.84Zm55.3-61.57a7.9,7.9,0,1,0-7.9-7.91v0a7.89,7.89,0,0,0,7.9,7.88Zm-21.92-9.39a9,9,0,1,0-8.93-9h0a8.94,8.94,0,0,0,8.92,9Z" transform="translate(-45.64 -29)"/><path class="cls-1" d="M265,89.53a13,13,0,1,0-13-13,13,13,0,0,0,13,13Zm28.17,17.9a10,10,0,1,0-10-10,10,10,0,0,0,10,10Zm-50.08,6.95a6.49,6.49,0,1,0-6.48-6.5h0a6.48,6.48,0,0,0,6.47,6.49Zm16.69,20.86a6.48,6.48,0,1,0-6.47-6.48h0a6.47,6.47,0,0,0,6.47,6.45Zm8.35-17.36a6.86,6.86,0,1,0-6.85-6.87v0a6.83,6.83,0,0,0,6.85,6.82Zm-13.37,34.89a6.85,6.85,0,1,0-9.66-.86A6.85,6.85,0,0,0,254.74,152.77ZM304.6,73a7.91,7.91,0,1,0-7.9-7.91A7.91,7.91,0,0,0,304.6,73h0Zm-21.91-9.4a9,9,0,1,0-8.95-9h0a8.94,8.94,0,0,0,8.94,8.94h0Zm16.48,62.75a7.91,7.91,0,1,0-7.91-7.9h0a7.9,7.9,0,0,0,7.9,7.89h0ZM328.64,145a10,10,0,1,0-10-10h0a10,10,0,0,0,10,10h0Zm-50.09,6.91a6.48,6.48,0,1,0-6.47-6.47h0a6.47,6.47,0,0,0,6.46,6.47Zm25,3.53a6.87,6.87,0,1,0-6.85-6.88h0A6.86,6.86,0,0,0,303.58,155.43ZM284.8,172.12a6.86,6.86,0,1,0-6.85-6.87v0a6.85,6.85,0,0,0,6.85,6.84Zm55.31-61.58a7.91,7.91,0,1,0-7.9-7.91v0A7.9,7.9,0,0,0,340.11,110.54Zm-21.92-9.38a9,9,0,1,0-8.94-9h0a9,9,0,0,0,8.93,9Z" transform="translate(-45.64 -29)"/><path class="cls-1" d="M134.54,173a13,13,0,1,0-13-13h0A13,13,0,0,0,134.54,173Zm28.18,17.89a10,10,0,1,0-10-10h0a10,10,0,0,0,10,10h0Zm-50.08,6.92a6.48,6.48,0,1,0-6.48-6.48,6.48,6.48,0,0,0,6.48,6.48Zm16.69,20.87a6.49,6.49,0,1,0-6.48-6.49,6.5,6.5,0,0,0,6.48,6.49Zm8.35-17.36a6.87,6.87,0,1,0-6.86-6.86,6.86,6.86,0,0,0,6.86,6.86Zm-13.35,34.92a6.85,6.85,0,1,0-9.65-.86h0a6.86,6.86,0,0,0,9.65.86Zm49.87-79.77a7.91,7.91,0,1,0-7.9-7.92h0A7.91,7.91,0,0,0,174.2,156.48Zm-21.91-9.39a8.95,8.95,0,1,0-8.95-9h0a9,9,0,0,0,8.95,8.93Zm16.47,62.76a7.91,7.91,0,1,0-7.89-7.92h0a7.91,7.91,0,0,0,7.89,7.89Zm29.48,18.63a10,10,0,1,0-10-10h0a10,10,0,0,0,9.93,10Zm-50.13,6.94a6.48,6.48,0,1,0-6.47-6.49v0A6.47,6.47,0,0,0,148.11,235.42Zm25,3.51a6.86,6.86,0,1,0-6.85-6.85h0a6.85,6.85,0,0,0,6.85,6.81Zm-18.77,16.69a6.85,6.85,0,1,0-6.87-6.85,6.85,6.85,0,0,0,6.87,6.85Zm55.3-61.55a7.91,7.91,0,1,0-7.91-7.91h0a7.91,7.91,0,0,0,7.91,7.87Zm-21.92-9.39a9,9,0,1,0-8.94-9,9,9,0,0,0,8.94,9Z" transform="translate(-45.64 -29)"/><path class="cls-1" d="M89.68,273.18a13,13,0,1,0-13-13h0A13,13,0,0,0,89.68,273.18Zm28.17,17.89a10,10,0,1,0-10-10h0a10,10,0,0,0,10,10h0ZM67.77,298a6.49,6.49,0,1,0-6.48-6.49h0A6.48,6.48,0,0,0,67.77,298h0Zm16.69,20.86A6.47,6.47,0,1,0,78,312.39h0a6.47,6.47,0,0,0,6.47,6.46Zm8.35-17.35A6.87,6.87,0,1,0,86,294.63v0a6.85,6.85,0,0,0,6.84,6.85h0Zm-13.34,35a6.85,6.85,0,1,0-9.66-.86A6.85,6.85,0,0,0,79.47,336.47Zm49.86-79.78a7.91,7.91,0,1,0-7.9-7.91h0a7.89,7.89,0,0,0,7.9,7.85Zm-22-9.46a8.95,8.95,0,1,0-8.95-8.94h0A9,9,0,0,0,107.38,247.23ZM123.86,310a7.91,7.91,0,1,0-7.9-7.91v0a7.89,7.89,0,0,0,7.89,7.89h0Zm29.47,18.64a10,10,0,1,0-10-10h0a10,10,0,0,0,10,10Zm-50.09,6.92a6.48,6.48,0,1,0-6.47-6.48h0A6.47,6.47,0,0,0,103.24,335.55Zm25,3.51a6.86,6.86,0,1,0-6.86-6.86h0a6.86,6.86,0,0,0,6.86,6.86Zm-18.81,16.7a6.87,6.87,0,1,0-6.85-6.88v0A6.87,6.87,0,0,0,109.48,355.76Zm55.31-61.57a7.91,7.91,0,1,0-7.9-7.91v0a7.9,7.9,0,0,0,7.9,7.89h0Zm-21.92-9.39a8.95,8.95,0,1,0-8.94-9h0a8.94,8.94,0,0,0,8.93,8.95h0Z" transform="translate(-45.64 -29)"/><path class="cls-1" d="M74,392.12a13,13,0,1,0-13-13,13,13,0,0,0,13,13ZM102.2,410a10,10,0,1,0-10-10h0A10,10,0,0,0,102.2,410Zm-50.08,6.91a6.47,6.47,0,1,0-6.48-6.47h0A6.47,6.47,0,0,0,52.12,416.93Zm16.69,20.88a6.48,6.48,0,1,0-6.47-6.48h0A6.47,6.47,0,0,0,68.81,437.81Zm8.35-17.36a6.87,6.87,0,1,0-6.86-6.87v0a6.86,6.86,0,0,0,6.86,6.85Zm-13.34,35a6.85,6.85,0,1,0-9.66-.87A6.86,6.86,0,0,0,63.82,455.42Zm49.87-79.84a7.91,7.91,0,1,0-7.9-7.91h0a7.9,7.9,0,0,0,7.89,7.9Zm-21.91-9.39a8.95,8.95,0,1,0-9-8.95h0a9,9,0,0,0,8.94,8.94Zm16.48,62.75a7.91,7.91,0,1,0-7.9-7.9h0a7.89,7.89,0,0,0,7.89,7.89h0Zm29.47,18.63a10,10,0,1,0-10-10h0a10,10,0,0,0,9.94,10ZM87.59,454.5A6.48,6.48,0,1,0,81.11,448v0A6.48,6.48,0,0,0,87.59,454.5Zm25,3.52a6.87,6.87,0,1,0-6.86-6.87h0A6.87,6.87,0,0,0,112.64,458ZM93.85,474.71A6.87,6.87,0,1,0,87,467.84h0A6.86,6.86,0,0,0,93.85,474.71Zm55.3-61.57a7.91,7.91,0,1,0-7.89-7.91v0a7.89,7.89,0,0,0,7.89,7.89Zm-21.91-9.39a8.95,8.95,0,1,0-8.94-8.95h0a9,9,0,0,0,8.93,8.95h0Z" transform="translate(-45.64 -29)"/><path class="cls-1" d="M106.38,495.41a13,13,0,1,0-13-13,13,13,0,0,0,13,13Zm28.16,17.9a10,10,0,1,0-10-10h0A10,10,0,0,0,134.54,513.31Zm-50.08,6.91A6.47,6.47,0,1,0,78,513.75h0a6.48,6.48,0,0,0,6.46,6.49h0Zm16.7,20.88a6.48,6.48,0,1,0-6.48-6.48h0a6.48,6.48,0,0,0,6.47,6.49h0Zm8.32-17.35a6.87,6.87,0,1,0-6.85-6.87v0A6.87,6.87,0,0,0,109.48,523.75ZM96.17,558.68a6.85,6.85,0,1,0-9.67-.87A6.86,6.86,0,0,0,96.17,558.68ZM146,478.88a7.91,7.91,0,1,0-7.91-7.91h0a7.9,7.9,0,0,0,7.9,7.9Zm-21.92-9.39a8.95,8.95,0,1,0-8.94-8.95h0a8.94,8.94,0,0,0,8.94,8.94Zm16.49,62.77a7.91,7.91,0,1,0-7.91-7.91h0a7.9,7.9,0,0,0,7.9,7.9Zm29.47,18.63a10,10,0,1,0-10-10h0a10,10,0,0,0,9.95,10ZM120,557.81a6.47,6.47,0,1,0-6.48-6.47,6.47,6.47,0,0,0,6.48,6.47Zm25,3.52a6.87,6.87,0,1,0-6.86-6.86,6.86,6.86,0,0,0,6.86,6.86ZM126.24,578a6.86,6.86,0,1,0-6.85-6.87h0A6.85,6.85,0,0,0,126.2,578Zm55.26-61.55a7.91,7.91,0,1,0-7.89-7.92v0a7.9,7.9,0,0,0,7.89,7.9Zm-21.91-9.39a9,9,0,1,0-8.94-9h0a9,9,0,0,0,8.94,8.93Z" transform="translate(-45.64 -29)"/><path class="cls-1" d="M160.64,580a13,13,0,1,0-13-13A13,13,0,0,0,160.64,580Zm28.17,17.89a10,10,0,1,0-10-10h0a10,10,0,0,0,10,10Zm-50.09,6.93a6.48,6.48,0,1,0-6.47-6.47,6.48,6.48,0,0,0,6.47,6.47Zm16.7,20.87a6.49,6.49,0,1,0-6.48-6.49h0a6.48,6.48,0,0,0,6.48,6.47Zm8.34-17.36a6.86,6.86,0,1,0-6.85-6.87h0a6.85,6.85,0,0,0,6.85,6.85Zm-13.33,34.91a6.85,6.85,0,1,0-9.66-.85,6.86,6.86,0,0,0,9.66.85Zm49.86-79.79a7.91,7.91,0,1,0-7.91-7.9,7.9,7.9,0,0,0,7.91,7.9ZM178.37,554a8.95,8.95,0,1,0-8.94-8.94h0a8.94,8.94,0,0,0,8.94,8.94Zm16.48,62.76a7.91,7.91,0,1,0-7.9-7.92h0a7.91,7.91,0,0,0,7.9,7.91Zm29.47,18.63a10,10,0,1,0-10-10h0a10,10,0,0,0,10,10h0Zm-50.09,6.93a6.49,6.49,0,1,0-6.48-6.5h0a6.49,6.49,0,0,0,6.45,6.49Zm25,3.5a6.85,6.85,0,1,0-6.85-6.85,6.85,6.85,0,0,0,6.85,6.85Zm-18.78,16.69a6.85,6.85,0,1,0-6.85-6.85,6.85,6.85,0,0,0,6.85,6.85ZM235.79,601a7.91,7.91,0,1,0-7.9-7.91,7.91,7.91,0,0,0,7.9,7.91Zm-21.91-9.4a8.95,8.95,0,1,0-8.94-9v0a9,9,0,0,0,8.91,8.94Z" transform="translate(-45.64 -29)"/><path class="cls-1" d="M249.33,624.82a13,13,0,1,0-13-13h0A13,13,0,0,0,249.33,624.82Zm28.17,17.89a10,10,0,1,0-10-10h0a10,10,0,0,0,10,10Zm-50.13,6.92a6.49,6.49,0,1,0-6.47-6.49h0a6.47,6.47,0,0,0,6.46,6.48Zm16.7,20.86a6.47,6.47,0,1,0-6.48-6.47,6.47,6.47,0,0,0,6.48,6.47h0Zm8.34-17.35a6.87,6.87,0,1,0-6.85-6.88v0a6.85,6.85,0,0,0,6.83,6.86h0ZM239.12,688a6.85,6.85,0,1,0-9.66-.86A6.85,6.85,0,0,0,239.12,688ZM289,608.25a7.91,7.91,0,1,0-7.9-7.9,7.91,7.91,0,0,0,7.9,7.9h0Zm-21.91-9.4a8.95,8.95,0,1,0-8.95-8.94h0a8.93,8.93,0,0,0,8.94,9h0Zm16.48,62.76a7.91,7.91,0,1,0-7.91-7.91h0a7.9,7.9,0,0,0,7.88,7.92h0ZM313,680.25a10,10,0,1,0-10-10h0a10,10,0,0,0,10,10h0Zm-50.09,6.92a6.48,6.48,0,1,0-6.47-6.48,6.48,6.48,0,0,0,6.47,6.48Zm25,3.51a5.44,5.44,0,1,0-.06,0h0Zm-18.78,16.7a6.87,6.87,0,1,0-6.85-6.88v0a6.86,6.86,0,0,0,6.81,6.88Zm55.31-61.57a7.91,7.91,0,1,0-7.9-7.92v0a7.89,7.89,0,0,0,7.85,7.91Zm-22-9.35a8.95,8.95,0,1,0-8.94-9v0a8.93,8.93,0,0,0,8.93,8.94Z" transform="translate(-45.64 -29)"/><path class="cls-1" d="M341.15,666.56a13,13,0,1,0-13-13,13,13,0,0,0,13,13Zm28.18,17.89a10,10,0,1,0-10-10h0a10,10,0,0,0,10,10h0Zm-50.1,6.93a6.49,6.49,0,1,0-6.47-6.5v0a6.49,6.49,0,0,0,6.47,6.47Zm16.71,20.87a6.48,6.48,0,1,0-6.49-6.47,6.47,6.47,0,0,0,6.49,6.47Zm8.34-17.36a6.85,6.85,0,1,0-6.86-6.85,6.86,6.86,0,0,0,6.86,6.85Zm-13.34,34.93a6.85,6.85,0,1,0-9.66-.86h0a6.86,6.86,0,0,0,9.66.84ZM380.8,650a7.91,7.91,0,1,0-7.9-7.92v0a7.92,7.92,0,0,0,7.9,7.88Zm-21.92-9.36a8.95,8.95,0,1,0-8.93-8.95h0A8.94,8.94,0,0,0,358.88,640.67Zm16.49,62.75a7.91,7.91,0,1,0-7.9-7.92v0a7.91,7.91,0,0,0,7.9,7.85Zm29.47,18.64a10,10,0,1,0-10-10h0A10,10,0,0,0,404.8,722Zm-50.1,6.87a6.49,6.49,0,1,0-6.48-6.49h0a6.48,6.48,0,0,0,6.47,6.48Zm25,3.51a6.87,6.87,0,1,0-6.85-6.88v0a6.85,6.85,0,0,0,6.83,6.85ZM361,749.09a6.87,6.87,0,1,0-6.86-6.86h0a6.85,6.85,0,0,0,6.85,6.85Zm55.3-61.57a7.91,7.91,0,1,0-7.9-7.9h0a7.9,7.9,0,0,0,7.85,7.94h0Zm-21.91-9.39a8.95,8.95,0,1,0-8.95-8.94h0a9,9,0,0,0,8.89,9h.06Z" transform="translate(-45.64 -29)"/><path class="cls-1" d="M438.19,646.73a13,13,0,1,0-12.93-13v0A13,13,0,0,0,438.19,646.73Zm28.17,17.89a10,10,0,1,0-10-10h0A10,10,0,0,0,466.36,664.62Zm-50.08,6.91a6.47,6.47,0,1,0-6.48-6.47,6.46,6.46,0,0,0,6.48,6.47ZM433,692.41a6.48,6.48,0,1,0-6.49-6.48,6.48,6.48,0,0,0,6.49,6.48Zm8.34-17.36a6.87,6.87,0,1,0-6.86-6.86h0a6.87,6.87,0,0,0,6.86,6.85ZM428,710a6.85,6.85,0,1,0-9.66-.87A6.86,6.86,0,0,0,428,710Zm49.91-79.83a7.91,7.91,0,1,0-7.89-7.92v0A7.9,7.9,0,0,0,477.89,630.15ZM456,620.76a9,9,0,1,0-8.95-9h0a8.93,8.93,0,0,0,8.89,9h0Zm16.47,62.75a7.91,7.91,0,1,0-7.9-7.91h0a7.91,7.91,0,0,0,7.85,7.93Zm29.47,18.63a10,10,0,1,0-10-10v0a10,10,0,0,0,9.89,10Zm-50.18,7a6.48,6.48,0,1,0-6.47-6.47,6.48,6.48,0,0,0,6.47,6.47Zm25.09,3.53a6.87,6.87,0,1,0-6.86-6.88h0a6.86,6.86,0,0,0,6.85,6.87Zm-18.78,16.69a6.86,6.86,0,1,0-6.86-6.86,6.86,6.86,0,0,0,6.86,6.86Zm55.3-61.56a7.91,7.91,0,1,0-7.9-7.91,7.91,7.91,0,0,0,7.9,7.91Zm-21.91-9.39a8.95,8.95,0,1,0-8.95-9,8.95,8.95,0,0,0,8.95,9Z" transform="translate(-45.64 -29)"/><path class="cls-1" d="M532.1,602.91a13,13,0,1,0-13-13,13,13,0,0,0,13,13Zm28.18,17.89a10,10,0,1,0-10-10h0a10,10,0,0,0,10,10h0Zm-50.1,6.93a6.49,6.49,0,1,0-6.47-6.5v0a6.49,6.49,0,0,0,6.47,6.47Zm16.7,20.86a6.48,6.48,0,1,0-6.48-6.48,6.48,6.48,0,0,0,6.48,6.48Zm8.34-17.39a6.86,6.86,0,1,0-6.85-6.85,6.86,6.86,0,0,0,6.85,6.85Zm-13.33,34.95a6.85,6.85,0,1,0-9.65-.86h0A6.85,6.85,0,0,0,521.89,666.15Zm49.86-79.79a7.91,7.91,0,1,0-7.89-7.92h0A7.9,7.9,0,0,0,571.75,586.36ZM549.83,577a8.95,8.95,0,1,0-8.93-9h0a9,9,0,0,0,8.93,9Zm16.48,62.75a7.9,7.9,0,1,0-7.91-7.9,7.9,7.9,0,0,0,7.91,7.9Zm29.47,18.64a10,10,0,1,0-10-10h0a10,10,0,0,0,10,10Zm-50.08,6.92a6.49,6.49,0,1,0-6.48-6.49h0a6.47,6.47,0,0,0,6.45,6.48Zm25,3.51a6.87,6.87,0,1,0-6.85-6.88v0a6.85,6.85,0,0,0,6.82,6.85ZM552,685.48a6.86,6.86,0,1,0-6.86-6.86h0a6.84,6.84,0,0,0,6.83,6.85Zm55.29-61.55a7.91,7.91,0,1,0-7.89-7.92h0a7.91,7.91,0,0,0,7.86,7.91Zm-21.9-9.4a9,9,0,1,0-9-8.95h0a9,9,0,0,0,8.92,8.94Z" transform="translate(-45.64 -29)"/><path class="cls-1" d="M585.32,540.3a13,13,0,1,0-13-13A13,13,0,0,0,585.32,540.3Zm28.17,17.89a10,10,0,1,0-10-10h0a10,10,0,0,0,10,10Zm-50.09,6.93a6.48,6.48,0,1,0-6.47-6.48,6.48,6.48,0,0,0,6.47,6.48Zm16.7,20.82a6.49,6.49,0,1,0-6.48-6.5h0a6.48,6.48,0,0,0,6.47,6.49Zm8.31-17.32a6.86,6.86,0,1,0-6.85-6.87h0a6.85,6.85,0,0,0,6.84,6.86Zm-13.33,34.92a5.38,5.38,0,1,0,0,.05l.06-.05Zm49.86-79.79a7.91,7.91,0,1,0-7.91-7.9,7.9,7.9,0,0,0,7.91,7.9h0Zm-21.89-9.39a8.95,8.95,0,1,0-8.94-8.95A8.94,8.94,0,0,0,603.05,514.36Zm16.49,62.76a7.91,7.91,0,1,0-7.91-7.91,7.91,7.91,0,0,0,7.91,7.91ZM649,595.75a10,10,0,1,0-10-10h0a10,10,0,0,0,10,10Zm-50.09,6.92a6.48,6.48,0,1,0-6.48-6.49v0a6.48,6.48,0,0,0,6.44,6.47ZM624,606.18a6.86,6.86,0,1,0-6.86-6.85,6.85,6.85,0,0,0,6.86,6.85Zm-18.79,16.69a6.85,6.85,0,1,0-6.85-6.85,6.85,6.85,0,0,0,6.85,6.85Zm55.3-61.55a7.91,7.91,0,1,0-7.89-7.92h0a7.91,7.91,0,0,0,7.85,7.91Zm-21.91-9.4a9,9,0,1,0-8.94-9v0a9,9,0,0,0,8.9,8.94Z" transform="translate(-45.64 -29)"/><path class="cls-1" d="M626,451.61a13,13,0,1,0-13-13A13,13,0,0,0,626,451.61Zm28.17,17.89a10,10,0,1,0-10-10h0a10,10,0,0,0,10,10Zm-50.08,7a6.48,6.48,0,1,0-6.48-6.48,6.48,6.48,0,0,0,6.48,6.48Zm16.69,20.87a6.49,6.49,0,1,0-6.47-6.49h0a6.47,6.47,0,0,0,6.47,6.43ZM629.14,480a6.83,6.83,0,1,1,0-.05Zm-13.36,34.88a6.85,6.85,0,1,0-9.66-.86,6.85,6.85,0,0,0,9.66.86Zm49.86-79.79a7.91,7.91,0,1,0-7.9-7.91,7.91,7.91,0,0,0,7.9,7.91h0Zm-21.91-9.39a8.95,8.95,0,1,0-9-8.95h0a9,9,0,0,0,9,8.95h0Zm16.48,62.76a7.91,7.91,0,1,0-7.91-7.91,7.9,7.9,0,0,0,7.91,7.91h0Zm29.47,18.63a10,10,0,1,0-10-10h0a10,10,0,0,0,10,10ZM639.6,514a6.49,6.49,0,1,0-6.48-6.48h0a6.48,6.48,0,0,0,6.46,6.48Zm25,3.54a6.87,6.87,0,1,0-6.86-6.86h0a6.85,6.85,0,0,0,6.85,6.85Zm-18.79,16.69a6.85,6.85,0,1,0-6.85-6.85,6.84,6.84,0,0,0,6.85,6.85Zm55.3-61.55a7.91,7.91,0,1,0-7.89-7.92h0a7.92,7.92,0,0,0,7.89,7.88Zm-21.91-9.4a9,9,0,1,0-8.94-9v0a9,9,0,0,0,8.94,8.91Z" transform="translate(-45.64 -29)"/><path class="cls-1" d="M657.32,355.61a13,13,0,1,0-13-13A13,13,0,0,0,657.32,355.61Zm28.16,17.89a10,10,0,1,0-10-10h0a10,10,0,0,0,10,10Zm-50.08,6.93a6.48,6.48,0,1,0-6.47-6.47,6.47,6.47,0,0,0,6.47,6.47Zm16.69,20.87a6.49,6.49,0,1,0-6.47-6.49h0a6.47,6.47,0,0,0,6.47,6.47h0Zm8.35-17.37a6.85,6.85,0,1,0-6.85-6.85,6.84,6.84,0,0,0,6.85,6.85h0ZM647.1,418.86a6.85,6.85,0,1,0-9.66-.85,6.85,6.85,0,0,0,9.66.85l0,0ZM697,339.07a7.91,7.91,0,1,0-7.91-7.9,7.9,7.9,0,0,0,7.91,7.9h0Zm-21.92-9.39a8.95,8.95,0,1,0-8.95-8.94,8.95,8.95,0,0,0,8.95,8.94Zm16.52,62.75a7.91,7.91,0,1,0-7.91-7.91,7.91,7.91,0,0,0,7.91,7.91ZM721,411.06a10,10,0,1,0-10-10h0a10,10,0,0,0,9.92,10ZM671,418a6.49,6.49,0,1,0-6.48-6.5h0a6.49,6.49,0,0,0,6.4,6.49Zm25,3.5a6.86,6.86,0,1,0-6.87-6.86h0a6.85,6.85,0,0,0,6.79,6.85Zm-18.79,16.7a6.82,6.82,0,1,0-.07,0Zm55.3-61.56a7.91,7.91,0,1,0-7.89-7.92h0a7.91,7.91,0,0,0,7.82,7.91Zm-22-9.4a8.95,8.95,0,1,0-8.93-9v0A8.93,8.93,0,0,0,710.51,367.23Z" transform="translate(-45.64 -29)"/><path class="cls-1" d="M632.27,282.57a13,13,0,1,0-13-13A13,13,0,0,0,632.27,282.57Zm28.17,17.89a10,10,0,1,0-10-10h0a10,10,0,0,0,10,10Zm-50.08,6.93a6.49,6.49,0,1,0-6.47-6.49v0a6.47,6.47,0,0,0,6.47,6.46Zm16.69,20.86a6.47,6.47,0,1,0-6.47-6.47,6.48,6.48,0,0,0,6.47,6.47Zm8.35-17.35a6.86,6.86,0,1,0-6.85-6.86,6.86,6.86,0,0,0,6.85,6.86h0Zm-13.3,34.91a6.86,6.86,0,1,0-9.67-.85,6.86,6.86,0,0,0,9.67.85ZM672,266a7.91,7.91,0,1,0-7.91-7.9A7.9,7.9,0,0,0,672,266ZM650,256.63a8.95,8.95,0,1,0-8.95-8.94h0a8.94,8.94,0,0,0,8.92,8.94Zm16.47,62.75a7.91,7.91,0,1,0-7.89-7.92v0a7.9,7.9,0,0,0,7.86,7.9ZM696,338a10,10,0,1,0-10-10h0a10,10,0,0,0,9.92,10Zm-50.16,6.87a6.47,6.47,0,1,0-6.47-6.47,6.46,6.46,0,0,0,6.47,6.47Zm25,3.52a6.87,6.87,0,1,0-6.85-6.87v0a6.86,6.86,0,0,0,6.83,6.89h0Zm-18.78,16.74a6.87,6.87,0,1,0-6.85-6.88v0a6.86,6.86,0,0,0,6.85,6.86Zm55.27-61.57a7.91,7.91,0,1,0-7.9-7.92v0a7.9,7.9,0,0,0,7.9,7.89Zm-21.92-9.39a8.95,8.95,0,1,0-8.94-9v0a9,9,0,0,0,9,8.94h0Z" transform="translate(-45.64 -29)"/><path class="cls-1" d="M586.36,192.84a13,13,0,1,0-13-13h0A13,13,0,0,0,586.36,192.84Zm28.17,17.89a10,10,0,1,0-10-10h0a10,10,0,0,0,10,10Zm-50.09,6.93a6.49,6.49,0,1,0-6.47-6.5h0a6.48,6.48,0,0,0,6.47,6.48h0Zm16.7,20.86a6.48,6.48,0,1,0-6.47-6.47,6.47,6.47,0,0,0,6.47,6.47Zm8.32-17.37a6.86,6.86,0,1,0-6.85-6.87v0A6.86,6.86,0,0,0,589.46,221.15Zm-13.33,34.93a6.85,6.85,0,1,0-9.66-.87,6.86,6.86,0,0,0,9.66.87h0ZM626,176.28a7.91,7.91,0,1,0-7.91-7.91h0a7.9,7.9,0,0,0,7.9,7.9h0Zm-21.92-9.39a8.95,8.95,0,1,0-8.94-8.95h0a8.94,8.94,0,0,0,9,8.94h0Zm16.49,62.76a7.91,7.91,0,1,0-7.91-7.91h0a7.9,7.9,0,0,0,7.9,7.9h0ZM650,248.28a10,10,0,1,0-10-10h0a10,10,0,0,0,10,10ZM600,255.2a6.47,6.47,0,1,0-6.49-6.47A6.47,6.47,0,0,0,600,255.2Zm25,3.52a6.87,6.87,0,1,0-6.86-6.86,6.86,6.86,0,0,0,6.86,6.86Zm-18.81,16.7a6.86,6.86,0,1,0-6.85-6.87v0A6.85,6.85,0,0,0,606.18,275.42Zm55.3-61.56a7.91,7.91,0,1,0-7.89-7.92v0a7.89,7.89,0,0,0,7.89,7.89Zm-21.9-9.39a9,9,0,1,0-9-8.95h0a8.94,8.94,0,0,0,8.94,8.94h0Z" transform="translate(-45.64 -29)"/><path class="cls-1" d="M516.45,124a13,13,0,1,0-13-13,13,13,0,0,0,13,13Zm28.17,17.89a10,10,0,1,0-10-10h0a10,10,0,0,0,10,10h0Zm-50.09,6.93a6.48,6.48,0,1,0-6.47-6.48h0a6.47,6.47,0,0,0,6.47,6.46Zm16.7,20.87a6.49,6.49,0,1,0-6.48-6.5h0a6.49,6.49,0,0,0,6.48,6.48Zm8.34-17.39a6.86,6.86,0,1,0-6.85-6.85,6.85,6.85,0,0,0,6.85,6.85Zm-13.33,34.92a6.85,6.85,0,1,0-9.66-.85h0a6.85,6.85,0,0,0,9.66.86h0Zm49.86-79.78a7.91,7.91,0,1,0-7.9-7.92h0a7.91,7.91,0,0,0,7.9,7.92h0ZM534.18,98a9,9,0,1,0-8.92-9v.06A8.94,8.94,0,0,0,534.18,98Zm16.49,62.75a7.91,7.91,0,1,0-7.9-7.91h0a7.9,7.9,0,0,0,7.88,7.91h0Zm29.47,18.64a10,10,0,1,0-10-10h0a10,10,0,0,0,10,10Zm-50.08,6.92a6.49,6.49,0,1,0-6.48-6.49h0a6.48,6.48,0,0,0,6.43,6.49Zm25,3.51a6.87,6.87,0,1,0-6.85-6.88v0a6.84,6.84,0,0,0,6.81,6.87Zm-18.78,16.69a6.85,6.85,0,1,0-6.86-6.85,6.85,6.85,0,0,0,6.86,6.85ZM591.57,145a7.91,7.91,0,1,0-7.9-7.91,7.9,7.9,0,0,0,7.9,7.91Zm-21.92-9.4a9,9,0,1,0-8.94-9h0a8.94,8.94,0,0,0,8.93,8.94h0Z" transform="translate(-45.64 -29)"/><path class="cls-1" d="M200.29,117.7a13,13,0,1,0-13-13A13,13,0,0,0,200.29,117.7Zm28.17,17.9a10,10,0,1,0-10-10h0a10,10,0,0,0,10,10Zm-50.09,6.92a6.47,6.47,0,1,0-6.47-6.47h0a6.47,6.47,0,0,0,6.47,6.46Zm16.7,20.88a6.49,6.49,0,1,0-6.48-6.5v0a6.48,6.48,0,0,0,6.48,6.46ZM203.42,146a6.87,6.87,0,1,0-6.86-6.88h0a6.86,6.86,0,0,0,6.86,6.86h0ZM190.08,181a6.85,6.85,0,1,0-9.66-.85,6.85,6.85,0,0,0,9.66.85l0,0Zm49.85-79.78A7.91,7.91,0,1,0,232,93.25v0a7.89,7.89,0,0,0,7.89,7.89ZM218,91.78a9,9,0,1,0-8.95-9,8.95,8.95,0,0,0,8.95,9h0Zm16.47,62.75a7.91,7.91,0,1,0-7.9-7.91h0a7.91,7.91,0,0,0,7.9,7.89ZM264,173.16a10,10,0,1,0-10-10h0a10,10,0,0,0,9.94,10Zm-50.08,6.93a6.49,6.49,0,1,0-6.47-6.5v0a6.46,6.46,0,0,0,6.43,6.46Zm25,3.5a6.85,6.85,0,1,0-6.85-6.85h0a6.84,6.84,0,0,0,6.81,6.84Zm-18.82,16.69a6.86,6.86,0,1,0-6.85-6.85h0a6.84,6.84,0,0,0,6.83,6.85Zm55.3-61.56a7.91,7.91,0,1,0-7.9-7.9,7.91,7.91,0,0,0,7.9,7.9Zm-21.91-9.39a8.95,8.95,0,1,0-8.94-9h0A9,9,0,0,0,253.5,129.33Z" transform="translate(-45.64 -29)"/></svg>