<svg id="Layer_1" data-name="Layer 1" xmlns="http://www.w3.org/2000/svg" viewBox="0 0 704.94 706.35"><title>Data Visualisation</title><path d="M118.26,612.94l65.79-59.3C142,505.4,121,452,116,391.27H28.8C11,230.5,150,15.67,393.31,23.19v89c67,6.48,124.49,30.79,171.38,77.58s72.09,104.14,78.16,171.59h88.41C740.87,474.86,678.65,627.74,527,697.32,387.46,761.37,218.59,727.41,118.26,612.94ZM380.51,234.31c-80.15-.16-140.54,61-143.29,140.34-2.5,72.23,60.39,143.81,140.35,144.2,89,.44,146.3-76.18,144.14-144.12C519.21,296.24,459.35,234.47,380.51,234.31ZM165.08,616.49c78.06,77.87,224.26,112,350.55,52.79,109.52-51.4,198.8-184.9,184.25-277.6h-55c-20.41,220.64-271,325.42-442,182.14ZM107.19,200.7l131.13,75.49C270,233,312.42,209.4,363.57,202.08V52.42C253.75,60.62,170.11,110.4,107.19,200.7Zm445.9,191.36c-11.3,67.13-44.87,117.18-107.93,143.47-63.27,26.38-122.06,13.83-175.51-25.26L228,550.8c62.81,61.94,174,74.62,258.63,31.47,69.42-35.38,126.52-119.65,122-190.21ZM395.81,201.46c100.3,27.87,120.78,48.36,158.84,158.33h55.08c3.84-100.25-97.27-215.28-213.92-214.51ZM220.14,302l-128-73.79C72.41,259.67,55,328.82,58.71,359.94h146C210,340.2,214.88,321.78,220.14,302ZM200.67,526l39.44-37.68c-13.42-32.16-26.4-63.29-40-95.8H146.8C150.25,444.81,170,488.41,200.67,526Z" transform="translate(-27.28 -23)"/></svg>