<svg id="Layer_1" data-name="Layer 1" xmlns="http://www.w3.org/2000/svg" xmlns:xlink="http://www.w3.org/1999/xlink" viewBox="0 0 701 701"><defs><style>.cls-1{fill:#fff;}.cls-2,.cls-3{fill:none;stroke:#cecece;}.cls-2{stroke-width:2px;}.cls-3{stroke-width:1.88px;}.cls-4,.cls-5{fill:#0099de;}.cls-4{opacity:0.25;isolation:isolate;}.cls-6{mask:url(#mask);}.cls-7{fill:#00a99d;}.cls-8{mask:url(#mask-2-2);}.cls-9{mask:url(#mask-3);}</style><mask id="mask" x="268.41" y="268.41" width="166.78" height="164.17" maskUnits="userSpaceOnUse"><g transform="translate(-26 -32)"><g id="mask-2"><path id="path-1" class="cls-1" d="M311.33,383.49A66.45,66.45,0,1,0,377.79,317,66.46,66.46,0,0,0,311.33,383.49Z"/></g></g></mask><mask id="mask-2-2" x="265.81" y="265.81" width="171.99" height="171.99" maskUnits="userSpaceOnUse"><g transform="translate(-26 -32)"><g id="mask-2-3" data-name="mask-2"><path id="path-1-2" data-name="path-1" class="cls-1" d="M311.33,383.49A66.45,66.45,0,1,0,377.79,317,66.46,66.46,0,0,0,311.33,383.49Z"/></g></g></mask><mask id="mask-3" x="310.11" y="310.11" width="83.39" height="86" maskUnits="userSpaceOnUse"><g transform="translate(-26 -32)"><g id="mask-4"><path id="path-3" class="cls-1" d="M357.84,361.78a22.58,22.58,0,0,0,27.69,35.51l16,17.31,5.3-4.88-15.93-17.28a22.59,22.59,0,0,0-16.77-36.58l-.94,0A22.6,22.6,0,0,0,357.84,361.78Zm3.93,27.08a15.42,15.42,0,1,1,11.37,5A15.42,15.42,0,0,1,361.77,388.86Z"/></g></g></mask></defs><title>Data Discovery</title><g id="mask-4-2" data-name="mask-4"><path id="path-3-2" data-name="path-3" class="cls-1" d="M357.84,361.78a22.58,22.58,0,0,0,27.69,35.51l16,17.31,5.3-4.88-15.93-17.28a22.59,22.59,0,0,0-16.77-36.58l-.94,0A22.6,22.6,0,0,0,357.84,361.78Zm3.93,27.08a15.42,15.42,0,1,1,11.37,5A15.42,15.42,0,0,1,361.77,388.86Z" transform="translate(-26 -32)"/></g><g id="mask-2-4" data-name="mask-2"><path id="path-1-3" data-name="path-1" class="cls-1" d="M311.33,383.49A66.45,66.45,0,1,0,377.79,317,66.46,66.46,0,0,0,311.33,383.49Z" transform="translate(-26 -32)"/></g><g id="Home"><g id="icon-visual-data-discovery"><path id="Stroke-1" class="cls-2" d="M158.9,99.75v565.5" transform="translate(-26 -32)"/><path id="Stroke-2" class="cls-2" d="M268.35,42.42V722.58" transform="translate(-26 -32)"/><path id="Stroke-3" class="cls-3" d="M377.8,32V733" transform="translate(-26 -32)"/><path id="Stroke-4" class="cls-2" d="M487.25,42.42V722.58" transform="translate(-26 -32)"/><path id="Stroke-5" class="cls-2" d="M596.7,99.75v565.5" transform="translate(-26 -32)"/><path id="Stroke-6" class="cls-2" d="M659.25,164.9H93.75" transform="translate(-26 -32)"/><path id="Stroke-7" class="cls-2" d="M716.58,274.35H36.42" transform="translate(-26 -32)"/><path id="Stroke-8" class="cls-2" d="M716.58,493.25H36.42" transform="translate(-26 -32)"/><path id="Stroke-9" class="cls-2" d="M659.25,602.7H93.75" transform="translate(-26 -32)"/><path id="Stroke-10" class="cls-3" d="M727,383.8H26" transform="translate(-26 -32)"/><g id="Group-61"><path id="Fill-11" class="cls-4" d="M278.07,384.79a99.72,99.72,0,1,1,99.71,99.72,99.72,99.72,0,0,1-99.71-99.72" transform="translate(-26 -32)"/><path id="Fill-13" class="cls-5" d="M377.78,635.62a31.93,31.93,0,1,1,31.93-31.93,32,32,0,0,1-31.93,31.93" transform="translate(-26 -32)"/><path id="Fill-17" class="cls-5" d="M377.78,196.51a31.92,31.92,0,1,1,31.93-31.92,32,32,0,0,1-31.93,31.92" transform="translate(-26 -32)"/><path id="Fill-21" class="cls-5" d="M596.68,415.41a31.92,31.92,0,1,1,31.93-31.92,32,32,0,0,1-31.93,31.92" transform="translate(-26 -32)"/><path id="Fill-25" class="cls-5" d="M158.88,415.41a31.92,31.92,0,1,1,31.93-31.92,32,32,0,0,1-31.93,31.92" transform="translate(-26 -32)"/><path id="Fill-29" class="cls-5" d="M487.23,294.24a21.5,21.5,0,1,1,21.5-21.5,21.52,21.52,0,0,1-21.5,21.5" transform="translate(-26 -32)"/><path id="Fill-33" class="cls-5" d="M268.33,294.24a21.5,21.5,0,1,1,21.5-21.5,21.52,21.52,0,0,1-21.5,21.5" transform="translate(-26 -32)"/><path id="Fill-37" class="cls-5" d="M487.23,514.44a21.5,21.5,0,1,1,21.5-21.5,21.52,21.52,0,0,1-21.5,21.5" transform="translate(-26 -32)"/><path id="Fill-41" class="cls-5" d="M596.68,184.79a21.5,21.5,0,1,1,21.5-21.5,21.52,21.52,0,0,1-21.5,21.5" transform="translate(-26 -32)"/><path id="Fill-45" class="cls-5" d="M158.88,184.79a21.5,21.5,0,1,1,21.5-21.5,21.52,21.52,0,0,1-21.5,21.5" transform="translate(-26 -32)"/><path id="Fill-49" class="cls-5" d="M596.68,623.89a21.5,21.5,0,1,1,21.5-21.5,21.52,21.52,0,0,1-21.5,21.5" transform="translate(-26 -32)"/><path id="Fill-53" class="cls-5" d="M158.88,623.89a21.5,21.5,0,1,1,21.5-21.5,21.52,21.52,0,0,1-21.5,21.5" transform="translate(-26 -32)"/><path id="Fill-57" class="cls-5" d="M268.33,514.44a21.5,21.5,0,1,1,21.5-21.5,21.52,21.52,0,0,1-21.5,21.5" transform="translate(-26 -32)"/></g><g id="Group-65"><g class="cls-6"><polygon id="Fill-62" class="cls-7" points="268.41 432.59 435.19 432.59 435.19 268.41 268.41 268.41 268.41 432.59"/></g><g class="cls-8"><path id="Fill-64" class="cls-7" d="M463.8,297.81h-172v172h172v-172ZM297,462H456V303H297Z" transform="translate(-26 -32)"/></g></g><g id="Group-70"><g class="cls-9"><polygon id="Fill-68" class="cls-1" points="310.11 396.1 393.5 396.1 393.5 310.11 310.11 310.11 310.11 396.1"/></g></g></g></g></svg>