<svg id="Layer_1" data-name="Layer 1" xmlns="http://www.w3.org/2000/svg" viewBox="0 0 512.24 624.9"><title>Decoupled</title><path d="M241.25,687c-4.89-.66-9.79-1.21-14.65-2a125.34,125.34,0,0,1-50.42-19.74c-30.77-20.67-50.54-49.07-57.3-85.57-8.32-45,3.19-85,35.17-117.74,43.2-44.27,87.24-87.73,131.17-131.28,21.48-21.29,47.6-33.47,77.68-36.83A132.1,132.1,0,0,1,498.14,370c.37.8.44,2.36-.06,2.85-7.53,7.43-15,14.94-22.85,22-5.21,4.7-11.36,7.95-18.59,8.54-3.9.32-3.92.2-5.48-3.41-12.44-28.89-34.06-46.42-65.25-50.92-26.77-3.87-50.18,4.22-69.36,23.27q-60.66,60.26-120.88,121c-32.55,32.95-29.91,88.25,5.15,118.51,33.71,29.1,81.91,27,113.63-4.78q38.51-38.62,77.08-77.15a3.82,3.82,0,0,1,4.26-1.27c21.3,5.57,42.71,5.43,64.16.91.31-.07.63-.1,1.58-.24l-11.8,11.75c-36.27,36.25-72.37,72.66-108.87,108.67-21.19,20.9-47,32.71-76.57,36.28-2.48.3-5,.65-7.42,1Z" transform="translate(-116.27 -62.1)"/><path d="M614.65,283.79l-53.89-15.4c1.91-8,3.9-15.7,5.58-23.47,3.69-17.19,5.87-34.53,4.45-52.16-2.07-25.88-13.73-46-35.54-60.4-41-27-94.72-13.44-118.36,30.19q-26.08,48.1-52,96.29a4.43,4.43,0,0,1-4.38,2.69c-21.27.71-41.11,6.63-59.8,16.65-.67.36-1.36.7-2.5,1.29.4-.94.57-1.47.83-2,26.55-49.09,52.68-98.41,79.79-147.18,21.35-38.42,54.73-60.56,98.11-66.86,30.77-4.47,59.6,2,86.34,18,12,7.17,23.78,14.61,33.44,24.94,15.58,16.65,24.6,36.51,28.79,58.7,4.69,24.88,3.55,49.78-.82,74.52-2.44,13.8-6,27.4-9.1,41.08C615.36,281.63,615,282.52,614.65,283.79Z" transform="translate(-116.27 -62.1)"/><path d="M498.26,419,531,459.66c-6.31,5-12.3,10.29-18.76,14.89a122.36,122.36,0,0,1-56.56,22.16c-47.17,5.79-87-8.94-118.89-44.33a121.86,121.86,0,0,1-20.26-31.33c-.37-.82-.44-2.38.06-2.88,7.65-7.56,15.22-15.23,23.24-22.38,5.51-4.9,12.05-8.13,19.76-8.25,2,0,2.86.69,3.55,2.51a82,82,0,0,0,85.82,52.3,80.93,80.93,0,0,0,47.12-21.67c.51-.47,1-.93,1.55-1.38A2.58,2.58,0,0,1,498.26,419Z" transform="translate(-116.27 -62.1)"/></svg>