<svg id="Layer_1" data-name="Layer 1" xmlns="http://www.w3.org/2000/svg" viewBox="0 0 657.04 483.27"><title>Failure Notification</title><path d="M475.51,249c3.85-23.29,12.54-43.6,27.45-61.1,33.22-39,88.7-52.35,135.38-32.47,47.16,20.08,76.67,68.33,72.22,118.07-4.69,52.41-42,95.46-92.75,105.85-7.89,1.62-9.61,4.69-9.58,12,.22,60.2.07,120.39.14,180.59,0,24-9.62,42.33-31.64,52.52a58.16,58.16,0,0,1-23.62,4.87q-221.4.43-442.8.14c-33.86,0-56.18-22.74-56.24-56.53q-.23-134.16,0-268.33c.08-33.54,22.45-55.55,55.82-55.56q177-.08,354,0Zm34.57,99.73c-3.06,2.31-5.78,4.3-8.44,6.38L361,465.16c-22.54,17.64-37.14,17.68-59.46.22q-94.43-73.87-188.87-147.72c-8.46-6.62-17-13.14-26.93-20.8-.47,4.78-1,7.69-1,10.6q-.06,132.18,0,264.35c0,18.63,8.23,26.83,26.74,27,27.56.17,55.11,0,82.67,0q177.09,0,354.17,0c21.4,0,28.89-7.53,29.09-28.76.12-13.27,0-26.54,0-39.81,0-46.61.13-93.22-.21-139.83,0-3.37-2.9-9.24-5.27-9.69C548.23,376.12,527.89,365.27,510.08,348.75Zm-35.87-68.09H115.75c2.19,1.89,3.18,2.82,4.24,3.65Q221.2,363.53,322.33,442.85c6.69,5.26,11.42,4.62,17.8-.42,39.21-31,78.69-61.66,118.07-92.43,10.93-8.54,21.84-17.08,31.57-24.7C484.38,309.83,479.48,295.79,474.21,280.66ZM592.72,177.37a87.28,87.28,0,0,0-87.38,87.48c0,47.45,39.55,86.61,87.31,86.54A87.36,87.36,0,0,0,680,263.88C679.89,216.19,640.72,177.38,592.72,177.37Z" transform="translate(-53.96 -146.32)"/><path d="M608,235.25c0,7.12.32,14.25-.07,21.34-.54,9.72-6.53,16-14.84,16.21s-15.25-5.8-15.6-15.33c-.57-15.22-.57-30.49,0-45.71.34-9,7-14.89,15.17-14.52,9.15.42,14.49,5.59,15.09,14.66.52,7.75.11,15.56.11,23.35Z" transform="translate(-53.96 -146.32)"/><path d="M592.19,285.74A15.1,15.1,0,0,1,608,300.86a15.88,15.88,0,0,1-14.77,15.43c-8.33.33-15.68-6.89-15.69-15.42A14.74,14.74,0,0,1,592.19,285.74Z" transform="translate(-53.96 -146.32)"/></svg>