<svg id="Layer_1" data-name="Layer 1" xmlns="http://www.w3.org/2000/svg" viewBox="0 0 691 351.25"><title>GxP</title><path d="M382.86,556.1q-161.33,0-322.67-.1a32.67,32.67,0,0,1-13.44-2.54C39.28,550,38,542.67,38,535.18Q38,485.11,38,435q0-104,.07-207.93A34.82,34.82,0,0,1,40,214.7c2.7-6.83,8.93-9.09,15.79-9.75a50.39,50.39,0,0,1,5.07,0q322.67,0,645.34.08c4.55,0,9.51.4,13.56,2.21,7.74,3.46,9.26,10.86,9.26,18.63V326q0,104-.1,207.93a33.06,33.06,0,0,1-2.54,13.44c-3.32,7.23-10.37,8.71-17.64,8.72q-43.11.07-86.22,0Zm-328.1-17H712.2V221.74H54.76Z" transform="translate(-38 -204.86)"/><path d="M284.74,343.16c-4.69-3-9.58-5.67-14-9-16.56-12.31-34.92-19.31-55.66-17.58-27.05,2.26-45.2,19-50.27,46.18A82.42,82.42,0,0,0,168,405.24c7,20.37,22.26,30.81,42.73,34.06,9.22,1.46,18.69,1.34,28.48,2V402.84H203.28v-34h84.5V388.5c0,22-.09,43.93.08,65.89,0,4-1.21,5.56-5.18,6.85-24.66,8-49.71,13.68-75.81,12.39-28.69-1.42-54.31-10.29-73.27-33.14-10-12-15.68-26.3-18.07-41.62-3-19.16-2.55-38.34,4.17-56.77,10.42-28.6,30.17-47.54,59.94-55.18,35.11-9,69.15-5.44,102.16,9.28,3.57,1.59,4.89,3.69,4.81,7.65-.26,12.43-.1,24.87-.1,37.31Z" transform="translate(-38 -204.86)"/><path d="M501.1,286h6.46c26.39,0,52.79-.26,79.18.1,15,.21,29.59,3.38,42.57,11.5,14.42,9,22.06,22.73,23.39,39.16,1.65,20.45-3,39.44-19,53.92-11.28,10.27-24.33,17.52-39.87,18.19-14.65.62-29.34.13-44.69.13V469.5H501.1Zm48.12,90c8.08,0,15.47.29,22.83-.06,18.94-.9,27.08-7.13,31.07-23.25,2.75-11.11-3.2-24.71-12.51-28.62-13.41-5.62-27.38-3.58-41.39-3.72Z" transform="translate(-38 -204.86)"/><path d="M472.89,469.89c-16.29,0-31.49.08-46.68-.12a7.06,7.06,0,0,1-4.8-2.62c-9.85-13.22-19.51-26.58-29.2-39.88-9.85,13.28-19.67,26.61-29.63,39.83-1,1.28-2.81,2.65-4.27,2.67-15.57.19-31.14.12-47.71.12l55.33-70.2-54.06-69.27h20.51c7.39,0,14.83.49,22.16-.16,5.88-.51,8.9,2.09,12,6.54,8.2,11.93,16.85,23.54,25.68,35.77,9.54-13.46,18.66-26.43,28-39.27a6.82,6.82,0,0,1,4.54-2.75c15.76-.2,31.51-.12,48.19-.12-14.11,17.82-27.58,34.85-41.08,51.85-3.75,4.73-7.63,9.35-11.43,14-2,2.5-1.39,4.63.52,7.06C438,425.19,455.09,447.1,472.89,469.89Z" transform="translate(-38 -204.86)"/></svg>