<svg id="Layer_1" data-name="Layer 1" xmlns="http://www.w3.org/2000/svg" viewBox="0 0 746.06 731.82"><title>High volume Message handling</title><path d="M476.55,472.32a146.17,146.17,0,0,1-59.64,31,5.51,5.51,0,0,0-3.17,4c-.38,5.43-.15,10.9-.15,16,.86.64,1.19,1.09,1.51,1.08,15-.15,15.36,5.16,15.29,17.16-.23,35.13.06,70.27-.14,105.41-.12,22.84-17.74,42.47-40,45.19C367,695,345.42,681,339.36,658.81a56.4,56.4,0,0,1-1.74-14.43c-.14-35.34-.07-70.68-.06-106,0-10.84,2.23-13.18,13-13.72,1,0,2-.23,3.78-.46,0-5.94.15-11.75-.13-17.55-.05-1.14-1.53-2.75-2.72-3.21-10.56-4.09-21.62-7.13-31.71-12.13s-19.22-11.9-29.19-18.23c-.41.36-1.36,1.08-2.18,1.9-17.55,17.5-35,35.06-52.66,52.47-2.62,2.59-3.39,4.6-1.93,8.35a32.72,32.72,0,0,1-12.5,39.64,33.53,33.53,0,0,1-41.6-3.25,34,34,0,0,1-6-41.85,32.81,32.81,0,0,1,39.14-14.2c4.81,1.66,7.19.56,10.33-2.63,17.94-18.23,36.08-36.28,54.5-54.74-20.18-23.8-31.75-51.18-34.24-82.87-2.12-.1-4.08-.28-6-.28-14.21,0-28.43.12-42.65-.11-4-.06-5.92,1-7.66,4.83a32.87,32.87,0,0,1-37.64,18.88,33.55,33.55,0,0,1,.68-65.64,32.48,32.48,0,0,1,36.43,17.9c2.12,4.47,4.57,5.61,9.16,5.52,13.8-.29,27.62-.1,41.43-.12,2,0,3.95-.18,6.26-.28,2.67-31.44,14.11-58.9,34.54-82.68-13-13-25.6-25.91-38.57-38.44-1.21-1.16-4.79-.69-6.92,0a33.64,33.64,0,0,1-41.88-17.64c-7.22-15.87-1-34.93,14.17-43.15A34.66,34.66,0,0,1,243,178.35c10.6,8.87,14.29,23.38,9.65,37.08-.61,1.82-1.07,4.85-.09,5.87,12.66,13.12,25.59,26,37.69,38.14,12.33-7.29,23.51-14.6,35.32-20.7,13.63-7,28.46-10.72,43.75-12,4.31-.34,5.36-1.95,5.33-6-.16-20.92-.13-41.84,0-62.76,0-3.21-.8-4.94-4-6.41-15.81-7.25-23.43-23-19.33-39s18.88-26.2,35.82-24.94c15.78,1.18,28.54,14.1,30.32,30.72,1.44,13.38-6.4,26.54-19.44,33-1.71.86-4.16,2.72-4.18,4.14-.26,23.32-.19,46.65-.19,70.53,31.38,2.62,58.84,14,83.15,34.74L503,234.37a72.88,72.88,0,0,1,6.51-6.41c5.58-4.34,7.36-8.61,4.89-16.27-5.57-17.3,5.72-35.43,23.38-39.92,18.92-4.8,36.7,5.6,41.38,24.21,4.47,17.78-6.37,36.65-24.24,40.17-6.61,1.3-13.86-.74-20.82-1.14a15.61,15.61,0,0,0-5.37.54c-1,.33-1.76,1.62-2.62,2.48l-36,36.18c20.23,23.81,31.71,51.23,34.28,82.91h11.72c10.56,0,21.14-.37,31.68.13,7,.33,11.33-.89,15-8.11,6.84-13.58,23-19.23,37.64-15a33.62,33.62,0,0,1-1.75,65c-14.49,3.58-30.26-3.2-36.95-16.92-2.52-5.18-5.53-6.29-10.67-6.17-13.2.3-26.4.1-39.61.1h-7c-2.69,31.63-14.13,59.06-34.67,83L540,509.21a31.39,31.39,0,0,1,2.57,2.59c3.63,4.64,7.12,6.17,13.74,4.06a32.58,32.58,0,0,1,41.88,24.67c4,19.55-9.08,37.66-29.15,40.46-18.62,2.6-36.26-12.15-37.2-31.66-.23-4.72,1.61-9.51,2.25-14.3.23-1.76.46-4.31-.52-5.3C514.82,510.62,495.87,491.69,476.55,472.32ZM384.24,244.66c-67-.24-122.1,54.21-122.33,121-.23,67.56,54.55,122.69,121.94,122.73,66.63.05,121.73-54.48,122-120.79A122.13,122.13,0,0,0,384.24,244.66ZM356.9,574.38a31.32,31.32,0,0,0-.49,3.79c0,22.53-.06,45.05.06,67.58a30.57,30.57,0,0,0,1.44,9c4,12.49,16.81,20.6,29.29,18.76,14.26-2.1,24.08-12.86,24.26-27.54.28-22.53.09-45,.05-67.58a25.29,25.29,0,0,0-.62-4Zm-.51-10.25h54.73V544H356.68c-.11,2.15-.26,3.95-.27,5.74C356.37,554.33,356.39,559,356.39,564.13Zm42.18-442.79a14.66,14.66,0,1,0-29.32-.55,14.66,14.66,0,0,0,29.32.55Zm148,97a14.45,14.45,0,0,0,14.78-14.44,14.73,14.73,0,0,0-29.45-.06A14.33,14.33,0,0,0,546.61,218.34ZM156.79,351.84a14.4,14.4,0,0,0-14.58,14.61,14.76,14.76,0,0,0,14.65,14.72,15.12,15.12,0,0,0,14.75-14.77A14.79,14.79,0,0,0,156.79,351.84Zm453.9,0a14.7,14.7,0,0,0-14.48,14.86,15.15,15.15,0,0,0,15.07,14.47,14.76,14.76,0,0,0,14.33-15A14.41,14.41,0,0,0,610.69,351.85ZM217.14,547.64a14.6,14.6,0,0,0-14.46-14.83,14.92,14.92,0,0,0-14.87,14.57A14.38,14.38,0,0,0,202.43,562C210.86,562.06,217.12,556,217.14,547.64Zm348,14.31A14.35,14.35,0,0,0,580,547.6a14.94,14.94,0,0,0-14.63-14.81,14.62,14.62,0,0,0-14.69,14.6C550.62,555.78,556.7,561.9,565.17,562ZM221,218.33c8.35.07,14.76-6.08,14.87-14.28a14.71,14.71,0,0,0-29.42-.37A14.4,14.4,0,0,0,221,218.33ZM394.3,524.24V507.31H373.38v16.93Z" transform="translate(-5.94 -19.1)"/><path d="M472.94,366.9c-.15,14,2,12.6-11.71,16.1-9.41,2.41-11.53,9.15-14,16.2-.67,1.93,1,4.9,2.08,7.17,6.44,13.52,6.49,13.5-3.88,24.34-7.5,7.84-7.91,8.53-17.17,2.93-7.85-4.75-14.72-4.17-21.78.28-1.93,1.21-3.38,3.77-4.23,6-7,18.46-2.32,15-22.23,15.81-7,.27-10.78-2-12-8.76-.21-1.18-1.06-2.28-1.13-3.45-.61-10.09-9.3-11.2-16.08-13.91-1.93-.76-5.19,1.42-7.69,2.55-15.44,7-10.94,8.27-23.29-3.87-8.11-8-8.92-8.58-2.74-18.27,5.27-8.27,2.42-14.92-1.11-21.85-.95-1.88-4.12-2.9-6.47-3.77-17.4-6.41-14.4-2.31-14.63-20.39-.14-10.56-.2-11.37,10-13.77,9-2.12,13.26-7.6,15.36-15.58.54-2-.13-4.72-1.05-6.73-8.53-18.7-9.2-12.67,4.41-27.39,4.68-5.05,8.9-6.42,14.58-2.32,1,.7,2.35.86,3.25,1.62,7.59,6.42,14.6,1.64,21.16-1.69,2.22-1.12,3-5.4,4.1-8.37,5-13.92,2.35-12.37,17.15-12.38,15,0,13.19-1.77,16.9,12.34,2.44,9.26,9.46,10.84,16.1,13.27,2.29.84,5.95-1.61,8.83-2.92,14.13-6.42,10.39-7.36,21.34,3.48,10.11,10,10.45,7.81,3.21,20.2-4.92,8.41-1.42,14.7,1.92,21.28,1.06,2.09,5.08,2.81,7.86,3.86C474.94,354.57,472.77,351.25,472.94,366.9ZM332,306.1c-8.91,8-8.91,8-4.1,18a23,23,0,0,0,1.33,2.73c2.51,3.75,1.53,7,.24,11.26-3.54,11.58-9.72,19.48-22.26,21.31a4,4,0,0,0-2.55,2.1c-2.37,5.8.29,11.32,6.34,13.42,6.79,2.36,12.27,4.51,15.78,12.82,4.32,10.2,4.18,18.14-1.55,26.92a6,6,0,0,0-.13,5.32c4.36,6.71,6.67,7.2,13.72,3.8,2.38-1.15,4.64-2.68,7.14-3.35s5.2-1.07,7.41-.34c11.52,3.81,22.08,8.67,23.49,23.1.44,4.55,4.74,2.67,7.46,2.81s6.13,1.2,6.79-3c1.86-11.83,8.71-18.41,20.15-21.81,4.84-1.43,8.66-2.57,13.05.26,1.86,1.2,4.17,1.71,6,3,3.82,2.62,6.5,2,9.86-1.36s4.57-6.17,1.71-10.37c-5.12-7.51-4.83-14.38-1.42-23.47,3.59-9.6,9.82-12.46,17.77-14.75,3.92-1.13,5.3-2.92,5.4-7.17.13-5.24-1-8.48-6.63-9.33-2.36-.36-4.56-1.71-6.91-2.28-4.21-1-5.69-4-7.61-7.66-5.58-10.61-7.06-20.57.61-30.78.7-.93.24-3.55-.61-4.68-5.33-7.06-5.93-7.11-13.74-3.32-2.19,1.06-4.3,2.57-6.61,3a19.49,19.49,0,0,1-8.43,0c-11.94-3.19-21.26-9.18-22.82-22.92-.11-1-1.71-2.25-2.83-2.54-7.1-1.86-10.29-.07-12.65,6.75-1,2.87-1.7,5.89-3.08,8.57a11.12,11.12,0,0,1-4.3,4.63c-11.74,6.23-23.56,8.91-35.14-.48C332.71,306.18,332.46,306.2,332,306.1Z" transform="translate(-5.94 -19.1)"/><path d="M384.13,328.66a37.67,37.67,0,0,1,37.56,38.14c-.14,20.81-17.62,37.92-38.34,37.51a37.83,37.83,0,0,1,.78-75.65Zm28,37.46a28.25,28.25,0,1,0-27.81,28.69A28.32,28.32,0,0,0,412.14,366.12Z" transform="translate(-5.94 -19.1)"/><path d="M459.07,113.47V101.24c-1.9,0-3.68,0-5.46,0-3.47-.08-5.09-1.61-5.1-5.1q-.08-15.36,0-30.72c0-3.31,1.68-5,5-5q24.62,0,49.24,0c3.39,0,5.05,1.71,5.06,5.15q.06,15.24,0,30.5c0,3.54-1.67,5.17-5.24,5.18-9.73,0-19.47,0-29.2.08A5.49,5.49,0,0,0,470,102.7C466.38,106.07,463,109.6,459.07,113.47Zm4.1-10.71.58.34c1.34-1.41,2.74-2.76,4-4.25a4.81,4.81,0,0,1,4.14-1.77c9.72.08,19.44,0,29.17,0h2.35V64.67H452.79V97.16h10.38Z" transform="translate(-5.94 -19.1)"/><path d="M511.89,88.05V84.13H517V51.18H465.69v5h-3.91a46.4,46.4,0,0,1,0-5.41c.28-2.26,2.34-3.61,5.21-3.62,6.82,0,13.65,0,20.47,0h27.44c4.43,0,6,1.61,6.06,6V81.87c0,4.77-1.43,6.18-6.27,6.18Z" transform="translate(-5.94 -19.1)"/><path d="M468.24,80.81a3.35,3.35,0,0,1-3.34,3.28,3.2,3.2,0,0,1-3.18-3.15,3.23,3.23,0,0,1,3.15-3.4A3.41,3.41,0,0,1,468.24,80.81Z" transform="translate(-5.94 -19.1)"/><path d="M494.54,80.82a3.24,3.24,0,0,1-3.29,3.27A3.32,3.32,0,0,1,488,80.94a3.42,3.42,0,0,1,3.23-3.41A3.29,3.29,0,0,1,494.54,80.82Z" transform="translate(-5.94 -19.1)"/><path d="M478.05,77.54A3.28,3.28,0,1,1,474.84,81,3.32,3.32,0,0,1,478.05,77.54Z" transform="translate(-5.94 -19.1)"/><path d="M580.07,116.47V104.24c-1.9,0-3.68,0-5.46,0-3.47-.08-5.09-1.61-5.1-5.1q-.07-15.36,0-30.72c0-3.31,1.68-5,5-5q24.62,0,49.24,0c3.39,0,5,1.71,5.06,5.15q.06,15.24,0,30.5c0,3.54-1.67,5.17-5.24,5.18-9.73,0-19.47,0-29.2.08A5.49,5.49,0,0,0,591,105.7C587.38,109.07,584,112.6,580.07,116.47Zm4.1-10.71.58.34c1.34-1.41,2.74-2.76,4-4.25a4.81,4.81,0,0,1,4.14-1.77c9.72.08,19.44,0,29.17,0h2.35V67.67H573.79v32.49h10.38Z" transform="translate(-5.94 -19.1)"/><path d="M632.89,91.05V87.13H638V54.18H586.69v5h-3.91a46.4,46.4,0,0,1,0-5.41c.28-2.26,2.34-3.61,5.21-3.62,6.82,0,13.65,0,20.47,0h27.44c4.43,0,6,1.61,6.06,6V84.87c0,4.77-1.43,6.18-6.27,6.18Z" transform="translate(-5.94 -19.1)"/><path d="M589.24,83.81a3.35,3.35,0,0,1-3.34,3.28,3.2,3.2,0,0,1-3.18-3.15,3.23,3.23,0,0,1,3.15-3.4A3.41,3.41,0,0,1,589.24,83.81Z" transform="translate(-5.94 -19.1)"/><path d="M615.54,83.82a3.24,3.24,0,0,1-3.29,3.27A3.32,3.32,0,0,1,609,83.94a3.42,3.42,0,0,1,3.23-3.41A3.29,3.29,0,0,1,615.54,83.82Z" transform="translate(-5.94 -19.1)"/><path d="M599.05,80.54A3.28,3.28,0,1,1,595.84,84,3.32,3.32,0,0,1,599.05,80.54Z" transform="translate(-5.94 -19.1)"/><path d="M604.07,193.47V181.24c-1.9,0-3.68,0-5.46,0-3.47-.08-5.09-1.61-5.1-5.1q-.07-15.36,0-30.72c0-3.31,1.68-5,5-5q24.62,0,49.24,0c3.39,0,5,1.71,5.06,5.15q.06,15.24,0,30.5c0,3.54-1.67,5.17-5.24,5.18-9.73,0-19.47,0-29.2.08A5.49,5.49,0,0,0,615,182.7C611.38,186.07,608,189.6,604.07,193.47Zm4.1-10.71.58.34c1.34-1.41,2.74-2.76,4-4.25a4.81,4.81,0,0,1,4.14-1.77c9.72.08,19.44,0,29.17,0h2.35V144.67H597.79v32.49h10.38Z" transform="translate(-5.94 -19.1)"/><path d="M656.89,168.05v-3.92H662V131.18H610.69v5h-3.91a46.4,46.4,0,0,1,0-5.41c.28-2.26,2.34-3.61,5.21-3.62,6.82,0,13.65,0,20.47,0h27.44c4.43,0,6,1.61,6.06,6v28.75c0,4.77-1.43,6.18-6.27,6.18Z" transform="translate(-5.94 -19.1)"/><path d="M613.24,160.81a3.35,3.35,0,0,1-3.34,3.28,3.2,3.2,0,0,1-3.18-3.15,3.23,3.23,0,0,1,3.15-3.4A3.41,3.41,0,0,1,613.24,160.81Z" transform="translate(-5.94 -19.1)"/><path d="M639.54,160.82a3.24,3.24,0,0,1-3.29,3.27,3.32,3.32,0,0,1-3.23-3.15,3.42,3.42,0,0,1,3.23-3.41A3.29,3.29,0,0,1,639.54,160.82Z" transform="translate(-5.94 -19.1)"/><path d="M623.05,157.54a3.28,3.28,0,1,1-3.21,3.41A3.32,3.32,0,0,1,623.05,157.54Z" transform="translate(-5.94 -19.1)"/><path d="M690.07,137.47V125.24c-1.9,0-3.68,0-5.46,0-3.47-.08-5.09-1.61-5.1-5.1q-.07-15.36,0-30.72c0-3.31,1.68-5,5-5q24.62,0,49.24,0c3.39,0,5,1.71,5.06,5.15q.06,15.24,0,30.5c0,3.54-1.67,5.17-5.24,5.18-9.73,0-19.47,0-29.2.08A5.49,5.49,0,0,0,701,126.7C697.38,130.07,694,133.6,690.07,137.47Zm4.1-10.71.58.34c1.34-1.41,2.74-2.76,4-4.25a4.81,4.81,0,0,1,4.14-1.77c9.72.08,19.44,0,29.17,0h2.35V88.67H683.79v32.49h10.38Z" transform="translate(-5.94 -19.1)"/><path d="M742.89,112.05v-3.92H748V75.18H696.69v5h-3.91a46.4,46.4,0,0,1,0-5.41c.28-2.26,2.34-3.61,5.21-3.62,6.82,0,13.65,0,20.47,0h27.44c4.43,0,6,1.61,6.06,6v28.75c0,4.77-1.43,6.18-6.27,6.18Z" transform="translate(-5.94 -19.1)"/><path d="M699.24,104.81a3.35,3.35,0,0,1-3.34,3.28,3.2,3.2,0,0,1-3.18-3.15,3.23,3.23,0,0,1,3.15-3.4A3.41,3.41,0,0,1,699.24,104.81Z" transform="translate(-5.94 -19.1)"/><path d="M725.54,104.82a3.24,3.24,0,0,1-3.29,3.27,3.32,3.32,0,0,1-3.23-3.15,3.42,3.42,0,0,1,3.23-3.41A3.29,3.29,0,0,1,725.54,104.82Z" transform="translate(-5.94 -19.1)"/><path d="M709.05,101.54a3.28,3.28,0,1,1-3.21,3.41A3.32,3.32,0,0,1,709.05,101.54Z" transform="translate(-5.94 -19.1)"/><path d="M345.07,85.47V73.24c-1.9,0-3.68,0-5.46,0-3.47-.08-5.09-1.61-5.1-5.1q-.08-15.36,0-30.72c0-3.31,1.68-5,5-5q24.62,0,49.24,0c3.39,0,5.05,1.71,5.06,5.15q.06,15.24,0,30.5c0,3.54-1.67,5.17-5.24,5.18-9.73,0-19.47,0-29.2.08A5.49,5.49,0,0,0,356,74.7C352.38,78.07,349,81.6,345.07,85.47Zm4.1-10.71.58.34c1.34-1.41,2.74-2.76,4-4.25a4.81,4.81,0,0,1,4.14-1.77c9.72.08,19.44,0,29.17,0h2.35V36.67H338.79V69.16h10.38Z" transform="translate(-5.94 -19.1)"/><path d="M397.89,60.05V56.13H403V23.18H351.69v5h-3.91a46.4,46.4,0,0,1,0-5.41c.28-2.26,2.34-3.61,5.21-3.62,6.82,0,13.65,0,20.47,0h27.44c4.43,0,6.05,1.61,6.06,6V53.87c0,4.77-1.43,6.18-6.27,6.18Z" transform="translate(-5.94 -19.1)"/><path d="M354.24,52.81a3.35,3.35,0,0,1-3.34,3.28,3.2,3.2,0,0,1-3.18-3.15,3.23,3.23,0,0,1,3.15-3.4A3.41,3.41,0,0,1,354.24,52.81Z" transform="translate(-5.94 -19.1)"/><path d="M380.54,52.82a3.24,3.24,0,0,1-3.29,3.27A3.32,3.32,0,0,1,374,52.94a3.42,3.42,0,0,1,3.23-3.41A3.29,3.29,0,0,1,380.54,52.82Z" transform="translate(-5.94 -19.1)"/><path d="M364.05,49.54A3.28,3.28,0,1,1,360.84,53,3.32,3.32,0,0,1,364.05,49.54Z" transform="translate(-5.94 -19.1)"/><path d="M111.07,182.47V170.24c-1.9,0-3.68,0-5.46,0-3.47-.08-5.09-1.61-5.1-5.1q-.08-15.36,0-30.72c0-3.31,1.68-5,5-5q24.62,0,49.24,0c3.39,0,5.05,1.71,5.06,5.15q.06,15.24,0,30.5c0,3.54-1.67,5.17-5.24,5.18-9.73,0-19.47,0-29.2.08A5.49,5.49,0,0,0,122,171.7C118.38,175.07,115,178.6,111.07,182.47Zm4.1-10.71.58.34c1.34-1.41,2.74-2.76,4-4.25a4.81,4.81,0,0,1,4.14-1.77c9.72.08,19.44,0,29.17,0h2.35V133.67H104.79v32.49h10.38Z" transform="translate(-5.94 -19.1)"/><path d="M163.89,157.05v-3.92H169V120.18H117.69v5h-3.91a46.4,46.4,0,0,1,0-5.41c.28-2.26,2.34-3.61,5.21-3.62,6.82,0,13.65,0,20.47,0h27.44c4.43,0,6.05,1.61,6.06,6v28.75c0,4.77-1.43,6.18-6.27,6.18Z" transform="translate(-5.94 -19.1)"/><path d="M120.24,149.81a3.35,3.35,0,0,1-3.34,3.28,3.2,3.2,0,0,1-3.18-3.15,3.23,3.23,0,0,1,3.15-3.4A3.41,3.41,0,0,1,120.24,149.81Z" transform="translate(-5.94 -19.1)"/><path d="M146.54,149.82a3.24,3.24,0,0,1-3.29,3.27,3.32,3.32,0,0,1-3.23-3.15,3.42,3.42,0,0,1,3.23-3.41A3.29,3.29,0,0,1,146.54,149.82Z" transform="translate(-5.94 -19.1)"/><path d="M130.05,146.54a3.28,3.28,0,1,1-3.21,3.41A3.32,3.32,0,0,1,130.05,146.54Z" transform="translate(-5.94 -19.1)"/><path d="M117.07,634.47V622.24c-1.9,0-3.68,0-5.46,0-3.47-.08-5.09-1.61-5.1-5.1q-.08-15.36,0-30.72c0-3.31,1.68-5,5-5q24.62,0,49.24,0c3.39,0,5.05,1.71,5.06,5.15q.06,15.24,0,30.5c0,3.54-1.67,5.17-5.24,5.18-9.73,0-19.47,0-29.2.08A5.49,5.49,0,0,0,128,623.7C124.38,627.07,121,630.6,117.07,634.47Zm4.1-10.71.58.34c1.34-1.41,2.74-2.76,4-4.25a4.81,4.81,0,0,1,4.14-1.77c9.72.08,19.44,0,29.17,0h2.35V585.67H110.79v32.49h10.38Z" transform="translate(-5.94 -19.1)"/><path d="M169.89,609.05v-3.92H175v-33H123.69v5h-3.91a46.4,46.4,0,0,1,0-5.41c.28-2.26,2.34-3.61,5.21-3.62,6.82,0,13.65,0,20.47,0h27.44c4.43,0,6.05,1.61,6.06,6v28.75c0,4.77-1.43,6.18-6.27,6.18Z" transform="translate(-5.94 -19.1)"/><path d="M126.24,601.81a3.35,3.35,0,0,1-3.34,3.28,3.2,3.2,0,0,1-3.18-3.15,3.23,3.23,0,0,1,3.15-3.4A3.41,3.41,0,0,1,126.24,601.81Z" transform="translate(-5.94 -19.1)"/><path d="M152.54,601.82a3.24,3.24,0,0,1-3.29,3.27,3.32,3.32,0,0,1-3.23-3.15,3.42,3.42,0,0,1,3.23-3.41A3.29,3.29,0,0,1,152.54,601.82Z" transform="translate(-5.94 -19.1)"/><path d="M136.05,598.54a3.28,3.28,0,1,1-3.21,3.41A3.32,3.32,0,0,1,136.05,598.54Z" transform="translate(-5.94 -19.1)"/><path d="M211.07,676.47V664.24c-1.9,0-3.68,0-5.46,0-3.47-.08-5.09-1.61-5.1-5.1q-.07-15.36,0-30.72c0-3.31,1.68-5,5-5q24.61,0,49.24,0c3.39,0,5.05,1.71,5.06,5.15q.06,15.24,0,30.5c0,3.54-1.67,5.17-5.24,5.18-9.73,0-19.47,0-29.2.08A5.49,5.49,0,0,0,222,665.7C218.38,669.07,215,672.6,211.07,676.47Zm4.1-10.71.58.34c1.34-1.41,2.74-2.76,4-4.25a4.81,4.81,0,0,1,4.14-1.77c9.72.08,19.44,0,29.17,0h2.35V627.67H204.79v32.49h10.38Z" transform="translate(-5.94 -19.1)"/><path d="M263.89,651.05v-3.92H269v-33H217.69v5h-3.91a46.4,46.4,0,0,1,0-5.41c.28-2.26,2.34-3.61,5.21-3.62,6.82,0,13.65,0,20.47,0h27.44c4.43,0,6.05,1.61,6.06,6v28.75c0,4.77-1.43,6.18-6.27,6.18Z" transform="translate(-5.94 -19.1)"/><path d="M220.24,643.81a3.35,3.35,0,0,1-3.34,3.28,3.2,3.2,0,0,1-3.18-3.15,3.23,3.23,0,0,1,3.15-3.4A3.41,3.41,0,0,1,220.24,643.81Z" transform="translate(-5.94 -19.1)"/><path d="M246.54,643.82a3.24,3.24,0,0,1-3.29,3.27,3.32,3.32,0,0,1-3.23-3.15,3.42,3.42,0,0,1,3.23-3.41A3.29,3.29,0,0,1,246.54,643.82Z" transform="translate(-5.94 -19.1)"/><path d="M230.05,640.54a3.28,3.28,0,1,1-3.21,3.41A3.32,3.32,0,0,1,230.05,640.54Z" transform="translate(-5.94 -19.1)"/><path d="M107.06,722.47V710.24c-1.73,0-3.34,0-5,0-3.15-.08-4.62-1.61-4.64-5.1q-.08-15.36,0-30.72c0-3.31,1.52-5,4.5-5q22.4,0,44.77,0c3.08,0,4.59,1.71,4.6,5.15q0,15.24,0,30.5c0,3.54-1.52,5.17-4.77,5.18-8.84,0-17.69,0-26.54.08a4.76,4.76,0,0,0-3,1.39C113.71,715.07,110.59,718.6,107.06,722.47Zm3.73-10.71.53.34c1.21-1.41,2.49-2.76,3.62-4.25a4.21,4.21,0,0,1,3.77-1.77c8.84.08,17.67,0,26.51,0h2.15V673.67h-46v32.49h9.44Z" transform="translate(-5.94 -19.1)"/><path d="M155.09,697.05v-3.92h4.6v-33H113.08v5h-3.55a48.71,48.71,0,0,1,0-5.41c.25-2.26,2.12-3.61,4.73-3.62,6.2,0,12.4,0,18.61,0h24.94c4,0,5.51,1.61,5.51,6q0,14.39,0,28.75c0,4.77-1.3,6.18-5.7,6.18Z" transform="translate(-5.94 -19.1)"/><path d="M115.4,689.81a3.21,3.21,0,0,1-3,3.28,3.06,3.06,0,0,1-2.89-3.15,3.13,3.13,0,0,1,2.87-3.4A3.26,3.26,0,0,1,115.4,689.81Z" transform="translate(-5.94 -19.1)"/><path d="M139.31,689.82a3.1,3.1,0,0,1-3,3.27,3.16,3.16,0,0,1-2.94-3.15,3.3,3.3,0,0,1,2.94-3.41A3.15,3.15,0,0,1,139.31,689.82Z" transform="translate(-5.94 -19.1)"/><path d="M124.32,686.54a3.3,3.3,0,0,1,.23,6.55A3.13,3.13,0,0,1,121.4,690,3.22,3.22,0,0,1,124.32,686.54Z" transform="translate(-5.94 -19.1)"/><path d="M83.85,737.47V725.24c2.36,0,4.56,0,6.77,0,4.3-.08,6.31-1.61,6.33-5.1q.1-15.36,0-30.72c0-3.31-2.08-5-6.15-5q-30.56,0-61.1,0c-4.21,0-6.27,1.71-6.28,5.15q-.08,15.24,0,30.5c0,3.54,2.08,5.17,6.5,5.18,12.08,0,24.16,0,36.23.08a7.76,7.76,0,0,1,4.17,1.39C74.78,730.07,79,733.6,83.85,737.47Zm-5.09-10.71-.72.34c-1.66-1.41-3.4-2.76-5-4.25A6.7,6.7,0,0,0,68,721.08c-12.06.08-24.12,0-36.19,0H28.84V688.67h62.8v32.49H78.76Z" transform="translate(-5.94 -19.1)"/><path d="M18.3,712.05v-3.92H12v-33H75.63v5h4.86a36.1,36.1,0,0,0-.06-5.41c-.34-2.26-2.9-3.61-6.46-3.62q-12.7,0-25.4,0h-34c-5.5,0-7.51,1.61-7.51,6q0,14.39,0,28.75c0,4.77,1.78,6.18,7.78,6.18Z" transform="translate(-5.94 -19.1)"/><path d="M72.47,704.81c0,1.76,1.91,3.29,4.14,3.28s3.88-1.38,4-3.15-1.65-3.36-3.91-3.4S72.51,703,72.47,704.81Z" transform="translate(-5.94 -19.1)"/><path d="M39.83,704.82c0,1.83,1.84,3.3,4.09,3.27s3.92-1.43,4-3.15-1.84-3.37-4-3.41S39.85,703,39.83,704.82Z" transform="translate(-5.94 -19.1)"/><path d="M60.3,701.54c-2.22,0-4.13,1.45-4.16,3.26S57.83,708,60,708.09s4.2-1.32,4.3-3.14S62.53,701.58,60.3,701.54Z" transform="translate(-5.94 -19.1)"/><path d="M201.69,747.91V735.69c-1.9,0-3.68,0-5.45,0-3.47-.07-5.09-1.61-5.11-5.09q-.07-15.36,0-30.72c0-3.31,1.67-5,5-5q24.61-.06,49.24,0c3.39,0,5,1.72,5.06,5.15q0,15.25,0,30.5c0,3.54-1.68,5.17-5.25,5.19-9.73,0-19.46,0-29.19.07a5.44,5.44,0,0,0-3.36,1.4C209,740.51,205.57,744.05,201.69,747.91Zm4.11-10.71.58.34c1.33-1.41,2.74-2.76,4-4.25a4.82,4.82,0,0,1,4.14-1.77c9.73.09,19.45,0,29.17,0H246V699.11H195.41V731.6H205.8Z" transform="translate(-5.94 -19.1)"/><path d="M254.52,722.5v-3.93h5.07v-33H208.32v5H204.4a44.11,44.11,0,0,1,0-5.4c.27-2.26,2.33-3.62,5.2-3.63,6.83,0,13.65,0,20.47,0h27.45c4.43,0,6.05,1.61,6.05,6q0,14.37,0,28.74c0,4.78-1.43,6.18-6.27,6.19Z" transform="translate(-5.94 -19.1)"/><path d="M210.86,715.26a3.34,3.34,0,0,1-3.33,3.27,3.21,3.21,0,0,1-3.19-3.14A3.25,3.25,0,0,1,207.5,712,3.4,3.4,0,0,1,210.86,715.26Z" transform="translate(-5.94 -19.1)"/><path d="M237.16,715.27a3.22,3.22,0,0,1-3.29,3.26,3.32,3.32,0,0,1-3.23-3.15,3.41,3.41,0,0,1,3.23-3.4A3.27,3.27,0,0,1,237.16,715.27Z" transform="translate(-5.94 -19.1)"/><path d="M220.67,712a3.34,3.34,0,0,1,3.36,3.27,3.28,3.28,0,0,1-6.56.15A3.34,3.34,0,0,1,220.67,712Z" transform="translate(-5.94 -19.1)"/><path d="M560.69,672.91V660.69c-1.9,0-3.68,0-5.45,0-3.47-.07-5.09-1.61-5.11-5.09q-.07-15.36,0-30.72c0-3.31,1.67-5,5-5q24.61-.06,49.24,0c3.39,0,5,1.72,5.06,5.15q0,15.25,0,30.5c0,3.54-1.68,5.17-5.25,5.19-9.73,0-19.46,0-29.19.07a5.44,5.44,0,0,0-3.36,1.4C568,665.51,564.57,669.05,560.69,672.91Zm4.11-10.71.58.34c1.33-1.41,2.74-2.76,4-4.25a4.82,4.82,0,0,1,4.14-1.77c9.73.09,19.45,0,29.17,0H605V624.11H554.41V656.6H564.8Z" transform="translate(-5.94 -19.1)"/><path d="M613.52,647.5v-3.93h5.07v-33H567.32v5H563.4a44.11,44.11,0,0,1,.05-5.4c.27-2.26,2.33-3.62,5.2-3.63,6.83,0,13.65,0,20.47,0h27.45c4.43,0,6,1.61,6,6q0,14.37,0,28.74c0,4.78-1.43,6.18-6.27,6.19Z" transform="translate(-5.94 -19.1)"/><path d="M569.86,640.26a3.34,3.34,0,0,1-3.33,3.27,3.21,3.21,0,0,1-3.19-3.14A3.25,3.25,0,0,1,566.5,637,3.4,3.4,0,0,1,569.86,640.26Z" transform="translate(-5.94 -19.1)"/><path d="M596.16,640.27a3.22,3.22,0,0,1-3.29,3.26,3.32,3.32,0,0,1-3.23-3.15,3.41,3.41,0,0,1,3.23-3.4A3.27,3.27,0,0,1,596.16,640.27Z" transform="translate(-5.94 -19.1)"/><path d="M579.67,637a3.34,3.34,0,0,1,3.36,3.27,3.28,3.28,0,0,1-6.56.15A3.34,3.34,0,0,1,579.67,637Z" transform="translate(-5.94 -19.1)"/><path d="M635.65,519.91V505.43c-2.25,0-4.36,0-6.47,0-4.1-.08-6-1.9-6-6q-.09-18.19,0-36.38c0-3.92,2-5.94,5.88-5.95q29.16-.06,58.32,0c4,0,6,2,6,6.09q.06,18.06,0,36.13c0,4.19-2,6.13-6.21,6.14-11.53,0-23.05,0-34.58.09a6.47,6.47,0,0,0-4,1.65C644.3,511.15,640.24,515.33,635.65,519.91Zm4.86-12.68.68.4c1.59-1.67,3.25-3.27,4.73-5a5.68,5.68,0,0,1,4.9-2.1c11.51.1,23,.05,34.55.05h2.79V462.11H628.21V500.6h12.3Z" transform="translate(-5.94 -19.1)"/><path d="M698.22,489.81v-4.65h6v-39H643.49V452h-4.63a52.45,52.45,0,0,1,0-6.4c.33-2.68,2.76-4.28,6.17-4.29,8.08,0,16.16,0,24.24,0h32.5c5.25,0,7.17,1.91,7.17,7.13q0,17,0,34.05c0,5.65-1.7,7.32-7.43,7.32Z" transform="translate(-5.94 -19.1)"/><path d="M646.51,481.24a4,4,0,0,1-4,3.88,3.89,3.89,0,0,1,0-7.77A4.06,4.06,0,0,1,646.51,481.24Z" transform="translate(-5.94 -19.1)"/><path d="M677.66,481.25a3.85,3.85,0,0,1-3.9,3.87,3.94,3.94,0,0,1-3.83-3.74,4.05,4.05,0,0,1,3.83-4A3.89,3.89,0,0,1,677.66,481.25Z" transform="translate(-5.94 -19.1)"/><path d="M658.13,477.35a4,4,0,0,1,4,3.87,3.89,3.89,0,0,1-7.77.18A4,4,0,0,1,658.13,477.35Z" transform="translate(-5.94 -19.1)"/><path d="M659.7,408.91V399c-1.54,0-3,0-4.43,0-2.81-.06-4.13-1.31-4.14-4.14q-.07-12.48,0-24.95c0-2.69,1.36-4.08,4-4.08q20,0,40,0c2.75,0,4.1,1.39,4.11,4.18q0,12.38,0,24.77c0,2.88-1.36,4.2-4.26,4.21-7.91,0-15.81,0-23.72.06a4.54,4.54,0,0,0-2.73,1.14C665.64,402.9,662.86,405.77,659.7,408.91Zm3.34-8.7.47.28c1.08-1.15,2.22-2.24,3.24-3.45a3.88,3.88,0,0,1,3.36-1.44c7.9.07,15.79,0,23.69,0h1.92V369.27H654.6v26.39H663Z" transform="translate(-5.94 -19.1)"/><path d="M702.61,388.27v-3.19h4.12V358.32H665.08v4h-3.17a37.57,37.57,0,0,1,0-4.38c.23-1.84,1.9-2.94,4.23-2.95,5.54,0,11.09,0,16.63,0h22.29c3.6,0,4.91,1.3,4.92,4.88v23.36c0,3.87-1.17,5-5.1,5Z" transform="translate(-5.94 -19.1)"/><path d="M667.15,382.39a2.72,2.72,0,0,1-2.71,2.66,2.6,2.6,0,0,1-2.58-2.56,2.64,2.64,0,0,1,2.56-2.77A2.78,2.78,0,0,1,667.15,382.39Z" transform="translate(-5.94 -19.1)"/><path d="M688.52,382.4a2.63,2.63,0,0,1-2.68,2.65,2.7,2.7,0,0,1-2.62-2.56,2.77,2.77,0,0,1,2.62-2.77A2.67,2.67,0,0,1,688.52,382.4Z" transform="translate(-5.94 -19.1)"/><path d="M675.12,379.72a2.71,2.71,0,0,1,2.72,2.66,2.66,2.66,0,0,1-5.32.12A2.71,2.71,0,0,1,675.12,379.72Z" transform="translate(-5.94 -19.1)"/><path d="M668.7,320.91V311c-1.54,0-3,0-4.43,0-2.81-.06-4.13-1.31-4.14-4.14q-.07-12.48,0-24.95c0-2.69,1.36-4.08,4-4.08q20,0,40,0c2.75,0,4.1,1.39,4.11,4.18q0,12.38,0,24.77c0,2.88-1.36,4.2-4.26,4.21-7.91,0-15.81,0-23.72.06a4.54,4.54,0,0,0-2.73,1.14C674.64,314.9,671.86,317.77,668.7,320.91Zm3.34-8.7.47.28c1.08-1.15,2.22-2.24,3.24-3.45a3.88,3.88,0,0,1,3.36-1.44c7.9.07,15.79,0,23.69,0h1.92V281.27H663.6v26.39H672Z" transform="translate(-5.94 -19.1)"/><path d="M711.61,300.27v-3.19h4.12V270.32H674.08v4h-3.17a37.57,37.57,0,0,1,0-4.38c.23-1.84,1.9-2.94,4.23-2.95,5.54,0,11.09,0,16.63,0h22.29c3.6,0,4.91,1.3,4.92,4.88v23.36c0,3.87-1.17,5-5.1,5Z" transform="translate(-5.94 -19.1)"/><path d="M676.15,294.39a2.72,2.72,0,0,1-2.71,2.66,2.6,2.6,0,0,1-2.58-2.56,2.64,2.64,0,0,1,2.56-2.77A2.78,2.78,0,0,1,676.15,294.39Z" transform="translate(-5.94 -19.1)"/><path d="M697.52,294.4a2.63,2.63,0,0,1-2.68,2.65,2.7,2.7,0,0,1-2.62-2.56,2.77,2.77,0,0,1,2.62-2.77A2.67,2.67,0,0,1,697.52,294.4Z" transform="translate(-5.94 -19.1)"/><path d="M684.12,291.72a2.71,2.71,0,0,1,2.72,2.66,2.66,2.66,0,0,1-5.32.12A2.71,2.71,0,0,1,684.12,291.72Z" transform="translate(-5.94 -19.1)"/><path d="M638,275.9a6.13,6.13,0,0,0-3.75-1.55c-10.86-.12-21.71-.05-32.57-.09-4,0-5.83-1.83-5.85-5.78q-.06-17,0-34c0-3.83,1.87-5.74,5.65-5.74q27.47-.06,54.92,0c3.67,0,5.52,1.91,5.54,5.6q.06,17.13,0,34.27c0,3.89-1.83,5.6-5.7,5.68-2,0-4,0-6.08,0v13.64C645.85,283.6,642,279.66,638,275.9Zm7.57-6.18h11.58V233.48H600.73v36.19h2.62c10.85,0,21.7.05,32.54,0a5.36,5.36,0,0,1,4.62,2c1.39,1.65,3,3.16,4.45,4.74l.64-.38Z" transform="translate(-5.94 -19.1)"/><path d="M591.25,259.56v-4.38H585.6V218.43h57.19V224h4.36a50.46,50.46,0,0,0,0-6c-.31-2.52-2.61-4-5.81-4-7.61,0-15.22,0-22.84,0h-30.6c-5,0-6.76,1.8-6.76,6.72q0,16,0,32.07c0,5.32,1.59,6.89,7,6.89Z" transform="translate(-5.94 -19.1)"/><path d="M640,251.49a3.73,3.73,0,0,0,3.72,3.65,3.57,3.57,0,0,0,3.55-3.51,3.61,3.61,0,0,0-3.51-3.8A3.82,3.82,0,0,0,640,251.49Z" transform="translate(-5.94 -19.1)"/><path d="M610.61,251.5a3.62,3.62,0,0,0,3.67,3.64,3.71,3.71,0,0,0,3.61-3.52,3.82,3.82,0,0,0-3.61-3.79A3.67,3.67,0,0,0,610.61,251.5Z" transform="translate(-5.94 -19.1)"/><path d="M629,247.83a3.71,3.71,0,0,0-3.74,3.65,3.66,3.66,0,0,0,7.31.16A3.72,3.72,0,0,0,629,247.83Z" transform="translate(-5.94 -19.1)"/><path d="M553.92,486.91V473.27c-2.12,0-4.11,0-6.09,0-3.87-.08-5.67-1.79-5.69-5.68q-.09-17.14,0-34.27c0-3.69,1.87-5.59,5.53-5.6q27.47-.06,54.93,0c3.78,0,5.63,1.91,5.64,5.74q.06,17,0,34c0,3.95-1.87,5.77-5.85,5.78-10.85,0-21.71,0-32.56.09a6.13,6.13,0,0,0-3.75,1.55C562.07,478.66,558.25,482.6,553.92,486.91ZM558.49,475l.65.38c1.49-1.58,3.06-3.09,4.45-4.74a5.36,5.36,0,0,1,4.62-2c10.84.09,21.69,0,32.53,0h2.63V432.48H546.91v36.24h11.58Z" transform="translate(-5.94 -19.1)"/><path d="M612.84,458.56v-4.38h5.66V417.43H561.3V423h-4.36a50.44,50.44,0,0,1,0-6c.31-2.52,2.6-4,5.81-4,7.61,0,15.22,0,22.83,0h30.61c5,0,6.75,1.8,6.75,6.72q0,16,0,32.07c0,5.32-1.6,6.89-7,6.89Z" transform="translate(-5.94 -19.1)"/><path d="M564.14,450.49a3.72,3.72,0,0,1-3.72,3.65,3.57,3.57,0,0,1-3.55-3.51,3.62,3.62,0,0,1,3.52-3.8A3.81,3.81,0,0,1,564.14,450.49Z" transform="translate(-5.94 -19.1)"/><path d="M593.48,450.5a3.6,3.6,0,0,1-3.67,3.64,3.7,3.7,0,0,1-3.6-3.52,3.8,3.8,0,0,1,3.6-3.79A3.65,3.65,0,0,1,593.48,450.5Z" transform="translate(-5.94 -19.1)"/><path d="M575.09,446.83a3.72,3.72,0,0,1,3.74,3.65,3.66,3.66,0,0,1-7.32.16A3.73,3.73,0,0,1,575.09,446.83Z" transform="translate(-5.94 -19.1)"/><path d="M578.65,750.91V736.43c-2.25,0-4.36,0-6.47,0-4.1-.08-6-1.9-6-6q-.09-18.2,0-36.38c0-3.92,2-5.94,5.88-6q29.16-.06,58.32,0c4,0,6,2,6,6.09q.06,18.06,0,36.13c0,4.19-2,6.13-6.21,6.14-11.53,0-23.05,0-34.58.09a6.47,6.47,0,0,0-4,1.65C587.3,742.15,583.24,746.33,578.65,750.91Zm4.86-12.68.68.4c1.59-1.67,3.25-3.27,4.73-5a5.68,5.68,0,0,1,4.9-2.1c11.51.1,23,0,34.55,0h2.79V693.11H571.21V731.6h12.3Z" transform="translate(-5.94 -19.1)"/><path d="M641.22,720.81v-4.65h6v-39H586.49V683h-4.63a52.45,52.45,0,0,1,0-6.4c.33-2.68,2.76-4.28,6.17-4.29,8.08,0,16.16,0,24.24,0h32.5c5.25,0,7.17,1.91,7.17,7.13q0,17,0,34c0,5.65-1.7,7.32-7.43,7.32Z" transform="translate(-5.94 -19.1)"/><path d="M589.51,712.24a4,4,0,0,1-4,3.88,3.89,3.89,0,0,1,0-7.77A4.06,4.06,0,0,1,589.51,712.24Z" transform="translate(-5.94 -19.1)"/><path d="M620.66,712.25a3.85,3.85,0,0,1-3.9,3.87,3.94,3.94,0,0,1-3.83-3.74,4.05,4.05,0,0,1,3.83-4A3.89,3.89,0,0,1,620.66,712.25Z" transform="translate(-5.94 -19.1)"/><path d="M601.13,708.35a4,4,0,0,1,4,3.87,3.89,3.89,0,0,1-7.77.18A4,4,0,0,1,601.13,708.35Z" transform="translate(-5.94 -19.1)"/><path d="M659.65,635.91V621.43c-2.25,0-4.36,0-6.47,0-4.1-.08-6-1.9-6-6q-.09-18.2,0-36.38c0-3.92,2-5.94,5.88-6q29.16-.06,58.32,0c4,0,6,2,6,6.09q.06,18.06,0,36.13c0,4.19-2,6.13-6.21,6.14-11.53,0-23.05,0-34.58.09a6.47,6.47,0,0,0-4,1.65C668.3,627.15,664.24,631.33,659.65,635.91Zm4.86-12.68.68.4c1.59-1.67,3.25-3.27,4.73-5a5.68,5.68,0,0,1,4.9-2.1c11.51.1,23,0,34.55,0h2.79V578.11H652.21V616.6h12.3Z" transform="translate(-5.94 -19.1)"/><path d="M722.22,605.81v-4.65h6v-39H667.49V568h-4.63a52.45,52.45,0,0,1,0-6.4c.33-2.68,2.76-4.28,6.17-4.29,8.08,0,16.16,0,24.24,0h32.5c5.25,0,7.17,1.91,7.17,7.13q0,17,0,34c0,5.65-1.7,7.32-7.43,7.32Z" transform="translate(-5.94 -19.1)"/><path d="M670.51,597.24a4,4,0,0,1-4,3.88,3.89,3.89,0,0,1,0-7.77A4.06,4.06,0,0,1,670.51,597.24Z" transform="translate(-5.94 -19.1)"/><path d="M701.66,597.25a3.85,3.85,0,0,1-3.9,3.87,3.94,3.94,0,0,1-3.83-3.74,4.05,4.05,0,0,1,3.83-4A3.89,3.89,0,0,1,701.66,597.25Z" transform="translate(-5.94 -19.1)"/><path d="M682.13,593.35a4,4,0,0,1,4,3.87,3.89,3.89,0,0,1-7.77.18A4,4,0,0,1,682.13,593.35Z" transform="translate(-5.94 -19.1)"/><path d="M475.92,729.91V716.27c-2.12,0-4.11,0-6.09,0-3.87-.08-5.67-1.79-5.69-5.68q-.09-17.15,0-34.27c0-3.69,1.87-5.59,5.53-5.6q27.46-.06,54.93,0c3.78,0,5.63,1.91,5.64,5.74q.06,17,0,34c0,3.95-1.87,5.77-5.85,5.78-10.85,0-21.71,0-32.56.09a6.13,6.13,0,0,0-3.75,1.55C484.07,721.66,480.25,725.6,475.92,729.91ZM480.49,718l.65.38c1.49-1.58,3.06-3.09,4.45-4.74a5.36,5.36,0,0,1,4.62-2c10.84.09,21.69,0,32.53,0h2.63V675.48H468.91v36.24h11.58Z" transform="translate(-5.94 -19.1)"/><path d="M534.84,701.56v-4.38h5.66V660.43H483.3V666h-4.36a50.44,50.44,0,0,1,.05-6c.31-2.52,2.6-4,5.81-4,7.61,0,15.22,0,22.83,0h30.61c5,0,6.75,1.8,6.75,6.72q0,16,0,32.07c0,5.32-1.6,6.89-7,6.89Z" transform="translate(-5.94 -19.1)"/><path d="M486.14,693.49a3.72,3.72,0,0,1-3.72,3.65,3.57,3.57,0,0,1-3.55-3.51,3.62,3.62,0,0,1,3.52-3.8A3.81,3.81,0,0,1,486.14,693.49Z" transform="translate(-5.94 -19.1)"/><path d="M515.48,693.5a3.6,3.6,0,0,1-3.67,3.64,3.7,3.7,0,0,1-3.6-3.52,3.8,3.8,0,0,1,3.6-3.79A3.65,3.65,0,0,1,515.48,693.5Z" transform="translate(-5.94 -19.1)"/><path d="M497.09,689.83a3.72,3.72,0,0,1,3.74,3.65,3.66,3.66,0,0,1-7.32.16A3.73,3.73,0,0,1,497.09,689.83Z" transform="translate(-5.94 -19.1)"/><path d="M26.07,653.47V641.24c-1.9,0-3.68,0-5.46,0-3.47-.08-5.09-1.61-5.1-5.1q-.07-15.36,0-30.72c0-3.31,1.68-5,5-5q24.61,0,49.24,0c3.39,0,5,1.71,5.06,5.15q.06,15.24,0,30.5c0,3.54-1.67,5.17-5.24,5.18-9.73,0-19.47,0-29.2.08A5.49,5.49,0,0,0,37,642.7C33.38,646.07,30,649.6,26.07,653.47Zm4.1-10.71.58.34c1.34-1.41,2.74-2.76,4-4.25a4.81,4.81,0,0,1,4.14-1.77c9.72.08,19.44,0,29.17,0H70.4V604.67H19.79v32.49H30.17Z" transform="translate(-5.94 -19.1)"/><path d="M78.89,628.05v-3.92H84v-33H32.69v5H28.78a46.4,46.4,0,0,1,0-5.41c.28-2.26,2.34-3.61,5.21-3.62,6.82,0,13.65,0,20.47,0H81.94c4.43,0,6,1.61,6.06,6v28.75c0,4.77-1.43,6.18-6.27,6.18Z" transform="translate(-5.94 -19.1)"/><path d="M35.24,620.81a3.35,3.35,0,0,1-3.34,3.28,3.2,3.2,0,0,1-3.18-3.15,3.23,3.23,0,0,1,3.15-3.4A3.41,3.41,0,0,1,35.24,620.81Z" transform="translate(-5.94 -19.1)"/><path d="M61.54,620.82a3.24,3.24,0,0,1-3.29,3.27A3.32,3.32,0,0,1,55,620.94a3.42,3.42,0,0,1,3.23-3.41A3.29,3.29,0,0,1,61.54,620.82Z" transform="translate(-5.94 -19.1)"/><path d="M45.05,617.54A3.28,3.28,0,1,1,41.84,621,3.32,3.32,0,0,1,45.05,617.54Z" transform="translate(-5.94 -19.1)"/><path d="M20.05,147.57V129.41c-2.53,0-4.9,0-7.26,0C8.17,129.29,6,127,6,121.84Q5.89,99,6,76.22c0-4.92,2.24-7.45,6.6-7.46q32.78-.08,65.54,0c4.51,0,6.72,2.54,6.73,7.64q.08,22.65,0,45.3c0,5.25-2.23,7.68-7,7.69-13,.05-25.91,0-38.86.12a6.83,6.83,0,0,0-4.47,2.07C29.77,136.57,25.21,141.82,20.05,147.57Zm5.46-15.91.77.51c1.78-2.1,3.65-4.11,5.31-6.31a6.13,6.13,0,0,1,5.51-2.64c12.93.13,25.88.06,38.82.06h3.13V75.09H11.69v48.25H25.51Z" transform="translate(-5.94 -19.1)"/><path d="M90.35,109.82V104H97.1V55.06H28.86v7.36h-5.2a76.49,76.49,0,0,1,.05-8c.37-3.35,3.11-5.36,6.93-5.38,9.08,0,18.16,0,27.25,0H94.41c5.9,0,8,2.39,8.06,8.94q0,21.35,0,42.69c0,7.09-1.91,9.18-8.35,9.18Z" transform="translate(-5.94 -19.1)"/><path d="M32.25,99.07a4.73,4.73,0,0,1-4.44,4.87,4.53,4.53,0,0,1-4.23-4.68c-.09-2.75,1.77-5,4.19-5.06S32.21,96.44,32.25,99.07Z" transform="translate(-5.94 -19.1)"/><path d="M67.26,99.09a4.59,4.59,0,0,1-4.38,4.85,4.7,4.7,0,0,1-4.31-4.69c-.1-2.56,2-5,4.31-5S67.24,96.36,67.26,99.09Z" transform="translate(-5.94 -19.1)"/><path d="M45.31,94.2c2.38-.07,4.43,2.16,4.46,4.86a4.69,4.69,0,0,1-4.12,4.87A4.6,4.6,0,0,1,41,99.28,4.77,4.77,0,0,1,45.31,94.2Z" transform="translate(-5.94 -19.1)"/><path d="M274.17,107.23a7.17,7.17,0,0,0-4.19-1.59c-12.15-.12-24.29,0-36.44-.08-4.46,0-6.53-1.88-6.55-5.9q-.06-17.34,0-34.68c0-3.9,2.09-5.84,6.32-5.85q30.74-.06,61.46,0c4.1,0,6.18,1.94,6.19,5.71q.07,17.46,0,34.93c0,4-2,5.71-6.37,5.79-2.22,0-4.44,0-6.81,0v13.9C282.93,115.07,278.65,111.05,274.17,107.23Zm8.48-6.31h13V64H232.43v36.9h2.95c12.13,0,24.27.05,36.4,0a6.28,6.28,0,0,1,5.17,2c1.55,1.69,3.31,3.22,5,4.83l.72-.39Z" transform="translate(-5.94 -19.1)"/><path d="M221.84,90.57V86.11h-6.33V48.64h64v5.64h4.88a46.48,46.48,0,0,0-.06-6.14C284,45.57,281.42,44,277.84,44c-8.52,0-17,0-25.56,0H218c-5.53,0-7.55,1.83-7.55,6.84q0,16.35,0,32.69c0,5.43,1.79,7,7.83,7Z" transform="translate(-5.94 -19.1)"/><path d="M276.33,82.34a4,4,0,0,0,4.16,3.72,3.73,3.73,0,1,0,0-7.45A4.1,4.1,0,0,0,276.33,82.34Z" transform="translate(-5.94 -19.1)"/><path d="M243.5,82.35a3.87,3.87,0,0,0,4.11,3.71,4,4,0,0,0,4-3.58,4.06,4.06,0,0,0-4-3.87A3.92,3.92,0,0,0,243.5,82.35Z" transform="translate(-5.94 -19.1)"/><path d="M264.08,78.61a4,4,0,0,0-4.18,3.72,3.91,3.91,0,0,0,3.86,3.73,3.75,3.75,0,1,0,.32-7.45Z" transform="translate(-5.94 -19.1)"/><path d="M39.7,560.47v-13.9c-2.37,0-4.59,0-6.81,0-4.33-.08-6.35-1.83-6.37-5.79q-.11-17.46,0-34.93c0-3.77,2.09-5.7,6.19-5.71q30.73-.06,61.46,0c4.23,0,6.3,1.95,6.32,5.85q.06,17.34,0,34.68c0,4-2.09,5.88-6.55,5.9-12.15,0-24.29,0-36.44.08a7.17,7.17,0,0,0-4.19,1.59C48.82,552.05,44.54,556.07,39.7,560.47Zm5.12-12.18.72.39c1.67-1.61,3.43-3.14,5-4.83a6.28,6.28,0,0,1,5.17-2c12.13.1,24.27,0,36.4,0H95V505H31.86v36.94h13Z" transform="translate(-5.94 -19.1)"/><path d="M105.63,531.57v-4.46H112V489.64H48v5.64H43.08a46.48,46.48,0,0,1,.06-6.14c.34-2.57,2.91-4.11,6.49-4.12,8.52,0,17,0,25.56,0h34.25c5.53,0,7.55,1.83,7.55,6.84q0,16.35,0,32.69c0,5.43-1.79,7-7.83,7Z" transform="translate(-5.94 -19.1)"/><path d="M51.14,523.34A4,4,0,0,1,47,527.06a3.73,3.73,0,1,1,0-7.45A4.1,4.1,0,0,1,51.14,523.34Z" transform="translate(-5.94 -19.1)"/><path d="M84,523.35a3.87,3.87,0,0,1-4.11,3.71,4,4,0,0,1-4-3.58,4.06,4.06,0,0,1,4-3.87A3.92,3.92,0,0,1,84,523.35Z" transform="translate(-5.94 -19.1)"/><path d="M63.39,519.61a4,4,0,0,1,4.18,3.72,3.91,3.91,0,0,1-3.86,3.73,3.75,3.75,0,1,1-.32-7.45Z" transform="translate(-5.94 -19.1)"/><path d="M269.44,185.47V174c-1.78,0-3.46,0-5.13,0-3.26-.07-4.79-1.52-4.81-4.8q-.06-14.44,0-28.91c0-3.12,1.58-4.72,4.67-4.73q23.18,0,46.34,0c3.19,0,4.75,1.61,4.77,4.84q0,14.35,0,28.71c0,3.33-1.57,4.87-4.93,4.88-9.16,0-18.32,0-27.48.07a5.21,5.21,0,0,0-3.16,1.32C276.32,178.5,273.1,181.83,269.44,185.47Zm3.87-10.08.54.32c1.26-1.33,2.58-2.6,3.76-4A4.52,4.52,0,0,1,281.5,170c9.15.08,18.3,0,27.45,0h2.22V139.54H263.53v30.58h9.78Z" transform="translate(-5.94 -19.1)"/><path d="M319.16,161.55v-3.7h4.77v-31H275.68v4.67H272a41.09,41.09,0,0,1,0-5.09c.26-2.12,2.19-3.4,4.9-3.41,6.42,0,12.84,0,19.26,0q12.92,0,25.83,0c4.17,0,5.7,1.51,5.7,5.66q0,13.53,0,27.06c0,4.49-1.35,5.81-5.9,5.82Z" transform="translate(-5.94 -19.1)"/><path d="M278.07,154.73a3.15,3.15,0,0,1-3.14,3.09,3,3,0,0,1-3-3,3,3,0,0,1,3-3.21A3.21,3.21,0,0,1,278.07,154.73Z" transform="translate(-5.94 -19.1)"/><path d="M302.83,154.74a3.05,3.05,0,0,1-3.1,3.08,3.13,3.13,0,0,1-3-3,3.21,3.21,0,0,1,3-3.2A3.07,3.07,0,0,1,302.83,154.74Z" transform="translate(-5.94 -19.1)"/><path d="M287.31,151.65a3.09,3.09,0,1,1-3,3.22A3.13,3.13,0,0,1,287.31,151.65Z" transform="translate(-5.94 -19.1)"/><path d="M125.07,92.47V80.24c-1.9,0-3.68,0-5.46,0-3.47-.08-5.09-1.61-5.1-5.1q-.08-15.36,0-30.72c0-3.31,1.68-5,5-5q24.62,0,49.24,0c3.39,0,5.05,1.71,5.06,5.15q.06,15.24,0,30.5c0,3.54-1.67,5.17-5.24,5.18-9.73,0-19.47,0-29.2.08A5.49,5.49,0,0,0,136,81.7C132.38,85.07,129,88.6,125.07,92.47Zm4.1-10.71.58.34c1.34-1.41,2.74-2.76,4-4.25a4.81,4.81,0,0,1,4.14-1.77c9.72.08,19.44,0,29.17,0h2.35V43.67H118.79V76.16h10.38Z" transform="translate(-5.94 -19.1)"/><path d="M177.89,67.05V63.13H183V30.18H131.69v5h-3.91a46.4,46.4,0,0,1,0-5.41c.28-2.26,2.34-3.61,5.21-3.62,6.82,0,13.65,0,20.47,0h27.44c4.43,0,6.05,1.61,6.06,6V60.87c0,4.77-1.43,6.18-6.27,6.18Z" transform="translate(-5.94 -19.1)"/><path d="M134.24,59.81a3.35,3.35,0,0,1-3.34,3.28,3.2,3.2,0,0,1-3.18-3.15,3.23,3.23,0,0,1,3.15-3.4A3.41,3.41,0,0,1,134.24,59.81Z" transform="translate(-5.94 -19.1)"/><path d="M160.54,59.82a3.24,3.24,0,0,1-3.29,3.27A3.32,3.32,0,0,1,154,59.94a3.42,3.42,0,0,1,3.23-3.41A3.29,3.29,0,0,1,160.54,59.82Z" transform="translate(-5.94 -19.1)"/><path d="M144.05,56.54A3.28,3.28,0,1,1,140.84,60,3.32,3.32,0,0,1,144.05,56.54Z" transform="translate(-5.94 -19.1)"/><path d="M74.07,274.47V262.24c-1.9,0-3.68,0-5.46,0-3.47-.08-5.09-1.61-5.1-5.1q-.07-15.36,0-30.72c0-3.31,1.68-5,5-5q24.62,0,49.24,0c3.39,0,5,1.71,5.06,5.15q.06,15.24,0,30.5c0,3.54-1.67,5.17-5.24,5.18-9.73,0-19.47,0-29.2.08A5.49,5.49,0,0,0,85,263.7C81.38,267.07,78,270.6,74.07,274.47Zm4.1-10.71.58.34c1.34-1.41,2.74-2.76,4-4.25a4.81,4.81,0,0,1,4.14-1.77c9.72.08,19.44,0,29.17,0h2.35V225.67H67.79v32.49H78.17Z" transform="translate(-5.94 -19.1)"/><path d="M126.89,249.05v-3.92H132V212.18H80.69v5H76.78a46.4,46.4,0,0,1,0-5.41c.28-2.26,2.34-3.61,5.21-3.62,6.82,0,13.65,0,20.47,0h27.44c4.43,0,6.05,1.61,6.06,6v28.75c0,4.77-1.43,6.18-6.27,6.18Z" transform="translate(-5.94 -19.1)"/><path d="M83.24,241.81a3.35,3.35,0,0,1-3.34,3.28,3.2,3.2,0,0,1-3.18-3.15,3.23,3.23,0,0,1,3.15-3.4A3.41,3.41,0,0,1,83.24,241.81Z" transform="translate(-5.94 -19.1)"/><path d="M109.54,241.82a3.24,3.24,0,0,1-3.29,3.27,3.32,3.32,0,0,1-3.23-3.15,3.42,3.42,0,0,1,3.23-3.41A3.29,3.29,0,0,1,109.54,241.82Z" transform="translate(-5.94 -19.1)"/><path d="M93.05,238.54A3.28,3.28,0,1,1,89.84,242,3.32,3.32,0,0,1,93.05,238.54Z" transform="translate(-5.94 -19.1)"/><path d="M74.07,274.47V262.24c-1.9,0-3.68,0-5.46,0-3.47-.08-5.09-1.61-5.1-5.1q-.07-15.36,0-30.72c0-3.31,1.68-5,5-5q24.62,0,49.24,0c3.39,0,5,1.71,5.06,5.15q.06,15.24,0,30.5c0,3.54-1.67,5.17-5.24,5.18-9.73,0-19.47,0-29.2.08A5.49,5.49,0,0,0,85,263.7C81.38,267.07,78,270.6,74.07,274.47Zm4.1-10.71.58.34c1.34-1.41,2.74-2.76,4-4.25a4.81,4.81,0,0,1,4.14-1.77c9.72.08,19.44,0,29.17,0h2.35V225.67H67.79v32.49H78.17Z" transform="translate(-5.94 -19.1)"/><path d="M126.89,249.05v-3.92H132V212.18H80.69v5H76.78a46.4,46.4,0,0,1,0-5.41c.28-2.26,2.34-3.61,5.21-3.62,6.82,0,13.65,0,20.47,0h27.44c4.43,0,6.05,1.61,6.06,6v28.75c0,4.77-1.43,6.18-6.27,6.18Z" transform="translate(-5.94 -19.1)"/><path d="M83.24,241.81a3.35,3.35,0,0,1-3.34,3.28,3.2,3.2,0,0,1-3.18-3.15,3.23,3.23,0,0,1,3.15-3.4A3.41,3.41,0,0,1,83.24,241.81Z" transform="translate(-5.94 -19.1)"/><path d="M109.54,241.82a3.24,3.24,0,0,1-3.29,3.27,3.32,3.32,0,0,1-3.23-3.15,3.42,3.42,0,0,1,3.23-3.41A3.29,3.29,0,0,1,109.54,241.82Z" transform="translate(-5.94 -19.1)"/><path d="M93.05,238.54A3.28,3.28,0,1,1,89.84,242,3.32,3.32,0,0,1,93.05,238.54Z" transform="translate(-5.94 -19.1)"/><path d="M47.07,373.47V361.24c-1.9,0-3.68,0-5.46,0-3.47-.08-5.09-1.61-5.1-5.1q-.07-15.36,0-30.72c0-3.31,1.68-5,5-5q24.61,0,49.24,0c3.39,0,5,1.71,5.06,5.15q.06,15.24,0,30.5c0,3.54-1.67,5.17-5.24,5.18-9.73,0-19.47,0-29.2.08A5.49,5.49,0,0,0,58,362.7C54.38,366.07,51,369.6,47.07,373.47Zm4.1-10.71.58.34c1.34-1.41,2.74-2.76,4-4.25a4.81,4.81,0,0,1,4.14-1.77c9.72.08,19.44,0,29.17,0H91.4V324.67H40.79v32.49H51.17Z" transform="translate(-5.94 -19.1)"/><path d="M99.89,348.05v-3.92H105V311.18H53.69v5H49.78a46.4,46.4,0,0,1,0-5.41c.28-2.26,2.34-3.61,5.21-3.62,6.82,0,13.65,0,20.47,0h27.44c4.43,0,6,1.61,6.06,6v28.75c0,4.77-1.43,6.18-6.27,6.18Z" transform="translate(-5.94 -19.1)"/><path d="M56.24,340.81a3.35,3.35,0,0,1-3.34,3.28,3.2,3.2,0,0,1-3.18-3.15,3.23,3.23,0,0,1,3.15-3.4A3.41,3.41,0,0,1,56.24,340.81Z" transform="translate(-5.94 -19.1)"/><path d="M82.54,340.82a3.24,3.24,0,0,1-3.29,3.27A3.32,3.32,0,0,1,76,340.94a3.42,3.42,0,0,1,3.23-3.41A3.29,3.29,0,0,1,82.54,340.82Z" transform="translate(-5.94 -19.1)"/><path d="M66.05,337.54A3.28,3.28,0,1,1,62.84,341,3.32,3.32,0,0,1,66.05,337.54Z" transform="translate(-5.94 -19.1)"/><path d="M19.7,474.94V459.68c-2.37,0-4.59,0-6.81,0-4.33-.09-6.35-2-6.37-6.35q-.1-19.19,0-38.35c0-4.13,2.09-6.26,6.19-6.26q30.74-.07,61.46,0c4.23,0,6.3,2.14,6.32,6.42q.06,19,0,38.08c0,4.41-2.09,6.45-6.55,6.47-12.15,0-24.29,0-36.44.09a6.84,6.84,0,0,0-4.19,1.74C28.82,465.7,24.54,470.11,19.7,474.94Zm5.12-13.36.72.42c1.67-1.76,3.43-3.45,5-5.31a6,6,0,0,1,5.17-2.21c12.13.11,24.27,0,36.4,0H75V414H11.86v40.55h13Z" transform="translate(-5.94 -19.1)"/><path d="M85.63,443.22v-4.9H92V397.19H28v6.19H23.08a56,56,0,0,1,.06-6.74c.34-2.82,2.91-4.51,6.49-4.53,8.52,0,17,0,25.56,0H89.44c5.53,0,7.55,2,7.55,7.51q0,17.94,0,35.88c0,6-1.79,7.71-7.83,7.72Z" transform="translate(-5.94 -19.1)"/><path d="M31.14,434.18A4.17,4.17,0,0,1,27,438.27a4,4,0,0,1-4-3.93,4,4,0,0,1,3.93-4.25A4.26,4.26,0,0,1,31.14,434.18Z" transform="translate(-5.94 -19.1)"/><path d="M64,434.2a4,4,0,0,1-4.11,4.07,4.15,4.15,0,0,1-4-3.94,4.26,4.26,0,0,1,4-4.24A4.08,4.08,0,0,1,64,434.2Z" transform="translate(-5.94 -19.1)"/><path d="M43.39,430.09a4.09,4.09,0,1,1-4,4.27A4.15,4.15,0,0,1,43.39,430.09Z" transform="translate(-5.94 -19.1)"/><path d="M128.7,494.94V479.68c-2.37,0-4.59,0-6.81,0-4.33-.09-6.35-2-6.37-6.35q-.1-19.19,0-38.35c0-4.13,2.09-6.26,6.19-6.26q30.74-.07,61.46,0c4.23,0,6.3,2.14,6.32,6.42q.06,19,0,38.08c0,4.41-2.09,6.45-6.55,6.47-12.15,0-24.29,0-36.44.09a6.84,6.84,0,0,0-4.19,1.74C137.82,485.7,133.54,490.11,128.7,494.94Zm5.12-13.36.72.42c1.67-1.76,3.43-3.45,5-5.31a6,6,0,0,1,5.17-2.21c12.13.11,24.27,0,36.4,0H184V434H120.86v40.55h13Z" transform="translate(-5.94 -19.1)"/><path d="M194.63,463.22v-4.9H201V417.19H137v6.19h-4.88a56,56,0,0,1,.06-6.74c.34-2.82,2.91-4.51,6.49-4.53,8.52,0,17,0,25.56,0h34.25c5.53,0,7.55,2,7.55,7.51q0,17.94,0,35.88c0,6-1.79,7.71-7.83,7.72Z" transform="translate(-5.94 -19.1)"/><path d="M140.14,454.18a4.17,4.17,0,0,1-4.16,4.09,4,4,0,0,1-4-3.93,4,4,0,0,1,3.93-4.25A4.26,4.26,0,0,1,140.14,454.18Z" transform="translate(-5.94 -19.1)"/><path d="M173,454.2a4,4,0,0,1-4.11,4.07,4.15,4.15,0,0,1-4-3.94,4.26,4.26,0,0,1,4-4.24A4.08,4.08,0,0,1,173,454.2Z" transform="translate(-5.94 -19.1)"/><path d="M152.39,450.09a4.09,4.09,0,1,1-4,4.27A4.15,4.15,0,0,1,152.39,450.09Z" transform="translate(-5.94 -19.1)"/></svg>