<svg id="Layer_1" data-name="Layer 1" xmlns="http://www.w3.org/2000/svg" viewBox="0 0 733.64 334.93"><title>Kafka Bus</title><path d="M142,335.68c-5.93,3.41-11.81,6.71-17.57,10.22a3.32,3.32,0,0,0-1,2.91,59.88,59.88,0,0,1,.12,32.68,3.53,3.53,0,0,0,1.25,3c5,3.09,10.15,5.84,15.12,8.92,2,1.22,3,.66,4.57-.73a45.38,45.38,0,0,1,72.39,51c-7.64,18.57-26,29.43-46.9,27.71-18.42-1.52-34.65-15.86-39.11-34.62a41.28,41.28,0,0,1,.05-20.39c.57-2.13.06-3.23-1.86-4.29-5.52-3-10.91-6.3-16.51-9.56A60.75,60.75,0,0,1,81,421.45c0,6.92-.09,13.67.12,20.42,0,.82,1.53,2,2.58,2.32,14.41,5,24.26,14.66,28.66,29.17,5.35,17.66,1.6,33.62-11.78,46.48C87.32,532.56,71.27,536.07,54,530.1s-27.21-18.67-29.8-36.76c-3.07-21.47,10.21-42.21,31.26-49,2.88-.92,3.9-2.13,3.73-5.15-.27-4.94-.16-9.91,0-14.86.06-2.05-.59-3-2.64-3.43C11.35,410.68-.95,356.2,27.93,325.66A53.34,53.34,0,0,1,55.7,309.9c2.8-.61,3.59-1.74,3.46-4.48-.22-4.95-.17-9.92,0-14.87.08-2.31-.67-3.27-2.94-4a46,46,0,0,1-32.48-42.81C23.08,220,42.39,198.93,66.14,198c19.64-.73,34.76,7.61,43.43,25.23s6.24,34.59-6.11,49.9a39.46,39.46,0,0,1-19.67,13.1c-2.23.67-3,1.68-2.89,4,.19,5.52.12,11,0,16.56,0,1.76.49,2.59,2.27,3a56.28,56.28,0,0,1,27.49,16.31c1.34,1.42,2.25,1.31,3.69.43,4.8-2.92,9.62-5.83,14.52-8.6,1.75-1,2.12-1.9,1.7-4-5.27-26,10.78-49.73,36.79-54.5,24.16-4.43,48.52,12.91,52.25,37.22,3.92,25.51-13.36,49.18-38.17,52.41C166.23,351.14,153.29,346.54,142,335.68ZM68.62,398.55a33.24,33.24,0,1,0-33.4-33.1A33.3,33.3,0,0,0,68.62,398.55ZM175,282.73a21.6,21.6,0,1,0,0,43.19,21.6,21.6,0,0,0,0-43.19Zm-.06,165.16a21.85,21.85,0,0,0,21.62-21.51c.07-11.56-9.87-21.57-21.53-21.67a21.59,21.59,0,1,0-.09,43.18ZM68.51,264.69A21.49,21.49,0,0,0,90.15,243.4,21.59,21.59,0,1,0,47,243.27,21.54,21.54,0,0,0,68.51,264.69Zm.27,201.24A21.55,21.55,0,0,0,47,487.42a21.58,21.58,0,0,0,43.16.08A21.51,21.51,0,0,0,68.78,465.93Z" transform="translate(-12.36 -198)"/><path d="M547.88,381.34c4.51-4.81,9-9.68,13.56-14.43s9-9.13,13.64-13.59a5.8,5.8,0,0,1,3.38-1.79c8.67-.14,17.34-.06,26,0a5.57,5.57,0,0,1,1.31.48l-40.28,39,43.29,53.91c-1.27.15-2.09.33-2.9.34-7.32,0-14.64-.1-22,.07a5.86,5.86,0,0,1-5.32-2.65c-8.12-10.52-16.34-21-24.53-31.42-1.31-1.67-2.64-3.32-4-5-2.86,1.52-3.68,3.71-3.63,6.73.15,10.57.06,21.14.06,32H525V283.08h21.47v97.37Z" transform="translate(-12.36 -198)"/><path d="M342.18,352.24c-13.25,12.83-26.49,25.66-40,38.7l43.55,54.25c-9.57,0-18.41.06-27.25-.1-.94,0-2.05-1.18-2.75-2.07q-13.31-16.83-26.49-33.75c-.76-1-1.55-1.91-2.41-3a6.09,6.09,0,0,0-3.7,6.14c.17,9.69.06,19.38.06,29.07V445H261.67V283h21.48V381.6c2.05-2,3.59-3.33,5.05-4.78,7.74-7.72,15.39-15.52,23.25-23.1a8.49,8.49,0,0,1,5.25-2.17c8.4-.23,16.82-.1,25.24-.1Z" transform="translate(-12.36 -198)"/><path d="M417.22,362V351.72h21.84V445H417.33v-8.89a25.09,25.09,0,0,0-2.31,1.59c-21.1,18.69-56,11.79-67.06-17.84-7.54-20.11-6.11-39.79,8.5-56.79,15.12-17.6,40.57-19,58-3.64Zm-51.77,36.56c1.24,5,1.84,10.22,3.86,14.85,4.1,9.39,11.49,14.86,22,15.12,10.35.25,18.51-4,23.31-13.24,5.64-10.88,5.71-22.23.08-33.09a25,25,0,0,0-39.33-7C368.79,381.39,366.05,389.31,365.45,398.51Z" transform="translate(-12.36 -198)"/><path d="M680.6,361.77V351.69h21.65V445H680.81v-8.67a8.41,8.41,0,0,0-1.77.82c-23.06,21.35-62.75,11.11-70.51-25.9-3.33-15.9-1.42-31.15,8.38-44.74,14.72-20.44,43.41-23.6,61.26-6.64C678.78,360.41,679.49,360.88,680.6,361.77Zm-51.23,38.11a86.18,86.18,0,0,0,1.47,8.86c2.77,11,11.32,18.52,21.9,19.61,11.17,1.15,21-4.11,25.8-14.06,3.53-7.23,4.12-14.87,2.84-22.73-1.92-11.68-10-20.35-20.88-22.47s-20.85,2.44-26.7,12.21C630.71,386.45,629.52,392.12,629.37,399.88Z" transform="translate(-12.36 -198)"/><path d="M508.47,305.35c-4-1.41-7.55-3-11.22-3.85-6.2-1.51-10,1.06-11.3,7.29a30.49,30.49,0,0,0-.74,6c-.07,12,0,24.07,0,36.55h23.1v20.54H485.19v73H463.11V372.13l-7.39-.33V351.45h7.34c0-3.74,0-7.1,0-10.46.15-11.48-.39-23,.66-34.43,1.8-19.64,17.68-30.14,37.11-25.44,7.63,1.84,7.63,1.84,7.63,9.54Z" transform="translate(-12.36 -198)"/><path d="M729.57,445.2c-9.43,0-16.07-6.79-16-16.28s6.92-16.19,16.28-16.17,16.26,7,16.18,16.6C745.92,438.74,739.18,445.24,729.57,445.2Zm.37-2.71a13.24,13.24,0,0,0,13.32-13.6,13.48,13.48,0,1,0-27,.31A13.21,13.21,0,0,0,729.94,442.49Z" transform="translate(-12.36 -198)"/><path d="M398.42,284.86h3.79v10h11.4v-9.91h4.09v26.46l-3.89.18V299.24H402.47v12.11l-4.05.22Z" transform="translate(-12.36 -198)"/><path d="M357.88,282.83l12.7,28.28c-3.1,1.06-5,.48-5.77-2.66-.64-2.71-2.34-3.8-5.12-3.33a8.37,8.37,0,0,1-2.69,0c-3.56-.57-6.06.4-6.94,4.27-.65,2.82-2.86,2.24-5.44,1.95C349,301.89,353.31,292.65,357.88,282.83Zm3.68,18.11-3.79-8.44c-1.43,3.16-2.55,5.66-3.81,8.44Z" transform="translate(-12.36 -198)"/><path d="M313.73,282.82l12.7,28.27c-3,1.14-5,.52-5.76-2.57-.66-2.74-2.3-3.88-5.11-3.4a8.67,8.67,0,0,1-2.69,0c-3.55-.55-6.06.36-6.95,4.26-.63,2.78-2.82,2.32-5.41,1.89Zm-3.94,18.12h7.62l-3.79-8.44C312.17,295.68,311.08,298.08,309.79,300.94Z" transform="translate(-12.36 -198)"/><path d="M424.48,284.87h14.35c.08,1.06.15,2.11.25,3.6H428.69v6.35h9.85v4h-9.83v8.83h10.14c.07,1.32.12,2.38.19,3.69H424.48Z" transform="translate(-12.36 -198)"/><path d="M392.47,290.59c-7.38-3.4-11.49-3-14.77,1.3a10.31,10.31,0,0,0,.19,12.81c3.36,4,7.56,4.27,14.3,1,.93,4.44.62,5-3.61,6a14,14,0,1,1-.7-27.35C392.25,285.13,392.78,285.83,392.47,290.59Z" transform="translate(-12.36 -198)"/><path d="M334.57,301v10.35h-3.95V284.9c2.94,0,5.73-.22,8.48.05,3.74.37,6.2,3.28,6.42,7.05.24,4.22-1.93,7.41-5.79,8.3C338.22,300.65,336.63,300.74,334.57,301Zm0-4.32c4.94.15,6.93-1.13,6.85-4.17s-2.13-4.06-6.85-3.65v7.82Z" transform="translate(-12.36 -198)"/><path d="M730.76,430.57l5.28,6.79c-2.47.73-2.47.73-8.47-6.21v6.45l-1.15.59c-.57-.73-1.62-1.45-1.64-2.2-.15-5.15-.08-10.31-.08-15.41,5.08-1.13,8.84,0,9.9,2.79S734.61,428.25,730.76,430.57Zm-3.17-7.81v5.18c2.29.15,4.52.18,4.47-2.69S729.7,422.69,727.59,422.76Z" transform="translate(-12.36 -198)"/></svg>