<svg id="Layer_1" data-name="Layer 1" xmlns="http://www.w3.org/2000/svg" viewBox="0 0 545.15 745"><title>mapping</title><path d="M622.29,322.72c-26.1,10-56.24-1.91-66.77-27.76-3.49-8.71-7.82-11.89-16.91-13.48a79.47,79.47,0,0,1-59.87-44.92c-3.94-7.86-7.57-15.9-11.13-23.85-8.78-19.78-22.67-32.4-45.4-32.88-3.37,0-6.74-.38-10.12-.38H332.61c8.42,8.78,15.42,15.61,21.94,22.9s5.72,17.58-2.14,20.38c-4.48,1.62-12.2,1.17-15.38-1.72-15.71-14.31-30.53-29.6-45.38-44.83-6.36-6.36-5.75-13.42.42-19.68q21.71-22,43.68-43.69a12.72,12.72,0,0,1,17.87-2.08,12.53,12.53,0,0,1,1.21,1.09c5.72,4.74,5.5,13.33-.7,19.69s-13.7,12.71-20.47,19.07c1.55,1.88,2,2.8,2.35,2.8,30.71-.19,61.43,0,92.21-.83,16.56-.44,28.39-9.53,35.86-24.29,4.74-9.31,9.13-18.79,13.61-28.23,13.48-28.33,35.45-45.37,66.77-49.25,6.36-.8,7.92-4.36,9.79-9.35a52.75,52.75,0,1,1,62.07,69.47,51.49,51.49,0,0,1-59.4-27.37c-3.46-7.19-7.06-7.92-14-6.36-16.31,3.78-29.25,12-37.42,26.8-4.55,8.24-8,17.11-12.72,25.21-7.6,12.88-15.89,25.44-24.77,39.37,17.52,13.48,24.33,37,35.42,57.9,10.47,19.65,27.51,28.61,49.38,30.84,7.25-17.17,18.57-29.7,36.92-34.75a52.72,52.72,0,0,1,32.81,100.09Z" transform="translate(-115.88 -7)"/><path d="M626.61,534.15c-26.11,10.05-56.25-1.91-66.77-27.76-3.5-8.71-7.82-11.89-16.92-13.48A79.48,79.48,0,0,1,483.05,448c-3.94-7.86-7.56-15.9-11.13-23.85-8.77-19.78-22.67-32.4-45.4-32.88-3.37,0-6.74-.38-10.11-.38H336.92c8.43,8.78,15.42,15.61,21.94,22.89s5.72,17.59-2.13,20.38c-4.48,1.63-12.21,1.18-15.39-1.71-15.71-14.31-30.52-29.6-45.37-44.83-6.36-6.36-5.76-13.42.41-19.69q21.72-22,43.69-43.68a12.77,12.77,0,0,1,19.08-1c5.72,4.74,5.5,13.32-.7,19.68S344.74,355.65,338,362c1.56,1.88,2,2.8,2.35,2.8,30.72-.19,61.43,0,92.21-.83,16.57-.44,28.39-9.54,35.87-24.29,4.73-9.32,9.12-18.79,13.6-28.23,13.48-28.33,35.46-45.38,66.77-49.25,6.36-.8,7.92-4.36,9.8-9.35a52.75,52.75,0,1,1,62.06,69.47A51.47,51.47,0,0,1,561.24,295c-3.47-7.18-7.06-7.91-14-6.35-16.31,3.78-29.25,12-37.42,26.8-4.55,8.23-8,17.1-12.72,25.21-7.6,12.88-15.9,25.44-24.77,39.37,17.52,13.48,24.32,37,35.42,57.89,10.46,19.65,27.5,28.62,49.38,30.85,7.25-17.17,18.57-29.7,36.91-34.76a52.72,52.72,0,0,1,32.81,100.1Z" transform="translate(-115.88 -7)"/><path d="M626.61,748.46c-26.11,10-56.25-1.91-66.77-27.76-3.5-8.71-7.82-11.89-16.92-13.48a79.52,79.52,0,0,1-59.87-44.93c-3.94-7.85-7.56-15.9-11.13-23.85-8.77-19.77-22.67-32.4-45.4-32.87-3.37,0-6.74-.38-10.11-.38H336.92c8.43,8.77,15.42,15.61,21.94,22.89s5.72,17.58-2.13,20.38c-4.48,1.62-12.21,1.18-15.39-1.72-15.71-14.31-30.52-29.6-45.37-44.83-6.36-6.36-5.76-13.42.41-19.68q21.72-22,43.69-43.69a12.72,12.72,0,0,1,17.86-2.07,11.44,11.44,0,0,1,1.22,1.09c5.72,4.73,5.5,13.32-.7,19.68S344.74,570,338,576.32c1.56,1.87,2,2.79,2.35,2.79,30.72-.19,61.43,0,92.21-.82,16.57-.45,28.39-9.54,35.87-24.29,4.73-9.32,9.12-18.8,13.6-28.24,13.48-28.33,35.46-45.37,66.77-49.25,6.36-.79,7.92-4.36,9.8-9.35a52.75,52.75,0,1,1,62.06,69.48,51.49,51.49,0,0,1-59.39-27.38c-3.47-7.19-7.06-7.92-14-6.36-16.31,3.78-29.25,12-37.42,26.8-4.55,8.24-8,17.11-12.72,25.22-7.6,12.87-15.9,25.43-24.77,39.36,17.52,13.48,24.32,37,35.42,57.9,10.46,19.65,27.5,28.62,49.38,30.84,7.25-17.17,18.57-29.7,36.91-34.75a52.72,52.72,0,0,1,32.81,100.09Z" transform="translate(-115.88 -7)"/><circle cx="58.97" cy="149.44" r="58.97"/><circle cx="58.97" cy="356.55" r="58.97"/><circle cx="58.97" cy="585.24" r="58.97"/></svg>