<svg id="Layer_1" data-name="Layer 1" xmlns="http://www.w3.org/2000/svg" viewBox="0 0 715.97 462.83"><title>Profiling</title><path d="M19.41,220.41C19.3,176.1,55.57,139.77,99.69,140a80.53,80.53,0,0,1,80.07,80.19C180,264,144,300.28,99.91,300.6S19.52,264.84,19.41,220.41Zm91.74-4.79c14.42-11.48,17.07-26.72,6.92-38.36a24.49,24.49,0,0,0-35.44-1.71A24,24,0,0,0,74.84,193c-.19,9.91,4.9,17.09,13.07,22.52C64,226.78,51.45,243.63,54.46,260.13h90.32C146.43,241.59,134.51,225.79,111.15,215.62Z" transform="translate(-19.41 -140)"/><path d="M357.4,218.62c.66,43.39-32.73,80.61-78.27,81.82a80.16,80.16,0,0,1-3.91-160.28C318.56,139,355.94,172.64,357.4,218.62ZM231.15,260.06h92c-1.64-22.8-13.51-37.07-34.54-44.4,14.63-11.27,17.35-26.14,7.38-38a24.45,24.45,0,0,0-35.78-2.06,24,24,0,0,0-7.7,17.41c-.19,10,5,17,13.31,22.73C244.4,223.08,232.9,237.45,231.15,260.06Z" transform="translate(-19.41 -140)"/><path d="M735.36,208.31c.55,36.33-27.4,67.48-65.52,68.49a67.11,67.11,0,0,1-3.28-134.17C702.85,141.64,734.14,169.82,735.36,208.31ZM629.67,243h77.05c-1.37-19.08-11.31-31-28.91-37.17C690.06,196.4,692.33,184,684,174a20.46,20.46,0,0,0-30-1.73,20.06,20.06,0,0,0-6.44,14.57c-.17,8.36,4.15,14.25,11.14,19C640.76,212.05,631.14,224.07,629.67,243Z" transform="translate(-19.41 -140)"/><path d="M735.36,372.31c.55,36.33-27.4,67.48-65.52,68.49a67.11,67.11,0,0,1-3.28-134.17C702.85,305.64,734.14,333.82,735.36,372.31ZM629.67,407h77.05c-1.37-19.08-11.31-31-28.91-37.17C690.06,360.4,692.33,348,684,338a20.46,20.46,0,0,0-30-1.73,20.06,20.06,0,0,0-6.44,14.57c-.17,8.36,4.15,14.25,11.14,19C640.76,376.05,631.14,388.07,629.67,407Z" transform="translate(-19.41 -140)"/><path d="M735.36,534.31c.55,36.33-27.4,67.48-65.52,68.49a67.11,67.11,0,0,1-3.28-134.17C702.85,467.64,734.14,495.82,735.36,534.31ZM629.67,569h77.05c-1.37-19.08-11.31-31-28.91-37.17C690.06,522.4,692.33,510,684,500a20.46,20.46,0,0,0-30-1.73,20.06,20.06,0,0,0-6.44,14.57c-.17,8.36,4.15,14.25,11.14,19C640.76,538.05,631.14,550.07,629.67,569Z" transform="translate(-19.41 -140)"/><path d="M535,220.13c.21,44.06-35.34,80-79.67,80.45-44,.5-80.56-35.86-80.67-80.11S410.78,139.9,454.94,140A80.28,80.28,0,0,1,535,220.13Zm-91.77-4.64c-24.12,11.53-36.27,27.86-33.33,44.66H500.8c-1.54-22.83-13.39-37.09-34.37-44.45,15-12.26,17.36-27.49,6.26-39.2a24.53,24.53,0,0,0-36.26.59C426.17,188.77,428.8,204.5,443.18,215.49Z" transform="translate(-19.41 -140)"/><path d="M145.42,535.33a51.69,51.69,0,0,1-51.31,51.84c-28.19.13-51.77-23.3-51.83-51.47a51.57,51.57,0,0,1,103.14-.37Z" transform="translate(-19.41 -140)"/><path d="M328.82,535.77c-.11,28.4-23.5,51.62-51.76,51.4s-51.53-23.68-51.35-51.92a51.56,51.56,0,1,1,103.11.52Z" transform="translate(-19.41 -140)"/><path d="M409.2,535.45a51.54,51.54,0,1,1,52,51.72A51.55,51.55,0,0,1,409.2,535.45Z" transform="translate(-19.41 -140)"/><path d="M337.25,339a8.58,8.58,0,1,1,.14,17.14,8.57,8.57,0,1,1-.14-17.14Z" transform="translate(-19.41 -140)"/><path d="M286,407.6c-.26,4.81-4.64,8.8-9.26,8.43a9,9,0,0,1-7.94-9.66,8.57,8.57,0,0,1,8.87-8.08A8.86,8.86,0,0,1,286,407.6Z" transform="translate(-19.41 -140)"/><path d="M277.45,445.65a8.73,8.73,0,0,1-.22-17.45,8.55,8.55,0,0,1,8.74,8.32A8.65,8.65,0,0,1,277.45,445.65Z" transform="translate(-19.41 -140)"/><path d="M246.5,446.58a8.52,8.52,0,1,1-.05-17,8.53,8.53,0,1,1,.05,17Z" transform="translate(-19.41 -140)"/><path d="M463.78,319.06a9.08,9.08,0,0,1-9.08,8.66,8.64,8.64,0,0,1-8.21-8.82,8.65,8.65,0,1,1,17.29.16Z" transform="translate(-19.41 -140)"/><path d="M255.48,348a8.59,8.59,0,0,1-9.33,8.18,8.36,8.36,0,0,1-8.3-9.11,8.55,8.55,0,0,1,8.92-8A8.83,8.83,0,0,1,255.48,348Z" transform="translate(-19.41 -140)"/><path d="M347.48,438a8.64,8.64,0,0,1-8.43,8.69,8.55,8.55,0,1,1-.91-17.06A8.77,8.77,0,0,1,347.48,438Z" transform="translate(-19.41 -140)"/><path d="M286,377.09a8.59,8.59,0,0,1-8.11,9,8.48,8.48,0,0,1-9.11-8.48,8.76,8.76,0,0,1,8.64-9.11A8.86,8.86,0,0,1,286,377.09Z" transform="translate(-19.41 -140)"/><path d="M277.32,309.12a8.75,8.75,0,0,1,.05,17.49,8.75,8.75,0,0,1-.05-17.49Z" transform="translate(-19.41 -140)"/><path d="M188.06,356a8.56,8.56,0,1,1,8.47-8.52A8.45,8.45,0,0,1,188.06,356Z" transform="translate(-19.41 -140)"/><path d="M194.31,438.16a8.79,8.79,0,0,1-17.58.06,8.79,8.79,0,0,1,9.1-8.61A8.51,8.51,0,0,1,194.31,438.16Z" transform="translate(-19.41 -140)"/><path d="M316.9,438.05a8.38,8.38,0,0,1-8.51,8.5c-5.25.15-9.08-3.42-9.08-8.44s3.86-8.66,9-8.56A8.52,8.52,0,0,1,316.9,438.05Z" transform="translate(-19.41 -140)"/><path d="M367.05,338.92A8.56,8.56,0,1,1,366.7,356a8.48,8.48,0,0,1-8.61-8.41A8.67,8.67,0,0,1,367.05,338.92Z" transform="translate(-19.41 -140)"/><path d="M377.89,438.29a8.79,8.79,0,0,1-17.58-.2,8.79,8.79,0,0,1,17.58.2Z" transform="translate(-19.41 -140)"/><path d="M469.34,438.38a8.63,8.63,0,1,1-17.26,0,8.57,8.57,0,0,1,8.27-8.72A9,9,0,0,1,469.34,438.38Z" transform="translate(-19.41 -140)"/><path d="M460.54,475.47a8.91,8.91,0,0,1-8.48-9.19,8.76,8.76,0,0,1,8.77-8.31,9.12,9.12,0,0,1,8.51,9.25A8.73,8.73,0,0,1,460.54,475.47Z" transform="translate(-19.41 -140)"/><path d="M286,347.66a8.81,8.81,0,0,1-9,8.71,8.67,8.67,0,0,1-8.19-8.95,8.45,8.45,0,0,1,9-8.6A8.57,8.57,0,0,1,286,347.66Z" transform="translate(-19.41 -140)"/><path d="M158.53,338.87a8.61,8.61,0,0,1,8.55,9.06A8.46,8.46,0,0,1,158.2,356a8.72,8.72,0,0,1-8.56-9.06A8.55,8.55,0,0,1,158.53,338.87Z" transform="translate(-19.41 -140)"/><path d="M155.22,446.85a8.71,8.71,0,0,1-8.94-8.12,8.81,8.81,0,0,1,8.56-9.12,8.62,8.62,0,1,1,.38,17.24Z" transform="translate(-19.41 -140)"/><path d="M99.52,310.21a8.81,8.81,0,0,1,8.61,9,8.54,8.54,0,0,1-8.49,8.48,8.75,8.75,0,0,1-8.57-9A8.47,8.47,0,0,1,99.52,310.21Z" transform="translate(-19.41 -140)"/><path d="M454.66,355.92a8.33,8.33,0,0,1-8.16-8.7,8.64,8.64,0,0,1,17.27.22A8.75,8.75,0,0,1,454.66,355.92Z" transform="translate(-19.41 -140)"/><path d="M224.75,438.25c-.07,5.05-3.88,8.56-9.09,8.37a8.26,8.26,0,0,1-8.32-8.6,8.54,8.54,0,0,1,9.15-8.43A8.31,8.31,0,0,1,224.75,438.25Z" transform="translate(-19.41 -140)"/><path d="M93.88,447.13a8.5,8.5,0,0,1-8.39-8.54,8.72,8.72,0,0,1,8.64-8.93,8.45,8.45,0,0,1,8.4,8.51A8.75,8.75,0,0,1,93.88,447.13Z" transform="translate(-19.41 -140)"/><path d="M316.86,347.59c0,4.94-3.79,8.6-8.91,8.54-4.94-.05-8.51-3.44-8.64-8.2a8.55,8.55,0,0,1,8.58-8.91A8.67,8.67,0,0,1,316.86,347.59Z" transform="translate(-19.41 -140)"/><path d="M93.83,475.47a8.44,8.44,0,0,1-8.34-8.57A8.71,8.71,0,0,1,94.18,458a8.51,8.51,0,0,1,8.35,8.61A8.68,8.68,0,0,1,93.83,475.47Z" transform="translate(-19.41 -140)"/><path d="M133,438.28a8.54,8.54,0,1,1-17.07.07,8.64,8.64,0,0,1,8.85-8.7A8.27,8.27,0,0,1,133,438.28Z" transform="translate(-19.41 -140)"/><path d="M430.07,447a8.63,8.63,0,0,1-8.48-9.08,8.41,8.41,0,0,1,8.63-8.29,8.64,8.64,0,0,1,8.49,9.06A8.46,8.46,0,0,1,430.07,447Z" transform="translate(-19.41 -140)"/><path d="M225.86,347.77c-.08,4.86-3.61,8.28-8.58,8.31a8.38,8.38,0,0,1-8.81-8.72,8.57,8.57,0,0,1,8.65-8.39A8.47,8.47,0,0,1,225.86,347.77Z" transform="translate(-19.41 -140)"/><path d="M434.27,347.16a8.49,8.49,0,0,1-8.68,8.82,8.34,8.34,0,0,1-8.5-8.38,8.46,8.46,0,0,1,8.67-8.81A8.34,8.34,0,0,1,434.27,347.16Z" transform="translate(-19.41 -140)"/><path d="M286,466.63a8.9,8.9,0,0,1-8.94,8.73,8.78,8.78,0,0,1,.64-17.55A9,9,0,0,1,286,466.63Z" transform="translate(-19.41 -140)"/><path d="M108.11,347.17a8.28,8.28,0,0,1-8.19,8.75,8.43,8.43,0,0,1-8.84-8.16,8.24,8.24,0,0,1,7.88-9A8.48,8.48,0,0,1,108.11,347.17Z" transform="translate(-19.41 -140)"/><path d="M129.26,338.81c5,.13,8.43,4,8.18,9.18-.23,4.87-3.8,8.12-8.76,8a8.5,8.5,0,0,1-8.3-8.62A8.37,8.37,0,0,1,129.26,338.81Z" transform="translate(-19.41 -140)"/><path d="M404.9,347.23a8.46,8.46,0,0,1-8.72,8.77,8.07,8.07,0,0,1-8.45-8.34,8.59,8.59,0,0,1,17.17-.43Z" transform="translate(-19.41 -140)"/><path d="M399.55,446.85a8.62,8.62,0,0,1,.2-17.24,8.62,8.62,0,0,1,8.5,9.05A8.33,8.33,0,0,1,399.55,446.85Z" transform="translate(-19.41 -140)"/><polygon points="527.09 51.5 562.09 235.5 527.09 420.5 540.09 235.5 527.09 51.5"/></svg>