<svg id="Layer_1" data-name="Layer 1" xmlns="http://www.w3.org/2000/svg" viewBox="0 0 714.08 644.59"><defs><style>.cls-1{fill:#fff;}</style></defs><title>Control Center</title><path d="M32.07,458.8c3.86-15.49,11.08-28.9,26.31-35.47a63.52,63.52,0,0,1,24.12-5.21q91.29-.63,182.59-.16c30.74.12,50.1,20.11,50.13,51.05q.07,90.6,0,181.19c0,30.32-19.51,50.59-49.86,50.77q-91.64.54-183.28,0c-25.33-.11-41.65-13.17-48.8-37.57a15,15,0,0,0-1.2-2.41Zm141.65-.13q-44.59,0-89.19,0c-10.12,0-11.77,1.61-11.78,11.63q0,89.19,0,178.39c0,9.64,1.75,11.43,11.33,11.44q89.55,0,179.09,0c9.71,0,11.4-1.72,11.41-11.35q0-89.55,0-179.09c0-9.16-1.86-11-11-11Q218.67,458.65,173.72,458.67Z" transform="translate(-32.07 -66.81)"/><path d="M32.07,89.25c.92-2.08,1.81-4.17,2.74-6.25C40.49,70.28,53.68,64,67,68a67.66,67.66,0,0,1,12.08,5.26q107.3,56.85,214.48,113.86a53.25,53.25,0,0,1,11.56,7.66c12.27,11.53,11.11,29.79-2.35,40a68.93,68.93,0,0,1-9.45,5.86q-107.52,57.14-215.21,114a47.9,47.9,0,0,1-22.39,5.51c-13-.29-19.18-10.35-23.69-21.27ZM257,213.8,73.23,116.28V311.34Z" transform="translate(-32.07 -66.81)"/><path d="M533,213.48q0-55.75,0-111.5a74.91,74.91,0,0,1,.29-8.35c2.62-23.47,23.88-33.4,43.17-19.74,20.46,14.5,40.45,29.66,60.64,44.54q47.1,34.71,94.17,69.48c13.93,10.33,18.57,24.06,11.85,37.57A42.76,42.76,0,0,1,730.6,240c-50.46,37.58-101.19,74.82-151.82,112.2-9.56,7.06-19.66,10.67-31.09,4.94S533,341,533,329.17Q532.91,271.33,533,213.48Zm164.76.32L574.42,122.91V304.69Z" transform="translate(-32.07 -66.81)"/><path d="M440.06,559.93V449.79c0-2.1,0-4.19,0-6.28,0-12,3.51-22.17,15-27.62,11.22-5.31,21.19-1.72,30.42,5.42Q557.74,477.16,630,533c20.27,15.72,20.07,37.28-.28,53q-71.64,55.46-143.39,110.76a49,49,0,0,1-10,6.19c-16.22,7.07-33.48-2.85-35.65-20.37a99.28,99.28,0,0,1-.56-11.83Q440,615.35,440.06,559.93Zm41.34-90.25v179.4l116.1-89.7Z" transform="translate(-32.07 -66.81)"/><path d="M697,559.43c-2.11-1.7-3.82-3.18-5.62-4.53-48.14-36-96.39-72-144.3-108.32A33.39,33.39,0,0,1,536,431.45c-2.65-8.1,1-15.62,8.26-20.48,7.5-5,15.46-5.09,22.82.14,11.17,7.93,22.06,16.25,33,24.46q64.71,48.4,129.38,96.87c14.55,10.9,19.66,24.24,13.42,37.86a39.3,39.3,0,0,1-11.59,14.35q-80.58,60.92-161.6,121.24c-7.7,5.77-15.95,7.67-24.61,2.43-7.47-4.52-10.55-11.47-9.59-20.14.82-7.36,5.66-11.86,11.21-16q72-53.79,143.91-107.69C692.59,563,694.52,561.38,697,559.43Z" transform="translate(-32.07 -66.81)"/><path d="M480,214.05c0,40.89.05,81.77,0,122.66,0,13-7.76,21.53-19.29,22a20.12,20.12,0,0,1-21.15-18,39.57,39.57,0,0,1-.18-4.87q0-122-.05-243.92c0-9.72,3.29-17.35,12.44-21.42,13.49-6,28,3.54,28.16,18.83.3,23.23.1,46.46.11,69.69Z" transform="translate(-32.07 -66.81)"/><path class="cls-1" d="M481.4,469.68l116.1,89.7-116.1,89.7Z" transform="translate(-32.07 -66.81)"/></svg>