<?xml version="1.0" encoding="utf-8"?>
<!-- Generator: Adobe Illustrator 23.1.0, SVG Export Plug-In . SVG Version: 6.00 Build 0)  -->
<svg version="1.1" id="Layer_1" xmlns="http://www.w3.org/2000/svg" xmlns:xlink="http://www.w3.org/1999/xlink" x="0px" y="0px"
	 viewBox="0 0 1000 500" style="enable-background:new 0 0 1000 500;" xml:space="preserve">
<style type="text/css">
	.st0{fill:#0D2C40;}
	.st1{fill:#02D35E;}
	.st2{fill:#00CF55;}
	.st3{fill:#FCFCFC;}
	.st4{fill:#FFFFFF;}
</style>
<g>
	<g>
		<polygon class="st0" points="551.1,380.3 363.6,174.4 368.1,103.5 434.5,108.1 624.3,323.1 558,320.8 		"/>
		<path class="st0" d="M102.8,69.2l-4.6,64l66.3,4.6c0,0,100.6-64,185.3,18.3l6.9-66.3l61.8,4.6c0,0-66.3-73.2-167-73.2
			C251.5,21.2,173.7,21.2,102.8,69.2z"/>
		<path class="st0" d="M59.4,382.6l68.6,4.6v-64c0,0-59.5-89.2,22.9-173.8l-68.6-4.6l2.3-64c0,0-73.9,62.1-73.9,162.8
			C10.6,243.4,11.3,323.1,59.4,382.6z"/>
		<path class="st0" d="M60.1,382.9l68.6,4.6v-64c0,0-59.5-89.2,22.9-173.8L83,145.1l2.3-64c0,0-73.9,62.1-73.9,162.8
			C11.4,243.8,12.1,323.5,60.1,382.9z"/>
		<path class="st0" d="M393.3,423.8v-64h-64c0,0-99.8,59.5-184.5-22.9l-4.6,68.6l-64.8-6.9c0,0,62.9,78.5,163.6,78.5
			C239,477.1,333.8,471.8,393.3,423.8z"/>
		<path class="st1" d="M564.8,398.6l6.9-66.3l70.9,4.6c0,0,57.2,84.6,183,16l-4.6,68.6l64,4.6c0,0-91.5,61.8-192.1,45.7
			C692.9,471.8,633.5,464.9,564.8,398.6z"/>
		<path class="st1" d="M901.5,417.3l-66.5-5.4l3-71c0,0,75-62.8,3.6-187.1l70.9,2.3l2.3-61.8c0,0,75.5,68.6,61.8,187.6
			C976.5,281.9,969.7,368.9,901.5,417.3z"/>
		<path class="st1" d="M901.1,78.4v66.3l-70.9-6.9c0,0-64-61.8-171.5,0.8l2.3-64.8l-63.1-7.3c0,0,62.9-54.5,182.1-43.1
			C779.8,23.5,862.2,30.3,901.1,78.4z"/>
		<polygon class="st2" points="345.3,343.7 583.1,80.7 649.5,83 644.9,151.6 409.3,414.6 411.6,348.3 		"/>
	</g>
	<g>
		<g>
			<path class="st3" d="M664.9,408.3c1.1-3.3,2.5-7.2,3.7-10.1c0,0-0.1,0-0.1,0c-1.9,2.5-4.1,5.1-6.7,7.9c-3.7,4-5.6,5.9-9.5,9.8
				c-1-0.3-1.6-0.5-2.6-0.8c0.4-4.8,0.6-7.2,1.2-12c0.5-3.5,1-6.7,1.8-9.6c0,0,0,0-0.1,0c-1.6,2.7-3.8,6.4-5.8,9.7
				c-2.3,3.7-3.5,5.6-5.9,9.3c-1.3-0.4-1.9-0.7-3.2-1.1c5.8-8.5,8.6-12.8,14.2-21.4c1.5,0.5,2.2,0.7,3.7,1.2
				c-0.7,4.8-1,7.2-1.5,12.1c-0.3,3.1-0.7,5.8-1.1,8.4c0,0,0.1,0,0.1,0c1.7-2.1,3.8-4.3,6.2-6.9c3.8-3.9,5.6-5.9,9.1-9.9
				c1.5,0.4,2.3,0.6,3.8,1c-3.1,9.5-4.5,14.2-7.4,23.8c-1.4-0.4-2-0.5-3.4-0.9C662.8,414.5,663.5,412.4,664.9,408.3z"/>
			<path class="st3" d="M690,415.9c-1.5,6.5-7.2,8.3-11.9,7.3c-5.3-1.2-8.1-5.6-6.3-10.9c2-5.7,7-8.1,11.8-7
				C688.7,406.3,691.2,410.5,690,415.9z M675.3,413c-1.2,3.7,0.3,7.1,3.7,7.9c3.3,0.7,6.6-1.6,7.6-5.5c0.7-2.9,0.2-7-3.6-7.8
				C679.1,406.7,676.3,409.7,675.3,413z"/>
			<path class="st3" d="M695,412.8c0.4-1.8,0.6-3.3,0.8-4.8c1.1,0.2,1.7,0.3,2.8,0.5c-0.1,1.2-0.2,1.8-0.4,3c0,0,0,0,0.1,0
				c1.2-1.5,3.5-2.9,6.4-2.4c2.4,0.3,6.1,2.3,5.4,8.5c-0.5,4.3-0.7,6.5-1.1,10.8c-1.4-0.2-2.2-0.3-3.6-0.5c0.5-4.1,0.8-6.2,1.3-10.3
				c0.4-2.9-0.4-5.4-3.5-5.9c-2.2-0.3-4.1,0.9-5,2.6c-0.2,0.4-0.4,0.9-0.5,1.5c-0.8,4.3-1.2,6.4-1.9,10.6c-1.4-0.2-2.1-0.4-3.6-0.6
				C693.5,420.5,694,417.9,695,412.8z"/>
			<path class="st3" d="M720.2,406.1c0,1.1-0.9,2-2.1,1.8c-1.1-0.1-1.8-1.1-1.8-2.2c0.1-1.2,1-2,2.1-1.9
				C719.5,403.9,720.2,404.9,720.2,406.1z M715,428.9c0.5-7.2,0.8-10.9,1.3-18.1c1.3,0.1,1.9,0.2,3.2,0.3
				c-0.4,7.3-0.6,10.9-0.9,18.2C717.2,429.2,716.4,429.1,715,428.9z"/>
			<path class="st3" d="M728.8,406.6c0,2.1,0,3.2,0,5.3c1.9,0.1,2.8,0.2,4.7,0.3c0,1,0.1,1.5,0.1,2.6c-1.9-0.1-2.8-0.2-4.7-0.3
				c0,4,0,5.9,0.1,9.9c0,2.3,0.7,3.6,2.7,3.8c0.9,0.1,1.6,0,2.1-0.1c0.1,1,0.1,1.5,0.2,2.5c-0.7,0.2-1.8,0.3-3.2,0.2
				c-1.7-0.1-3-0.8-3.9-1.7c-1-1.1-1.4-2.7-1.3-4.9c0.1-4,0.1-6,0.1-10c-1.1-0.1-1.7-0.1-2.8-0.2c0-1,0-1.5,0.1-2.5
				c1.1,0.1,1.7,0.1,2.8,0.2c0-1.8,0-2.6,0.1-4.4C727,407,727.6,406.9,728.8,406.6z"/>
			<path class="st3" d="M754.5,421.7c1.1,6.9-3.6,9.9-8.4,9.8c-5.4-0.1-9.7-4-10-9.9c-0.3-6.2,3.4-9.6,8.4-9.5
				C749.6,412.2,753.7,416,754.5,421.7z M739.5,421.7c0.3,4.1,3,7.2,6.5,7.3c3.4,0.1,5.6-2.9,5-7.1c-0.4-3.2-2.5-7.1-6.4-7.2
				C740.7,414.6,739.3,418.2,739.5,421.7z"/>
			<path class="st3" d="M758.3,418.3c-0.4-2.2-0.8-4.1-1.2-5.8c1.1,0,1.7,0,2.9-0.1c0.3,1.5,0.5,2.2,0.8,3.7c0.1,0,0.1,0,0.2,0
				c0.3-2.5,2-4.2,4.2-4.3c0.4,0,0.6,0,1,0.1c0.3,1.3,0.4,1.9,0.7,3.2c-0.4-0.1-0.7-0.1-1.2-0.1c-2.3,0.1-3.6,2-3.6,4.5
				c0,0.5,0,1,0.2,1.6c0.8,4,1.2,6,2,10c-1.4,0-2.2,0-3.6,0.1C759.7,426.1,759.2,423.5,758.3,418.3z"/>
		</g>
	</g>
	<g>
		<g>
			<path class="st3" d="M707.1,61.2c2.2-0.9,4.8-1.8,7.7-2.5c5.3-1.2,9.1-0.9,11.7,0.6c2.6,1.5,4.2,4,4.4,7.8c0.2,3.8-1,7.2-3.4,9.7
				c-2.4,2.6-6.4,4.5-11.5,5.6c-2.4,0.6-4.5,1-6.2,1.3C708.8,74.7,708.2,70.2,707.1,61.2z M713.1,80.6c0.9-0.1,2.1-0.3,3.5-0.6
				c7.3-1.7,11.1-5.8,10.7-12.1c-0.3-5.5-4.4-8.5-12.1-6.7c-1.9,0.4-3.3,0.9-4.2,1.4C711.8,69.7,712.2,73.3,713.1,80.6z"/>
			<path class="st3" d="M737.8,70.7c0.2,4.2,3.3,5.6,6.8,5.4c2.5-0.2,4-0.6,5.4-1.1c0.2,0.9,0.3,1.3,0.6,2.2
				c-1.2,0.5-3.3,1.2-6.4,1.3c-5.9,0.4-9.6-2.6-9.8-7.7c-0.2-5.1,3.2-9.6,9.1-10.1c6.6-0.5,8.3,4.5,8.3,7.6c0,0.6-0.1,1.1-0.1,1.5
				C746.1,70,743.4,70.2,737.8,70.7z M748.3,67.7c0-2-0.9-5.1-5.1-4.7c-3.7,0.3-5.2,3.4-5.5,5.5C742,68.1,744.1,67.9,748.3,67.7z"/>
			<path class="st3" d="M756.3,66.3c0.1-2.2,0-4,0-5.6c1.3,0,2,0,3.3,0c0,1.2,0,1.8,0,3c0,0,0.1,0,0.1,0c1.6-2.1,4-3.3,7.4-3.1
				c4.9,0.3,8.3,4.2,7.8,9.4c-0.6,6.2-5,8.8-9.5,8.6c-2.5-0.1-4.7-1.2-5.8-3c0,0,0,0-0.1,0c-0.2,3.7-0.2,5.6-0.4,9.4
				c-1.3,0-2,0-3.4-0.1C756,77.4,756.1,73.7,756.3,66.3z M759.7,70.9c0,0.5,0,0.9,0.1,1.3c0.6,2.2,2.6,3.7,5.1,3.9
				c3.7,0.2,6.1-2.3,6.4-6.3c0.3-3.5-1.6-6.6-5.5-6.8c-2.5-0.1-4.9,1.4-5.7,3.7c-0.1,0.4-0.3,0.8-0.3,1.3
				C759.8,69.1,759.8,69.7,759.7,70.9z"/>
			<path class="st3" d="M781.2,54c1.5,0.2,2.3,0.3,3.8,0.5c-1.2,10.2-1.8,15.2-3,25.4c-1.4-0.2-2.1-0.3-3.5-0.5
				C779.5,69.2,780.1,64.1,781.2,54z"/>
			<path class="st3" d="M806.4,76.2c-1.3,6.4-6.6,7.8-11.1,6.7c-5.1-1.2-8.6-5.3-7.8-10.8c0.8-5.8,5.6-8.5,11.1-7.2
				C804.3,66.2,807.4,70.9,806.4,76.2z M791.1,72.7c-0.5,3.8,1.4,7.1,4.8,7.9c3.3,0.8,6.2-1.4,7-5.3c0.5-2.9-0.4-7.1-4.7-8.1
				C793.9,66.3,791.5,69.4,791.1,72.7z"/>
			<path class="st3" d="M813.6,69.4c0.8,4.6,1.2,6.9,1.9,11.5c0.2,1.3,0.3,2.8,0.4,3.9c0,0,0,0,0.1,0c0.6-0.9,1.3-2.1,2-3.1
				c2.4-3.5,3.7-5.2,6.2-8.6c1.5,0.6,2.2,0.9,3.7,1.5c-3.4,4-5,6-8.3,10.1c-3.9,4.9-6.2,7.4-8.8,8.4c-1.9,0.8-3.6,0.8-4.4,0.7
				c-0.1-1.2-0.2-1.7-0.3-2.9c0.9,0,2.1-0.2,3.2-0.6c1-0.4,2.4-1.2,3.6-2.5c0.2-0.3,0.4-0.5,0.4-0.7c0-0.2,0-0.5,0-0.9
				c-1.3-7.3-2-10.9-3.6-18.1C811.2,68.6,812,68.9,813.6,69.4z"/>
		</g>
	</g>
	<g>
		<path class="st3" d="M411.6,133c1.2,1,2.8,2.3,4.5,4.2c2.1,2.3,3.2,4.5,3.2,6.5c0.1,1.8-0.7,3.6-2.3,5.1c-1.6,1.5-3.4,2.2-5.2,2.2
			c-2.5,0-5-1.4-7.1-3.7c-0.6-0.7-1.2-1.4-1.6-2l-7.3,6.7l-2.2-2.3L411.6,133z M405,143.3c0.3,0.6,0.9,1.3,1.6,2.1
			c2.6,2.8,5.6,3.3,8.1,1c2.4-2.2,2-5-0.4-7.6c-0.9-1-1.7-1.7-2.2-2L405,143.3z"/>
		<path class="st3" d="M425.7,146l2.2,2.4l-19.1,17.6l-2.2-2.4L425.7,146z"/>
		<path class="st3" d="M419.1,177.2l1.5-1.7l-0.1-0.1c-1.7,0.2-3.9-0.3-5.6-2.2c-2.4-2.6-1.8-5.7,0.1-7.4c3.2-2.9,7.5-1.7,12.1,3.4
			l0.3-0.2c1.1-1,2.7-3.1,0.3-5.7c-1.1-1.2-2.7-2.1-4.1-2.5l1.1-2c1.7,0.4,3.6,1.6,5.1,3.2c3.7,4,1.8,7.5-0.8,9.9l-4.9,4.5
			c-1.1,1-2.2,2.1-2.9,3.1L419.1,177.2z M425.4,170.7c-2.3-2.6-5.5-5.2-8-2.8c-1.5,1.4-1.3,3.1-0.2,4.3c1.6,1.7,3.6,1.8,5.1,1.1
			c0.3-0.1,0.6-0.3,0.9-0.6L425.4,170.7z"/>
		<path class="st3" d="M433.9,174.2c1.3-1.2,2.4-2.3,3.4-3.4l1.9,2.1l-2,2.1l0,0.1c1.8-0.5,4.4-0.1,6.4,2.1c1.7,1.8,3.2,5.6-1.3,9.7
			l-7.8,7.2l-2.2-2.4l7.5-6.9c2.1-1.9,3.1-4.3,1.1-6.6c-1.4-1.6-3.7-1.8-5.3-1c-0.4,0.2-0.8,0.5-1.3,0.9l-7.8,7.2l-2.2-2.4
			L433.9,174.2z"/>
	</g>
	<g>
		<path class="st3" d="M442.9,282c0.9-1.4,2.3-3.2,3.8-4.8c2.3-2.5,4.3-3.6,6.4-3.8c1.7-0.2,3.4,0.5,4.7,1.8
			c2.4,2.2,2.5,5.2,1.4,7.7l0.1,0.1c1.8-0.9,3.8-0.6,6.1,0.8c3.1,1.8,5.2,3,6.2,3.3l-2.3,2.4c-0.8-0.2-2.7-1.2-5.4-2.8
			c-3-1.8-4.8-1.7-6.9,0.3l-2.1,2.2l7.8,7.3l-2.2,2.3L442.9,282z M453.3,287.4l2.2-2.4c2.3-2.5,2.5-5.3,0.4-7.3
			c-2.3-2.2-4.9-1.5-7.3,1c-1.1,1.1-1.7,2-1.9,2.5L453.3,287.4z"/>
		<path class="st3" d="M469.4,277.4c3.2,2.9,6.4,2.1,8.6-0.2c1.6-1.7,2.2-3,2.7-4.2l2.1,1.2c-0.4,1.2-1.3,3-3.2,5
			c-3.7,4-8.6,3.9-12.5,0.2c-3.9-3.7-4.8-8.8-1.3-12.6c4-4.2,8.7-1.8,11.1,0.4c0.5,0.5,0.8,0.9,1,1.1L469.4,277.4z M474.2,268.9
			c-1.5-1.4-4.4-3-6.9-0.3c-2.2,2.4-1,5.5,0.4,7.2L474.2,268.9z"/>
		<path class="st3" d="M467.8,253.2l2.2-2.3l18.9,17.8l-2.2,2.3L467.8,253.2z"/>
		<path class="st3" d="M487.9,257.7c3.2,2.9,6.4,2.1,8.6-0.2c1.6-1.7,2.2-3,2.7-4.2l2.1,1.2c-0.4,1.2-1.3,3-3.2,5
			c-3.7,4-8.6,3.9-12.5,0.2c-3.9-3.7-4.8-8.8-1.3-12.6c4-4.2,8.7-1.8,11.1,0.4c0.5,0.5,0.8,0.9,1,1.1L487.9,257.7z M492.6,249.3
			c-1.5-1.4-4.4-3-6.9-0.3c-2.2,2.4-1,5.5,0.4,7.2L492.6,249.3z"/>
		<path class="st3" d="M511.9,244.2l-1.8-1.3l-0.1,0.1c0.3,1.7-0.1,3.9-1.8,5.8c-2.5,2.6-5.6,2.2-7.4,0.5c-3.1-2.9-2.2-7.3,2.5-12.3
			l-0.3-0.3c-1.1-1-3.3-2.5-5.7,0.1c-1.1,1.2-1.9,2.8-2.2,4.3l-2-0.9c0.3-1.7,1.3-3.7,2.8-5.3c3.7-3.9,7.3-2.4,9.9,0.1l4.8,4.5
			c1.1,1.1,2.3,2,3.3,2.7L511.9,244.2z M505,238.4c-2.5,2.5-4.7,5.8-2.2,8.2c1.5,1.4,3.2,1.1,4.3-0.1c1.6-1.7,1.5-3.7,0.8-5.2
			c-0.2-0.3-0.4-0.6-0.6-0.8L505,238.4z"/>
		<path class="st3" d="M514.6,236.6c1.1-0.3,2.7-1,3.8-2.2c1.6-1.7,1.5-3.3,0.4-4.3c-1.1-1.1-2.4-1-4.6,0.2c-3,1.5-5.3,1.4-6.9,0
			c-2.1-2-2.2-5.2,0.4-8c1.2-1.3,2.7-2.1,3.8-2.4l1.2,2.2c-0.8,0.2-2.1,0.7-3.2,1.9c-1.3,1.4-1.2,2.9-0.3,3.8c1.1,1,2.3,0.7,4.5-0.4
			c3-1.4,5.2-1.5,7.1,0.3c2.3,2.1,2.2,5.4-0.7,8.5c-1.3,1.4-2.9,2.4-4.3,2.8L514.6,236.6z"/>
		<path class="st3" d="M522.5,221c3.2,2.9,6.4,2.1,8.6-0.2c1.6-1.7,2.2-3,2.7-4.2l2.1,1.2c-0.4,1.2-1.3,3-3.2,5
			c-3.7,4-8.6,3.9-12.5,0.2s-4.8-8.8-1.3-12.6c4-4.2,8.7-1.8,11.1,0.4c0.5,0.5,0.8,0.9,1,1.1L522.5,221z M527.3,212.6
			c-1.5-1.4-4.4-3-6.9-0.3c-2.2,2.4-1,5.5,0.4,7.2L527.3,212.6z"/>
	</g>
	<g>
		<g>
			<path class="st4" d="M214.3,80.1c-1.2,0.7-3.6,1.5-6.7,1.8c-7.2,0.9-12.9-2.3-13.4-10c-0.4-7.4,4.8-13.5,13.1-14.7
				c3.3-0.4,5.4,0,6.4,0.3c-0.3,1-0.5,1.6-0.7,2.6c-1.3-0.4-3.2-0.6-5.4-0.4c-6.2,0.8-10.1,5.1-9.8,11.3c0.3,5.8,4.1,8.8,10.4,8.1
				c2-0.2,4.1-0.8,5.4-1.6C213.9,78.6,214,79.1,214.3,80.1z"/>
			<path class="st4" d="M234.7,71.1c0,6.5-4.8,9.3-9.2,9.4c-5,0.2-9-2.9-9.1-8.4c-0.2-5.8,3.9-9.6,9.2-9.8
				C231.1,62.1,234.8,65.8,234.7,71.1z M219.9,71.8c0.1,3.8,2.5,6.5,5.8,6.4c3.2-0.1,5.6-3,5.6-6.9c0-3-1.6-6.7-5.7-6.5
				C221.5,64.9,219.8,68.5,219.9,71.8z"/>
			<path class="st4" d="M255.8,55.1c-0.3,8.6-0.4,12.9-0.7,21.4c-0.1,1.6-0.1,3.4,0,4.6c-1.2-0.1-1.8-0.2-3-0.3c0-1.2,0-1.9-0.1-3.1
				c0,0,0,0-0.1,0c-1.1,1.9-3.4,3.2-6.4,3c-4.5-0.3-7.9-3.9-7.9-9.2c0-5.8,3.9-9.4,8.6-9.2c2.9,0.1,4.8,1.6,5.7,3.1c0,0,0,0,0.1,0
				c0.1-4.2,0.2-6.3,0.3-10.6C253.7,55,254.4,55,255.8,55.1z M251.9,70.3c0-0.4,0-1-0.1-1.4c-0.4-2.1-2.3-3.9-4.9-4
				c-3.6-0.2-5.7,2.7-5.8,6.6c0,3.6,1.8,6.5,5.4,6.8c2.3,0.1,4.4-1.1,5-3.5c0.1-0.4,0.2-0.9,0.2-1.4
				C251.8,72.2,251.8,71.6,251.9,70.3z"/>
			<path class="st4" d="M262.7,73.7c-0.1,4.4,2.7,6.6,6,7.1c2.4,0.4,3.9,0.3,5.1,0c0.2,1,0.2,1.5,0.4,2.4c-1.2,0.3-3.2,0.5-6.1,0
				c-5.6-0.9-8.9-4.9-8.7-10.3c0.2-5.4,3.8-9.3,9.3-8.4c6.2,0.9,7.4,6.5,7.2,9.8c0,0.7-0.2,1.2-0.2,1.5
				C270.6,74.8,268,74.4,262.7,73.7z M272.8,72.9c0.2-2.1-0.6-5.5-4.4-6.1c-3.5-0.5-5.1,2.3-5.5,4.5
				C266.9,71.9,268.8,72.2,272.8,72.9z"/>
		</g>
	</g>
	<g>
		<path class="st4" d="M212.7,411.8h-7.5v-2.7h18.3v2.7h-7.5v22h-3.2V411.8z"/>
		<path class="st4" d="M225.3,425.5c0.1,4.4,2.9,6.1,6.1,6.1c2.3,0,3.7-0.4,4.9-0.9l0.5,2.3c-1.1,0.5-3.1,1.1-5.9,1.1
			c-5.5,0-8.7-3.6-8.7-8.9s3.1-9.6,8.3-9.6c5.8,0,7.3,5.1,7.3,8.3c0,0.7-0.1,1.2-0.1,1.5H225.3z M234.7,423.1c0-2.1-0.8-5.2-4.5-5.2
			c-3.3,0-4.7,3-4.9,5.2H234.7z"/>
		<path class="st4" d="M241.4,430.4c1,0.6,2.6,1.3,4.2,1.3c2.3,0,3.4-1.2,3.4-2.6c0-1.5-0.9-2.4-3.3-3.3c-3.2-1.1-4.7-2.9-4.7-5
			c0-2.9,2.3-5.2,6.1-5.2c1.8,0,3.4,0.5,4.4,1.1l-0.8,2.3c-0.7-0.4-2-1-3.6-1c-1.9,0-3,1.1-3,2.4c0,1.5,1.1,2.1,3.4,3
			c3.1,1.2,4.6,2.7,4.6,5.3c0,3.1-2.4,5.3-6.6,5.3c-1.9,0-3.7-0.5-5-1.2L241.4,430.4z"/>
		<path class="st4" d="M260.2,410.9v5.1h4.6v2.5h-4.6v9.6c0,2.2,0.6,3.4,2.4,3.4c0.8,0,1.5-0.1,1.9-0.2l0.1,2.4
			c-0.6,0.3-1.6,0.4-2.9,0.4c-1.5,0-2.7-0.5-3.5-1.4c-0.9-1-1.2-2.5-1.2-4.6v-9.7h-2.7V416h2.7v-4.2L260.2,410.9z"/>
	</g>
	<g>
		<path class="st4" d="M50.9,282.9c-0.3-1.4-0.5-3.6-0.5-5.8c0-3.2,0.5-5.2,1.8-6.8c1-1.3,2.4-2.1,4.4-2.1c2.4,0,4.5,1.6,5.4,4.2
			h0.1c0.6-2.3,2.5-5.1,6.2-5.1c2.1,0,3.7,0.8,4.9,2.1c1.6,1.7,2.3,4.5,2.3,8.5c0,2.2-0.1,3.9-0.3,4.9H50.9z M61.1,279.8v-2.9
			c0-3.4-1.8-5.3-4.1-5.3c-2.9,0-4,2.2-4,5.4c0,1.5,0.1,2.3,0.2,2.8H61.1z M72.9,279.8c0.1-0.6,0.1-1.5,0.1-2.7
			c0-3.3-1.2-6.3-4.8-6.3c-3.4,0-4.8,2.9-4.8,6.4v2.6H72.9z"/>
		<path class="st4" d="M70.5,248.4c1.8,0,3.4,0,4.8-0.1v2.9l-2.9,0.2v0.1c1.4,0.8,3.3,2.7,3.3,5.9c0,2.8-1.5,6.1-7.8,6.1H57.6v-3.2
			h9.8c3.4,0,5.6-1,5.6-4c0-2.2-1.5-3.7-2.9-4.2c-0.5-0.2-1.1-0.3-1.6-0.3H57.6v-3.2H70.5z"/>
		<path class="st4" d="M52.6,239.5c1.1,0,2,0.8,2,2.1c0,1.1-0.9,1.9-2,1.9c-1.1,0-2-0.8-2-2C50.6,240.2,51.5,239.5,52.6,239.5z
			 M75.3,243.1H57.6v-3.2h17.7V243.1z"/>
		<path class="st4" d="M49.3,234.5v-3.2h26v3.2H49.3z"/>
		<path class="st4" d="M49.3,210.6h21.4c1.6,0,3.4,0,4.6-0.1v2.9l-3.1,0.1v0.1c2,1,3.5,3.1,3.5,6c0,4.3-3.6,7.6-9,7.6
			c-5.9,0-9.5-3.6-9.5-7.9c0-2.7,1.3-4.5,2.7-5.3v-0.1H49.3V210.6z M64.8,213.8c-0.4,0-1,0-1.4,0.1c-2,0.5-3.7,2.2-3.7,4.7
			c0,3.3,2.9,5.3,6.8,5.3c3.6,0,6.6-1.8,6.6-5.2c0-2.2-1.4-4.1-3.8-4.7c-0.4-0.1-0.9-0.1-1.4-0.1H64.8z"/>
	</g>
	<g>
		<g>
			<path class="st4" d="M924.9,219.6c-8.1,1.5-13-2.9-13.9-9.2c-0.9-6.5,2.8-12.5,9.6-14.7c7.2-2.2,13,1.7,14.3,9.1
				C936.2,212.5,931.9,218.3,924.9,219.6z M921.4,199.4c-4.9,1.4-8.7,5.6-7.9,10.7c0.8,5.1,5.5,7.1,10.8,6c4.7-1,9.2-4.8,8.2-10.7
				C931.5,199.5,926.4,197.9,921.4,199.4z"/>
			<path class="st4" d="M924.8,224c2.2-0.4,3.9-0.7,5.6-1.1c0.1,1.3,0.2,1.9,0.4,3.2c-1.2,0.2-1.8,0.4-2.9,0.6c0,0,0,0,0,0.1
				c2.2,1.1,3.7,3.2,4,6.4c0.4,4.7-3,8.5-8.3,9c-6.3,0.5-9.6-3.2-9.9-7.4c-0.2-2.4,0.7-4.6,2.3-5.9c0,0,0,0,0-0.1
				c-3.7,0.6-5.6,0.8-9.3,1.4c-0.1-1.2-0.1-1.9-0.3-3.1C913.7,225.9,917.4,225.3,924.8,224z M920.6,228.1c-0.5,0.1-0.9,0.2-1.3,0.3
				c-2.1,0.9-3.4,3.1-3.3,5.5c0.3,3.5,3.1,5.2,7.1,4.8c3.5-0.3,6.4-2.7,6-6.4c-0.2-2.4-2-4.4-4.4-4.7c-0.4-0.1-0.9-0.1-1.3,0
				C922.3,227.8,921.7,227.9,920.6,228.1z"/>
			<path class="st4" d="M922.9,248.4c-4.3,0.3-6,3.2-6,6.5c0,2.4,0.4,3.8,0.9,5c-0.9,0.2-1.4,0.3-2.3,0.5c-0.5-1.2-1.1-3.1-1.1-6
				c0-5.5,3.4-9,8.7-9.4c5.3-0.3,9.7,2.8,9.9,8.5c0.2,6.4-5,8-8.3,8c-0.7,0-1.2-0.1-1.5-0.1C923.1,256.2,923.1,253.6,922.9,248.4z
				 M925.5,258.3c2.1,0,5.3-0.9,5.2-4.9c-0.1-3.6-3.2-5-5.4-5.1C925.4,252.3,925.4,254.3,925.5,258.3z"/>
			<path class="st4" d="M927.1,265.9c2.1,0.1,3.9,0.1,5.6,0c0,1.2,0,1.9,0,3.1c-1.4,0-2.1,0-3.5,0c0,0.1,0,0.1,0,0.2
				c2.4,1,3.9,3.2,3.8,5.6c0,0.4-0.1,0.7-0.1,1c-1.2-0.1-1.9-0.1-3.1-0.2c0.1-0.4,0.1-0.7,0.2-1.2c0.1-2.5-1.6-4.3-4.1-4.9
				c-0.4-0.1-1-0.2-1.5-0.2c-3.9-0.2-5.8-0.3-9.6-0.5c0-1.3,0.1-1.9,0.1-3.2C919.6,265.7,922.1,265.8,927.1,265.9z"/>
			<path class="st4" d="M913.4,287.3c0.9,0,1.4,0,2.3,0.1c0,0,0-0.1,0-0.1c-1.4-1.2-2.5-3.3-2.3-5.8c0.3-3.6,3-5.2,5.6-5
				c4.4,0.4,6.7,4.6,6.1,11.9c0.2,0,0.2,0,0.4,0.1c1.5,0.2,4.3,0.1,4.5-3.8c0.1-1.8-0.3-3.7-1.1-5.2c0.9-0.2,1.3-0.4,2.2-0.6
				c0.9,1.7,1.4,4.1,1.3,6.6c-0.4,6-4.4,6.8-8.1,6.3c-2.8-0.4-4.1-0.6-6.9-1.1c-1.6-0.2-3.2-0.4-4.4-0.4
				C913.2,289.1,913.3,288.5,913.4,287.3z M922.8,288.1c0.4-3.7,0-8-3.6-8.3c-2.1-0.2-3.3,1.1-3.4,2.8c-0.2,2.3,1.2,4,2.7,4.8
				c0.3,0.2,0.7,0.3,1,0.3C920.9,287.9,921.5,287.9,922.8,288.1z"/>
			<path class="st4" d="M935.9,303.6c-2.1-0.4-3.2-0.6-5.3-1c-0.2,2-0.3,3-0.6,5.1c-1-0.2-1.5-0.3-2.6-0.6c0.3-2,0.4-3,0.6-5
				c-4-0.8-6-1.2-10-2c-2.3-0.5-3.7-0.1-3.9,1.7c-0.1,0.9-0.1,1.5,0,1.9c-1-0.2-1.5-0.2-2.5-0.4c-0.2-0.7-0.2-1.7-0.1-3
				c0.2-1.5,0.9-2.6,1.9-3.2c1.1-0.7,2.8-0.8,5-0.4c4,0.7,6,1.1,10.1,1.8c0.1-1.2,0.2-1.8,0.3-3c1,0.2,1.5,0.3,2.6,0.4
				c-0.1,1.2-0.2,1.8-0.3,3c1.8,0.3,2.7,0.5,4.4,0.8C935.6,301.4,935.7,302.2,935.9,303.6z"/>
			<path class="st4" d="M919.3,310.9c-4.6-1.1-6.9,1.3-7.5,4.5c-0.4,2.3-0.3,3.8,0,5.2c-1-0.1-1.5-0.1-2.5-0.2
				c-0.3-1.3-0.6-3.4,0-6.2c1-5.4,5.2-7.8,10.8-6.5c5.6,1.3,9.6,5.8,8.7,11.4c-1,6.3-6.7,6.3-10.1,5.3c-0.7-0.2-1.2-0.5-1.6-0.6
				C918.1,318.7,918.5,316.1,919.3,310.9z M920.1,321.4c2.1,0.7,5.7,0.7,6.3-3.2c0.6-3.5-2.4-5.9-4.7-6.7
				C921.1,315.5,920.8,317.5,920.1,321.4z"/>
		</g>
	</g>
</g>
</svg>
