<svg id="Layer_1" data-name="Layer 1" xmlns="http://www.w3.org/2000/svg" xmlns:xlink="http://www.w3.org/1999/xlink" viewBox="0 0 647.37 1438.25"><title>Distributed for autoscaling</title><path d="M297,392.46c-19.67,0-39.35.21-59-.07-12-.18-20.25-7.06-23.48-18.48-3.49-12.35,3.21-26.1,15.46-30.08,5.17-1.68,7.27-3.72,7.64-9.42C238.77,316.6,257.15,299.62,275,299c23.85-.78,38.8,10.11,45.58,32.77.48,1.62,3.4,3.72,5,3.6,18.61-1.39,31.62,9.51,33,27.68a7.87,7.87,0,0,0,3.72,5.38c6.85,3.57,10,8.3,8.62,14.37s-5.91,9.6-13.68,9.65c-20.09.12-40.19,0-60.29,0Z" transform="translate(-69 727)"/><path d="M505,392.46c-19.67,0-39.35.21-59-.07-12-.18-20.25-7.06-23.48-18.48-3.49-12.35,3.21-26.1,15.46-30.08,5.17-1.68,7.27-3.72,7.64-9.42C446.77,316.6,465.15,299.62,483,299c23.85-.78,38.8,10.11,45.58,32.77.48,1.62,3.4,3.72,5,3.6,18.61-1.39,31.62,9.51,33,27.68a7.87,7.87,0,0,0,3.72,5.38c6.85,3.57,10,8.3,8.62,14.37s-5.91,9.6-13.68,9.65c-20.09.12-40.19,0-60.29,0Z" transform="translate(-69 727)"/><path d="M418,505.46c-19.67,0-39.35.21-59-.07-12-.18-20.25-7.06-23.48-18.48-3.49-12.35,3.21-26.1,15.46-30.08,5.17-1.68,7.27-3.72,7.64-9.42C359.77,429.6,378.15,412.62,396,412c23.85-.78,38.8,10.11,45.58,32.77.48,1.62,3.4,3.72,5,3.6,18.61-1.39,31.62,9.51,33,27.68a7.87,7.87,0,0,0,3.72,5.38c6.85,3.57,10,8.3,8.62,14.37s-5.91,9.6-13.68,9.65c-20.09.12-40.19,0-60.29,0Z" transform="translate(-69 727)"/><path d="M619,620.52H539.25V595.59H572c.52-1.07,1-2.15,1.54-3.22l-42.5-38L553.51,534l36.8,40.85L594,572.8V541h25Z" transform="translate(-69 727)"/><path d="M659,448.29l-15.74-19,23.82-19.11-1.8-3.74H609.6V380.33h55.73l1.83-4.17L640.55,355l19.58-18.6L716.37,391Z" transform="translate(-69 727)"/><path d="M166.29,156.89h79.37V180.1h-36l46.07,40.57-25.91,18.18-34.59-37.49L191.46,203v32.89H166.29Z" transform="translate(-69 727)"/><path d="M375.83,604.52h25.38v56l3.36,2.19,19.61-28.83c9.87,10.73,15.19,16.53,19.94,21.7l-55.37,55.71-54.13-55.69,14.54-17.2,26.67,25.29Z" transform="translate(-69 727)"/><path d="M409.43,171.77H384V116.62l-3.33-1.52C373.81,123.56,367,132,361,139.5l-19.52-17,54.89-58.11,55.56,57.83-18.11,18.94-19.69-28-4.69,3.27Z" transform="translate(-69 727)"/><path d="M545.67,162.84H624.2v77.89H600.09V209.64l-3.78-2.23-36.14,43.68-19.91-25.3,40.68-33.54-3.23-4.49h-32Z" transform="translate(-69 727)"/><path d="M224.51,523.72l20.79,23.94-40.62,38,2.24,4.15h32.82v24.84H161.51V535.12h23.75v34.79Z" transform="translate(-69 727)"/><path d="M126.78,329l15.45,16L117.38,372h58.85v24.24H116.49l26.49,28-18.93,13.29L71.27,384.7Z" transform="translate(-69 727)"/><image width="223" height="226" xlink:href="asybnch.png"/></svg>