<svg id="Layer_1" data-name="Layer 1" xmlns="http://www.w3.org/2000/svg" xmlns:xlink="http://www.w3.org/1999/xlink" viewBox="0 0 610.29 603.82"><defs><style>.cls-1,.cls-2,.cls-9{fill:none;}.cls-1,.cls-2,.cls-5,.cls-6,.cls-7,.cls-8,.cls-9{stroke:#29abe2;}.cls-1{clip-rule:evenodd;}.cls-3{clip-path:url(#clip-path);}.cls-4{clip-path:url(#clip-path-2);}.cls-5{fill:#fdfefe;}.cls-6{fill:#4379bd;}.cls-7{fill:#5caaf8;}.cls-8{fill:#fff;}.cls-9{fill-rule:evenodd;}</style><clipPath id="clip-path" transform="translate(-94.21 -75.45)"><polygon class="cls-1" points="94.71 678.76 704 678.76 704 75.95 94.71 75.95 94.71 678.76 94.71 678.76"/></clipPath><clipPath id="clip-path-2" transform="translate(-94.21 -75.45)"><polygon class="cls-2" points="94.71 678.76 704 678.76 704 75.95 94.71 75.95 94.71 678.76 94.71 678.76"/></clipPath></defs><title>Ingestion</title><g class="cls-3"><g class="cls-4"><path class="cls-5" d="M224.75,560.07c-2-4-2-8-4.07-10.05-14.22-26.11-48.76-36.16-77.21-20.09-26.41,16.07-36.57,50.22-20.31,76.34s50.79,34.15,77.2,18.08c12.2-8,18.29-20.09,26.42-32.14,63,4,97.52-28.13,101.59-90.4,2-26.11,24.38-48.21,50.79-50.22s26.42-2,26.42,24.11c0,14.06,6.09,20.08,20.31,20.08h42.67c14.22,0,20.32-4,20.32-20.08,0-26.12,0-52.23,2-78.35H633.14c0,2,2,2,2,4-6.1,6-12.19,10-18.29,16.07s-8.13,14.06,0,22.1,16.26,8,22.35,0L686,393.34q12.19-12.06,0-24.11c-14.22-16.07-30.47-30.13-46.73-46.2Q627,311,614.85,323c-8.13,8-4.06,16.07,2,22.09s12.19,10.05,16.26,20.09H488.88c0-26.11,0-52.23-2-76.33,0-18.08-4.07-22.1-22.35-22.1H440.12c-28.45,0-38.61-4-36.58,34.15,0,4,2,8-2,8-10.16,0-18.28,6-28.44,2-30.48-8-46.73-28.13-46.73-60.27-2-48.21-46.74-86.38-87.37-82.36-14.22,0-20.32-8-26.41-18.08-20.32-30.13-65-28.12-87.37,0-14.22,18.08-16.26,40.18-6.1,60.27,12.19,20.08,30.48,30.13,54.86,28.12s40.64-16.07,48.76-38.17h8.13c42.67,0,63,18.08,65,60.27,0,6,2,14.06,4.06,20.08,12.19,38.17,44.7,58.26,93.46,58.26,8.13,0,12.2,0,12.2,12,0,10-2,12.05-12.2,12.05H222.71c-12.19-32.14-42.66-46.2-71.11-36.15s-44.7,40.17-34.54,70.3c8.13,22.1,28.45,38.17,50.8,38.17,24.38,2,44.7-12,56.89-40.18H393.38c10.16,0,14.23,2,14.23,14.07s-4.07,12-14.23,14.06c-8.12,0-18.28-4-26.41-2-40.63,10-67.05,42.18-69.08,82.36,0,26.11-16.25,48.21-40.64,54.24-12.19,4-22.35,2-32.5,2Z" transform="translate(-94.21 -75.45)"/><path class="cls-6" d="M490.91,397.35c0,26.12,0,52.23-2,78.35,0,16.07-6.1,20.08-20.32,20.08H425.89c-14.22,0-20.31-6-20.31-20.08,0-26.12,0-26.12-26.42-24.11s-48.76,24.11-50.79,50.22c-4.07,62.27-40.64,92.4-101.59,90.4,0-10.05,2-20.09-2-32.14,10.15,0,20.31,2,30.47-2,24.38-6,40.64-28.13,40.64-54.24,2-40.18,28.44-74.33,69.08-82.36,10.16-2,18.29,2,26.41,2,10.16,0,14.23-2,14.23-14.06,0-10.05-4.07-14.07-14.23-14.07H222.71c4.07-10,2-22.09,0-32.14H393.38c10.16,0,12.2-2,12.2-12.05s-4.07-12-12.2-12c-48.76,0-81.27-20.09-93.46-58.26,0-4-2-12-2-18.08-2-42.18-22.35-62.27-65-60.26h-8.12c4.06-10-4.07-30.13,18.28-30.13,40.64-4,85.34,32.14,87.37,82.36,2,30.13,18.29,52.23,46.73,60.26,10.16,2,18.29-2,28.45-2,4.06,0,2-6,2-8-2-38.17,8.12-34.15,36.57-34.15h24.38c18.29,0,22.35,4,22.35,22.1,0,26.11,0,52.22,2,76.33-2,6-2,18.08-2,28.12Z" transform="translate(-94.21 -75.45)"/><path class="cls-7" d="M490.91,397.35V365.21H635.17c-4.07-8-10.16-14.06-16.26-20.09-6.09-8-8.12-16.07-2-22.09,8.13-8,16.26-6,24.38,0,16.26,14.06,30.48,30.13,46.73,46.2q12.19,12.06,0,24.11c-16.25,16.07-30.47,32.14-46.73,46.2-8.12,6-16.25,6-22.35,0-6.09-8-6.09-16.07,0-22.1s12.19-10,18.29-16.07c0-2-2-2-2-4Z" transform="translate(-94.21 -75.45)"/><path class="cls-7" d="M243,170.36c-22.35,2-12.19,20.09-18.28,30.13-8.13,24.11-24.39,38.17-48.77,40.18s-42.66-8-52.82-28.13C111,192.46,113,170.36,129.25,152.28c22.35-28.12,67.05-28.12,87.37,0,6.09,10,12.19,18.08,26.41,18.08Zm-71.11,40.18c14.22,0,24.38-12.06,24.38-26.12,0-12-12.19-22.1-24.38-22.1s-26.41,12.06-24.38,24.11a24.57,24.57,0,0,0,24.38,24.11Z" transform="translate(-94.21 -75.45)"/><path class="cls-7" d="M224.75,365.21c2,10.05,4.06,22.1,0,32.14-12.19,26.12-30.48,40.18-56.89,40.18-22.35-2-42.67-16.07-50.8-38.17-10.16-28.12,6.1-60.26,34.54-70.31,30.48-10,61,4,73.15,36.16ZM196.3,381.28c0-14.06-12.19-24.1-26.41-24.1-12.19,0-24.38,12.05-24.38,24.1s12.19,24.11,26.41,24.11c12.19,0,24.38-12.05,24.38-24.11Z" transform="translate(-94.21 -75.45)"/><path class="cls-7" d="M224.75,560.07c4.06,10,2,20.08,2,32.14-8.13,12-12.19,24.1-26.42,32.14-26.41,16.07-61,8-77.2-18.08S115,544,143.47,529.93c26.42-16.07,61-6,77.21,20.09,2,4,2,8,4.07,10.05Zm-54.86,42.18c12.19,0,24.38-10,24.38-22.1S184.11,554,169.89,554c-12.19,0-24.38,12.05-24.38,24.1a30.1,30.1,0,0,0,24.38,24.11Z" transform="translate(-94.21 -75.45)"/><path class="cls-7" d="M521.39,517.88H440.12c-22.35,0-40.64-18.08-40.64-40.18V296.91c0-22.09,18.29-40.17,40.64-40.17h81.27c22.35,0,40.63,18.08,40.63,40.17V477.7c0,22.1-18.28,40.18-40.63,40.18Z" transform="translate(-94.21 -75.45)"/><path class="cls-8" d="M444.18,459.63c4.06-6,2-10.05,0-14.07-4.06-4-8.13-4-14.22-2-4.07-4-6.1-10.05-6.1-16.07v-2c6.1-2,8.13-6,8.13-12.06s-4.07-8-10.16-10c2-6,4.06-10,6.09-16.07,6.1,4,10.16,4,14.23,0s4.06-10,0-16.07c6.09-2,12.19-4,16.25-8,2,6,6.1,10.05,12.19,10.05,4.07,0,8.13-2,10.16-10.05,6.1,2,12.19,4,18.29,8-4.07,6-4.07,10,0,16.07,4.06,4,8.12,4,14.22,0,2,6,4.06,10,6.1,16.07-6.1,2-10.16,6-10.16,12.05s4.06,10.05,10.16,10.05c-2,6-4.07,12-6.1,16.07-4.06,0-8.13-2-10.16-2s-4.06,2-6.09,4c-4.07,4-4.07,8,0,16.07-6.1,2-10.16,4-16.26,6a2,2,0,0,1-2-2c2-2-2-6-8.13-6s-8.12,4-10.16,10c-6.09-2-12.19-4-16.25-8Zm10.16-44.2c0,10.05,8.13,18.08,16.25,18.08,10.16,0,16.26-8,16.26-18.08s-8.13-16.07-16.26-18.08c-8.12,2-16.25,10-16.25,18.08Z" transform="translate(-94.21 -75.45)"/><path class="cls-8" d="M539.67,341.11l6.1,6c-4.07,6-4.07,10.05,4.06,10.05v8c-2,0-6.09,0-6.09,4-2,4,0,4,2,8l-6.1,6a2,2,0,0,1-2-2c-4.06-2-6.09,0-8.13,4a4.34,4.34,0,0,1-4.06,4h-6.09c0-8-6.1-8-10.16-4l-6.1-6,2-2c2-4,0-8-4.06-8-2,0-2-2-2-4v-6c8.12-2,8.12-6,4.06-12.06l6.1-6,2,2c4.06,2,8.13,0,8.13-4a2,2,0,0,1,2-2h6.09c2,8,6.1,8,12.19,4Zm-6.09,20.08c0-4-4.07-8-8.13-8s-8.13,4-8.13,8,4.07,8,8.13,8c4.06,2,8.13-2,8.13-8Z" transform="translate(-94.21 -75.45)"/><path class="cls-8" d="M492.94,302.94c2,2,6.1,4,8.13,8C495,321,499,325,509.2,325v12a11.18,11.18,0,0,0-10.16,6c-2,4,0,6,4.06,10-2,4-6.09,6-8.13,10-2-2-2-2-4.06-2-4.06-2-10.16,0-10.16,6,0,4-2,4-4.06,4h-8.13c-2-10.05-10.16-12.05-14.22-6l-8.13-8a2,2,0,0,1,2-2c2-4,0-10.05-4.06-12.05-4.06,0-4.06-2-4.06-4v-8c10.15-2,12.19-8,6.09-16.07,2-2,6.1-6,8.13-10,2,0,2,2,4.06,2,4.07,2,10.16,0,10.16-6,0-4,2-4,4.06-4h8.13c0,10,6.1,12.06,12.19,6Zm-8.13,28.12c0-6-6.09-12.05-12.19-12.05s-12.19,6-12.19,12.05,6.1,12.06,12.19,12.06q12.19,0,12.19-12.06Z" transform="translate(-94.21 -75.45)"/></g><polygon class="cls-2" points="0.5 603.32 609.79 603.32 609.79 0.5 0.5 0.5 0.5 603.32 0.5 603.32"/></g><polygon class="cls-9" points="0.5 603.32 609.79 603.32 609.79 0.5 0.5 0.5 0.5 603.32 0.5 603.32"/></svg>