<svg id="Layer_1" data-name="Layer 1" xmlns="http://www.w3.org/2000/svg" viewBox="0 0 662.85 310.5"><title>Metamessages workflow</title><path d="M321.2,302.78v23.94h25.47Z" transform="translate(-47.15 -221)"/><path d="M217.5,396.65h25.61L217.5,372.56Z" transform="translate(-47.15 -221)"/><path d="M213.52,406.92c-4.83,0-6.33-1.55-6.33-6.41V365.94H117.63V531.5H250.54V406.92Zm-81.72-22h55.84c4,0,6,1.73,5.86,5s-2.05,5-6.09,5H131.8c-4.16,0-6.47-1.81-6.53-5s2.28-5.1,6.53-5.1Zm-5.86,31.35a4.95,4.95,0,0,1,4.77-7.29H187c4.59,0,6.61,1.58,6.58,5.1s-2,4.91-6.43,4.91H131.5a5.35,5.35,0,0,1-5.53-2.81Zm102.45,96.94H140.61c-4.45,0-6.3-1.28-6.59-4.42s1.55-5.5,5.39-5.56h88.77c3.95,0,5.86,1.61,5.86,4.71s-1.7,5.16-5.62,5.19Zm-.53-27H140.05c-2.93,0-5.12-.71-5.85-3.69-1-3.75,1.34-6.35,5.85-6.35h88.16c4.1,0,6,1.61,6.06,4.92s-2.11,4.94-6.38,4.94Zm.35-26.61H139.73c-3.81,0-5.86-1.73-5.86-4.92s1.85-5.06,5.59-5.06H228c2.92,0,5.12.5,5.85,3.63,1.14,3.69-1.14,6.26-5.56,6.26Z" transform="translate(-47.15 -221)"/><path d="M184.22,227.47v39.78h42.29Z" transform="translate(-47.15 -221)"/><path d="M74,267.22H143.8V245.15H74Z" transform="translate(-47.15 -221)"/><path d="M276.65,363h25.5l-25.5-24Z" transform="translate(-47.15 -221)"/><path d="M272.67,373.67c-5,0-6.29-1.37-6.29-6.35V336.38a21.24,21.24,0,0,0-.21-3.6H176.84v22.86H210a9.55,9.55,0,0,1,7.14,2.93q20.22,19.26,40.68,38.37a9,9,0,0,1,2.93,7.29V495a23.53,23.53,0,0,0,.18,3.54h48.76V373.76h-37Z" transform="translate(-47.15 -221)"/><path d="M318.71,337.06c-7,0-7.72-.77-7.72-7.88v-32.9H222.18V322h47.13a9.72,9.72,0,0,1,7.34,2.93q20.12,19.14,40.45,38a8.74,8.74,0,0,1,2.93,7v91.59h34.31V336.88Z" transform="translate(-47.15 -221)"/><path d="M166.07,355.11V328.63c0-5.1,1.41-6.47,6.56-6.47h38.6V292.89c0-5.86,1.29-7,7.09-7H234v-8.46H181.29c-5.85,0-7.11-1.34-7.11-7V221h-127V452.56h60.38V362.11c0-5.85,1.32-7,7-7.05h51.49Zm-25.38-30.73q-7.94,8.08-16,16a5.15,5.15,0,0,1-7.25.71,4.77,4.77,0,0,1-.71-.71c-5.36-5.15-10.59-10.42-15.78-15.75a4.92,4.92,0,1,1,6.78-7.12l.19.19c2.31,2.22,4.45,4.65,7.26,7.64V301.08H70.09c-4.27,0-6.32-1.7-6.26-5.09s2.08-4.89,6.15-4.89h49.58c5,0,6.47,1.58,6.47,6.65v26.34l.91.32c2.22-2.34,4.36-4.71,6.67-7a4.93,4.93,0,0,1,6.9-.86,4.28,4.28,0,0,1,.45.4,4.76,4.76,0,0,1,.43,6.73,4.65,4.65,0,0,1-.73.67Zm13.35-53c0,4.42-1.55,6.12-5.85,6.12H70c-4.28,0-6.06-1.81-6.06-6.12V241.08c0-4.71,1.49-6.15,6.2-6.15h77.19c5.53,0,6.88,1.35,6.88,6.85q-.15,14.79-.18,29.59Z" transform="translate(-47.15 -221)"/><path d="M685.57,322.07v17.66h18.78Z" transform="translate(-47.15 -221)"/><path d="M609.1,391.29H628L609.1,373.53Z" transform="translate(-47.15 -221)"/><path d="M606.16,398.87c-3.56,0-4.66-1.15-4.66-4.73V368.65h-66V490.73h98V398.87ZM545.9,382.61h41.18c3,0,4.43,1.28,4.32,3.72s-1.51,3.67-4.49,3.67h-41c-3.06,0-4.77-1.34-4.81-3.69s1.68-3.76,4.81-3.76Zm-4.32,23.12a3.64,3.64,0,0,1,3.52-5.37h41.49c3.38,0,4.87,1.16,4.85,3.75s-1.51,3.63-4.75,3.63h-41a4,4,0,0,1-4.08-2.07Zm75.55,71.49H552.4c-3.28,0-4.64-1-4.86-3.26s1.15-4.06,4-4.1H617c2.91,0,4.31,1.18,4.31,3.47s-1.25,3.8-4.14,3.82Zm-.39-20H552c-2.16,0-3.78-.52-4.32-2.72-.73-2.76,1-4.68,4.32-4.68h65c3,0,4.44,1.19,4.46,3.62s-1.55,3.65-4.7,3.65Zm.26-19.62H551.75c-2.81,0-4.32-1.27-4.32-3.62s1.36-3.74,4.13-3.74H616.8c2.16,0,3.78.37,4.32,2.68.84,2.72-.84,4.62-4.1,4.62Z" transform="translate(-47.15 -221)"/><path d="M584.56,266.54v29.33h31.18Z" transform="translate(-47.15 -221)"/><path d="M503.3,295.85h51.45V279.58H503.3Z" transform="translate(-47.15 -221)"/><path d="M652.72,366.49h18.8l-18.8-17.7Z" transform="translate(-47.15 -221)"/><path d="M649.78,374.35c-3.67,0-4.64-1-4.64-4.69V346.85a16.07,16.07,0,0,0-.15-2.65H579.12v16.85h24.43a7.07,7.07,0,0,1,5.27,2.16q14.91,14.21,30,28.3a6.6,6.6,0,0,1,2.16,5.37v66.91a17.69,17.69,0,0,0,.13,2.61h35.95v-92h-27.3Z" transform="translate(-47.15 -221)"/><path d="M683.73,347.35c-5.13,0-5.69-.56-5.69-5.81V317.28H612.55v19H647.3a7.19,7.19,0,0,1,5.42,2.15q14.82,14.11,29.83,28.06a6.47,6.47,0,0,1,2.15,5.14v67.53H710V347.22Z" transform="translate(-47.15 -221)"/><path d="M571.18,360.66V341.13c0-3.75,1-4.77,4.83-4.77h28.47V314.78c0-4.32.95-5.14,5.22-5.14h11.55V303.4H582.4c-4.32,0-5.25-1-5.25-5.15V261.77H483.48V432.52H528v-66.7c0-4.31,1-5.18,5.2-5.2h38ZM552.46,338c-3.9,4-7.83,7.92-11.8,11.81a3.81,3.81,0,0,1-5.35.52,3.2,3.2,0,0,1-.52-.52c-3.95-3.8-7.82-7.69-11.64-11.61a3.63,3.63,0,0,1,5-5.26l.14.14c1.7,1.64,3.28,3.43,5.35,5.63V320.82H500.4c-3.15,0-4.66-1.25-4.62-3.75s1.54-3.61,4.54-3.61h36.56c3.65,0,4.77,1.17,4.77,4.9v19.43l.67.23c1.64-1.72,3.21-3.47,4.92-5.13a3.63,3.63,0,0,1,5.09-.64l.33.29a3.53,3.53,0,0,1,.32,5,3.15,3.15,0,0,1-.54.49Zm9.84-39.09c0,3.26-1.14,4.52-4.31,4.52H500.32c-3.15,0-4.47-1.34-4.47-4.52V276.58c0-3.48,1.1-4.54,4.57-4.54h56.92c4.08,0,5.07,1,5.07,5q-.1,10.91-.13,21.82Z" transform="translate(-47.15 -221)"/><polygon points="320.85 150 398.85 150 388.85 139 421.85 152 388.85 168 400.85 155 320.85 155 320.85 150"/></svg>