<svg id="Layer_1" data-name="Layer 1" xmlns="http://www.w3.org/2000/svg" viewBox="0 0 670.39 670.39"><defs><style>.cls-1{fill:#fff;}</style></defs><title>Monitoring and Auditing</title><path class="cls-1" d="M39,41.5H709.39V711.89H39Zm186.71,473v9q0,68.58,0,137.18c0,24.5,16.42,40.82,41,41,4.14,0,8.28,0,12.41,0q183.25,0,366.49,0c24.13,0,41.55-16.21,41.57-39.11q.14-236.16-.12-472.32a15.11,15.11,0,0,0-4-9.65c-40.18-40.5-80.63-80.74-120.84-121.21a20.08,20.08,0,0,0-15.53-6.42q-139.14.24-278.28.12c-26.74,0-42.7,15.94-42.7,42.57,0,45.08-.07,90.15.11,135.23,0,4.9-1.16,7.68-5.81,10.12-69.51,36.33-99.53,118.2-70,190.77,1.81,4.44,1.51,7.22-2.05,10.73-24,23.69-47.8,47.67-71.7,71.49-9.81,9.78-15.66,21.4-16.28,35.29-1,22.76,11.12,42.6,31.1,51.45,20.41,9,43.3,4.72,59.6-11.49q34.52-34.32,68.85-68.8C221.13,518.78,222.84,517.22,225.71,514.5Z" transform="translate(-39 -41.5)"/><path d="M225.71,514.5c-2.87,2.72-4.58,4.28-6.22,5.91q-34.43,34.4-68.85,68.8c-16.3,16.21-39.19,20.53-59.6,11.49-20-8.85-32.11-28.69-31.1-51.45.62-13.89,6.47-25.51,16.28-35.29,23.9-23.82,47.66-47.8,71.7-71.49,3.56-3.51,3.86-6.29,2.05-10.73-29.5-72.57.52-154.44,70-190.77,4.65-2.44,5.83-5.22,5.81-10.12-.18-45.08-.11-90.15-.11-135.23,0-26.63,16-42.57,42.7-42.57q139.14,0,278.28-.12a20.08,20.08,0,0,1,15.53,6.42c40.21,40.47,80.66,80.71,120.84,121.21a15.11,15.11,0,0,1,4,9.65q.29,236.16.12,472.32c0,22.9-17.44,39.1-41.57,39.11q-183.24,0-366.49,0c-4.13,0-8.27,0-12.41,0-24.56-.19-40.95-16.51-41-41q-.08-68.6,0-137.18Zm19.65,6.15v6.82q0,65.67,0,131.33c0,16,7.11,23.18,23,23.19H644.69c15.47,0,22.88-7.37,22.88-22.71q0-226.72,0-453.45v-7.44h-7.88c-25.48,0-51,0-76.45,0-24.93-.05-41.29-16.36-41.36-41.29-.07-25.7,0-51.4,0-77.1V72.7H535q-133.62,0-267.23,0c-15,0-22.39,7.4-22.4,22.45q0,63.7,0,127.41v6.61c71.06-16,130.06,1.9,170.66,62.43,36.08,53.79,36.3,111.75.55,165.81C376,518.8,316.64,536.71,245.36,520.65ZM422,375.19c0-72.6-59-132.07-131.29-132.29-72.7-.21-132.42,59.16-132.57,131.81s59.23,132.15,132.07,132.11C362.85,506.79,422,447.76,422,375.19ZM209,503a153.4,153.4,0,0,1-46.62-46.21,8.09,8.09,0,0,0-1.83.78C136.41,481.68,112,505.64,88.15,530.1c-12.49,12.81-11.52,33.41,1.2,46s33.14,13.1,46,.49C160,552.5,184.06,528,209,503ZM652.86,178.68l-89.4-91.55-1.75,1.38c0,24.55-.31,49.1.16,73.63.17,8.75,8.54,16.32,17.52,16.44C603.52,178.89,627.66,178.68,652.86,178.68Z" transform="translate(-39 -41.5)"/><path d="M555.13,510.11H497c-1.74,0-3.8.55-5.15-.2-2-1.1-3.47-3.12-5.16-4.76,1.67-1.63,3.15-3.58,5.1-4.78,1.11-.68,3-.16,4.5-.16q58.79,0,117.58,0c1.95,0,4.25-.43,5.76.43a7.2,7.2,0,0,1,3.31,4.8c.1,1.33-1.76,3.4-3.24,4.12-1.63.79-3.82.52-5.77.53Q584.52,510.13,555.13,510.11Z" transform="translate(-39 -41.5)"/><path d="M526.15,318.44q-22.8,0-45.6,0c-3.78,0-8.22.27-8.37-4.81s4.15-5.23,8-5.23q45.93,0,91.87,0c3.74,0,8.14-.19,8,5.16s-4.58,4.84-8.29,4.84Z" transform="translate(-39 -41.5)"/><path d="M522.83,436.26h44.34c3.82,0,8.08-.11,8,5.19-.1,4.8-4.14,4.82-7.72,4.82q-45,0-90,0c-3.66,0-7.61-.21-7.64-4.93,0-5.25,4.23-5.1,8-5.1Q500.34,436.28,522.83,436.26Z" transform="translate(-39 -41.5)"/><path d="M515.32,637.75q-24.81,0-49.63,0c-3.58,0-7.73.18-7.86-4.6-.14-5.28,4.22-5,8-5q50.29,0,100.57,0c3.66,0,7.58,0,7.52,4.9s-4.1,4.76-7.69,4.76Z" transform="translate(-39 -41.5)"/><path d="M385.44,628.12q21.87,0,43.72,0c3.67,0,7.45.06,7.3,5.08-.14,4.63-3.82,4.55-7.18,4.55H342.51c-3.68,0-7.5-.14-7.32-5.09.16-4.43,3.73-4.58,7.19-4.57C356.74,628.14,371.09,628.11,385.44,628.12Z" transform="translate(-39 -41.5)"/><path d="M580.67,382.38c-11.3,0-22.6.27-33.87-.22-2.49-.11-6.59-2.65-6.93-4.59-.79-4.59,3.27-5.26,7-5.26,23,0,46-.13,69.05.22,2.43,0,6.54,2.65,6.89,4.6.84,4.64-3.26,5.25-7,5.25Z" transform="translate(-39 -41.5)"/><path d="M333.79,573.91c-12.37,0-24.74,0-37.11,0-3.43,0-6.94-.33-6.88-4.89s3.4-4.86,6.93-4.86c24.74,0,49.48-.1,74.22.22,2.23,0,5.92,2.52,6.32,4.42.92,4.33-2.84,5.11-6.36,5.11C358.54,573.93,346.17,573.91,333.79,573.91Z" transform="translate(-39 -41.5)"/><path d="M439.49,573.91H406.28c-3.68,0-7.63-.3-7.48-5s4.08-4.75,7.76-4.75q33.21.09,66.43,0c3.56,0,7.61-.21,7.72,4.69.13,5.46-4.32,5-8,5C461.64,574,450.57,573.92,439.49,573.91Z" transform="translate(-39 -41.5)"/><path d="M543.37,564.17c11.29,0,22.58,0,33.87,0,3.59,0,7.25.74,6.48,5-.35,1.9-4,4.51-6.21,4.54q-34.51.49-69,0c-2.22,0-6-2.73-6.27-4.59-.56-4.06,3-5,6.64-5C520.36,564.21,531.86,564.16,543.37,564.17Z" transform="translate(-39 -41.5)"/><path d="M537.3,254.49c-9.33,0-18.67.3-28-.22-2.24-.12-4.33-3-6.5-4.54,2.05-1.7,4.07-4.85,6.15-4.89q28.62-.57,57.27,0c2.08,0,4.1,3.18,6.15,4.88-2.15,1.59-4.23,4.44-6.46,4.56C556.41,254.78,546.85,254.49,537.3,254.49Z" transform="translate(-39 -41.5)"/><path d="M327,190.53c-10.22,0-20.46.27-30.67-.21-2.27-.11-5.91-2.55-6.3-4.46-.89-4.37,2.91-5.06,6.43-5.06q30.67,0,61.36,0c3.49,0,7,.46,6.89,4.95s-3.48,4.82-7,4.8C347.47,190.5,337.24,190.53,327,190.53Z" transform="translate(-39 -41.5)"/><path d="M467.63,126.58c-9.78,0-19.57-.06-29.35,0-3.64,0-7.24-.81-6.65-4.94.26-1.83,4.07-4.46,6.31-4.5q30-.52,60,0c2.19,0,5.86,2.62,6.2,4.5.78,4.36-2.95,5-6.51,4.93C487.64,126.55,477.63,126.58,467.63,126.58Z" transform="translate(-39 -41.5)"/><path d="M374.85,126.58c-9.15,0-18.3,0-27.44,0-3.6,0-7.29-.69-6.42-5,.37-1.88,4.06-4.37,6.29-4.41,18.72-.35,37.45-.19,56.18-.21,3.55,0,7.32.62,6.45,5-.38,1.88-4.05,4.29-6.32,4.41C394,126.86,384.43,126.58,374.85,126.58Z" transform="translate(-39 -41.5)"/><path d="M420.77,190.53c-9.33,0-18.67-.06-28,0-3.68,0-7.2-.91-6.46-5.05.33-1.88,4.07-4.46,6.3-4.51q28.32-.54,56.66,0c2.19,0,5.92,2.77,6.18,4.63.57,4.14-3.06,5-6.67,4.92C439.44,190.48,430.11,190.53,420.77,190.53Z" transform="translate(-39 -41.5)"/><path d="M450.53,254.49c-7.83,0-15.68.35-23.47-.21-2.32-.16-5.95-2.52-6.37-4.44-.93-4.27,2.76-5.22,6.33-5.23q23.82,0,47.64,0c3.53,0,7,.7,7,5s-3.33,5-7,5C466.63,254.44,458.58,254.49,450.53,254.49Z" transform="translate(-39 -41.5)"/><path d="M442.79,500.22c5.63,0,11.31-.43,16.87.22,2.09.24,3.88,3,5.81,4.57-1.85,1.69-3.65,4.75-5.57,4.83-11.24.46-22.52.46-33.76,0-2-.08-3.83-3-5.74-4.62,2.05-1.67,4-4.5,6.18-4.8C431.9,499.73,437.38,500.21,442.79,500.22Z" transform="translate(-39 -41.5)"/><path d="M501.85,382.35c-3.48,0-7.11.62-10.36-.22-2.13-.56-3.71-3.24-5.54-5,1.74-1.6,3.39-4.44,5.23-4.57a152.35,152.35,0,0,1,22.1,0c1.83.13,3.47,3,5.2,4.61-1.85,1.71-3.48,4.4-5.62,4.91C509.36,383,505.53,382.34,501.85,382.35Z" transform="translate(-39 -41.5)"/><path d="M608.1,254.43c-3.26,0-6.64.53-9.72-.19-1.86-.44-4.76-3.11-4.54-4.24.4-2,2.73-4.89,4.46-5a116.66,116.66,0,0,1,20.13,0c1.71.15,3.18,3.2,4.76,4.91-1.78,1.54-3.35,3.92-5.38,4.42-3.07.76-6.46.2-9.71.2Z" transform="translate(-39 -41.5)"/><path d="M304.18,126.53c-3.26,0-6.65.51-9.75-.2-1.79-.41-4.6-3.12-4.36-4.23.42-1.92,2.75-4.7,4.46-4.84a128.51,128.51,0,0,1,20.2,0c1.69.13,3.2,2.78,4.79,4.28-1.63,1.67-3,4.33-4.95,4.79C311.28,127.11,307.66,126.53,304.18,126.53Z" transform="translate(-39 -41.5)"/><path d="M610.47,436.32c2.6,0,5.45-.65,7.74.19,2,.74,4.24,3,4.63,4.92.26,1.23-2.54,4.33-4.17,4.49a92.6,92.6,0,0,1-17.54,0c-1.66-.16-4.49-3.19-4.26-4.44a7.61,7.61,0,0,1,4.55-5C604.2,435.69,607.43,436.32,610.47,436.32Z" transform="translate(-39 -41.5)"/><path d="M608.88,637.7c-2.81,0-5.8.58-8.39-.19-2-.6-3.5-2.89-5.23-4.43,1.63-1.64,3.14-4.51,4.91-4.69a92.4,92.4,0,0,1,18.14,0c1.76.17,3.26,3.07,4.87,4.72-1.73,1.53-3.25,3.86-5.26,4.4C615.1,638.28,611.91,637.71,608.88,637.7Z" transform="translate(-39 -41.5)"/><path d="M490.82,190.47c-3,0-6.25.62-9.05-.2a8,8,0,0,1-4.64-4.86c-.28-1,2.64-4.14,4.28-4.27a112.64,112.64,0,0,1,18.82,0c1.53.14,4,3.08,3.91,4.64s-2.47,4-4.26,4.44C497,191,493.86,190.46,490.82,190.47Z" transform="translate(-39 -41.5)"/><path d="M302.33,628.2c2.39,0,5-.62,7.1.18,1.81.7,4.14,3,4.13,4.59s-2.54,4.28-4.18,4.46a74,74,0,0,1-15.61,0c-1.47-.15-3.89-2.88-3.73-4.15a6.87,6.87,0,0,1,3.87-4.82C296.48,627.61,299.5,628.21,302.33,628.2Z" transform="translate(-39 -41.5)"/><path d="M612.4,308.32c4,.83,10.56-1.9,10.51,5.15s-6.5,4.83-10.65,4.86-10.7,1.95-10.69-4.88S608.09,309,612.4,308.32Z" transform="translate(-39 -41.5)"/><path d="M614.59,563.16c2.93,1.24,5.82,1.8,7.66,3.51.88.8-.1,5.48-.49,5.51a93.65,93.65,0,0,1-15,.14c-.44,0-1.49-4.88-.76-5.42C608.43,565.17,611.53,564.4,614.59,563.16Z" transform="translate(-39 -41.5)"/><path d="M289.82,481.92c-58.76-.09-106.61-48-106.77-106.93s48.77-107.61,107.36-107.16c59,.46,106.7,48.37,106.67,107.1A107.08,107.08,0,0,1,289.82,481.92Zm97.49-106.17c.62-53-42.72-97.32-95.76-97.89-53.6-.57-97.77,42-98.49,95-.75,54.6,41.85,98.59,96.23,99.36C342.39,473,386.68,429.37,387.31,375.75Z" transform="translate(-39 -41.5)"/><path d="M290.86,416.8c-23.63-.61-41.13-11.91-56.93-26.52-16-14.81-16.11-15.77-.12-30.38a141.7,141.7,0,0,1,22.37-16.78c23.5-14.09,47.43-13.48,70.11,1.47,10.59,7,19.6,16.38,29.24,24.77,4,3.5,4.08,6.95.29,11.1-15.39,16.84-32.51,30.83-55.67,35.32C296.75,416.44,293.25,416.55,290.86,416.8Zm56.21-41.64c-37.79-42.76-77.65-42.48-113.59.11C271.13,417.11,308.39,417.41,347.07,375.16Z" transform="translate(-39 -41.5)"/><path d="M311,375.05a20.66,20.66,0,0,1-21.19,20.81A20.94,20.94,0,0,1,269,374.51a21.2,21.2,0,0,1,21-20.62A21,21,0,0,1,311,375.05Zm-20.74-11.13a10.79,10.79,0,0,0-11.21,10.91A11.18,11.18,0,0,0,290,386.21a11.48,11.48,0,0,0,11.37-11.07A11.18,11.18,0,0,0,290.26,363.92Z" transform="translate(-39 -41.5)"/></svg>